0
SECTION
2
ENTITIES
0
LINE
8
FCrtYd
62
7
10
48.375
20
-142.05
11
48.375
21
-135.95
0
LINE
8
FCrtYd
62
7
10
51.925
20
-142.05
11
48.375
21
-142.05
0
LINE
8
FCrtYd
62
7
10
48.375
20
-135.95
11
51.925
21
-135.95
0
LINE
8
FCrtYd
62
7
10
51.925
20
-135.95
11
51.925
21
-142.05
0
LINE
8
FFab
62
5
10
51.445
20
-141.56
11
48.905
21
-141.56
0
LINE
8
FFab
62
5
10
51.445
20
-137.115
11
51.445
21
-141.56
0
LINE
8
FFab
62
5
10
50.81
20
-136.48
11
51.445
21
-137.115
0
LINE
8
FFab
62
5
10
48.905
20
-136.48
11
50.81
21
-136.48
0
LINE
8
FFab
62
5
10
48.905
20
-141.56
11
48.905
21
-136.48
0
LINE
8
FCrtYd
62
7
10
18.1
20
-148.8
11
18.1
21
-154.2
0
LINE
8
FCrtYd
62
7
10
25.9
20
-148.8
11
18.1
21
-148.8
0
LINE
8
FCrtYd
62
7
10
18.1
20
-154.2
11
25.9
21
-154.2
0
LINE
8
FCrtYd
62
7
10
25.9
20
-154.2
11
25.9
21
-148.8
0
LINE
8
FFab
62
5
10
18.85
20
-153.45
11
18.85
21
-149.55
0
LINE
8
FFab
62
5
10
18.85
20
-153.45
11
19.25
21
-153.45
0
LINE
8
FFab
62
5
10
25.15
20
-149.55
11
25.15
21
-153.45
0
LINE
8
FFab
62
5
10
19.25
20
-149.15
11
19.35
21
-149.05
0
LINE
8
FFab
62
5
10
24.75
20
-149.15
11
24.75
21
-149.55
0
LINE
8
FFab
62
5
10
25.15
20
-153.45
11
24.75
21
-153.45
0
LINE
8
FFab
62
5
10
18.85
20
-149.55
11
19.25
21
-149.55
0
LINE
8
FFab
62
5
10
24.65
20
-149.05
11
24.75
21
-149.15
0
LINE
8
FFab
62
5
10
24.75
20
-153.45
11
24.75
21
-153.85
0
LINE
8
FFab
62
5
10
24.65
20
-149.05
11
19.35
21
-149.05
0
LINE
8
FFab
62
5
10
24.75
20
-153.85
11
24.65
21
-153.95
0
LINE
8
FFab
62
5
10
19.25
20
-149.55
11
19.25
21
-149.15
0
LINE
8
FFab
62
5
10
24.75
20
-149.55
11
25.15
21
-149.55
0
LINE
8
FFab
62
5
10
19.25
20
-153.85
11
19.35
21
-153.95
0
LINE
8
FFab
62
5
10
19.25
20
-153.45
11
19.25
21
-153.85
0
LINE
8
FFab
62
5
10
19.35
20
-153.95
11
24.65
21
-153.95
0
LINE
8
FCrtYd
62
7
10
18.1
20
-120.0
11
25.9
21
-120.0
0
LINE
8
FCrtYd
62
7
10
25.9
20
-120.0
11
25.9
21
-114.6
0
LINE
8
FCrtYd
62
7
10
25.9
20
-114.6
11
18.1
21
-114.6
0
LINE
8
FCrtYd
62
7
10
18.1
20
-114.6
11
18.1
21
-120.0
0
LINE
8
FFab
62
5
10
25.15
20
-119.25
11
24.75
21
-119.25
0
LINE
8
FFab
62
5
10
19.25
20
-115.35
11
19.25
21
-114.95
0
LINE
8
FFab
62
5
10
25.15
20
-115.35
11
25.15
21
-119.25
0
LINE
8
FFab
62
5
10
18.85
20
-115.35
11
19.25
21
-115.35
0
LINE
8
FFab
62
5
10
18.85
20
-119.25
11
18.85
21
-115.35
0
LINE
8
FFab
62
5
10
24.75
20
-114.95
11
24.75
21
-115.35
0
LINE
8
FFab
62
5
10
18.85
20
-119.25
11
19.25
21
-119.25
0
LINE
8
FFab
62
5
10
19.25
20
-114.95
11
19.35
21
-114.85
0
LINE
8
FFab
62
5
10
24.75
20
-115.35
11
25.15
21
-115.35
0
LINE
8
FFab
62
5
10
24.75
20
-119.65
11
24.65
21
-119.75
0
LINE
8
FFab
62
5
10
19.35
20
-119.75
11
24.65
21
-119.75
0
LINE
8
FFab
62
5
10
19.25
20
-119.25
11
19.25
21
-119.65
0
LINE
8
FFab
62
5
10
24.65
20
-114.85
11
24.75
21
-114.95
0
LINE
8
FFab
62
5
10
24.65
20
-114.85
11
19.35
21
-114.85
0
LINE
8
FFab
62
5
10
19.25
20
-119.65
11
19.35
21
-119.75
0
LINE
8
FFab
62
5
10
24.75
20
-119.25
11
24.75
21
-119.65
0
CIRCLE
8
FCrtYd
62
7
10
22.3
20
-159.3
40
5.25
0
LINE
8
FFab
62
5
10
24.9875
20
-155.511139
11
23.9875
21
-155.511139
0
LINE
8
FFab
62
5
10
24.4875
20
-155.011139
11
24.4875
21
-156.011139
0
CIRCLE
8
FFab
62
5
10
22.3
20
-159.3
40
5.0
0
LINE
8
FCrtYd
62
7
10
116.414729
20
-111.428803
11
116.414729
21
-107.828803
0
LINE
8
FCrtYd
62
7
10
110.264729
20
-111.428803
11
116.414729
21
-111.428803
0
LINE
8
FCrtYd
62
7
10
116.414729
20
-107.828803
11
110.264729
21
-107.828803
0
LINE
8
FCrtYd
62
7
10
110.264729
20
-107.828803
11
110.264729
21
-111.428803
0
LINE
8
FFab
62
5
10
115.874729
20
-108.358803
11
115.874729
21
-110.898803
0
LINE
8
FFab
62
5
10
110.794729
20
-108.358803
11
115.874729
21
-108.358803
0
LINE
8
FFab
62
5
10
110.794729
20
-110.263803
11
110.794729
21
-108.358803
0
LINE
8
FFab
62
5
10
111.429729
20
-110.898803
11
110.794729
21
-110.263803
0
LINE
8
FFab
62
5
10
115.874729
20
-110.898803
11
111.429729
21
-110.898803
0
LINE
8
FCrtYd
62
7
10
100.939398
20
-160.43814
11
100.939398
21
-164.03814
0
LINE
8
FCrtYd
62
7
10
100.939398
20
-164.03814
11
107.089398
21
-164.03814
0
LINE
8
FCrtYd
62
7
10
107.089398
20
-160.43814
11
100.939398
21
-160.43814
0
LINE
8
FCrtYd
62
7
10
107.089398
20
-164.03814
11
107.089398
21
-160.43814
0
LINE
8
FFab
62
5
10
101.479398
20
-160.96814
11
105.924398
21
-160.96814
0
LINE
8
FFab
62
5
10
106.559398
20
-161.60314
11
106.559398
21
-163.50814
0
LINE
8
FFab
62
5
10
101.479398
20
-163.50814
11
101.479398
21
-160.96814
0
LINE
8
FFab
62
5
10
105.924398
20
-160.96814
11
106.559398
21
-161.60314
0
LINE
8
FFab
62
5
10
106.559398
20
-163.50814
11
101.479398
21
-163.50814
0
LINE
8
FCrtYd
62
7
10
95.8
20
-159.225
11
95.8
21
-162.775
0
LINE
8
FCrtYd
62
7
10
59.2
20
-162.775
11
59.2
21
-159.225
0
LINE
8
FCrtYd
62
7
10
95.8
20
-162.775
11
59.2
21
-162.775
0
LINE
8
FCrtYd
62
7
10
59.2
20
-159.225
11
95.8
21
-159.225
0
LINE
8
FFab
62
5
10
59.73
20
-160.34
11
60.365
21
-159.705
0
LINE
8
FFab
62
5
10
59.73
20
-162.245
11
59.73
21
-160.34
0
LINE
8
FFab
62
5
10
60.365
20
-159.705
11
95.29
21
-159.705
0
LINE
8
FFab
62
5
10
95.29
20
-162.245
11
59.73
21
-162.245
0
LINE
8
FFab
62
5
10
95.29
20
-159.705
11
95.29
21
-162.245
0
LINE
8
FCrtYd
62
7
10
65.1
20
-129.7
11
68.65
21
-129.7
0
LINE
8
FCrtYd
62
7
10
68.65
20
-135.8
11
65.1
21
-135.8
0
LINE
8
FCrtYd
62
7
10
68.65
20
-129.7
11
68.65
21
-135.8
0
LINE
8
FCrtYd
62
7
10
65.1
20
-135.8
11
65.1
21
-129.7
0
LINE
8
FFab
62
5
10
65.63
20
-130.23
11
67.535
21
-130.23
0
LINE
8
FFab
62
5
10
68.17
20
-130.865
11
68.17
21
-135.31
0
LINE
8
FFab
62
5
10
65.63
20
-135.31
11
65.63
21
-130.23
0
LINE
8
FFab
62
5
10
68.17
20
-135.31
11
65.63
21
-135.31
0
LINE
8
FFab
62
5
10
67.535
20
-130.23
11
68.17
21
-130.865
0
LINE
8
FCrtYd
62
7
10
93.23
20
-107.925
11
93.23
21
-111.475
0
LINE
8
FCrtYd
62
7
10
76.98
20
-107.925
11
93.23
21
-107.925
0
LINE
8
FCrtYd
62
7
10
93.23
20
-111.475
11
76.98
21
-111.475
0
LINE
8
FCrtYd
62
7
10
76.98
20
-111.475
11
76.98
21
-107.925
0
LINE
8
FFab
62
5
10
78.145
20
-108.405
11
92.75
21
-108.405
0
LINE
8
FFab
62
5
10
77.51
20
-109.04
11
78.145
21
-108.405
0
LINE
8
FFab
62
5
10
92.75
20
-110.945
11
77.51
21
-110.945
0
LINE
8
FFab
62
5
10
92.75
20
-108.405
11
92.75
21
-110.945
0
LINE
8
FFab
62
5
10
77.51
20
-110.945
11
77.51
21
-109.04
0
LINE
8
FCrtYd
62
7
10
77.105
20
-107.9
11
65.905
21
-107.9
0
LINE
8
FCrtYd
62
7
10
77.105
20
-111.5
11
77.105
21
-107.9
0
LINE
8
FCrtYd
62
7
10
65.905
20
-107.9
11
65.905
21
-111.5
0
LINE
8
FCrtYd
62
7
10
65.905
20
-111.5
11
77.105
21
-111.5
0
LINE
8
FFab
62
5
10
66.435
20
-108.43
11
76.595
21
-108.43
0
LINE
8
FFab
62
5
10
76.595
20
-110.97
11
67.07
21
-110.97
0
LINE
8
FFab
62
5
10
67.07
20
-110.97
11
66.435
21
-110.335
0
LINE
8
FFab
62
5
10
66.435
20
-110.335
11
66.435
21
-108.43
0
LINE
8
FFab
62
5
10
76.595
20
-108.43
11
76.595
21
-110.97
0
LINE
8
FCrtYd
62
7
10
43.705
20
-107.9
11
43.705
21
-111.5
0
LINE
8
FCrtYd
62
7
10
54.905
20
-107.9
11
43.705
21
-107.9
0
LINE
8
FCrtYd
62
7
10
43.705
20
-111.5
11
54.905
21
-111.5
0
LINE
8
FCrtYd
62
7
10
54.905
20
-111.5
11
54.905
21
-107.9
0
LINE
8
FFab
62
5
10
44.235
20
-108.43
11
54.395
21
-108.43
0
LINE
8
FFab
62
5
10
44.87
20
-110.97
11
44.235
21
-110.335
0
LINE
8
FFab
62
5
10
44.235
20
-110.335
11
44.235
21
-108.43
0
LINE
8
FFab
62
5
10
54.395
20
-108.43
11
54.395
21
-110.97
0
LINE
8
FFab
62
5
10
54.395
20
-110.97
11
44.87
21
-110.97
0
LINE
8
FCrtYd
62
7
10
117.275
20
-164.0
11
117.275
21
-160.4
0
LINE
8
FCrtYd
62
7
10
111.125
20
-164.0
11
117.275
21
-164.0
0
LINE
8
FCrtYd
62
7
10
111.125
20
-160.4
11
111.125
21
-164.0
0
LINE
8
FCrtYd
62
7
10
117.275
20
-160.4
11
111.125
21
-160.4
0
LINE
8
FFab
62
5
10
111.665
20
-160.93
11
116.11
21
-160.93
0
LINE
8
FFab
62
5
10
116.11
20
-160.93
11
116.745
21
-161.565
0
LINE
8
FFab
62
5
10
111.665
20
-163.47
11
111.665
21
-160.93
0
LINE
8
FFab
62
5
10
116.745
20
-163.47
11
111.665
21
-163.47
0
LINE
8
FFab
62
5
10
116.745
20
-161.565
11
116.745
21
-163.47
0
CIRCLE
8
Cmts
62
1
10
41.0
20
-159.0
40
2.7
0
CIRCLE
8
FCrtYd
62
7
10
41.0
20
-159.0
40
2.95
0
LINE
8
FCrtYd
62
7
10
54.905
20
-111.5
11
66.105
21
-111.5
0
LINE
8
FCrtYd
62
7
10
66.105
20
-107.9
11
54.905
21
-107.9
0
LINE
8
FCrtYd
62
7
10
54.905
20
-107.9
11
54.905
21
-111.5
0
LINE
8
FCrtYd
62
7
10
66.105
20
-111.5
11
66.105
21
-107.9
0
LINE
8
FFab
62
5
10
55.435
20
-110.335
11
55.435
21
-108.43
0
LINE
8
FFab
62
5
10
56.07
20
-110.97
11
55.435
21
-110.335
0
LINE
8
FFab
62
5
10
55.435
20
-108.43
11
65.595
21
-108.43
0
LINE
8
FFab
62
5
10
65.595
20
-110.97
11
56.07
21
-110.97
0
LINE
8
FFab
62
5
10
65.595
20
-108.43
11
65.595
21
-110.97
0
CIRCLE
8
Cmts
62
1
10
41.0
20
-109.0
40
2.7
0
CIRCLE
8
FCrtYd
62
7
10
41.0
20
-109.0
40
2.95
0
CIRCLE
8
FCrtYd
62
7
10
22.0
20
-109.367677
40
5.25
0
LINE
8
FFab
62
5
10
19.8125
20
-113.656538
11
19.8125
21
-112.656538
0
LINE
8
FFab
62
5
10
19.3125
20
-113.156538
11
20.3125
21
-113.156538
0
CIRCLE
8
FFab
62
5
10
22.0
20
-109.367677
40
5.0
0
CIRCLE
8
FCrtYd
62
7
10
37.867677
20
-162.0
40
5.25
0
LINE
8
FFab
62
5
10
34.078816
20
-159.3125
11
34.078816
21
-160.3125
0
LINE
8
FFab
62
5
10
33.578816
20
-159.8125
11
34.578816
21
-159.8125
0
CIRCLE
8
FFab
62
5
10
37.867677
20
-162.0
40
5.0
0
LINE
8
FCrtYd
62
7
10
25.9
20
-126.4
11
25.9
21
-121.0
0
LINE
8
FCrtYd
62
7
10
25.9
20
-121.0
11
18.1
21
-121.0
0
LINE
8
FCrtYd
62
7
10
18.1
20
-126.4
11
25.9
21
-126.4
0
LINE
8
FCrtYd
62
7
10
18.1
20
-121.0
11
18.1
21
-126.4
0
LINE
8
FFab
62
5
10
18.85
20
-125.65
11
18.85
21
-121.75
0
LINE
8
FFab
62
5
10
25.15
20
-125.65
11
24.75
21
-125.65
0
LINE
8
FFab
62
5
10
24.65
20
-121.25
11
19.35
21
-121.25
0
LINE
8
FFab
62
5
10
19.25
20
-121.35
11
19.35
21
-121.25
0
LINE
8
FFab
62
5
10
19.25
20
-126.05
11
19.35
21
-126.15
0
LINE
8
FFab
62
5
10
24.75
20
-125.65
11
24.75
21
-126.05
0
LINE
8
FFab
62
5
10
24.75
20
-121.75
11
25.15
21
-121.75
0
LINE
8
FFab
62
5
10
25.15
20
-121.75
11
25.15
21
-125.65
0
LINE
8
FFab
62
5
10
19.25
20
-121.75
11
19.25
21
-121.35
0
LINE
8
FFab
62
5
10
24.75
20
-121.35
11
24.75
21
-121.75
0
LINE
8
FFab
62
5
10
24.75
20
-126.05
11
24.65
21
-126.15
0
LINE
8
FFab
62
5
10
19.25
20
-125.65
11
19.25
21
-126.05
0
LINE
8
FFab
62
5
10
19.35
20
-126.15
11
24.65
21
-126.15
0
LINE
8
FFab
62
5
10
18.85
20
-125.65
11
19.25
21
-125.65
0
LINE
8
FFab
62
5
10
24.65
20
-121.25
11
24.75
21
-121.35
0
LINE
8
FFab
62
5
10
18.85
20
-121.75
11
19.25
21
-121.75
0
LINE
8
FCrtYd
62
7
10
106.033635
20
-160.439472
11
106.033635
21
-164.039472
0
LINE
8
FCrtYd
62
7
10
112.183635
20
-160.439472
11
106.033635
21
-160.439472
0
LINE
8
FCrtYd
62
7
10
106.033635
20
-164.039472
11
112.183635
21
-164.039472
0
LINE
8
FCrtYd
62
7
10
112.183635
20
-164.039472
11
112.183635
21
-160.439472
0
LINE
8
FFab
62
5
10
106.573635
20
-160.969472
11
111.018635
21
-160.969472
0
LINE
8
FFab
62
5
10
111.653635
20
-163.509472
11
106.573635
21
-163.509472
0
LINE
8
FFab
62
5
10
111.653635
20
-161.604472
11
111.653635
21
-163.509472
0
LINE
8
FFab
62
5
10
106.573635
20
-163.509472
11
106.573635
21
-160.969472
0
LINE
8
FFab
62
5
10
111.018635
20
-160.969472
11
111.653635
21
-161.604472
0
LINE
8
FCrtYd
62
7
10
25.9
20
-141.8
11
18.1
21
-141.8
0
LINE
8
FCrtYd
62
7
10
18.1
20
-147.2
11
25.9
21
-147.2
0
LINE
8
FCrtYd
62
7
10
18.1
20
-141.8
11
18.1
21
-147.2
0
LINE
8
FCrtYd
62
7
10
25.9
20
-147.2
11
25.9
21
-141.8
0
LINE
8
FFab
62
5
10
18.85
20
-146.45
11
19.25
21
-146.45
0
LINE
8
FFab
62
5
10
24.65
20
-142.05
11
24.75
21
-142.15
0
LINE
8
FFab
62
5
10
19.25
20
-146.85
11
19.35
21
-146.95
0
LINE
8
FFab
62
5
10
25.15
20
-142.55
11
25.15
21
-146.45
0
LINE
8
FFab
62
5
10
25.15
20
-146.45
11
24.75
21
-146.45
0
LINE
8
FFab
62
5
10
18.85
20
-142.55
11
19.25
21
-142.55
0
LINE
8
FFab
62
5
10
24.75
20
-142.15
11
24.75
21
-142.55
0
LINE
8
FFab
62
5
10
24.75
20
-142.55
11
25.15
21
-142.55
0
LINE
8
FFab
62
5
10
19.25
20
-142.55
11
19.25
21
-142.15
0
LINE
8
FFab
62
5
10
24.65
20
-142.05
11
19.35
21
-142.05
0
LINE
8
FFab
62
5
10
24.75
20
-146.45
11
24.75
21
-146.85
0
LINE
8
FFab
62
5
10
19.35
20
-146.95
11
24.65
21
-146.95
0
LINE
8
FFab
62
5
10
19.25
20
-142.15
11
19.35
21
-142.05
0
LINE
8
FFab
62
5
10
24.75
20
-146.85
11
24.65
21
-146.95
0
LINE
8
FFab
62
5
10
19.25
20
-146.45
11
19.25
21
-146.85
0
LINE
8
FFab
62
5
10
18.85
20
-146.45
11
18.85
21
-142.55
0
LINE
8
FCrtYd
62
7
10
68.6875
20
-127.1
11
65.0875
21
-127.1
0
LINE
8
FCrtYd
62
7
10
68.6875
20
-130.7
11
68.6875
21
-127.1
0
LINE
8
FCrtYd
62
7
10
65.0875
20
-130.7
11
68.6875
21
-130.7
0
LINE
8
FCrtYd
62
7
10
65.0875
20
-127.1
11
65.0875
21
-130.7
0
LINE
8
FFab
62
5
10
65.6175
20
-128.265
11
66.2525
21
-127.63
0
LINE
8
FFab
62
5
10
65.6175
20
-130.17
11
65.6175
21
-128.265
0
LINE
8
FFab
62
5
10
66.2525
20
-127.63
11
68.1575
21
-127.63
0
LINE
8
FFab
62
5
10
68.1575
20
-127.63
11
68.1575
21
-130.17
0
LINE
8
FFab
62
5
10
68.1575
20
-130.17
11
65.6175
21
-130.17
0
LINE
8
0
10
94.03
20
-112.415
11
102.97
21
-112.415
0
LINE
8
FCrtYd
62
7
10
93.23
20
-113.415
11
103.77
21
-113.415
0
LINE
8
FCrtYd
62
7
10
93.23
20
-104.485
11
93.23
21
-113.415
0
LINE
8
FCrtYd
62
7
10
103.77
20
-104.485
11
93.23
21
-104.485
0
LINE
8
FCrtYd
62
7
10
103.77
20
-113.415
11
103.77
21
-104.485
0
LINE
8
FFab
62
5
10
94.03
20
-105.595
11
102.97
21
-105.595
0
LINE
8
FFab
62
5
10
102.97
20
-112.915
11
94.03
21
-112.915
0
LINE
8
FFab
62
5
10
94.03
20
-105.595
11
94.03
21
-112.915
0
LINE
8
FFab
62
5
10
102.97
20
-105.595
11
102.97
21
-112.915
0
LINE
8
FCrtYd
62
7
10
43.33
20
-110.7
11
43.33
21
-102.7
0
LINE
8
FCrtYd
62
7
10
43.33
20
-110.7
11
32.83
21
-110.7
0
LINE
8
FCrtYd
62
7
10
32.83
20
-102.7
11
43.33
21
-102.7
0
LINE
8
FCrtYd
62
7
10
32.83
20
-102.7
11
32.83
21
-110.7
0
LINE
8
FFab
62
5
10
33.08
20
-110.45
11
43.08
21
-110.45
0
LINE
8
FFab
62
5
10
43.08
20
-110.45
11
43.08
21
-102.95
0
LINE
8
FFab
62
5
10
33.13
20
-109.25
11
43.03
21
-109.25
0
LINE
8
FFab
62
5
10
43.08
20
-102.95
11
33.08
21
-102.95
0
LINE
8
FFab
62
5
10
33.08
20
-102.95
11
33.08
21
-110.45
0
CIRCLE
8
Cmts
62
1
10
99.0
20
-159.0
40
2.7
0
CIRCLE
8
FCrtYd
62
7
10
99.0
20
-159.0
40
2.95
0
LINE
8
FCrtYd
62
7
10
50.32
20
-105.13
11
50.32
21
-107.65
0
LINE
8
FCrtYd
62
7
10
50.32
20
-105.13
11
56.3
21
-105.13
0
LINE
8
FCrtYd
62
7
10
56.3
20
-107.65
11
50.32
21
-107.65
0
LINE
8
FCrtYd
62
7
10
56.3
20
-107.65
11
56.3
21
-105.13
0
LINE
8
FCrtYd
62
7
10
105.2
20
-107.8
11
116.4
21
-107.8
0
LINE
8
FCrtYd
62
7
10
105.2
20
-104.2
11
105.2
21
-107.8
0
LINE
8
FCrtYd
62
7
10
116.4
20
-107.8
11
116.4
21
-104.2
0
LINE
8
FCrtYd
62
7
10
116.4
20
-104.2
11
105.2
21
-104.2
0
LINE
8
FFab
62
5
10
105.73
20
-106.635
11
105.73
21
-104.73
0
LINE
8
FFab
62
5
10
105.73
20
-104.73
11
115.89
21
-104.73
0
LINE
8
FFab
62
5
10
106.365
20
-107.27
11
105.73
21
-106.635
0
LINE
8
FFab
62
5
10
115.89
20
-107.27
11
106.365
21
-107.27
0
LINE
8
FFab
62
5
10
115.89
20
-104.73
11
115.89
21
-107.27
0
CIRCLE
8
Cmts
62
1
10
129.0
20
-110.0
40
2.7
0
CIRCLE
8
FCrtYd
62
7
10
129.0
20
-110.0
40
2.95
0
LINE
8
FCrtYd
62
7
10
43.8
20
-156.4
11
43.8
21
-160.0
0
LINE
8
FCrtYd
62
7
10
43.8
20
-160.0
11
55.0
21
-160.0
0
LINE
8
FCrtYd
62
7
10
55.0
20
-156.4
11
43.8
21
-156.4
0
LINE
8
FCrtYd
62
7
10
55.0
20
-160.0
11
55.0
21
-156.4
0
LINE
8
FFab
62
5
10
54.49
20
-156.93
11
54.49
21
-159.47
0
LINE
8
FFab
62
5
10
54.49
20
-159.47
11
44.965
21
-159.47
0
LINE
8
FFab
62
5
10
44.965
20
-159.47
11
44.33
21
-158.835
0
LINE
8
FFab
62
5
10
44.33
20
-156.93
11
54.49
21
-156.93
0
LINE
8
FFab
62
5
10
44.33
20
-158.835
11
44.33
21
-156.93
0
LINE
8
FCrtYd
62
7
10
102.725
20
-160.5
11
116.475
21
-160.5
0
LINE
8
FCrtYd
62
7
10
116.475
20
-160.5
11
116.475
21
-156.9
0
LINE
8
FCrtYd
62
7
10
102.725
20
-156.9
11
102.725
21
-160.5
0
LINE
8
FCrtYd
62
7
10
116.475
20
-156.9
11
102.725
21
-156.9
0
LINE
8
FFab
62
5
10
115.955
20
-159.97
11
103.89
21
-159.97
0
LINE
8
FFab
62
5
10
103.89
20
-159.97
11
103.255
21
-159.335
0
LINE
8
FFab
62
5
10
103.255
20
-159.335
11
103.255
21
-157.43
0
LINE
8
FFab
62
5
10
115.955
20
-157.43
11
115.955
21
-159.97
0
LINE
8
FFab
62
5
10
103.255
20
-157.43
11
115.955
21
-157.43
0
LINE
8
FCrtYd
62
7
10
59.2
20
-156.3
11
95.8
21
-156.3
0
LINE
8
FCrtYd
62
7
10
59.2
20
-159.85
11
59.2
21
-156.3
0
LINE
8
FCrtYd
62
7
10
95.8
20
-159.85
11
59.2
21
-159.85
0
LINE
8
FCrtYd
62
7
10
95.8
20
-156.3
11
95.8
21
-159.85
0
LINE
8
FFab
62
5
10
59.71
20
-156.83
11
95.27
21
-156.83
0
LINE
8
FFab
62
5
10
95.27
20
-158.735
11
94.635
21
-159.37
0
LINE
8
FFab
62
5
10
95.27
20
-156.83
11
95.27
21
-158.735
0
LINE
8
FFab
62
5
10
94.635
20
-159.37
11
59.71
21
-159.37
0
LINE
8
FFab
62
5
10
59.71
20
-159.37
11
59.71
21
-156.83
0
LINE
8
BCrtYd
62
8
10
57.92
20
-130.5
11
54.08
21
-130.5
0
LINE
8
BCrtYd
62
8
10
57.92
20
-127.1
11
57.92
21
-130.5
0
LINE
8
BCrtYd
62
8
10
54.08
20
-127.1
11
57.92
21
-127.1
0
LINE
8
BCrtYd
62
8
10
54.08
20
-130.5
11
54.08
21
-127.1
0
LINE
8
BFab
62
6
10
55.35
20
-127.35
11
55.35
21
-129.925
0
LINE
8
BFab
62
6
10
55.35
20
-129.925
11
55.675
21
-130.25
0
LINE
8
BFab
62
6
10
56.65
20
-130.25
11
56.65
21
-127.35
0
LINE
8
BFab
62
6
10
56.65
20
-127.35
11
55.35
21
-127.35
0
LINE
8
BFab
62
6
10
55.675
20
-130.25
11
56.65
21
-130.25
0
LINE
8
BCrtYd
62
8
10
111.17
20
-136.65
11
111.17
21
-139.95
0
LINE
8
BCrtYd
62
8
10
112.63
20
-136.65
11
111.17
21
-136.65
0
LINE
8
BCrtYd
62
8
10
111.17
20
-139.95
11
112.63
21
-139.95
0
LINE
8
BCrtYd
62
8
10
112.63
20
-139.95
11
112.63
21
-136.65
0
LINE
8
BFab
62
6
10
111.4875
20
-137.5
11
111.4875
21
-139.1
0
LINE
8
BFab
62
6
10
111.4875
20
-139.1
11
112.3125
21
-139.1
0
LINE
8
BFab
62
6
10
112.3125
20
-139.1
11
112.3125
21
-137.5
0
LINE
8
BFab
62
6
10
112.3125
20
-137.5
11
111.4875
21
-137.5
0
LINE
8
BCrtYd
62
8
10
34.05
20
-132.35
11
34.05
21
-128.65
0
LINE
8
BCrtYd
62
8
10
34.05
20
-128.65
11
32.15
21
-128.65
0
LINE
8
BCrtYd
62
8
10
32.15
20
-128.65
11
32.15
21
-132.35
0
LINE
8
BCrtYd
62
8
10
32.15
20
-132.35
11
34.05
21
-132.35
0
LINE
8
BFab
62
6
10
33.725
20
-129.5
11
32.475
21
-129.5
0
LINE
8
BFab
62
6
10
33.725
20
-131.5
11
33.725
21
-129.5
0
LINE
8
BFab
62
6
10
32.475
20
-131.5
11
33.725
21
-131.5
0
LINE
8
BFab
62
6
10
32.475
20
-129.5
11
32.475
21
-131.5
0
LINE
8
BCrtYd
62
8
10
56.6375
20
-120.73
11
59.9375
21
-120.73
0
LINE
8
BCrtYd
62
8
10
56.6375
20
-119.27
11
56.6375
21
-120.73
0
LINE
8
BCrtYd
62
8
10
59.9375
20
-119.27
11
56.6375
21
-119.27
0
LINE
8
BCrtYd
62
8
10
59.9375
20
-120.73
11
59.9375
21
-119.27
0
LINE
8
BFab
62
6
10
59.0875
20
-119.5875
11
57.4875
21
-119.5875
0
LINE
8
BFab
62
6
10
57.4875
20
-120.4125
11
59.0875
21
-120.4125
0
LINE
8
BFab
62
6
10
57.4875
20
-119.5875
11
57.4875
21
-120.4125
0
LINE
8
BFab
62
6
10
59.0875
20
-120.4125
11
59.0875
21
-119.5875
0
LINE
8
BCrtYd
62
8
10
54.337366
20
-151.430824
11
54.337366
21
-149.470824
0
LINE
8
BCrtYd
62
8
10
50.577366
20
-149.470824
11
50.577366
21
-151.430824
0
LINE
8
BCrtYd
62
8
10
50.577366
20
-151.430824
11
54.337366
21
-151.430824
0
LINE
8
BCrtYd
62
8
10
54.337366
20
-149.470824
11
50.577366
21
-149.470824
0
LINE
8
BFab
62
6
10
53.457366
20
-149.825824
11
51.457366
21
-149.825824
0
LINE
8
BFab
62
6
10
51.457366
20
-149.825824
11
51.457366
21
-151.075824
0
LINE
8
BFab
62
6
10
51.457366
20
-151.075824
11
53.457366
21
-151.075824
0
LINE
8
BFab
62
6
10
53.457366
20
-151.075824
11
53.457366
21
-149.825824
0
LINE
8
BCrtYd
62
8
10
60.8125
20
-120.63
11
64.1125
21
-120.63
0
LINE
8
BCrtYd
62
8
10
64.1125
20
-119.17
11
60.8125
21
-119.17
0
LINE
8
BCrtYd
62
8
10
64.1125
20
-120.63
11
64.1125
21
-119.17
0
LINE
8
BCrtYd
62
8
10
60.8125
20
-119.17
11
60.8125
21
-120.63
0
LINE
8
BFab
62
6
10
63.2625
20
-120.3125
11
63.2625
21
-119.4875
0
LINE
8
BFab
62
6
10
61.6625
20
-120.3125
11
63.2625
21
-120.3125
0
LINE
8
BFab
62
6
10
63.2625
20
-119.4875
11
61.6625
21
-119.4875
0
LINE
8
BFab
62
6
10
61.6625
20
-119.4875
11
61.6625
21
-120.3125
0
LINE
8
BCrtYd
62
8
10
73.83
20
-121.75
11
72.37
21
-121.75
0
LINE
8
BCrtYd
62
8
10
73.83
20
-125.05
11
73.83
21
-121.75
0
LINE
8
BCrtYd
62
8
10
72.37
20
-121.75
11
72.37
21
-125.05
0
LINE
8
BCrtYd
62
8
10
72.37
20
-125.05
11
73.83
21
-125.05
0
LINE
8
BFab
62
6
10
73.5125
20
-122.6
11
72.6875
21
-122.6
0
LINE
8
BFab
62
6
10
72.6875
20
-124.2
11
73.5125
21
-124.2
0
LINE
8
BFab
62
6
10
73.5125
20
-124.2
11
73.5125
21
-122.6
0
LINE
8
BFab
62
6
10
72.6875
20
-122.6
11
72.6875
21
-124.2
0
LINE
8
BCrtYd
62
8
10
27.808699
20
-159.612048
11
29.768699
21
-159.612048
0
LINE
8
BCrtYd
62
8
10
29.768699
20
-159.612048
11
29.768699
21
-155.852048
0
LINE
8
BCrtYd
62
8
10
29.768699
20
-155.852048
11
27.808699
21
-155.852048
0
LINE
8
BCrtYd
62
8
10
27.808699
20
-155.852048
11
27.808699
21
-159.612048
0
LINE
8
BFab
62
6
10
28.163699
20
-158.732048
11
29.413699
21
-158.732048
0
LINE
8
BFab
62
6
10
28.163699
20
-156.732048
11
28.163699
21
-158.732048
0
LINE
8
BFab
62
6
10
29.413699
20
-156.732048
11
28.163699
21
-156.732048
0
LINE
8
BFab
62
6
10
29.413699
20
-158.732048
11
29.413699
21
-156.732048
0
LINE
8
BCrtYd
62
8
10
84.0
20
-118.38
11
76.0
21
-118.38
0
LINE
8
BCrtYd
62
8
10
76.0
20
-122.22
11
84.0
21
-122.22
0
LINE
8
BCrtYd
62
8
10
76.0
20
-118.38
11
76.0
21
-122.22
0
LINE
8
BCrtYd
62
8
10
84.0
20
-122.22
11
84.0
21
-118.38
0
LINE
8
BFab
62
6
10
83.15
20
-121.9
11
83.15
21
-118.7
0
LINE
8
BFab
62
6
10
76.85
20
-118.7
11
76.85
21
-121.9
0
LINE
8
BFab
62
6
10
83.15
20
-118.7
11
76.85
21
-118.7
0
LINE
8
BFab
62
6
10
76.85
20
-121.9
11
83.15
21
-121.9
0
LINE
8
BCrtYd
62
8
10
29.3
20
-115.7
11
29.3
21
-110.3
0
LINE
8
BCrtYd
62
8
10
29.3
20
-110.3
11
36.7
21
-110.3
0
LINE
8
BCrtYd
62
8
10
36.7
20
-110.3
11
36.7
21
-115.7
0
LINE
8
BCrtYd
62
8
10
36.7
20
-115.7
11
29.3
21
-115.7
0
LINE
8
BFab
62
6
10
34.95
20
-110.55
11
31.05
21
-110.55
0
LINE
8
BFab
62
6
10
32.025
20
-115.45
11
34.95
21
-115.45
0
LINE
8
BFab
62
6
10
31.05
20
-110.55
11
31.05
21
-114.475
0
LINE
8
BFab
62
6
10
34.95
20
-115.45
11
34.95
21
-110.55
0
LINE
8
BFab
62
6
10
31.05
20
-114.475
11
32.025
21
-115.45
0
LINE
8
BCrtYd
62
8
10
67.9375
20
-125.93
11
67.9375
21
-124.47
0
LINE
8
BCrtYd
62
8
10
64.6375
20
-125.93
11
67.9375
21
-125.93
0
LINE
8
BCrtYd
62
8
10
67.9375
20
-124.47
11
64.6375
21
-124.47
0
LINE
8
BCrtYd
62
8
10
64.6375
20
-124.47
11
64.6375
21
-125.93
0
LINE
8
BFab
62
6
10
67.0875
20
-124.7875
11
65.4875
21
-124.7875
0
LINE
8
BFab
62
6
10
65.4875
20
-125.6125
11
67.0875
21
-125.6125
0
LINE
8
BFab
62
6
10
67.0875
20
-125.6125
11
67.0875
21
-124.7875
0
LINE
8
BFab
62
6
10
65.4875
20
-124.7875
11
65.4875
21
-125.6125
0
LINE
8
BCrtYd
62
8
10
64.3425
20
-122.88
11
64.3425
21
-120.92
0
LINE
8
BCrtYd
62
8
10
64.3425
20
-120.92
11
60.5825
21
-120.92
0
LINE
8
BCrtYd
62
8
10
60.5825
20
-120.92
11
60.5825
21
-122.88
0
LINE
8
BCrtYd
62
8
10
60.5825
20
-122.88
11
64.3425
21
-122.88
0
LINE
8
BFab
62
6
10
61.4625
20
-122.525
11
63.4625
21
-122.525
0
LINE
8
BFab
62
6
10
63.4625
20
-122.525
11
63.4625
21
-121.275
0
LINE
8
BFab
62
6
10
61.4625
20
-121.275
11
61.4625
21
-122.525
0
LINE
8
BFab
62
6
10
63.4625
20
-121.275
11
61.4625
21
-121.275
0
LINE
8
BCrtYd
62
8
10
56.344462
20
-120.911118
11
56.344462
21
-122.871118
0
LINE
8
BCrtYd
62
8
10
56.344462
20
-122.871118
11
60.104462
21
-122.871118
0
LINE
8
BCrtYd
62
8
10
60.104462
20
-122.871118
11
60.104462
21
-120.911118
0
LINE
8
BCrtYd
62
8
10
60.104462
20
-120.911118
11
56.344462
21
-120.911118
0
LINE
8
BFab
62
6
10
59.224462
20
-122.516118
11
59.224462
21
-121.266118
0
LINE
8
BFab
62
6
10
57.224462
20
-122.516118
11
59.224462
21
-122.516118
0
LINE
8
BFab
62
6
10
57.224462
20
-121.266118
11
57.224462
21
-122.516118
0
LINE
8
BFab
62
6
10
59.224462
20
-121.266118
11
57.224462
21
-121.266118
0
LINE
8
BCrtYd
62
8
10
64.6375
20
-127.43
11
67.9375
21
-127.43
0
LINE
8
BCrtYd
62
8
10
67.9375
20
-127.43
11
67.9375
21
-125.97
0
LINE
8
BCrtYd
62
8
10
64.6375
20
-125.97
11
64.6375
21
-127.43
0
LINE
8
BCrtYd
62
8
10
67.9375
20
-125.97
11
64.6375
21
-125.97
0
LINE
8
BFab
62
6
10
67.0875
20
-126.2875
11
65.4875
21
-126.2875
0
LINE
8
BFab
62
6
10
65.4875
20
-127.1125
11
67.0875
21
-127.1125
0
LINE
8
BFab
62
6
10
67.0875
20
-127.1125
11
67.0875
21
-126.2875
0
LINE
8
BFab
62
6
10
65.4875
20
-126.2875
11
65.4875
21
-127.1125
0
LINE
8
BCrtYd
62
8
10
93.0375
20
-118.53
11
93.0375
21
-122.37
0
LINE
8
BCrtYd
62
8
10
101.0375
20
-122.37
11
101.0375
21
-118.53
0
LINE
8
BCrtYd
62
8
10
93.0375
20
-122.37
11
101.0375
21
-122.37
0
LINE
8
BCrtYd
62
8
10
101.0375
20
-118.53
11
93.0375
21
-118.53
0
LINE
8
BFab
62
6
10
93.8875
20
-118.85
11
93.8875
21
-122.05
0
LINE
8
BFab
62
6
10
100.1875
20
-118.85
11
93.8875
21
-118.85
0
LINE
8
BFab
62
6
10
93.8875
20
-122.05
11
100.1875
21
-122.05
0
LINE
8
BFab
62
6
10
100.1875
20
-122.05
11
100.1875
21
-118.85
0
LINE
8
BCrtYd
62
8
10
53.45
20
-127.85
11
49.75
21
-127.85
0
LINE
8
BCrtYd
62
8
10
49.75
20
-127.85
11
49.75
21
-129.75
0
LINE
8
BCrtYd
62
8
10
49.75
20
-129.75
11
53.45
21
-129.75
0
LINE
8
BCrtYd
62
8
10
53.45
20
-129.75
11
53.45
21
-127.85
0
LINE
8
BFab
62
6
10
52.6
20
-129.425
11
52.6
21
-128.175
0
LINE
8
BFab
62
6
10
50.6
20
-129.425
11
52.6
21
-129.425
0
LINE
8
BFab
62
6
10
52.6
20
-128.175
11
50.6
21
-128.175
0
LINE
8
BFab
62
6
10
50.6
20
-128.175
11
50.6
21
-129.425
0
LINE
8
BCrtYd
62
8
10
84.2
20
-126.198209
11
84.2
21
-122.598209
0
LINE
8
BCrtYd
62
8
10
87.8
20
-122.598209
11
87.8
21
-126.198209
0
LINE
8
BCrtYd
62
8
10
87.8
20
-126.198209
11
84.2
21
-126.198209
0
LINE
8
BCrtYd
62
8
10
84.2
20
-122.598209
11
87.8
21
-122.598209
0
LINE
8
BFab
62
6
10
85.365
20
-125.668209
11
87.27
21
-125.668209
0
LINE
8
BFab
62
6
10
87.27
20
-123.128209
11
84.73
21
-123.128209
0
LINE
8
BFab
62
6
10
84.73
20
-123.128209
11
84.73
21
-125.033209
0
LINE
8
BFab
62
6
10
87.27
20
-125.668209
11
87.27
21
-123.128209
0
LINE
8
BFab
62
6
10
84.73
20
-125.033209
11
85.365
21
-125.668209
0
LINE
8
BCrtYd
62
8
10
40.8175
20
-111.72
11
37.0575
21
-111.72
0
LINE
8
BCrtYd
62
8
10
40.8175
20
-113.68
11
40.8175
21
-111.72
0
LINE
8
BCrtYd
62
8
10
37.0575
20
-113.68
11
40.8175
21
-113.68
0
LINE
8
BCrtYd
62
8
10
37.0575
20
-111.72
11
37.0575
21
-113.68
0
LINE
8
BFab
62
6
10
37.9375
20
-113.325
11
39.9375
21
-113.325
0
LINE
8
BFab
62
6
10
39.9375
20
-112.075
11
37.9375
21
-112.075
0
LINE
8
BFab
62
6
10
39.9375
20
-113.325
11
39.9375
21
-112.075
0
LINE
8
BFab
62
6
10
37.9375
20
-112.075
11
37.9375
21
-113.325
0
LINE
8
BCrtYd
62
8
10
32.55
20
-136.35
11
36.25
21
-136.35
0
LINE
8
BCrtYd
62
8
10
32.55
20
-134.45
11
32.55
21
-136.35
0
LINE
8
BCrtYd
62
8
10
36.25
20
-136.35
11
36.25
21
-134.45
0
LINE
8
BCrtYd
62
8
10
36.25
20
-134.45
11
32.55
21
-134.45
0
LINE
8
BFab
62
6
10
33.4
20
-134.775
11
33.4
21
-136.025
0
LINE
8
BFab
62
6
10
35.4
20
-134.775
11
33.4
21
-134.775
0
LINE
8
BFab
62
6
10
35.4
20
-136.025
11
35.4
21
-134.775
0
LINE
8
BFab
62
6
10
33.4
20
-136.025
11
35.4
21
-136.025
0
LINE
8
BCrtYd
62
8
10
105.22
20
-151.82
11
105.22
21
-153.78
0
LINE
8
BCrtYd
62
8
10
108.98
20
-153.78
11
108.98
21
-151.82
0
LINE
8
BCrtYd
62
8
10
108.98
20
-151.82
11
105.22
21
-151.82
0
LINE
8
BCrtYd
62
8
10
105.22
20
-153.78
11
108.98
21
-153.78
0
LINE
8
BFab
62
6
10
106.1
20
-152.175
11
106.1
21
-153.425
0
LINE
8
BFab
62
6
10
108.1
20
-153.425
11
108.1
21
-152.175
0
LINE
8
BFab
62
6
10
106.1
20
-153.425
11
108.1
21
-153.425
0
LINE
8
BFab
62
6
10
108.1
20
-152.175
11
106.1
21
-152.175
0
LINE
8
BCrtYd
62
8
10
106.6075
20
-116.0
11
109.1075
21
-116.0
0
LINE
8
BCrtYd
62
8
10
109.1075
20
-120.6
11
106.6075
21
-120.6
0
LINE
8
BCrtYd
62
8
10
106.6075
20
-116.0
11
106.6075
21
-120.6
0
LINE
8
BCrtYd
62
8
10
109.1075
20
-120.6
11
109.1075
21
-116.0
0
LINE
8
BCrtYd
62
8
10
90.7675
20
-121.8
11
89.3075
21
-121.8
0
LINE
8
BCrtYd
62
8
10
89.3075
20
-125.1
11
90.7675
21
-125.1
0
LINE
8
BCrtYd
62
8
10
90.7675
20
-125.1
11
90.7675
21
-121.8
0
LINE
8
BCrtYd
62
8
10
89.3075
20
-121.8
11
89.3075
21
-125.1
0
LINE
8
BFab
62
6
10
90.45
20
-124.25
11
90.45
21
-122.65
0
LINE
8
BFab
62
6
10
89.625
20
-122.65
11
89.625
21
-124.25
0
LINE
8
BFab
62
6
10
90.45
20
-122.65
11
89.625
21
-122.65
0
LINE
8
BFab
62
6
10
89.625
20
-124.25
11
90.45
21
-124.25
0
LINE
8
BCrtYd
62
8
10
90.72
20
-115.72
11
90.72
21
-117.68
0
LINE
8
BCrtYd
62
8
10
94.48
20
-117.68
11
94.48
21
-115.72
0
LINE
8
BCrtYd
62
8
10
90.72
20
-117.68
11
94.48
21
-117.68
0
LINE
8
BCrtYd
62
8
10
94.48
20
-115.72
11
90.72
21
-115.72
0
LINE
8
BFab
62
6
10
91.6
20
-116.075
11
91.6
21
-117.325
0
LINE
8
BFab
62
6
10
91.6
20
-117.325
11
93.6
21
-117.325
0
LINE
8
BFab
62
6
10
93.6
20
-117.325
11
93.6
21
-116.075
0
LINE
8
BFab
62
6
10
93.6
20
-116.075
11
91.6
21
-116.075
0
LINE
8
BCrtYd
62
8
10
54.171144
20
-149.53
11
54.171144
21
-148.07
0
LINE
8
BCrtYd
62
8
10
50.871144
20
-149.53
11
54.171144
21
-149.53
0
LINE
8
BCrtYd
62
8
10
54.171144
20
-148.07
11
50.871144
21
-148.07
0
LINE
8
BCrtYd
62
8
10
50.871144
20
-148.07
11
50.871144
21
-149.53
0
LINE
8
BFab
62
6
10
51.721144
20
-148.3875
11
51.721144
21
-149.2125
0
LINE
8
BFab
62
6
10
53.321144
20
-149.2125
11
53.321144
21
-148.3875
0
LINE
8
BFab
62
6
10
51.721144
20
-149.2125
11
53.321144
21
-149.2125
0
LINE
8
BFab
62
6
10
53.321144
20
-148.3875
11
51.721144
21
-148.3875
0
LINE
8
BCrtYd
62
8
10
41.2
20
-153.5
11
33.8
21
-153.5
0
LINE
8
BCrtYd
62
8
10
41.2
20
-148.1
11
41.2
21
-153.5
0
LINE
8
BCrtYd
62
8
10
33.8
20
-153.5
11
33.8
21
-148.1
0
LINE
8
BCrtYd
62
8
10
33.8
20
-148.1
11
41.2
21
-148.1
0
LINE
8
BFab
62
6
10
35.55
20
-148.35
11
35.55
21
-152.275
0
LINE
8
BFab
62
6
10
35.55
20
-152.275
11
36.525
21
-153.25
0
LINE
8
BFab
62
6
10
36.525
20
-153.25
11
39.45
21
-153.25
0
LINE
8
BFab
62
6
10
39.45
20
-148.35
11
35.55
21
-148.35
0
LINE
8
BFab
62
6
10
39.45
20
-153.25
11
39.45
21
-148.35
0
LINE
8
BCrtYd
62
8
10
64.6075
20
-122.52
11
64.6075
21
-124.48
0
LINE
8
BCrtYd
62
8
10
68.3675
20
-124.48
11
68.3675
21
-122.52
0
LINE
8
BCrtYd
62
8
10
68.3675
20
-122.52
11
64.6075
21
-122.52
0
LINE
8
BCrtYd
62
8
10
64.6075
20
-124.48
11
68.3675
21
-124.48
0
LINE
8
BFab
62
6
10
67.4875
20
-124.125
11
67.4875
21
-122.875
0
LINE
8
BFab
62
6
10
65.4875
20
-124.125
11
67.4875
21
-124.125
0
LINE
8
BFab
62
6
10
65.4875
20
-122.875
11
65.4875
21
-124.125
0
LINE
8
BFab
62
6
10
67.4875
20
-122.875
11
65.4875
21
-122.875
0
LINE
8
BCrtYd
62
8
10
60.814728
20
-117.54886
11
60.814728
21
-119.00886
0
LINE
8
BCrtYd
62
8
10
64.114728
20
-117.54886
11
60.814728
21
-117.54886
0
LINE
8
BCrtYd
62
8
10
64.114728
20
-119.00886
11
64.114728
21
-117.54886
0
LINE
8
BCrtYd
62
8
10
60.814728
20
-119.00886
11
64.114728
21
-119.00886
0
LINE
8
BFab
62
6
10
63.264728
20
-118.69136
11
63.264728
21
-117.86636
0
LINE
8
BFab
62
6
10
61.664728
20
-118.69136
11
63.264728
21
-118.69136
0
LINE
8
BFab
62
6
10
63.264728
20
-117.86636
11
61.664728
21
-117.86636
0
LINE
8
BFab
62
6
10
61.664728
20
-117.86636
11
61.664728
21
-118.69136
0
LINE
8
BCrtYd
62
8
10
54.27
20
-123.4375
11
54.27
21
-126.7375
0
LINE
8
BCrtYd
62
8
10
55.73
20
-126.7375
11
55.73
21
-123.4375
0
LINE
8
BCrtYd
62
8
10
55.73
20
-123.4375
11
54.27
21
-123.4375
0
LINE
8
BCrtYd
62
8
10
54.27
20
-126.7375
11
55.73
21
-126.7375
0
LINE
8
BFab
62
6
10
54.5875
20
-125.8875
11
55.4125
21
-125.8875
0
LINE
8
BFab
62
6
10
54.5875
20
-124.2875
11
54.5875
21
-125.8875
0
LINE
8
BFab
62
6
10
55.4125
20
-125.8875
11
55.4125
21
-124.2875
0
LINE
8
BFab
62
6
10
55.4125
20
-124.2875
11
54.5875
21
-124.2875
0
LINE
8
BCrtYd
62
8
10
109.67
20
-139.95
11
111.13
21
-139.95
0
LINE
8
BCrtYd
62
8
10
111.13
20
-139.95
11
111.13
21
-136.65
0
LINE
8
BCrtYd
62
8
10
109.67
20
-136.65
11
109.67
21
-139.95
0
LINE
8
BCrtYd
62
8
10
111.13
20
-136.65
11
109.67
21
-136.65
0
LINE
8
BFab
62
6
10
110.8125
20
-137.5
11
109.9875
21
-137.5
0
LINE
8
BFab
62
6
10
110.8125
20
-139.1
11
110.8125
21
-137.5
0
LINE
8
BFab
62
6
10
109.9875
20
-137.5
11
109.9875
21
-139.1
0
LINE
8
BFab
62
6
10
109.9875
20
-139.1
11
110.8125
21
-139.1
0
LINE
8
BCrtYd
62
8
10
48.85
20
-133.43
11
52.15
21
-133.43
0
LINE
8
BCrtYd
62
8
10
52.15
20
-131.97
11
48.85
21
-131.97
0
LINE
8
BCrtYd
62
8
10
48.85
20
-131.97
11
48.85
21
-133.43
0
LINE
8
BCrtYd
62
8
10
52.15
20
-133.43
11
52.15
21
-131.97
0
LINE
8
BFab
62
6
10
49.7
20
-132.2875
11
49.7
21
-133.1125
0
LINE
8
BFab
62
6
10
51.3
20
-133.1125
11
51.3
21
-132.2875
0
LINE
8
BFab
62
6
10
49.7
20
-133.1125
11
51.3
21
-133.1125
0
LINE
8
BFab
62
6
10
51.3
20
-132.2875
11
49.7
21
-132.2875
0
LINE
8
BCrtYd
62
8
10
51.2
20
-153.55
11
51.2
21
-156.07
0
LINE
8
BCrtYd
62
8
10
51.2
20
-153.55
11
45.22
21
-153.55
0
LINE
8
BCrtYd
62
8
10
45.22
20
-156.07
11
51.2
21
-156.07
0
LINE
8
BCrtYd
62
8
10
45.22
20
-156.07
11
45.22
21
-153.55
0
LINE
8
BCrtYd
62
8
10
32.25
20
-141.15
11
34.15
21
-141.15
0
LINE
8
BCrtYd
62
8
10
32.25
20
-137.45
11
32.25
21
-141.15
0
LINE
8
BCrtYd
62
8
10
34.15
20
-141.15
11
34.15
21
-137.45
0
LINE
8
BCrtYd
62
8
10
34.15
20
-137.45
11
32.25
21
-137.45
0
LINE
8
BFab
62
6
10
33.825
20
-138.3
11
32.575
21
-138.3
0
LINE
8
BFab
62
6
10
32.575
20
-138.3
11
32.575
21
-140.3
0
LINE
8
BFab
62
6
10
33.825
20
-140.3
11
33.825
21
-138.3
0
LINE
8
BFab
62
6
10
32.575
20
-140.3
11
33.825
21
-140.3
0
LINE
8
BCrtYd
62
8
10
41.3
20
-125.9
11
41.3
21
-118.1
0
LINE
8
BCrtYd
62
8
10
46.7
20
-125.9
11
41.3
21
-125.9
0
LINE
8
BCrtYd
62
8
10
41.3
20
-118.1
11
46.7
21
-118.1
0
LINE
8
BCrtYd
62
8
10
46.7
20
-118.1
11
46.7
21
-125.9
0
LINE
8
BFab
62
6
10
42.05
20
-125.15
11
45.95
21
-125.15
0
LINE
8
BFab
62
6
10
42.05
20
-124.75
11
41.65
21
-124.75
0
LINE
8
BFab
62
6
10
41.55
20
-124.65
11
41.55
21
-119.35
0
LINE
8
BFab
62
6
10
46.35
20
-124.75
11
46.45
21
-124.65
0
LINE
8
BFab
62
6
10
45.95
20
-125.15
11
45.95
21
-124.75
0
LINE
8
BFab
62
6
10
45.95
20
-119.25
11
45.95
21
-118.85
0
LINE
8
BFab
62
6
10
45.95
20
-124.75
11
46.35
21
-124.75
0
LINE
8
BFab
62
6
10
42.05
20
-118.85
11
42.05
21
-119.25
0
LINE
8
BFab
62
6
10
42.05
20
-119.25
11
41.65
21
-119.25
0
LINE
8
BFab
62
6
10
45.95
20
-118.85
11
42.05
21
-118.85
0
LINE
8
BFab
62
6
10
46.45
20
-119.35
11
46.35
21
-119.25
0
LINE
8
BFab
62
6
10
46.45
20
-119.35
11
46.45
21
-124.65
0
LINE
8
BFab
62
6
10
46.35
20
-119.25
11
45.95
21
-119.25
0
LINE
8
BFab
62
6
10
42.05
20
-125.15
11
42.05
21
-124.75
0
LINE
8
BFab
62
6
10
41.65
20
-124.75
11
41.55
21
-124.65
0
LINE
8
BFab
62
6
10
41.65
20
-119.25
11
41.55
21
-119.35
0
LINE
8
BCrtYd
62
8
10
109.03007
20
-119.242908
11
109.03007
21
-115.842908
0
LINE
8
BCrtYd
62
8
10
112.87007
20
-119.242908
11
109.03007
21
-119.242908
0
LINE
8
BCrtYd
62
8
10
109.03007
20
-115.842908
11
112.87007
21
-115.842908
0
LINE
8
BCrtYd
62
8
10
112.87007
20
-115.842908
11
112.87007
21
-119.242908
0
LINE
8
BFab
62
6
10
111.60007
20
-116.092908
11
110.30007
21
-116.092908
0
LINE
8
BFab
62
6
10
110.62507
20
-118.992908
11
111.60007
21
-118.992908
0
LINE
8
BFab
62
6
10
110.30007
20
-118.667908
11
110.62507
21
-118.992908
0
LINE
8
BFab
62
6
10
110.30007
20
-116.092908
11
110.30007
21
-118.667908
0
LINE
8
BFab
62
6
10
111.60007
20
-118.992908
11
111.60007
21
-116.092908
0
LINE
8
BCrtYd
62
8
10
75.98
20
-125.18
11
75.98
21
-121.42
0
LINE
8
BCrtYd
62
8
10
74.02
20
-121.42
11
74.02
21
-125.18
0
LINE
8
BCrtYd
62
8
10
74.02
20
-125.18
11
75.98
21
-125.18
0
LINE
8
BCrtYd
62
8
10
75.98
20
-121.42
11
74.02
21
-121.42
0
LINE
8
BFab
62
6
10
74.375
20
-124.3
11
75.625
21
-124.3
0
LINE
8
BFab
62
6
10
75.625
20
-122.3
11
74.375
21
-122.3
0
LINE
8
BFab
62
6
10
75.625
20
-124.3
11
75.625
21
-122.3
0
LINE
8
BFab
62
6
10
74.375
20
-122.3
11
74.375
21
-124.3
0
LINE
8
BCrtYd
62
8
10
109.02
20
-134.82
11
109.02
21
-136.78
0
LINE
8
BCrtYd
62
8
10
109.02
20
-136.78
11
112.78
21
-136.78
0
LINE
8
BCrtYd
62
8
10
112.78
20
-134.82
11
109.02
21
-134.82
0
LINE
8
BCrtYd
62
8
10
112.78
20
-136.78
11
112.78
21
-134.82
0
LINE
8
BFab
62
6
10
111.9
20
-135.175
11
109.9
21
-135.175
0
LINE
8
BFab
62
6
10
109.9
20
-136.425
11
111.9
21
-136.425
0
LINE
8
BFab
62
6
10
111.9
20
-136.425
11
111.9
21
-135.175
0
LINE
8
BFab
62
6
10
109.9
20
-135.175
11
109.9
21
-136.425
0
LINE
8
BCrtYd
62
8
10
83.92
20
-122.6
11
83.92
21
-126.0
0
LINE
8
BCrtYd
62
8
10
80.08
20
-126.0
11
80.08
21
-122.6
0
LINE
8
BCrtYd
62
8
10
83.92
20
-126.0
11
80.08
21
-126.0
0
LINE
8
BCrtYd
62
8
10
80.08
20
-122.6
11
83.92
21
-122.6
0
LINE
8
BFab
62
6
10
82.65
20
-122.85
11
81.35
21
-122.85
0
LINE
8
BFab
62
6
10
81.35
20
-122.85
11
81.35
21
-125.425
0
LINE
8
BFab
62
6
10
81.675
20
-125.75
11
82.65
21
-125.75
0
LINE
8
BFab
62
6
10
81.35
20
-125.425
11
81.675
21
-125.75
0
LINE
8
BFab
62
6
10
82.65
20
-125.75
11
82.65
21
-122.85
0
LINE
8
BCrtYd
62
8
10
36.28
20
-136.42
11
34.32
21
-136.42
0
LINE
8
BCrtYd
62
8
10
36.28
20
-140.18
11
36.28
21
-136.42
0
LINE
8
BCrtYd
62
8
10
34.32
20
-136.42
11
34.32
21
-140.18
0
LINE
8
BCrtYd
62
8
10
34.32
20
-140.18
11
36.28
21
-140.18
0
LINE
8
BFab
62
6
10
35.925
20
-137.3
11
34.675
21
-137.3
0
LINE
8
BFab
62
6
10
34.675
20
-137.3
11
34.675
21
-139.3
0
LINE
8
BFab
62
6
10
34.675
20
-139.3
11
35.925
21
-139.3
0
LINE
8
BFab
62
6
10
35.925
20
-139.3
11
35.925
21
-137.3
0
LINE
8
BCrtYd
62
8
10
52.7
20
-125.9
11
47.3
21
-125.9
0
LINE
8
BCrtYd
62
8
10
47.3
20
-118.1
11
52.7
21
-118.1
0
LINE
8
BCrtYd
62
8
10
47.3
20
-125.9
11
47.3
21
-118.1
0
LINE
8
BCrtYd
62
8
10
52.7
20
-118.1
11
52.7
21
-125.9
0
LINE
8
BFab
62
6
10
48.05
20
-118.85
11
48.05
21
-119.25
0
LINE
8
BFab
62
6
10
51.95
20
-119.25
11
51.95
21
-118.85
0
LINE
8
BFab
62
6
10
48.05
20
-119.25
11
47.65
21
-119.25
0
LINE
8
BFab
62
6
10
52.35
20
-119.25
11
51.95
21
-119.25
0
LINE
8
BFab
62
6
10
52.45
20
-119.35
11
52.45
21
-124.65
0
LINE
8
BFab
62
6
10
47.65
20
-119.25
11
47.55
21
-119.35
0
LINE
8
BFab
62
6
10
48.05
20
-124.75
11
47.65
21
-124.75
0
LINE
8
BFab
62
6
10
47.55
20
-124.65
11
47.55
21
-119.35
0
LINE
8
BFab
62
6
10
52.35
20
-124.75
11
52.45
21
-124.65
0
LINE
8
BFab
62
6
10
47.65
20
-124.75
11
47.55
21
-124.65
0
LINE
8
BFab
62
6
10
51.95
20
-118.85
11
48.05
21
-118.85
0
LINE
8
BFab
62
6
10
48.05
20
-125.15
11
48.05
21
-124.75
0
LINE
8
BFab
62
6
10
51.95
20
-125.15
11
51.95
21
-124.75
0
LINE
8
BFab
62
6
10
52.45
20
-119.35
11
52.35
21
-119.25
0
LINE
8
BFab
62
6
10
48.05
20
-125.15
11
51.95
21
-125.15
0
LINE
8
BFab
62
6
10
51.95
20
-124.75
11
52.35
21
-124.75
0
LINE
8
BCrtYd
62
8
10
100.9575
20
-126.15
11
97.1175
21
-126.15
0
LINE
8
BCrtYd
62
8
10
97.1175
20
-122.75
11
100.9575
21
-122.75
0
LINE
8
BCrtYd
62
8
10
100.9575
20
-122.75
11
100.9575
21
-126.15
0
LINE
8
BCrtYd
62
8
10
97.1175
20
-126.15
11
97.1175
21
-122.75
0
LINE
8
BFab
62
6
10
99.6875
20
-123.0
11
98.3875
21
-123.0
0
LINE
8
BFab
62
6
10
98.3875
20
-123.0
11
98.3875
21
-125.575
0
LINE
8
BFab
62
6
10
99.6875
20
-125.9
11
99.6875
21
-123.0
0
LINE
8
BFab
62
6
10
98.7125
20
-125.9
11
99.6875
21
-125.9
0
LINE
8
BFab
62
6
10
98.3875
20
-125.575
11
98.7125
21
-125.9
0
LINE
8
BCrtYd
62
8
10
35.95
20
-128.45
11
35.95
21
-126.55
0
LINE
8
BCrtYd
62
8
10
35.95
20
-126.55
11
32.25
21
-126.55
0
LINE
8
BCrtYd
62
8
10
32.25
20
-128.45
11
35.95
21
-128.45
0
LINE
8
BCrtYd
62
8
10
32.25
20
-126.55
11
32.25
21
-128.45
0
LINE
8
BFab
62
6
10
33.1
20
-126.875
11
33.1
21
-128.125
0
LINE
8
BFab
62
6
10
33.1
20
-128.125
11
35.1
21
-128.125
0
LINE
8
BFab
62
6
10
35.1
20
-128.125
11
35.1
21
-126.875
0
LINE
8
BFab
62
6
10
35.1
20
-126.875
11
33.1
21
-126.875
0
LINE
8
0
10
41.85
20
-141.825
11
41.85
21
-134.375
0
LINE
8
0
10
41.85
20
-134.375
11
36.35
21
-134.375
0
LINE
8
0
10
36.35
20
-141.825
11
41.85
21
-141.825
0
LINE
8
0
10
41.55
20
-136.15
11
36.65
21
-136.15
0
LINE
8
0
10
41.55
20
-140.05
11
41.55
21
-136.15
0
LINE
8
0
10
36.35
20
-134.375
11
36.35
21
-141.825
0
LINE
8
0
10
36.65
20
-140.05
11
41.55
21
-140.05
0
LINE
8
0
10
40.28
20
-140.05
11
41.55
21
-138.78
0
LINE
8
0
10
36.65
20
-136.15
11
36.65
21
-140.05
0
LINE
8
BCrtYd
62
8
10
108.95
20
-155.33
11
108.95
21
-153.87
0
LINE
8
BCrtYd
62
8
10
105.65
20
-155.33
11
108.95
21
-155.33
0
LINE
8
BCrtYd
62
8
10
108.95
20
-153.87
11
105.65
21
-153.87
0
LINE
8
BCrtYd
62
8
10
105.65
20
-153.87
11
105.65
21
-155.33
0
LINE
8
BFab
62
6
10
108.1
20
-155.0125
11
108.1
21
-154.1875
0
LINE
8
BFab
62
6
10
106.5
20
-154.1875
11
106.5
21
-155.0125
0
LINE
8
BFab
62
6
10
106.5
20
-155.0125
11
108.1
21
-155.0125
0
LINE
8
BFab
62
6
10
108.1
20
-154.1875
11
106.5
21
-154.1875
0
LINE
8
0
10
95.8375
20
-125.9
11
95.8375
21
-123.0
0
LINE
8
0
10
97.1125
20
-126.15
11
97.1125
21
-122.75
0
LINE
8
0
10
94.2375
20
-123.0
11
94.2375
21
-125.9
0
LINE
8
0
10
95.8375
20
-123.0
11
94.2375
21
-123.0
0
LINE
8
0
10
92.9625
20
-122.75
11
92.9625
21
-126.15
0
LINE
8
0
10
97.1125
20
-122.75
11
92.9625
21
-122.75
0
LINE
8
0
10
94.2375
20
-124.95
11
95.1875
21
-125.9
0
LINE
8
0
10
94.2375
20
-125.9
11
95.8375
21
-125.9
0
LINE
8
0
10
92.9625
20
-126.15
11
97.1125
21
-126.15
0
LINE
8
BCrtYd
62
8
10
116.215253
20
-117.635674
11
112.915253
21
-117.635674
0
LINE
8
BCrtYd
62
8
10
112.915253
20
-119.095674
11
116.215253
21
-119.095674
0
LINE
8
BCrtYd
62
8
10
112.915253
20
-117.635674
11
112.915253
21
-119.095674
0
LINE
8
BCrtYd
62
8
10
116.215253
20
-119.095674
11
116.215253
21
-117.635674
0
LINE
8
BFab
62
6
10
113.765253
20
-118.778174
11
115.365253
21
-118.778174
0
LINE
8
BFab
62
6
10
115.365253
20
-117.953174
11
113.765253
21
-117.953174
0
LINE
8
BFab
62
6
10
113.765253
20
-117.953174
11
113.765253
21
-118.778174
0
LINE
8
BFab
62
6
10
115.365253
20
-118.778174
11
115.365253
21
-117.953174
0
LINE
8
BCrtYd
62
8
10
116.48
20
-153.78
11
116.48
21
-151.82
0
LINE
8
BCrtYd
62
8
10
112.72
20
-151.82
11
112.72
21
-153.78
0
LINE
8
BCrtYd
62
8
10
116.48
20
-151.82
11
112.72
21
-151.82
0
LINE
8
BCrtYd
62
8
10
112.72
20
-153.78
11
116.48
21
-153.78
0
LINE
8
BFab
62
6
10
113.6
20
-153.425
11
115.6
21
-153.425
0
LINE
8
BFab
62
6
10
115.6
20
-152.175
11
113.6
21
-152.175
0
LINE
8
BFab
62
6
10
113.6
20
-152.175
11
113.6
21
-153.425
0
LINE
8
BFab
62
6
10
115.6
20
-153.425
11
115.6
21
-152.175
0
LINE
8
BCrtYd
62
8
10
31.52
20
-117.98
11
35.28
21
-117.98
0
LINE
8
BCrtYd
62
8
10
35.28
20
-117.98
11
35.28
21
-116.02
0
LINE
8
BCrtYd
62
8
10
35.28
20
-116.02
11
31.52
21
-116.02
0
LINE
8
BCrtYd
62
8
10
31.52
20
-116.02
11
31.52
21
-117.98
0
LINE
8
BFab
62
6
10
32.4
20
-117.625
11
34.4
21
-117.625
0
LINE
8
BFab
62
6
10
34.4
20
-116.375
11
32.4
21
-116.375
0
LINE
8
BFab
62
6
10
34.4
20
-117.625
11
34.4
21
-116.375
0
LINE
8
BFab
62
6
10
32.4
20
-116.375
11
32.4
21
-117.625
0
LINE
8
BCrtYd
62
8
10
62.13
20
-142.55
11
62.13
21
-139.25
0
LINE
8
BCrtYd
62
8
10
60.67
20
-139.25
11
60.67
21
-142.55
0
LINE
8
BCrtYd
62
8
10
60.67
20
-142.55
11
62.13
21
-142.55
0
LINE
8
BCrtYd
62
8
10
62.13
20
-139.25
11
60.67
21
-139.25
0
LINE
8
BFab
62
6
10
60.9875
20
-141.7
11
61.8125
21
-141.7
0
LINE
8
BFab
62
6
10
61.8125
20
-140.1
11
60.9875
21
-140.1
0
LINE
8
BFab
62
6
10
60.9875
20
-140.1
11
60.9875
21
-141.7
0
LINE
8
BFab
62
6
10
61.8125
20
-141.7
11
61.8125
21
-140.1
0
LINE
8
BCrtYd
62
8
10
60.32
20
-128.7575
11
60.32
21
-132.5175
0
LINE
8
BCrtYd
62
8
10
62.28
20
-128.7575
11
60.32
21
-128.7575
0
LINE
8
BCrtYd
62
8
10
62.28
20
-132.5175
11
62.28
21
-128.7575
0
LINE
8
BCrtYd
62
8
10
60.32
20
-132.5175
11
62.28
21
-132.5175
0
LINE
8
BFab
62
6
10
60.675
20
-131.6375
11
61.925
21
-131.6375
0
LINE
8
BFab
62
6
10
61.925
20
-129.6375
11
60.675
21
-129.6375
0
LINE
8
BFab
62
6
10
60.675
20
-129.6375
11
60.675
21
-131.6375
0
LINE
8
BFab
62
6
10
61.925
20
-131.6375
11
61.925
21
-129.6375
0
LINE
8
BCrtYd
62
8
10
50.480888
20
-148.102968
11
49.020888
21
-148.102968
0
LINE
8
BCrtYd
62
8
10
50.480888
20
-151.402968
11
50.480888
21
-148.102968
0
LINE
8
BCrtYd
62
8
10
49.020888
20
-148.102968
11
49.020888
21
-151.402968
0
LINE
8
BCrtYd
62
8
10
49.020888
20
-151.402968
11
50.480888
21
-151.402968
0
LINE
8
BFab
62
6
10
50.163388
20
-148.952968
11
49.338388
21
-148.952968
0
LINE
8
BFab
62
6
10
49.338388
20
-148.952968
11
49.338388
21
-150.552968
0
LINE
8
BFab
62
6
10
50.163388
20
-150.552968
11
50.163388
21
-148.952968
0
LINE
8
BFab
62
6
10
49.338388
20
-150.552968
11
50.163388
21
-150.552968
0
LINE
8
BCrtYd
62
8
10
109.02
20
-153.78
11
112.78
21
-153.78
0
LINE
8
BCrtYd
62
8
10
112.78
20
-153.78
11
112.78
21
-151.82
0
LINE
8
BCrtYd
62
8
10
109.02
20
-151.82
11
109.02
21
-153.78
0
LINE
8
BCrtYd
62
8
10
112.78
20
-151.82
11
109.02
21
-151.82
0
LINE
8
BFab
62
6
10
109.9
20
-153.425
11
111.9
21
-153.425
0
LINE
8
BFab
62
6
10
109.9
20
-152.175
11
109.9
21
-153.425
0
LINE
8
BFab
62
6
10
111.9
20
-153.425
11
111.9
21
-152.175
0
LINE
8
BFab
62
6
10
111.9
20
-152.175
11
109.9
21
-152.175
0
LINE
8
BCrtYd
62
8
10
54.973291
20
-120.816189
11
56.433291
21
-120.816189
0
LINE
8
BCrtYd
62
8
10
54.973291
20
-117.516189
11
54.973291
21
-120.816189
0
LINE
8
BCrtYd
62
8
10
56.433291
20
-120.816189
11
56.433291
21
-117.516189
0
LINE
8
BCrtYd
62
8
10
56.433291
20
-117.516189
11
54.973291
21
-117.516189
0
LINE
8
BFab
62
6
10
56.115791
20
-118.366189
11
55.290791
21
-118.366189
0
LINE
8
BFab
62
6
10
56.115791
20
-119.966189
11
56.115791
21
-118.366189
0
LINE
8
BFab
62
6
10
55.290791
20
-119.966189
11
56.115791
21
-119.966189
0
LINE
8
BFab
62
6
10
55.290791
20
-118.366189
11
55.290791
21
-119.966189
0
LINE
8
BCrtYd
62
8
10
109.25
20
-155.23
11
112.55
21
-155.23
0
LINE
8
BCrtYd
62
8
10
109.25
20
-153.77
11
109.25
21
-155.23
0
LINE
8
BCrtYd
62
8
10
112.55
20
-153.77
11
109.25
21
-153.77
0
LINE
8
BCrtYd
62
8
10
112.55
20
-155.23
11
112.55
21
-153.77
0
LINE
8
BFab
62
6
10
111.7
20
-154.0875
11
110.1
21
-154.0875
0
LINE
8
BFab
62
6
10
110.1
20
-154.9125
11
111.7
21
-154.9125
0
LINE
8
BFab
62
6
10
110.1
20
-154.0875
11
110.1
21
-154.9125
0
LINE
8
BFab
62
6
10
111.7
20
-154.9125
11
111.7
21
-154.0875
0
LINE
8
BCrtYd
62
8
10
62.2
20
-133.35
11
58.6
21
-133.35
0
LINE
8
BCrtYd
62
8
10
62.2
20
-139.25
11
62.2
21
-133.35
0
LINE
8
BCrtYd
62
8
10
58.6
20
-139.25
11
58.6
21
-133.35
0
LINE
8
BCrtYd
62
8
10
62.2
20
-139.25
11
58.6
21
-139.25
0
LINE
8
BFab
62
6
10
61.9
20
-136.8
11
61.9
21
-134.8
0
LINE
8
BFab
62
6
10
61.9
20
-134.8
11
58.9
21
-134.8
0
LINE
8
BFab
62
6
10
58.9
20
-137.8
11
60.9
21
-137.8
0
LINE
8
BFab
62
6
10
60.9
20
-137.8
11
61.9
21
-136.8
0
LINE
8
BFab
62
6
10
58.9
20
-134.8
11
58.9
21
-137.8
0
LINE
8
BCrtYd
62
8
10
37.52
20
-118.7175
11
39.48
21
-118.7175
0
LINE
8
BCrtYd
62
8
10
37.52
20
-114.9575
11
37.52
21
-118.7175
0
LINE
8
BCrtYd
62
8
10
39.48
20
-114.9575
11
37.52
21
-114.9575
0
LINE
8
BCrtYd
62
8
10
39.48
20
-118.7175
11
39.48
21
-114.9575
0
LINE
8
BFab
62
6
10
39.125
20
-117.8375
11
39.125
21
-115.8375
0
LINE
8
BFab
62
6
10
39.125
20
-115.8375
11
37.875
21
-115.8375
0
LINE
8
BFab
62
6
10
37.875
20
-115.8375
11
37.875
21
-117.8375
0
LINE
8
BFab
62
6
10
37.875
20
-117.8375
11
39.125
21
-117.8375
0
LINE
8
BCrtYd
62
8
10
51.97
20
-136.75
11
53.43
21
-136.75
0
LINE
8
BCrtYd
62
8
10
53.43
20
-136.75
11
53.43
21
-133.45
0
LINE
8
BCrtYd
62
8
10
51.97
20
-133.45
11
51.97
21
-136.75
0
LINE
8
BCrtYd
62
8
10
53.43
20
-133.45
11
51.97
21
-133.45
0
LINE
8
BFab
62
6
10
53.1125
20
-135.9
11
53.1125
21
-134.3
0
LINE
8
BFab
62
6
10
52.2875
20
-135.9
11
53.1125
21
-135.9
0
LINE
8
BFab
62
6
10
52.2875
20
-134.3
11
52.2875
21
-135.9
0
LINE
8
BFab
62
6
10
53.1125
20
-134.3
11
52.2875
21
-134.3
0
LINE
8
BCrtYd
62
8
10
43.88
20
-155.98
11
43.88
21
-152.22
0
LINE
8
BCrtYd
62
8
10
41.92
20
-155.98
11
43.88
21
-155.98
0
LINE
8
BCrtYd
62
8
10
41.92
20
-152.22
11
41.92
21
-155.98
0
LINE
8
BCrtYd
62
8
10
43.88
20
-152.22
11
41.92
21
-152.22
0
LINE
8
BFab
62
6
10
42.275
20
-155.1
11
43.525
21
-155.1
0
LINE
8
BFab
62
6
10
43.525
20
-153.1
11
42.275
21
-153.1
0
LINE
8
BFab
62
6
10
42.275
20
-153.1
11
42.275
21
-155.1
0
LINE
8
BFab
62
6
10
43.525
20
-155.1
11
43.525
21
-153.1
0
LINE
8
0
10
83.1
20
-153.55
11
83.1
21
-128.05
0
LINE
8
0
10
83.1
20
-128.05
11
101.1
21
-128.05
0
LINE
8
0
10
102.6
20
-126.55
11
81.6
21
-126.55
0
LINE
8
0
10
102.6
20
-154.55
11
102.6
21
-126.55
0
LINE
8
0
10
81.6
20
-126.55
11
81.6
21
-154.55
0
LINE
8
0
10
81.6
20
-154.55
11
102.6
21
-154.55
0
LINE
8
0
10
101.1
20
-128.05
11
101.1
21
-153.55
0
LINE
8
0
10
101.1
20
-153.55
11
83.1
21
-153.55
0
LINE
8
BCrtYd
62
8
10
41.62
20
-150.78
11
45.38
21
-150.78
0
LINE
8
BCrtYd
62
8
10
45.38
20
-150.78
11
45.38
21
-148.82
0
LINE
8
BCrtYd
62
8
10
45.38
20
-148.82
11
41.62
21
-148.82
0
LINE
8
BCrtYd
62
8
10
41.62
20
-148.82
11
41.62
21
-150.78
0
LINE
8
BFab
62
6
10
44.5
20
-149.175
11
42.5
21
-149.175
0
LINE
8
BFab
62
6
10
42.5
20
-149.175
11
42.5
21
-150.425
0
LINE
8
BFab
62
6
10
44.5
20
-150.425
11
44.5
21
-149.175
0
LINE
8
BFab
62
6
10
42.5
20
-150.425
11
44.5
21
-150.425
0
LINE
8
BCrtYd
62
8
10
23.82
20
-155.8575
11
23.82
21
-159.6175
0
LINE
8
BCrtYd
62
8
10
25.78
20
-155.8575
11
23.82
21
-155.8575
0
LINE
8
BCrtYd
62
8
10
25.78
20
-159.6175
11
25.78
21
-155.8575
0
LINE
8
BCrtYd
62
8
10
23.82
20
-159.6175
11
25.78
21
-159.6175
0
LINE
8
BFab
62
6
10
24.175
20
-158.7375
11
25.425
21
-158.7375
0
LINE
8
BFab
62
6
10
25.425
20
-158.7375
11
25.425
21
-156.7375
0
LINE
8
BFab
62
6
10
24.175
20
-156.7375
11
24.175
21
-158.7375
0
LINE
8
BFab
62
6
10
25.425
20
-156.7375
11
24.175
21
-156.7375
0
LINE
8
BCrtYd
62
8
10
33.92
20
-133.28
11
35.88
21
-133.28
0
LINE
8
BCrtYd
62
8
10
35.88
20
-133.28
11
35.88
21
-129.52
0
LINE
8
BCrtYd
62
8
10
35.88
20
-129.52
11
33.92
21
-129.52
0
LINE
8
BCrtYd
62
8
10
33.92
20
-129.52
11
33.92
21
-133.28
0
LINE
8
BFab
62
6
10
34.275
20
-132.4
11
35.525
21
-132.4
0
LINE
8
BFab
62
6
10
35.525
20
-132.4
11
35.525
21
-130.4
0
LINE
8
BFab
62
6
10
34.275
20
-130.4
11
34.275
21
-132.4
0
LINE
8
BFab
62
6
10
35.525
20
-130.4
11
34.275
21
-130.4
0
LINE
8
BCrtYd
62
8
10
93.0175
20
-121.57
11
91.0575
21
-121.57
0
LINE
8
BCrtYd
62
8
10
91.0575
20
-125.33
11
93.0175
21
-125.33
0
LINE
8
BCrtYd
62
8
10
93.0175
20
-125.33
11
93.0175
21
-121.57
0
LINE
8
BCrtYd
62
8
10
91.0575
20
-121.57
11
91.0575
21
-125.33
0
LINE
8
BFab
62
6
10
92.6625
20
-124.45
11
92.6625
21
-122.45
0
LINE
8
BFab
62
6
10
91.4125
20
-124.45
11
92.6625
21
-124.45
0
LINE
8
BFab
62
6
10
92.6625
20
-122.45
11
91.4125
21
-122.45
0
LINE
8
BFab
62
6
10
91.4125
20
-122.45
11
91.4125
21
-124.45
0
LINE
8
BCrtYd
62
8
10
65.13
20
-130.85
11
63.67
21
-130.85
0
LINE
8
BCrtYd
62
8
10
63.67
20
-134.15
11
65.13
21
-134.15
0
LINE
8
BCrtYd
62
8
10
65.13
20
-134.15
11
65.13
21
-130.85
0
LINE
8
BCrtYd
62
8
10
63.67
20
-130.85
11
63.67
21
-134.15
0
LINE
8
BFab
62
6
10
63.9875
20
-133.3
11
64.8125
21
-133.3
0
LINE
8
BFab
62
6
10
63.9875
20
-131.7
11
63.9875
21
-133.3
0
LINE
8
BFab
62
6
10
64.8125
20
-131.7
11
63.9875
21
-131.7
0
LINE
8
BFab
62
6
10
64.8125
20
-133.3
11
64.8125
21
-131.7
0
LINE
8
BCrtYd
62
8
10
63.73
20
-135.25
11
62.27
21
-135.25
0
LINE
8
BCrtYd
62
8
10
62.27
20
-138.55
11
63.73
21
-138.55
0
LINE
8
BCrtYd
62
8
10
62.27
20
-135.25
11
62.27
21
-138.55
0
LINE
8
BCrtYd
62
8
10
63.73
20
-138.55
11
63.73
21
-135.25
0
LINE
8
BFab
62
6
10
62.5875
20
-137.7
11
63.4125
21
-137.7
0
LINE
8
BFab
62
6
10
62.5875
20
-136.1
11
62.5875
21
-137.7
0
LINE
8
BFab
62
6
10
63.4125
20
-137.7
11
63.4125
21
-136.1
0
LINE
8
BFab
62
6
10
63.4125
20
-136.1
11
62.5875
21
-136.1
0
LINE
8
BCrtYd
62
8
10
107.5
20
-115.75
11
116.5
21
-115.75
0
LINE
8
BCrtYd
62
8
10
107.5
20
-112.25
11
107.5
21
-115.75
0
LINE
8
BCrtYd
62
8
10
116.5
20
-115.75
11
116.5
21
-112.25
0
LINE
8
BCrtYd
62
8
10
116.5
20
-112.25
11
107.5
21
-112.25
0
LINE
8
BFab
62
6
10
114.3
20
-112.5
11
109.7
21
-112.5
0
LINE
8
BFab
62
6
10
111.35056
20
-113.99898
11
110.44886
21
-113.99898
0
LINE
8
BFab
62
6
10
111.35056
20
-113.99898
11
112.50118
21
-113.24968
0
LINE
8
BFab
62
6
10
111.35056
20
-114.79908
11
111.35056
21
-113.19888
0
LINE
8
BFab
62
6
10
114.3
20
-115.5
11
109.7
21
-115.5
0
LINE
8
BFab
62
6
10
114.3
20
-115.5
11
114.3
21
-112.5
0
LINE
8
BFab
62
6
10
112.50118
20
-113.99898
11
113.4994
21
-113.99898
0
LINE
8
BFab
62
6
10
109.7
20
-112.5
11
109.7
21
-115.5
0
LINE
8
BFab
62
6
10
111.35056
20
-113.99898
11
112.50118
21
-114.79908
0
LINE
8
BFab
62
6
10
112.50118
20
-113.24968
11
112.50118
21
-114.79908
0
LINE
8
0
10
75.925
20
-126.0
11
80.075
21
-126.0
0
LINE
8
0
10
77.2
20
-125.75
11
78.8
21
-125.75
0
LINE
8
0
10
78.8
20
-122.85
11
77.2
21
-122.85
0
LINE
8
0
10
77.2
20
-124.8
11
78.15
21
-125.75
0
LINE
8
0
10
75.925
20
-122.6
11
75.925
21
-126.0
0
LINE
8
0
10
78.8
20
-125.75
11
78.8
21
-122.85
0
LINE
8
0
10
80.075
20
-122.6
11
75.925
21
-122.6
0
LINE
8
0
10
77.2
20
-122.85
11
77.2
21
-125.75
0
LINE
8
0
10
80.075
20
-126.0
11
80.075
21
-122.6
0
LINE
8
BCrtYd
62
8
10
102.2
20
-136.22
11
102.2
21
-141.18
0
LINE
8
BCrtYd
62
8
10
105.4
20
-141.18
11
105.4
21
-136.22
0
LINE
8
BCrtYd
62
8
10
105.4
20
-136.22
11
102.2
21
-136.22
0
LINE
8
BCrtYd
62
8
10
102.2
20
-141.18
11
105.4
21
-141.18
0
LINE
8
BFab
62
6
10
102.55
20
-140.3
11
105.05
21
-140.3
0
LINE
8
BFab
62
6
10
102.55
20
-137.1
11
102.55
21
-140.3
0
LINE
8
BFab
62
6
10
105.05
20
-140.3
11
105.05
21
-137.1
0
LINE
8
BFab
62
6
10
105.05
20
-137.1
11
102.55
21
-137.1
0
LINE
8
BCrtYd
62
8
10
59.118657
20
-139.238919
11
59.118657
21
-142.538919
0
LINE
8
BCrtYd
62
8
10
60.578657
20
-142.538919
11
60.578657
21
-139.238919
0
LINE
8
BCrtYd
62
8
10
60.578657
20
-139.238919
11
59.118657
21
-139.238919
0
LINE
8
BCrtYd
62
8
10
59.118657
20
-142.538919
11
60.578657
21
-142.538919
0
LINE
8
BFab
62
6
10
60.261157
20
-141.688919
11
60.261157
21
-140.088919
0
LINE
8
BFab
62
6
10
59.436157
20
-141.688919
11
60.261157
21
-141.688919
0
LINE
8
BFab
62
6
10
59.436157
20
-140.088919
11
59.436157
21
-141.688919
0
LINE
8
BFab
62
6
10
60.261157
20
-140.088919
11
59.436157
21
-140.088919
0
LINE
8
BCrtYd
62
8
10
53.45
20
-140.07
11
50.15
21
-140.07
0
LINE
8
BCrtYd
62
8
10
50.15
20
-141.53
11
53.45
21
-141.53
0
LINE
8
BCrtYd
62
8
10
50.15
20
-140.07
11
50.15
21
-141.53
0
LINE
8
BCrtYd
62
8
10
53.45
20
-141.53
11
53.45
21
-140.07
0
LINE
8
BFab
62
6
10
52.6
20
-141.2125
11
52.6
21
-140.3875
0
LINE
8
BFab
62
6
10
51.0
20
-140.3875
11
51.0
21
-141.2125
0
LINE
8
BFab
62
6
10
52.6
20
-140.3875
11
51.0
21
-140.3875
0
LINE
8
BFab
62
6
10
51.0
20
-141.2125
11
52.6
21
-141.2125
0
LINE
8
BCrtYd
62
8
10
100.8
20
-126.6
11
100.8
21
-123.0
0
LINE
8
BCrtYd
62
8
10
104.4
20
-123.0
11
104.4
21
-126.6
0
LINE
8
BCrtYd
62
8
10
100.8
20
-123.0
11
104.4
21
-123.0
0
LINE
8
BCrtYd
62
8
10
104.4
20
-126.6
11
100.8
21
-126.6
0
LINE
8
BFab
62
6
10
101.965
20
-126.07
11
103.87
21
-126.07
0
LINE
8
BFab
62
6
10
101.33
20
-123.53
11
101.33
21
-125.435
0
LINE
8
BFab
62
6
10
103.87
20
-126.07
11
103.87
21
-123.53
0
LINE
8
BFab
62
6
10
101.33
20
-125.435
11
101.965
21
-126.07
0
LINE
8
BFab
62
6
10
103.87
20
-123.53
11
101.33
21
-123.53
0
LINE
8
BCrtYd
62
8
10
51.97
20
-136.75
11
51.97
21
-140.05
0
LINE
8
BCrtYd
62
8
10
53.43
20
-136.75
11
51.97
21
-136.75
0
LINE
8
BCrtYd
62
8
10
51.97
20
-140.05
11
53.43
21
-140.05
0
LINE
8
BCrtYd
62
8
10
53.43
20
-140.05
11
53.43
21
-136.75
0
LINE
8
BFab
62
6
10
53.1125
20
-137.6
11
52.2875
21
-137.6
0
LINE
8
BFab
62
6
10
52.2875
20
-137.6
11
52.2875
21
-139.2
0
LINE
8
BFab
62
6
10
52.2875
20
-139.2
11
53.1125
21
-139.2
0
LINE
8
BFab
62
6
10
53.1125
20
-139.2
11
53.1125
21
-137.6
0
LINE
8
BCrtYd
62
8
10
102.12
20
-136.28
11
104.08
21
-136.28
0
LINE
8
BCrtYd
62
8
10
104.08
20
-132.52
11
102.12
21
-132.52
0
LINE
8
BCrtYd
62
8
10
102.12
20
-132.52
11
102.12
21
-136.28
0
LINE
8
BCrtYd
62
8
10
104.08
20
-136.28
11
104.08
21
-132.52
0
LINE
8
BFab
62
6
10
102.475
20
-133.4
11
102.475
21
-135.4
0
LINE
8
BFab
62
6
10
102.475
20
-135.4
11
103.725
21
-135.4
0
LINE
8
BFab
62
6
10
103.725
20
-133.4
11
102.475
21
-133.4
0
LINE
8
BFab
62
6
10
103.725
20
-135.4
11
103.725
21
-133.4
0
LINE
8
BCrtYd
62
8
10
56.609483
20
-118.999978
11
59.909483
21
-118.999978
0
LINE
8
BCrtYd
62
8
10
59.909483
20
-117.539978
11
56.609483
21
-117.539978
0
LINE
8
BCrtYd
62
8
10
56.609483
20
-117.539978
11
56.609483
21
-118.999978
0
LINE
8
BCrtYd
62
8
10
59.909483
20
-118.999978
11
59.909483
21
-117.539978
0
LINE
8
BFab
62
6
10
57.459483
20
-118.682478
11
59.059483
21
-118.682478
0
LINE
8
BFab
62
6
10
59.059483
20
-118.682478
11
59.059483
21
-117.857478
0
LINE
8
BFab
62
6
10
59.059483
20
-117.857478
11
57.459483
21
-117.857478
0
LINE
8
BFab
62
6
10
57.459483
20
-117.857478
11
57.459483
21
-118.682478
0
LINE
8
BCrtYd
62
8
10
66.23
20
-111.22
11
68.75
21
-111.22
0
LINE
8
BCrtYd
62
8
10
66.23
20
-111.22
11
66.23
21
-117.2
0
LINE
8
BCrtYd
62
8
10
68.75
20
-117.2
11
66.23
21
-117.2
0
LINE
8
BCrtYd
62
8
10
68.75
20
-117.2
11
68.75
21
-111.22
0
LINE
8
BCrtYd
62
8
10
112.85
20
-155.23
11
116.15
21
-155.23
0
LINE
8
BCrtYd
62
8
10
116.15
20
-153.77
11
112.85
21
-153.77
0
LINE
8
BCrtYd
62
8
10
112.85
20
-153.77
11
112.85
21
-155.23
0
LINE
8
BCrtYd
62
8
10
116.15
20
-155.23
11
116.15
21
-153.77
0
LINE
8
BFab
62
6
10
113.7
20
-154.9125
11
115.3
21
-154.9125
0
LINE
8
BFab
62
6
10
113.7
20
-154.0875
11
113.7
21
-154.9125
0
LINE
8
BFab
62
6
10
115.3
20
-154.0875
11
113.7
21
-154.0875
0
LINE
8
BFab
62
6
10
115.3
20
-154.9125
11
115.3
21
-154.0875
0
LINE
8
BCrtYd
62
8
10
25.82
20
-159.6175
11
27.78
21
-159.6175
0
LINE
8
BCrtYd
62
8
10
25.82
20
-155.8575
11
25.82
21
-159.6175
0
LINE
8
BCrtYd
62
8
10
27.78
20
-159.6175
11
27.78
21
-155.8575
0
LINE
8
BCrtYd
62
8
10
27.78
20
-155.8575
11
25.82
21
-155.8575
0
LINE
8
BFab
62
6
10
26.175
20
-156.7375
11
26.175
21
-158.7375
0
LINE
8
BFab
62
6
10
26.175
20
-158.7375
11
27.425
21
-158.7375
0
LINE
8
BFab
62
6
10
27.425
20
-158.7375
11
27.425
21
-156.7375
0
LINE
8
BFab
62
6
10
27.425
20
-156.7375
11
26.175
21
-156.7375
0
LINE
8
BCrtYd
62
8
10
47.502788
20
-151.436211
11
48.962788
21
-151.436211
0
LINE
8
BCrtYd
62
8
10
48.962788
20
-151.436211
11
48.962788
21
-148.136211
0
LINE
8
BCrtYd
62
8
10
48.962788
20
-148.136211
11
47.502788
21
-148.136211
0
LINE
8
BCrtYd
62
8
10
47.502788
20
-148.136211
11
47.502788
21
-151.436211
0
LINE
8
BFab
62
6
10
48.645288
20
-150.586211
11
48.645288
21
-148.986211
0
LINE
8
BFab
62
6
10
47.820288
20
-148.986211
11
47.820288
21
-150.586211
0
LINE
8
BFab
62
6
10
48.645288
20
-148.986211
11
47.820288
21
-148.986211
0
LINE
8
BFab
62
6
10
47.820288
20
-150.586211
11
48.645288
21
-150.586211
0
LINE
8
BCrtYd
62
8
10
62.27
20
-129.95
11
62.27
21
-133.25
0
LINE
8
BCrtYd
62
8
10
63.73
20
-129.95
11
62.27
21
-129.95
0
LINE
8
BCrtYd
62
8
10
62.27
20
-133.25
11
63.73
21
-133.25
0
LINE
8
BCrtYd
62
8
10
63.73
20
-133.25
11
63.73
21
-129.95
0
LINE
8
BFab
62
6
10
62.5875
20
-130.8
11
62.5875
21
-132.4
0
LINE
8
BFab
62
6
10
63.4125
20
-132.4
11
63.4125
21
-130.8
0
LINE
8
BFab
62
6
10
62.5875
20
-132.4
11
63.4125
21
-132.4
0
LINE
8
BFab
62
6
10
63.4125
20
-130.8
11
62.5875
21
-130.8
0
LINE
8
BCrtYd
62
8
10
64.130801
20
-142.735675
11
64.130801
21
-138.975675
0
LINE
8
BCrtYd
62
8
10
62.170801
20
-142.735675
11
64.130801
21
-142.735675
0
LINE
8
BCrtYd
62
8
10
64.130801
20
-138.975675
11
62.170801
21
-138.975675
0
LINE
8
BCrtYd
62
8
10
62.170801
20
-138.975675
11
62.170801
21
-142.735675
0
LINE
8
BFab
62
6
10
63.775801
20
-141.855675
11
63.775801
21
-139.855675
0
LINE
8
BFab
62
6
10
63.775801
20
-139.855675
11
62.525801
21
-139.855675
0
LINE
8
BFab
62
6
10
62.525801
20
-139.855675
11
62.525801
21
-141.855675
0
LINE
8
BFab
62
6
10
62.525801
20
-141.855675
11
63.775801
21
-141.855675
0
LINE
8
BCrtYd
62
8
10
94.15
20
-114.17
11
90.85
21
-114.17
0
LINE
8
BCrtYd
62
8
10
90.85
20
-115.63
11
94.15
21
-115.63
0
LINE
8
BCrtYd
62
8
10
90.85
20
-114.17
11
90.85
21
-115.63
0
LINE
8
BCrtYd
62
8
10
94.15
20
-115.63
11
94.15
21
-114.17
0
LINE
8
BFab
62
6
10
91.7
20
-114.4875
11
91.7
21
-115.3125
0
LINE
8
BFab
62
6
10
93.3
20
-115.3125
11
93.3
21
-114.4875
0
LINE
8
BFab
62
6
10
91.7
20
-115.3125
11
93.3
21
-115.3125
0
LINE
8
BFab
62
6
10
93.3
20
-114.4875
11
91.7
21
-114.4875
0
LINE
8
0
10
36.685
20
-131.95
11
41.585
21
-131.95
0
LINE
8
0
10
36.385
20
-126.275
11
36.385
21
-133.725
0
LINE
8
0
10
41.585
20
-128.05
11
36.685
21
-128.05
0
LINE
8
0
10
41.585
20
-131.95
11
41.585
21
-128.05
0
LINE
8
0
10
41.885
20
-126.275
11
36.385
21
-126.275
0
LINE
8
0
10
41.885
20
-133.725
11
41.885
21
-126.275
0
LINE
8
0
10
36.385
20
-133.725
11
41.885
21
-133.725
0
LINE
8
0
10
37.955
20
-128.05
11
36.685
21
-129.32
0
LINE
8
0
10
36.685
20
-128.05
11
36.685
21
-131.95
0
ENDSEC
0
EOF
