%TF.GenerationSoftware,KiCad,Pcbnew,(6.0.1)*%
%TF.CreationDate,2022-09-27T15:52:50+02:00*%
%TF.ProjectId,WetterStationPCB,57657474-6572-4537-9461-74696f6e5043,rev?*%
%TF.SameCoordinates,Original*%
%TF.FileFunction,Paste,Top*%
%TF.FilePolarity,Positive*%
%FSLAX46Y46*%
G04 Gerber Fmt 4.6, Leading zero omitted, Abs format (unit mm)*
G04 Created by KiCad (PCBNEW (6.0.1)) date 2022-09-27 15:52:50*
%MOMM*%
%LPD*%
G01*
G04 APERTURE LIST*
G04 Aperture macros list*
%AMRoundRect*
0 Rectangle with rounded corners*
0 $1 Rounding radius*
0 $2 $3 $4 $5 $6 $7 $8 $9 X,Y pos of 4 corners*
0 Add a 4 corners polygon primitive as box body*
4,1,4,$2,$3,$4,$5,$6,$7,$8,$9,$2,$3,0*
0 Add four circle primitives for the rounded corners*
1,1,$1+$1,$2,$3*
1,1,$1+$1,$4,$5*
1,1,$1+$1,$6,$7*
1,1,$1+$1,$8,$9*
0 Add four rect primitives between the rounded corners*
20,1,$1+$1,$2,$3,$4,$5,0*
20,1,$1+$1,$4,$5,$6,$7,0*
20,1,$1+$1,$6,$7,$8,$9,0*
20,1,$1+$1,$8,$9,$2,$3,0*%
G04 Aperture macros list end*
%ADD10R,0.900000X1.850000*%
%ADD11R,0.750000X0.750000*%
%ADD12R,1.450000X0.870000*%
%ADD13RoundRect,0.237500X-0.237500X0.250000X-0.237500X-0.250000X0.237500X-0.250000X0.237500X0.250000X0*%
%ADD14R,0.600000X1.160000*%
%ADD15R,0.300000X1.160000*%
%ADD16R,13.000000X6.000000*%
%ADD17R,10.000000X7.000000*%
%ADD18R,0.900000X1.700000*%
G04 APERTURE END LIST*
D10*
%TO.C,Q13*%
X18800000Y-150325000D03*
X25200000Y-152675000D03*
X25200000Y-150325000D03*
X18800000Y-152675000D03*
D11*
X23450000Y-151500000D03*
D12*
X21700000Y-152110000D03*
X21700000Y-150890000D03*
%TD*%
D10*
%TO.C,Q9*%
X25200000Y-116125000D03*
X25200000Y-118475000D03*
X18800000Y-116125000D03*
X18800000Y-118475000D03*
D11*
X23450000Y-117300000D03*
D12*
X21700000Y-117910000D03*
X21700000Y-116690000D03*
%TD*%
D10*
%TO.C,Q10*%
X25200000Y-124875000D03*
X18800000Y-122525000D03*
X25200000Y-122525000D03*
X18800000Y-124875000D03*
D11*
X23450000Y-123700000D03*
D12*
X21700000Y-123090000D03*
X21700000Y-124310000D03*
%TD*%
D10*
%TO.C,Q14*%
X25200000Y-145675000D03*
X18800000Y-143325000D03*
X18800000Y-145675000D03*
X25200000Y-143325000D03*
D11*
X23450000Y-144500000D03*
D12*
X21700000Y-143890000D03*
X21700000Y-145110000D03*
%TD*%
D13*
%TO.C,R2*%
X81600000Y-104787500D03*
X81600000Y-106612500D03*
%TD*%
D14*
%TO.C,P1*%
X101700000Y-110585000D03*
X100900000Y-110585000D03*
D15*
X99750000Y-110585000D03*
X98750000Y-110585000D03*
X98250000Y-110585000D03*
X97250000Y-110585000D03*
D14*
X96100000Y-110585000D03*
X95300000Y-110585000D03*
X95300000Y-110585000D03*
X96100000Y-110585000D03*
D15*
X96750000Y-110585000D03*
X97750000Y-110585000D03*
X99250000Y-110585000D03*
X100250000Y-110585000D03*
D14*
X100900000Y-110585000D03*
X101700000Y-110585000D03*
%TD*%
D16*
%TO.C,BT1*%
X34000000Y-144750000D03*
X34000000Y-123250000D03*
D17*
X114500000Y-144000000D03*
X114500000Y-124000000D03*
%TD*%
D18*
%TO.C,SW1*%
X88000000Y-105700000D03*
X91400000Y-105700000D03*
%TD*%
%TO.C,SW2*%
X86500000Y-105700000D03*
X83100000Y-105700000D03*
%TD*%
M02*
