%TF.GenerationSoftware,KiCad,Pcbnew,(6.0.1)*%
%TF.CreationDate,2022-09-27T15:52:51+02:00*%
%TF.ProjectId,WetterStationPCB,57657474-6572-4537-9461-74696f6e5043,rev?*%
%TF.SameCoordinates,Original*%
%TF.FileFunction,Soldermask,Top*%
%TF.FilePolarity,Negative*%
%FSLAX46Y46*%
G04 Gerber Fmt 4.6, Leading zero omitted, Abs format (unit mm)*
G04 Created by KiCad (PCBNEW (6.0.1)) date 2022-09-27 15:52:51*
%MOMM*%
%LPD*%
G01*
G04 APERTURE LIST*
G04 Aperture macros list*
%AMRoundRect*
0 Rectangle with rounded corners*
0 $1 Rounding radius*
0 $2 $3 $4 $5 $6 $7 $8 $9 X,Y pos of 4 corners*
0 Add a 4 corners polygon primitive as box body*
4,1,4,$2,$3,$4,$5,$6,$7,$8,$9,$2,$3,0*
0 Add four circle primitives for the rounded corners*
1,1,$1+$1,$2,$3*
1,1,$1+$1,$4,$5*
1,1,$1+$1,$6,$7*
1,1,$1+$1,$8,$9*
0 Add four rect primitives between the rounded corners*
20,1,$1+$1,$2,$3,$4,$5,0*
20,1,$1+$1,$4,$5,$6,$7,0*
20,1,$1+$1,$6,$7,$8,$9,0*
20,1,$1+$1,$8,$9,$2,$3,0*%
%AMFreePoly0*
4,1,6,1.000000,0.000000,0.500000,-0.750000,-0.500000,-0.750000,-0.500000,0.750000,0.500000,0.750000,1.000000,0.000000,1.000000,0.000000,$1*%
G04 Aperture macros list end*
%ADD10R,1.700000X1.700000*%
%ADD11O,1.700000X1.700000*%
%ADD12R,0.900000X1.850000*%
%ADD13R,0.750000X0.750000*%
%ADD14R,1.450000X0.870000*%
%ADD15R,2.000000X2.000000*%
%ADD16C,2.000000*%
%ADD17C,2.700000*%
%ADD18RoundRect,0.650000X6.850000X2.600000X-6.850000X2.600000X-6.850000X-2.600000X6.850000X-2.600000X0*%
%ADD19RoundRect,0.237500X-0.237500X0.250000X-0.237500X-0.250000X0.237500X-0.250000X0.237500X0.250000X0*%
%ADD20C,0.600000*%
%ADD21R,0.600000X1.160000*%
%ADD22R,0.300000X1.160000*%
%ADD23O,1.200000X2.000000*%
%ADD24O,1.200000X2.300000*%
%ADD25R,3.000000X3.000000*%
%ADD26C,3.000000*%
%ADD27R,1.500000X1.500000*%
%ADD28FreePoly0,0.000000*%
%ADD29FreePoly0,180.000000*%
%ADD30C,4.000000*%
%ADD31R,13.000000X6.000000*%
%ADD32R,10.000000X7.000000*%
%ADD33O,5.000000X7.000000*%
%ADD34R,0.900000X1.700000*%
G04 APERTURE END LIST*
D10*
%TO.C,J1*%
X50175000Y-137750000D03*
D11*
X50175000Y-135210000D03*
%TD*%
D12*
%TO.C,Q13*%
X18800000Y-150325000D03*
X25200000Y-152675000D03*
X25200000Y-150325000D03*
X18800000Y-152675000D03*
D13*
X23450000Y-151500000D03*
D14*
X21700000Y-152110000D03*
X21700000Y-150890000D03*
%TD*%
D12*
%TO.C,Q9*%
X25200000Y-116125000D03*
X25200000Y-118475000D03*
X18800000Y-116125000D03*
X18800000Y-118475000D03*
D13*
X23450000Y-117300000D03*
D14*
X21700000Y-117910000D03*
X21700000Y-116690000D03*
%TD*%
D15*
%TO.C,C33*%
X22300000Y-156800000D03*
D16*
X22300000Y-161800000D03*
%TD*%
D10*
%TO.C,J16*%
X112064729Y-109628803D03*
D11*
X114604729Y-109628803D03*
%TD*%
D10*
%TO.C,J13*%
X105289398Y-162238140D03*
D11*
X102749398Y-162238140D03*
%TD*%
D10*
%TO.C,J2*%
X61000000Y-160975000D03*
D11*
X63540000Y-160975000D03*
X66080000Y-160975000D03*
X68620000Y-160975000D03*
X71160000Y-160975000D03*
X73700000Y-160975000D03*
X76240000Y-160975000D03*
X78780000Y-160975000D03*
X81320000Y-160975000D03*
X83860000Y-160975000D03*
X86400000Y-160975000D03*
X88940000Y-160975000D03*
X91480000Y-160975000D03*
X94020000Y-160975000D03*
%TD*%
D10*
%TO.C,J6*%
X66900000Y-131500000D03*
D11*
X66900000Y-134040000D03*
%TD*%
D10*
%TO.C,J4*%
X78780000Y-109675000D03*
D11*
X81320000Y-109675000D03*
X83860000Y-109675000D03*
X86400000Y-109675000D03*
X88940000Y-109675000D03*
X91480000Y-109675000D03*
%TD*%
D10*
%TO.C,U7*%
X67705000Y-109700000D03*
D11*
X70245000Y-109700000D03*
X72785000Y-109700000D03*
X75325000Y-109700000D03*
%TD*%
D10*
%TO.C,U4*%
X45505000Y-109700000D03*
D11*
X48045000Y-109700000D03*
X50585000Y-109700000D03*
X53125000Y-109700000D03*
%TD*%
D10*
%TO.C,J15*%
X115475000Y-162200000D03*
D11*
X112935000Y-162200000D03*
%TD*%
D17*
%TO.C,H4*%
X41000000Y-159000000D03*
%TD*%
D10*
%TO.C,U5*%
X56705000Y-109700000D03*
D11*
X59245000Y-109700000D03*
X61785000Y-109700000D03*
X64325000Y-109700000D03*
%TD*%
D17*
%TO.C,H3*%
X41000000Y-109000000D03*
%TD*%
D15*
%TO.C,C21*%
X22000000Y-111867677D03*
D16*
X22000000Y-106867677D03*
%TD*%
D15*
%TO.C,C28*%
X35367677Y-162000000D03*
D16*
X30367677Y-162000000D03*
%TD*%
D12*
%TO.C,Q10*%
X25200000Y-124875000D03*
X18800000Y-122525000D03*
X25200000Y-122525000D03*
X18800000Y-124875000D03*
D13*
X23450000Y-123700000D03*
D14*
X21700000Y-123090000D03*
X21700000Y-124310000D03*
%TD*%
D10*
%TO.C,J8*%
X109575000Y-105675000D03*
D11*
X112115000Y-105675000D03*
X114655000Y-105675000D03*
%TD*%
D10*
%TO.C,J14*%
X110383635Y-162239472D03*
D11*
X107843635Y-162239472D03*
%TD*%
D12*
%TO.C,Q14*%
X25200000Y-145675000D03*
X18800000Y-143325000D03*
X18800000Y-145675000D03*
X25200000Y-143325000D03*
D13*
X23450000Y-144500000D03*
D14*
X21700000Y-143890000D03*
X21700000Y-145110000D03*
%TD*%
D18*
%TO.C,L1*%
X24605000Y-130395000D03*
X24605000Y-137795000D03*
%TD*%
D10*
%TO.C,J7*%
X66887500Y-128900000D03*
%TD*%
D19*
%TO.C,R2*%
X81600000Y-104787500D03*
X81600000Y-106612500D03*
%TD*%
D20*
%TO.C,P1*%
X95610000Y-109525000D03*
X101390000Y-109525000D03*
D21*
X101700000Y-110585000D03*
X100900000Y-110585000D03*
D22*
X99750000Y-110585000D03*
X98750000Y-110585000D03*
X98250000Y-110585000D03*
X97250000Y-110585000D03*
D21*
X96100000Y-110585000D03*
X95300000Y-110585000D03*
X95300000Y-110585000D03*
X96100000Y-110585000D03*
D22*
X96750000Y-110585000D03*
X97750000Y-110585000D03*
X99250000Y-110585000D03*
X100250000Y-110585000D03*
D21*
X100900000Y-110585000D03*
X101700000Y-110585000D03*
D23*
X94180000Y-105835000D03*
D24*
X102820000Y-110005000D03*
D23*
X102820000Y-105835000D03*
D24*
X94180000Y-110005000D03*
%TD*%
D25*
%TO.C,J17*%
X35540000Y-106700000D03*
D26*
X30460000Y-106700000D03*
%TD*%
D17*
%TO.C,H1*%
X99000000Y-159000000D03*
%TD*%
D27*
%TO.C,JP2*%
X54500000Y-106400000D03*
X52100000Y-106400000D03*
D28*
X51300000Y-106400000D03*
D29*
X55300000Y-106400000D03*
%TD*%
D30*
%TO.C,BT1*%
X35000000Y-144750000D03*
X38000000Y-144000000D03*
D31*
X34000000Y-144750000D03*
X34000000Y-123250000D03*
D30*
X35000000Y-123250000D03*
X38000000Y-124000000D03*
D32*
X114500000Y-144000000D03*
X114500000Y-124000000D03*
D33*
X112000000Y-124000000D03*
X112000000Y-144000000D03*
%TD*%
D17*
%TO.C,H2*%
X106700000Y-109900000D03*
%TD*%
D34*
%TO.C,SW1*%
X88000000Y-105700000D03*
X91400000Y-105700000D03*
%TD*%
%TO.C,SW2*%
X86500000Y-105700000D03*
X83100000Y-105700000D03*
%TD*%
D10*
%TO.C,U1*%
X45600000Y-158200000D03*
D11*
X48140000Y-158200000D03*
X50680000Y-158200000D03*
X53220000Y-158200000D03*
%TD*%
D10*
%TO.C,J3*%
X104525000Y-158700000D03*
D11*
X107065000Y-158700000D03*
X109605000Y-158700000D03*
X112145000Y-158700000D03*
X114685000Y-158700000D03*
%TD*%
D10*
%TO.C,J5*%
X94000000Y-158100000D03*
D11*
X91460000Y-158100000D03*
X88920000Y-158100000D03*
X86380000Y-158100000D03*
X83840000Y-158100000D03*
X81300000Y-158100000D03*
X78760000Y-158100000D03*
X76220000Y-158100000D03*
X73680000Y-158100000D03*
X71140000Y-158100000D03*
X68600000Y-158100000D03*
X66060000Y-158100000D03*
X63520000Y-158100000D03*
X60980000Y-158100000D03*
%TD*%
D10*
%TO.C,J10*%
X86000000Y-124398209D03*
%TD*%
%TO.C,J11*%
X102600000Y-124800000D03*
%TD*%
M02*
