%FSLAX45Y45*%
G04 Gerber Fmt 4.5, Leading zero omitted, Abs format (unit mm)*
G04 Created by KiCad (PCBNEW (6.0.1)) date 2022-09-27 15:49:09*
%MOMM*%
%LPD*%
G01*
G04 APERTURE LIST*
%TA.AperFunction,Profile*%
%ADD10C,0.100000*%
%TD*%
%ADD11C,0.200000*%
%ADD12C,0.030000*%
%ADD13C,0.040000*%
%ADD14C,0.060000*%
%ADD15C,0.100000*%
%ADD16C,0.152000*%
G04 APERTURE END LIST*
D10*
X1700000Y-10400000D02*
X11700000Y-10400000D01*
X11700000Y-10400000D02*
X11700000Y-16400000D01*
X11700000Y-16400000D02*
X1700000Y-16400000D01*
X1700000Y-16400000D02*
X1700000Y-10400000D01*
D11*
D12*
X1785000Y-14205000D02*
X1815000Y-14235000D01*
X1815000Y-14205000D02*
X1785000Y-14235000D01*
X1785000Y-14435000D02*
X1815000Y-14465000D01*
X1815000Y-14435000D02*
X1785000Y-14465000D01*
X1785000Y-14655000D02*
X1815000Y-14685000D01*
X1815000Y-14655000D02*
X1785000Y-14685000D01*
X1795000Y-11485000D02*
X1825000Y-11515000D01*
X1825000Y-11485000D02*
X1795000Y-11515000D01*
X1795000Y-11715000D02*
X1825000Y-11745000D01*
X1825000Y-11715000D02*
X1795000Y-11745000D01*
X1795000Y-11885000D02*
X1825000Y-11915000D01*
X1825000Y-11885000D02*
X1795000Y-11915000D01*
X1795000Y-12135000D02*
X1825000Y-12165000D01*
X1825000Y-12135000D02*
X1795000Y-12165000D01*
X1795000Y-12355000D02*
X1825000Y-12385000D01*
X1825000Y-12355000D02*
X1795000Y-12385000D01*
X1795000Y-12585000D02*
X1825000Y-12615000D01*
X1825000Y-12585000D02*
X1795000Y-12615000D01*
X2005000Y-11535000D02*
X2035000Y-11565000D01*
X2035000Y-11535000D02*
X2005000Y-11565000D01*
X2005000Y-11705000D02*
X2035000Y-11735000D01*
X2035000Y-11705000D02*
X2005000Y-11735000D01*
X2005000Y-11855000D02*
X2035000Y-11885000D01*
X2035000Y-11855000D02*
X2005000Y-11885000D01*
X2005000Y-15005000D02*
X2035000Y-15035000D01*
X2035000Y-15005000D02*
X2005000Y-15035000D01*
X2005000Y-15165000D02*
X2035000Y-15195000D01*
X2035000Y-15165000D02*
X2005000Y-15195000D01*
X2005000Y-15315000D02*
X2035000Y-15345000D01*
X2035000Y-15315000D02*
X2005000Y-15345000D01*
X2025000Y-12275000D02*
X2055000Y-12305000D01*
X2055000Y-12275000D02*
X2025000Y-12305000D01*
X2025000Y-12405000D02*
X2055000Y-12435000D01*
X2055000Y-12405000D02*
X2025000Y-12435000D01*
X2025000Y-12515000D02*
X2055000Y-12545000D01*
X2055000Y-12515000D02*
X2025000Y-12545000D01*
X2025000Y-14175000D02*
X2055000Y-14205000D01*
X2055000Y-14175000D02*
X2025000Y-14205000D01*
X2025000Y-14345000D02*
X2055000Y-14375000D01*
X2055000Y-14345000D02*
X2025000Y-14375000D01*
X2025000Y-14495000D02*
X2055000Y-14525000D01*
X2055000Y-14495000D02*
X2025000Y-14525000D01*
X2045000Y-12625000D02*
X2075000Y-12655000D01*
X2075000Y-12625000D02*
X2045000Y-12655000D01*
X2105000Y-14275000D02*
X2135000Y-14305000D01*
X2135000Y-14275000D02*
X2105000Y-14305000D01*
X2145000Y-12225000D02*
X2175000Y-12255000D01*
X2175000Y-12225000D02*
X2145000Y-12255000D01*
X2155000Y-11535000D02*
X2185000Y-11565000D01*
X2185000Y-11535000D02*
X2155000Y-11565000D01*
X2155000Y-14575000D02*
X2185000Y-14605000D01*
X2185000Y-14575000D02*
X2155000Y-14605000D01*
X2165000Y-12025000D02*
X2195000Y-12055000D01*
X2195000Y-12025000D02*
X2165000Y-12055000D01*
X2165000Y-12525000D02*
X2195000Y-12555000D01*
X2195000Y-12525000D02*
X2165000Y-12555000D01*
X2175000Y-14175000D02*
X2205000Y-14205000D01*
X2205000Y-14175000D02*
X2175000Y-14205000D01*
X2175000Y-15315000D02*
X2205000Y-15345000D01*
X2205000Y-15315000D02*
X2175000Y-15345000D01*
X2185000Y-12625000D02*
X2215000Y-12655000D01*
X2215000Y-12625000D02*
X2185000Y-12655000D01*
X2185000Y-14775000D02*
X2215000Y-14805000D01*
X2215000Y-14775000D02*
X2185000Y-14805000D01*
X2245000Y-14275000D02*
X2275000Y-14305000D01*
X2275000Y-14275000D02*
X2245000Y-14305000D01*
X2298917Y-12582745D02*
X2328917Y-12612745D01*
X2328917Y-12582745D02*
X2298917Y-12612745D01*
X2305000Y-11535000D02*
X2335000Y-11565000D01*
X2335000Y-11535000D02*
X2305000Y-11565000D01*
X2305000Y-14175000D02*
X2335000Y-14205000D01*
X2335000Y-14175000D02*
X2305000Y-14205000D01*
X2315000Y-12245000D02*
X2345000Y-12275000D01*
X2345000Y-12245000D02*
X2315000Y-12275000D01*
X2315000Y-14545000D02*
X2345000Y-14575000D01*
X2345000Y-14545000D02*
X2315000Y-14575000D01*
X2330016Y-11785000D02*
X2360016Y-11815000D01*
X2360016Y-11785000D02*
X2330016Y-11815000D01*
X2335000Y-11909950D02*
X2365000Y-11939950D01*
X2365000Y-11909950D02*
X2335000Y-11939950D01*
X2335000Y-12445000D02*
X2365000Y-12475000D01*
X2365000Y-12445000D02*
X2335000Y-12475000D01*
X2335000Y-14365000D02*
X2365000Y-14395000D01*
X2365000Y-14365000D02*
X2335000Y-14395000D01*
X2335000Y-14940050D02*
X2365000Y-14970050D01*
X2365000Y-14940050D02*
X2335000Y-14970050D01*
X2335000Y-15065000D02*
X2365000Y-15095000D01*
X2365000Y-15065000D02*
X2335000Y-15095000D01*
X2345000Y-15315000D02*
X2375000Y-15345000D01*
X2375000Y-15315000D02*
X2345000Y-15345000D01*
X2465000Y-15955000D02*
X2495000Y-15985000D01*
X2495000Y-15955000D02*
X2465000Y-15985000D01*
X2585000Y-12105000D02*
X2615000Y-12135000D01*
X2615000Y-12105000D02*
X2585000Y-12135000D01*
X2585000Y-12355000D02*
X2615000Y-12385000D01*
X2615000Y-12355000D02*
X2585000Y-12385000D01*
X2585000Y-12605000D02*
X2615000Y-12635000D01*
X2615000Y-12605000D02*
X2585000Y-12635000D01*
X2585000Y-14195000D02*
X2615000Y-14225000D01*
X2615000Y-14195000D02*
X2585000Y-14225000D01*
X2585000Y-14435000D02*
X2615000Y-14465000D01*
X2615000Y-14435000D02*
X2585000Y-14465000D01*
X2585000Y-14655000D02*
X2615000Y-14685000D01*
X2615000Y-14655000D02*
X2585000Y-14685000D01*
X2605000Y-11485000D02*
X2635000Y-11515000D01*
X2635000Y-11485000D02*
X2605000Y-11515000D01*
X2605000Y-11635000D02*
X2635000Y-11665000D01*
X2635000Y-11635000D02*
X2605000Y-11665000D01*
X2605000Y-11915000D02*
X2635000Y-11945000D01*
X2635000Y-11915000D02*
X2605000Y-11945000D01*
X2665000Y-15955000D02*
X2695000Y-15985000D01*
X2695000Y-15955000D02*
X2665000Y-15985000D01*
X2855000Y-11085000D02*
X2885000Y-11115000D01*
X2885000Y-11085000D02*
X2855000Y-11115000D01*
X2855000Y-11225000D02*
X2885000Y-11255000D01*
X2885000Y-11225000D02*
X2855000Y-11255000D01*
X2855000Y-11365000D02*
X2885000Y-11395000D01*
X2885000Y-11365000D02*
X2855000Y-11395000D01*
X2855000Y-11515000D02*
X2885000Y-11545000D01*
X2885000Y-11515000D02*
X2855000Y-11545000D01*
X2865000Y-15955000D02*
X2895000Y-15985000D01*
X2895000Y-15955000D02*
X2865000Y-15985000D01*
X3045000Y-11585000D02*
X3075000Y-11615000D01*
X3075000Y-11585000D02*
X3045000Y-11615000D01*
X3215000Y-11085000D02*
X3245000Y-11115000D01*
X3245000Y-11085000D02*
X3215000Y-11115000D01*
X3215000Y-11225000D02*
X3245000Y-11255000D01*
X3245000Y-11225000D02*
X3215000Y-11255000D01*
X3235000Y-11345000D02*
X3265000Y-11375000D01*
X3265000Y-11345000D02*
X3235000Y-11375000D01*
X3235000Y-11515000D02*
X3265000Y-11545000D01*
X3265000Y-11515000D02*
X3235000Y-11545000D01*
X3275000Y-15125000D02*
X3305000Y-15155000D01*
X3305000Y-15125000D02*
X3275000Y-15155000D01*
X3275000Y-15255000D02*
X3305000Y-15285000D01*
X3305000Y-15255000D02*
X3275000Y-15285000D01*
X3295000Y-12854950D02*
X3325000Y-12884950D01*
X3325000Y-12854950D02*
X3295000Y-12884950D01*
X3305000Y-13919950D02*
X3335000Y-13949950D01*
X3335000Y-13919950D02*
X3305000Y-13949950D01*
X3325000Y-13625000D02*
X3355000Y-13655000D01*
X3355000Y-13625000D02*
X3325000Y-13655000D01*
X3377450Y-12669950D02*
X3407450Y-12699950D01*
X3407450Y-12669950D02*
X3377450Y-12699950D01*
X3515000Y-11885000D02*
X3545000Y-11915000D01*
X3545000Y-11885000D02*
X3515000Y-11915000D01*
X3525000Y-11685000D02*
X3555000Y-11715000D01*
X3555000Y-11685000D02*
X3525000Y-11715000D01*
X3615000Y-14065000D02*
X3645000Y-14095000D01*
X3645000Y-14065000D02*
X3615000Y-14095000D01*
X3665000Y-15125000D02*
X3695000Y-15155000D01*
X3695000Y-15125000D02*
X3665000Y-15155000D01*
X3665000Y-15265000D02*
X3695000Y-15295000D01*
X3695000Y-15265000D02*
X3665000Y-15295000D01*
X3665000Y-15405000D02*
X3695000Y-15435000D01*
X3695000Y-15405000D02*
X3665000Y-15435000D01*
X3685000Y-11095000D02*
X3715000Y-11125000D01*
X3715000Y-11095000D02*
X3685000Y-11125000D01*
X3835000Y-11685000D02*
X3865000Y-11715000D01*
X3865000Y-11685000D02*
X3835000Y-11715000D01*
X3835000Y-13365000D02*
X3865000Y-13395000D01*
X3865000Y-13365000D02*
X3835000Y-13395000D01*
X3835000Y-14875000D02*
X3865000Y-14905000D01*
X3865000Y-14875000D02*
X3835000Y-14905000D01*
X3895000Y-11255000D02*
X3925000Y-11285000D01*
X3925000Y-11255000D02*
X3895000Y-11285000D01*
X3955000Y-13365000D02*
X3985000Y-13395000D01*
X3985000Y-13365000D02*
X3955000Y-13395000D01*
X3965000Y-11565000D02*
X3995000Y-11595000D01*
X3995000Y-11565000D02*
X3965000Y-11595000D01*
X4145000Y-12825000D02*
X4175000Y-12855000D01*
X4175000Y-12825000D02*
X4145000Y-12855000D01*
X4245000Y-12345000D02*
X4275000Y-12375000D01*
X4275000Y-12345000D02*
X4245000Y-12375000D01*
X4275000Y-15405000D02*
X4305000Y-15435000D01*
X4305000Y-15405000D02*
X4275000Y-15435000D01*
X4285000Y-11685000D02*
X4315000Y-11715000D01*
X4315000Y-11685000D02*
X4285000Y-11715000D01*
X4345000Y-14965000D02*
X4375000Y-14995000D01*
X4375000Y-14965000D02*
X4345000Y-14995000D01*
X4385000Y-11995000D02*
X4415000Y-12025000D01*
X4415000Y-11995000D02*
X4385000Y-12025000D01*
X4385000Y-12635000D02*
X4415000Y-12665000D01*
X4415000Y-12635000D02*
X4385000Y-12665000D01*
X4485000Y-15465000D02*
X4515000Y-15495000D01*
X4515000Y-15465000D02*
X4485000Y-15495000D01*
X4485000Y-15605000D02*
X4515000Y-15635000D01*
X4515000Y-15605000D02*
X4485000Y-15635000D01*
X4535000Y-11685000D02*
X4565000Y-11715000D01*
X4565000Y-11685000D02*
X4535000Y-11715000D01*
X4565000Y-12025000D02*
X4595000Y-12055000D01*
X4595000Y-12025000D02*
X4565000Y-12055000D01*
X4565000Y-12195000D02*
X4595000Y-12225000D01*
X4595000Y-12195000D02*
X4565000Y-12225000D01*
X4565000Y-12325000D02*
X4595000Y-12355000D01*
X4595000Y-12325000D02*
X4565000Y-12355000D01*
X4625000Y-15605000D02*
X4655000Y-15635000D01*
X4655000Y-15605000D02*
X4625000Y-15635000D01*
X4785000Y-12155000D02*
X4815000Y-12185000D01*
X4815000Y-12155000D02*
X4785000Y-12185000D01*
X4805000Y-12325000D02*
X4835000Y-12355000D01*
X4835000Y-12325000D02*
X4805000Y-12355000D01*
X4825000Y-12015000D02*
X4855000Y-12045000D01*
X4855000Y-12015000D02*
X4825000Y-12045000D01*
X4835000Y-11685000D02*
X4865000Y-11715000D01*
X4865000Y-11685000D02*
X4835000Y-11715000D01*
X4885000Y-10625000D02*
X4915000Y-10655000D01*
X4915000Y-10625000D02*
X4885000Y-10655000D01*
X4915000Y-12865000D02*
X4945000Y-12895000D01*
X4945000Y-12865000D02*
X4915000Y-12895000D01*
X4955000Y-10625000D02*
X4985000Y-10655000D01*
X4985000Y-10625000D02*
X4955000Y-10655000D01*
X4985000Y-12015000D02*
X5015000Y-12045000D01*
X5015000Y-12015000D02*
X4985000Y-12045000D01*
X4985000Y-12635000D02*
X5015000Y-12665000D01*
X5015000Y-12635000D02*
X4985000Y-12665000D01*
X5005000Y-10505000D02*
X5035000Y-10535000D01*
X5035000Y-10505000D02*
X5005000Y-10535000D01*
X5025000Y-13255000D02*
X5055000Y-13285000D01*
X5055000Y-13255000D02*
X5025000Y-13285000D01*
X5045000Y-14575000D02*
X5075000Y-14605000D01*
X5075000Y-14575000D02*
X5045000Y-14605000D01*
X5085000Y-11685000D02*
X5115000Y-11715000D01*
X5115000Y-11685000D02*
X5085000Y-11715000D01*
X5135000Y-12015000D02*
X5165000Y-12045000D01*
X5165000Y-12015000D02*
X5135000Y-12045000D01*
X5162550Y-14065000D02*
X5192550Y-14095000D01*
X5192550Y-14065000D02*
X5162550Y-14095000D01*
X5165000Y-12165000D02*
X5195000Y-12195000D01*
X5195000Y-12165000D02*
X5165000Y-12195000D01*
X5165000Y-15195000D02*
X5195000Y-15225000D01*
X5195000Y-15195000D02*
X5165000Y-15225000D01*
X5215000Y-12305000D02*
X5245000Y-12335000D01*
X5245000Y-12305000D02*
X5215000Y-12335000D01*
X5247288Y-13662712D02*
X5277288Y-13692712D01*
X5277288Y-13662712D02*
X5247288Y-13692712D01*
X5295000Y-12015000D02*
X5325000Y-12045000D01*
X5325000Y-12015000D02*
X5295000Y-12045000D01*
X5295000Y-12165000D02*
X5325000Y-12195000D01*
X5325000Y-12165000D02*
X5295000Y-12195000D01*
X5599901Y-11915000D02*
X5629901Y-11945000D01*
X5629901Y-11915000D02*
X5599901Y-11945000D01*
X5824950Y-12765000D02*
X5854950Y-12795000D01*
X5854950Y-12765000D02*
X5824950Y-12795000D01*
X5824950Y-12965000D02*
X5854950Y-12995000D01*
X5854950Y-12965000D02*
X5824950Y-12995000D01*
X5835000Y-14825000D02*
X5865000Y-14855000D01*
X5865000Y-14825000D02*
X5835000Y-14855000D01*
X5925000Y-13745000D02*
X5955000Y-13775000D01*
X5955000Y-13745000D02*
X5925000Y-13775000D01*
X6025000Y-13735000D02*
X6055000Y-13765000D01*
X6055000Y-13735000D02*
X6025000Y-13765000D01*
X6115000Y-12835000D02*
X6145000Y-12865000D01*
X6145000Y-12835000D02*
X6115000Y-12865000D01*
X6121337Y-13061337D02*
X6151337Y-13091337D01*
X6151337Y-13061337D02*
X6121337Y-13091337D01*
X6125000Y-14085000D02*
X6155000Y-14115000D01*
X6155000Y-14085000D02*
X6125000Y-14115000D01*
X6165000Y-13835000D02*
X6195000Y-13865000D01*
X6195000Y-13835000D02*
X6165000Y-13865000D01*
X6225000Y-12175000D02*
X6255000Y-12205000D01*
X6255000Y-12175000D02*
X6225000Y-12205000D01*
X6285000Y-12975000D02*
X6315000Y-13005000D01*
X6315000Y-12975000D02*
X6285000Y-13005000D01*
X6285000Y-13495000D02*
X6315000Y-13525000D01*
X6315000Y-13495000D02*
X6285000Y-13525000D01*
X6305000Y-14085000D02*
X6335000Y-14115000D01*
X6335000Y-14085000D02*
X6305000Y-14115000D01*
X6445000Y-12685000D02*
X6475000Y-12715000D01*
X6475000Y-12685000D02*
X6445000Y-12715000D01*
X6633702Y-12335000D02*
X6663702Y-12365000D01*
X6663702Y-12335000D02*
X6633702Y-12365000D01*
X6785000Y-12505000D02*
X6815000Y-12535000D01*
X6815000Y-12505000D02*
X6785000Y-12535000D01*
X7915000Y-12025000D02*
X7945000Y-12055000D01*
X7945000Y-12025000D02*
X7915000Y-12055000D01*
X7935000Y-13665000D02*
X7965000Y-13695000D01*
X7965000Y-13665000D02*
X7935000Y-13695000D01*
X8075000Y-13755000D02*
X8105000Y-13785000D01*
X8105000Y-13755000D02*
X8075000Y-13785000D01*
X8145000Y-15185000D02*
X8175000Y-15215000D01*
X8175000Y-15185000D02*
X8145000Y-15215000D01*
X8165000Y-13795000D02*
X8195000Y-13825000D01*
X8195000Y-13795000D02*
X8165000Y-13825000D01*
X8445000Y-13545000D02*
X8475000Y-13575000D01*
X8475000Y-13545000D02*
X8445000Y-13575000D01*
X8475000Y-15045000D02*
X8505000Y-15075000D01*
X8505000Y-15045000D02*
X8475000Y-15075000D01*
X8695000Y-15155000D02*
X8725000Y-15185000D01*
X8725000Y-15155000D02*
X8695000Y-15185000D01*
X9025000Y-14695000D02*
X9055000Y-14725000D01*
X9055000Y-14695000D02*
X9025000Y-14725000D01*
X9025000Y-14775000D02*
X9055000Y-14805000D01*
X9055000Y-14775000D02*
X9025000Y-14805000D01*
X9025000Y-14905000D02*
X9055000Y-14935000D01*
X9055000Y-14905000D02*
X9025000Y-14935000D01*
X9065000Y-11475000D02*
X9095000Y-11505000D01*
X9095000Y-11475000D02*
X9065000Y-11505000D01*
X9145000Y-14105000D02*
X9175000Y-14135000D01*
X9175000Y-14105000D02*
X9145000Y-14135000D01*
X9145000Y-14245000D02*
X9175000Y-14275000D01*
X9175000Y-14245000D02*
X9145000Y-14275000D01*
X9145000Y-14385000D02*
X9175000Y-14415000D01*
X9175000Y-14385000D02*
X9145000Y-14415000D01*
X9145000Y-14515000D02*
X9175000Y-14545000D01*
X9175000Y-14515000D02*
X9145000Y-14545000D01*
X9245000Y-11655000D02*
X9275000Y-11685000D01*
X9275000Y-11655000D02*
X9245000Y-11685000D01*
X9275000Y-14105000D02*
X9305000Y-14135000D01*
X9305000Y-14105000D02*
X9275000Y-14135000D01*
X9275000Y-14245000D02*
X9305000Y-14275000D01*
X9305000Y-14245000D02*
X9275000Y-14275000D01*
X9275000Y-14385000D02*
X9305000Y-14415000D01*
X9305000Y-14385000D02*
X9275000Y-14415000D01*
X9275000Y-14515000D02*
X9305000Y-14545000D01*
X9305000Y-14515000D02*
X9275000Y-14545000D01*
X9385000Y-15215000D02*
X9415000Y-15245000D01*
X9415000Y-15215000D02*
X9385000Y-15245000D01*
X9395000Y-15565000D02*
X9425000Y-15595000D01*
X9425000Y-15565000D02*
X9395000Y-15595000D01*
X9415000Y-14105000D02*
X9445000Y-14135000D01*
X9445000Y-14105000D02*
X9415000Y-14135000D01*
X9415000Y-14235000D02*
X9445000Y-14265000D01*
X9445000Y-14235000D02*
X9415000Y-14265000D01*
X9415000Y-14385000D02*
X9445000Y-14415000D01*
X9445000Y-14385000D02*
X9415000Y-14415000D01*
X9415000Y-14515000D02*
X9445000Y-14545000D01*
X9445000Y-14515000D02*
X9415000Y-14545000D01*
X9515000Y-15455000D02*
X9545000Y-15485000D01*
X9545000Y-15455000D02*
X9515000Y-15485000D01*
X9525000Y-12025000D02*
X9555000Y-12055000D01*
X9555000Y-12025000D02*
X9525000Y-12055000D01*
X9525000Y-13795000D02*
X9555000Y-13825000D01*
X9555000Y-13795000D02*
X9525000Y-13825000D01*
X9555000Y-14105000D02*
X9585000Y-14135000D01*
X9585000Y-14105000D02*
X9555000Y-14135000D01*
X9555000Y-14245000D02*
X9585000Y-14275000D01*
X9585000Y-14245000D02*
X9555000Y-14275000D01*
X9555000Y-14385000D02*
X9585000Y-14415000D01*
X9585000Y-14385000D02*
X9555000Y-14415000D01*
X9555000Y-14515000D02*
X9585000Y-14545000D01*
X9585000Y-14515000D02*
X9555000Y-14545000D01*
X9584322Y-11132302D02*
X9614322Y-11162302D01*
X9614322Y-11132302D02*
X9584322Y-11162302D01*
X9615000Y-11550625D02*
X9645000Y-11580625D01*
X9645000Y-11550625D02*
X9615000Y-11580625D01*
X9795000Y-12405000D02*
X9825000Y-12435000D01*
X9825000Y-12405000D02*
X9795000Y-12435000D01*
X9849950Y-14425000D02*
X9879950Y-14455000D01*
X9879950Y-14425000D02*
X9849950Y-14455000D01*
X9895000Y-15145000D02*
X9925000Y-15175000D01*
X9925000Y-15145000D02*
X9895000Y-15175000D01*
X9925000Y-14975000D02*
X9955000Y-15005000D01*
X9955000Y-14975000D02*
X9925000Y-15005000D01*
X9935000Y-14555000D02*
X9965000Y-14585000D01*
X9965000Y-14555000D02*
X9935000Y-14585000D01*
X9945000Y-13545048D02*
X9975000Y-13575048D01*
X9975000Y-13545048D02*
X9945000Y-13575048D01*
X9957450Y-11560625D02*
X9987450Y-11590625D01*
X9987450Y-11560625D02*
X9957450Y-11590625D01*
X9983312Y-11150050D02*
X10013312Y-11180050D01*
X10013312Y-11150050D02*
X9983312Y-11180050D01*
X10075000Y-11135000D02*
X10105000Y-11165000D01*
X10105000Y-11135000D02*
X10075000Y-11165000D01*
X10175000Y-13925000D02*
X10205000Y-13955000D01*
X10205000Y-13925000D02*
X10175000Y-13955000D01*
X10175000Y-14055000D02*
X10205000Y-14085000D01*
X10205000Y-14055000D02*
X10175000Y-14085000D01*
X10215000Y-14175000D02*
X10245000Y-14205000D01*
X10245000Y-14175000D02*
X10215000Y-14205000D01*
X10236716Y-15056716D02*
X10266716Y-15086716D01*
X10266716Y-15056716D02*
X10236716Y-15086716D01*
X10293284Y-15113284D02*
X10323284Y-15143284D01*
X10323284Y-15113284D02*
X10293284Y-15143284D01*
X10365000Y-13895000D02*
X10395000Y-13925000D01*
X10395000Y-13895000D02*
X10365000Y-13925000D01*
X10395000Y-14305000D02*
X10425000Y-14335000D01*
X10425000Y-14305000D02*
X10395000Y-14335000D01*
X10405000Y-13325000D02*
X10435000Y-13355000D01*
X10435000Y-13325000D02*
X10405000Y-13355000D01*
X10695000Y-15125000D02*
X10725000Y-15155000D01*
X10725000Y-15125000D02*
X10695000Y-15155000D01*
X10698818Y-15276606D02*
X10728818Y-15306606D01*
X10728818Y-15276606D02*
X10698818Y-15306606D01*
X10805000Y-12595000D02*
X10835000Y-12625000D01*
X10835000Y-12595000D02*
X10805000Y-12625000D01*
X10805000Y-13715000D02*
X10835000Y-13745000D01*
X10835000Y-13715000D02*
X10805000Y-13745000D01*
X10885000Y-12585000D02*
X10915000Y-12615000D01*
X10915000Y-12585000D02*
X10885000Y-12615000D01*
X10885000Y-13565000D02*
X10915000Y-13595000D01*
X10915000Y-13565000D02*
X10885000Y-13595000D01*
X10890050Y-13905000D02*
X10920050Y-13935000D01*
X10920050Y-13905000D02*
X10890050Y-13935000D01*
X10975000Y-15125000D02*
X11005000Y-15155000D01*
X11005000Y-15125000D02*
X10975000Y-15155000D01*
X11085000Y-15265000D02*
X11115000Y-15295000D01*
X11115000Y-15265000D02*
X11085000Y-15295000D01*
X11345000Y-15095000D02*
X11375000Y-15125000D01*
X11375000Y-15095000D02*
X11345000Y-15125000D01*
X11443975Y-11816662D02*
X11473975Y-11846662D01*
X11473975Y-11816662D02*
X11443975Y-11846662D01*
X11445000Y-15265000D02*
X11475000Y-15295000D01*
X11475000Y-15265000D02*
X11445000Y-15295000D01*
D13*
X1810000Y-14990000D02*
G75*
G03*
X1810000Y-14990000I-20000J0D01*
G01*
X1810000Y-14990000D02*
G75*
G03*
X1810000Y-14990000I-20000J0D01*
G01*
X1810000Y-15150000D02*
G75*
G03*
X1810000Y-15150000I-20000J0D01*
G01*
X1810000Y-15150000D02*
G75*
G03*
X1810000Y-15150000I-20000J0D01*
G01*
X1810000Y-15310000D02*
G75*
G03*
X1810000Y-15310000I-20000J0D01*
G01*
X2640000Y-15190000D02*
G75*
G03*
X2640000Y-15190000I-20000J0D01*
G01*
X2640000Y-15330000D02*
G75*
G03*
X2640000Y-15330000I-20000J0D01*
G01*
X2650000Y-15070000D02*
G75*
G03*
X2650000Y-15070000I-20000J0D01*
G01*
X3340000Y-13370000D02*
G75*
G03*
X3340000Y-13370000I-20000J0D01*
G01*
X3960000Y-15500000D02*
G75*
G03*
X3960000Y-15500000I-20000J0D01*
G01*
X4330000Y-14700000D02*
G75*
G03*
X4330000Y-14700000I-20000J0D01*
G01*
X4430000Y-12920000D02*
G75*
G03*
X4430000Y-12920000I-20000J0D01*
G01*
X4570000Y-11280000D02*
G75*
G03*
X4570000Y-11280000I-20000J0D01*
G01*
X4620000Y-13620000D02*
G75*
G03*
X4620000Y-13620000I-20000J0D01*
G01*
X4860000Y-11280000D02*
G75*
G03*
X4860000Y-11280000I-20000J0D01*
G01*
X5730000Y-15130000D02*
G75*
G03*
X5730000Y-15130000I-20000J0D01*
G01*
X5730000Y-15220000D02*
G75*
G03*
X5730000Y-15220000I-20000J0D01*
G01*
X5730000Y-15310000D02*
G75*
G03*
X5730000Y-15310000I-20000J0D01*
G01*
X6020000Y-15240000D02*
G75*
G03*
X6020000Y-15240000I-20000J0D01*
G01*
X6220000Y-11300000D02*
G75*
G03*
X6220000Y-11300000I-20000J0D01*
G01*
X6440000Y-12890000D02*
G75*
G03*
X6440000Y-12890000I-20000J0D01*
G01*
X6620000Y-15290000D02*
G75*
G03*
X6620000Y-15290000I-20000J0D01*
G01*
X6670000Y-11930000D02*
G75*
G03*
X6670000Y-11930000I-20000J0D01*
G01*
X6700000Y-13800000D02*
G75*
G03*
X6700000Y-13800000I-20000J0D01*
G01*
X6920000Y-13300000D02*
G75*
G03*
X6920000Y-13300000I-20000J0D01*
G01*
X7020000Y-13120000D02*
G75*
G03*
X7020000Y-13120000I-20000J0D01*
G01*
X7100000Y-14590000D02*
G75*
G03*
X7100000Y-14590000I-20000J0D01*
G01*
X7120000Y-11950000D02*
G75*
G03*
X7120000Y-11950000I-20000J0D01*
G01*
X7210000Y-11520000D02*
G75*
G03*
X7210000Y-11520000I-20000J0D01*
G01*
X7340000Y-13300000D02*
G75*
G03*
X7340000Y-13300000I-20000J0D01*
G01*
X7640000Y-10610000D02*
G75*
G03*
X7640000Y-10610000I-20000J0D01*
G01*
X7810000Y-11330000D02*
G75*
G03*
X7810000Y-11330000I-20000J0D01*
G01*
X7860000Y-10500000D02*
G75*
G03*
X7860000Y-10500000I-20000J0D01*
G01*
X8040000Y-10505050D02*
G75*
G03*
X8040000Y-10505050I-20000J0D01*
G01*
X8480000Y-10490000D02*
G75*
G03*
X8480000Y-10490000I-20000J0D01*
G01*
X8790000Y-14250000D02*
G75*
G03*
X8790000Y-14250000I-20000J0D01*
G01*
X8940000Y-10490000D02*
G75*
G03*
X8940000Y-10490000I-20000J0D01*
G01*
X8940000Y-10490000D02*
G75*
G03*
X8940000Y-10490000I-20000J0D01*
G01*
X9050000Y-10500000D02*
G75*
G03*
X9050000Y-10500000I-20000J0D01*
G01*
X9080000Y-15150000D02*
G75*
G03*
X9080000Y-15150000I-20000J0D01*
G01*
X9300000Y-10490000D02*
G75*
G03*
X9300000Y-10490000I-20000J0D01*
G01*
X9750000Y-11665625D02*
G75*
G03*
X9750000Y-11665625I-20000J0D01*
G01*
X10290000Y-14770000D02*
G75*
G03*
X10290000Y-14770000I-20000J0D01*
G01*
X10370000Y-11540000D02*
G75*
G03*
X10370000Y-11540000I-20000J0D01*
G01*
X10560000Y-10530000D02*
G75*
G03*
X10560000Y-10530000I-20000J0D01*
G01*
X11040000Y-11770000D02*
G75*
G03*
X11040000Y-11770000I-20000J0D01*
G01*
X11570000Y-14930000D02*
G75*
G03*
X11570000Y-14930000I-20000J0D01*
G01*
X11620000Y-13520000D02*
G75*
G03*
X11620000Y-13520000I-20000J0D01*
G01*
D14*
X9418000Y-10553500D02*
X9418000Y-10613500D01*
X9388000Y-10583500D02*
X9448000Y-10583500D01*
D11*
X9398000Y-10543500D02*
X9398000Y-10623500D01*
X9438000Y-10543500D02*
X9438000Y-10623500D01*
X9398000Y-10623500D02*
G75*
G03*
X9438000Y-10623500I20000J0D01*
G01*
X9438000Y-10543500D02*
G75*
G03*
X9398000Y-10543500I-20000J0D01*
G01*
D14*
X9418000Y-10970500D02*
X9418000Y-11030500D01*
X9388000Y-11000500D02*
X9448000Y-11000500D01*
D11*
X9398000Y-10945500D02*
X9398000Y-11055500D01*
X9438000Y-10945500D02*
X9438000Y-11055500D01*
X9398000Y-11055500D02*
G75*
G03*
X9438000Y-11055500I20000J0D01*
G01*
X9438000Y-10945500D02*
G75*
G03*
X9398000Y-10945500I-20000J0D01*
G01*
D14*
X10282000Y-10553500D02*
X10282000Y-10613500D01*
X10252000Y-10583500D02*
X10312000Y-10583500D01*
D11*
X10262000Y-10543500D02*
X10262000Y-10623500D01*
X10302000Y-10543500D02*
X10302000Y-10623500D01*
X10262000Y-10623500D02*
G75*
G03*
X10302000Y-10623500I20000J0D01*
G01*
X10302000Y-10543500D02*
G75*
G03*
X10262000Y-10543500I-20000J0D01*
G01*
D14*
X10282000Y-10970500D02*
X10282000Y-11030500D01*
X10252000Y-11000500D02*
X10312000Y-11000500D01*
D11*
X10262000Y-10945500D02*
X10262000Y-11055500D01*
X10302000Y-10945500D02*
X10302000Y-11055500D01*
X10262000Y-11055500D02*
G75*
G03*
X10302000Y-11055500I20000J0D01*
G01*
X10302000Y-10945500D02*
G75*
G03*
X10262000Y-10945500I-20000J0D01*
G01*
D15*
X2235356Y-10722123D02*
X2235356Y-10651412D01*
X2164644Y-10651412D01*
X2164644Y-10722123D01*
X2235356Y-10722123D01*
X2235356Y-11222123D02*
X2235356Y-11151412D01*
X2164644Y-11151412D01*
X2164644Y-11222123D01*
X2235356Y-11222123D01*
X2265356Y-15715356D02*
X2265356Y-15644644D01*
X2194644Y-15644644D01*
X2194644Y-15715356D01*
X2265356Y-15715356D01*
X2265356Y-16215356D02*
X2265356Y-16144644D01*
X2194644Y-16144644D01*
X2194644Y-16215356D01*
X2265356Y-16215356D01*
X3072123Y-16235356D02*
X3072123Y-16164644D01*
X3001412Y-16164644D01*
X3001412Y-16235356D01*
X3072123Y-16235356D01*
X3572123Y-16235356D02*
X3572123Y-16164644D01*
X3501412Y-16164644D01*
X3501412Y-16235356D01*
X3572123Y-16235356D01*
X4585856Y-11005356D02*
X4585856Y-10934644D01*
X4515144Y-10934644D01*
X4515144Y-11005356D01*
X4585856Y-11005356D01*
X4595356Y-15855356D02*
X4595356Y-15784644D01*
X4524644Y-15784644D01*
X4524644Y-15855356D01*
X4595356Y-15855356D01*
X4839856Y-11005356D02*
X4839856Y-10934644D01*
X4769144Y-10934644D01*
X4769144Y-11005356D01*
X4839856Y-11005356D01*
X4849356Y-15855356D02*
X4849356Y-15784644D01*
X4778644Y-15784644D01*
X4778644Y-15855356D01*
X4849356Y-15855356D01*
X5052856Y-13556356D02*
X5052856Y-13485644D01*
X4982144Y-13485644D01*
X4982144Y-13556356D01*
X5052856Y-13556356D01*
X5052856Y-13810356D02*
X5052856Y-13739644D01*
X4982144Y-13739644D01*
X4982144Y-13810356D01*
X5052856Y-13810356D01*
X5093856Y-11005356D02*
X5093856Y-10934644D01*
X5023144Y-10934644D01*
X5023144Y-11005356D01*
X5093856Y-11005356D01*
X5103356Y-15855356D02*
X5103356Y-15784644D01*
X5032644Y-15784644D01*
X5032644Y-15855356D01*
X5103356Y-15855356D01*
X5347856Y-11005356D02*
X5347856Y-10934644D01*
X5277144Y-10934644D01*
X5277144Y-11005356D01*
X5347856Y-11005356D01*
X5357356Y-15855356D02*
X5357356Y-15784644D01*
X5286644Y-15784644D01*
X5286644Y-15855356D01*
X5357356Y-15855356D01*
X5705856Y-11005356D02*
X5705856Y-10934644D01*
X5635144Y-10934644D01*
X5635144Y-11005356D01*
X5705856Y-11005356D01*
X5959856Y-11005356D02*
X5959856Y-10934644D01*
X5889144Y-10934644D01*
X5889144Y-11005356D01*
X5959856Y-11005356D01*
X6133356Y-15845356D02*
X6133356Y-15774644D01*
X6062644Y-15774644D01*
X6062644Y-15845356D01*
X6133356Y-15845356D01*
X6135356Y-16132856D02*
X6135356Y-16062144D01*
X6064644Y-16062144D01*
X6064644Y-16132856D01*
X6135356Y-16132856D01*
X6213856Y-11005356D02*
X6213856Y-10934644D01*
X6143144Y-10934644D01*
X6143144Y-11005356D01*
X6213856Y-11005356D01*
X6387356Y-15845356D02*
X6387356Y-15774644D01*
X6316644Y-15774644D01*
X6316644Y-15845356D01*
X6387356Y-15845356D01*
X6389356Y-16132856D02*
X6389356Y-16062144D01*
X6318644Y-16062144D01*
X6318644Y-16132856D01*
X6389356Y-16132856D01*
X6467856Y-11005356D02*
X6467856Y-10934644D01*
X6397144Y-10934644D01*
X6397144Y-11005356D01*
X6467856Y-11005356D01*
X6641356Y-15845356D02*
X6641356Y-15774644D01*
X6570644Y-15774644D01*
X6570644Y-15845356D01*
X6641356Y-15845356D01*
X6643356Y-16132856D02*
X6643356Y-16062144D01*
X6572644Y-16062144D01*
X6572644Y-16132856D01*
X6643356Y-16132856D01*
X6724106Y-12925356D02*
X6724106Y-12854644D01*
X6653394Y-12854644D01*
X6653394Y-12925356D01*
X6724106Y-12925356D01*
X6725356Y-13185356D02*
X6725356Y-13114644D01*
X6654644Y-13114644D01*
X6654644Y-13185356D01*
X6725356Y-13185356D01*
X6725356Y-13439356D02*
X6725356Y-13368644D01*
X6654644Y-13368644D01*
X6654644Y-13439356D01*
X6725356Y-13439356D01*
X6805856Y-11005356D02*
X6805856Y-10934644D01*
X6735144Y-10934644D01*
X6735144Y-11005356D01*
X6805856Y-11005356D01*
X6895356Y-15845356D02*
X6895356Y-15774644D01*
X6824644Y-15774644D01*
X6824644Y-15845356D01*
X6895356Y-15845356D01*
X6897356Y-16132856D02*
X6897356Y-16062144D01*
X6826644Y-16062144D01*
X6826644Y-16132856D01*
X6897356Y-16132856D01*
X7059856Y-11005356D02*
X7059856Y-10934644D01*
X6989144Y-10934644D01*
X6989144Y-11005356D01*
X7059856Y-11005356D01*
X7149356Y-15845356D02*
X7149356Y-15774644D01*
X7078644Y-15774644D01*
X7078644Y-15845356D01*
X7149356Y-15845356D01*
X7151356Y-16132856D02*
X7151356Y-16062144D01*
X7080644Y-16062144D01*
X7080644Y-16132856D01*
X7151356Y-16132856D01*
X7313856Y-11005356D02*
X7313856Y-10934644D01*
X7243144Y-10934644D01*
X7243144Y-11005356D01*
X7313856Y-11005356D01*
X7403356Y-15845356D02*
X7403356Y-15774644D01*
X7332644Y-15774644D01*
X7332644Y-15845356D01*
X7403356Y-15845356D01*
X7405356Y-16132856D02*
X7405356Y-16062144D01*
X7334644Y-16062144D01*
X7334644Y-16132856D01*
X7405356Y-16132856D01*
X7567856Y-11005356D02*
X7567856Y-10934644D01*
X7497144Y-10934644D01*
X7497144Y-11005356D01*
X7567856Y-11005356D01*
X7657356Y-15845356D02*
X7657356Y-15774644D01*
X7586644Y-15774644D01*
X7586644Y-15845356D01*
X7657356Y-15845356D01*
X7659356Y-16132856D02*
X7659356Y-16062144D01*
X7588644Y-16062144D01*
X7588644Y-16132856D01*
X7659356Y-16132856D01*
X7911356Y-15845356D02*
X7911356Y-15774644D01*
X7840644Y-15774644D01*
X7840644Y-15845356D01*
X7911356Y-15845356D01*
X7913356Y-11002856D02*
X7913356Y-10932144D01*
X7842644Y-10932144D01*
X7842644Y-11002856D01*
X7913356Y-11002856D01*
X7913356Y-16132856D02*
X7913356Y-16062144D01*
X7842644Y-16062144D01*
X7842644Y-16132856D01*
X7913356Y-16132856D01*
X8165356Y-15845356D02*
X8165356Y-15774644D01*
X8094644Y-15774644D01*
X8094644Y-15845356D01*
X8165356Y-15845356D01*
X8167356Y-11002856D02*
X8167356Y-10932144D01*
X8096644Y-10932144D01*
X8096644Y-11002856D01*
X8167356Y-11002856D01*
X8167356Y-16132856D02*
X8167356Y-16062144D01*
X8096644Y-16062144D01*
X8096644Y-16132856D01*
X8167356Y-16132856D01*
X8419356Y-15845356D02*
X8419356Y-15774644D01*
X8348644Y-15774644D01*
X8348644Y-15845356D01*
X8419356Y-15845356D01*
X8421356Y-11002856D02*
X8421356Y-10932144D01*
X8350644Y-10932144D01*
X8350644Y-11002856D01*
X8421356Y-11002856D01*
X8421356Y-16132856D02*
X8421356Y-16062144D01*
X8350644Y-16062144D01*
X8350644Y-16132856D01*
X8421356Y-16132856D01*
X8635356Y-12475177D02*
X8635356Y-12404465D01*
X8564644Y-12404465D01*
X8564644Y-12475177D01*
X8635356Y-12475177D01*
X8673356Y-15845356D02*
X8673356Y-15774644D01*
X8602644Y-15774644D01*
X8602644Y-15845356D01*
X8673356Y-15845356D01*
X8675356Y-11002856D02*
X8675356Y-10932144D01*
X8604644Y-10932144D01*
X8604644Y-11002856D01*
X8675356Y-11002856D01*
X8675356Y-16132856D02*
X8675356Y-16062144D01*
X8604644Y-16062144D01*
X8604644Y-16132856D01*
X8675356Y-16132856D01*
X8927356Y-15845356D02*
X8927356Y-15774644D01*
X8856644Y-15774644D01*
X8856644Y-15845356D01*
X8927356Y-15845356D01*
X8929356Y-11002856D02*
X8929356Y-10932144D01*
X8858644Y-10932144D01*
X8858644Y-11002856D01*
X8929356Y-11002856D01*
X8929356Y-16132856D02*
X8929356Y-16062144D01*
X8858644Y-16062144D01*
X8858644Y-16132856D01*
X8929356Y-16132856D01*
X9181356Y-15845356D02*
X9181356Y-15774644D01*
X9110644Y-15774644D01*
X9110644Y-15845356D01*
X9181356Y-15845356D01*
X9183356Y-11002856D02*
X9183356Y-10932144D01*
X9112644Y-10932144D01*
X9112644Y-11002856D01*
X9183356Y-11002856D01*
X9183356Y-16132856D02*
X9183356Y-16062144D01*
X9112644Y-16062144D01*
X9112644Y-16132856D01*
X9183356Y-16132856D01*
X9435356Y-15845356D02*
X9435356Y-15774644D01*
X9364644Y-15774644D01*
X9364644Y-15845356D01*
X9435356Y-15845356D01*
X9437356Y-16132856D02*
X9437356Y-16062144D01*
X9366644Y-16062144D01*
X9366644Y-16132856D01*
X9437356Y-16132856D01*
X10295356Y-12515356D02*
X10295356Y-12444644D01*
X10224644Y-12444644D01*
X10224644Y-12515356D01*
X10295356Y-12515356D01*
X10310296Y-16259170D02*
X10310296Y-16188458D01*
X10239584Y-16188458D01*
X10239584Y-16259170D01*
X10310296Y-16259170D01*
X10487856Y-15905356D02*
X10487856Y-15834644D01*
X10417144Y-15834644D01*
X10417144Y-15905356D01*
X10487856Y-15905356D01*
X10564296Y-16259170D02*
X10564296Y-16188458D01*
X10493584Y-16188458D01*
X10493584Y-16259170D01*
X10564296Y-16259170D01*
X10741856Y-15905356D02*
X10741856Y-15834644D01*
X10671144Y-15834644D01*
X10671144Y-15905356D01*
X10741856Y-15905356D01*
X10819719Y-16259303D02*
X10819719Y-16188591D01*
X10749008Y-16188591D01*
X10749008Y-16259303D01*
X10819719Y-16259303D01*
X10992856Y-10602856D02*
X10992856Y-10532144D01*
X10922144Y-10532144D01*
X10922144Y-10602856D01*
X10992856Y-10602856D01*
X10995856Y-15905356D02*
X10995856Y-15834644D01*
X10925144Y-15834644D01*
X10925144Y-15905356D01*
X10995856Y-15905356D01*
X11073719Y-16259303D02*
X11073719Y-16188591D01*
X11003008Y-16188591D01*
X11003008Y-16259303D01*
X11073719Y-16259303D01*
X11241829Y-10998236D02*
X11241829Y-10927525D01*
X11171117Y-10927525D01*
X11171117Y-10998236D01*
X11241829Y-10998236D01*
X11246856Y-10602856D02*
X11246856Y-10532144D01*
X11176144Y-10532144D01*
X11176144Y-10602856D01*
X11246856Y-10602856D01*
X11249856Y-15905356D02*
X11249856Y-15834644D01*
X11179144Y-15834644D01*
X11179144Y-15905356D01*
X11249856Y-15905356D01*
X11328856Y-16255356D02*
X11328856Y-16184644D01*
X11258144Y-16184644D01*
X11258144Y-16255356D01*
X11328856Y-16255356D01*
X11495829Y-10998236D02*
X11495829Y-10927525D01*
X11425117Y-10927525D01*
X11425117Y-10998236D01*
X11495829Y-10998236D01*
X11500856Y-10602856D02*
X11500856Y-10532144D01*
X11430144Y-10532144D01*
X11430144Y-10602856D01*
X11500856Y-10602856D01*
X11503856Y-15905356D02*
X11503856Y-15834644D01*
X11433144Y-15834644D01*
X11433144Y-15905356D01*
X11503856Y-15905356D01*
X11582856Y-16255356D02*
X11582856Y-16184644D01*
X11512144Y-16184644D01*
X11512144Y-16255356D01*
X11582856Y-16255356D01*
D16*
X3046000Y-10746000D02*
X3122000Y-10670000D01*
X3046000Y-10594000D01*
X2970000Y-10670000D01*
X3046000Y-10746000D01*
X3554000Y-10746000D02*
X3630000Y-10670000D01*
X3554000Y-10594000D01*
X3478000Y-10670000D01*
X3554000Y-10746000D01*
D11*
X2360500Y-12939500D02*
X2560500Y-13139500D01*
X2560500Y-12939500D02*
X2360500Y-13139500D01*
X2560500Y-13039500D02*
G75*
G03*
X2560500Y-13039500I-100000J0D01*
G01*
X2550500Y-13189500D02*
X2550500Y-12889500D01*
X2370500Y-13189500D02*
X2370500Y-12889500D01*
X2550500Y-12889500D02*
G75*
G03*
X2370500Y-12889500I-90000J0D01*
G01*
X2370500Y-13189500D02*
G75*
G03*
X2550500Y-13189500I90000J0D01*
G01*
X2360500Y-13679500D02*
X2560500Y-13879500D01*
X2560500Y-13679500D02*
X2360500Y-13879500D01*
X2560500Y-13779500D02*
G75*
G03*
X2560500Y-13779500I-100000J0D01*
G01*
X2550500Y-13929500D02*
X2550500Y-13629500D01*
X2370500Y-13929500D02*
X2370500Y-13629500D01*
X2550500Y-13629500D02*
G75*
G03*
X2370500Y-13629500I-90000J0D01*
G01*
X2370500Y-13929500D02*
G75*
G03*
X2550500Y-13929500I90000J0D01*
G01*
X3400000Y-12225000D02*
X3600000Y-12425000D01*
X3600000Y-12225000D02*
X3400000Y-12425000D01*
X3600000Y-12325000D02*
G75*
G03*
X3600000Y-12325000I-100000J0D01*
G01*
X3400000Y-14375000D02*
X3600000Y-14575000D01*
X3600000Y-14375000D02*
X3400000Y-14575000D01*
X3600000Y-14475000D02*
G75*
G03*
X3600000Y-14475000I-100000J0D01*
G01*
X3700000Y-12300000D02*
X3900000Y-12500000D01*
X3900000Y-12300000D02*
X3700000Y-12500000D01*
X3900000Y-12400000D02*
G75*
G03*
X3900000Y-12400000I-100000J0D01*
G01*
X3700000Y-14300000D02*
X3900000Y-14500000D01*
X3900000Y-14300000D02*
X3700000Y-14500000D01*
X3900000Y-14400000D02*
G75*
G03*
X3900000Y-14400000I-100000J0D01*
G01*
X11100000Y-12300000D02*
X11300000Y-12500000D01*
X11300000Y-12300000D02*
X11100000Y-12500000D01*
X11300000Y-12400000D02*
G75*
G03*
X11300000Y-12400000I-100000J0D01*
G01*
X11290000Y-12500000D02*
X11290000Y-12300000D01*
X11110000Y-12500000D02*
X11110000Y-12300000D01*
X11290000Y-12300000D02*
G75*
G03*
X11110000Y-12300000I-90000J0D01*
G01*
X11110000Y-12500000D02*
G75*
G03*
X11290000Y-12500000I90000J0D01*
G01*
X11100000Y-14300000D02*
X11300000Y-14500000D01*
X11300000Y-14300000D02*
X11100000Y-14500000D01*
X11300000Y-14400000D02*
G75*
G03*
X11300000Y-14400000I-100000J0D01*
G01*
X11290000Y-14500000D02*
X11290000Y-14300000D01*
X11110000Y-14500000D02*
X11110000Y-14300000D01*
X11290000Y-14300000D02*
G75*
G03*
X11110000Y-14300000I-90000J0D01*
G01*
X11110000Y-14500000D02*
G75*
G03*
X11290000Y-14500000I90000J0D01*
G01*
X1952619Y-16715476D02*
X1952619Y-16515476D01*
X2000238Y-16515476D01*
X2028809Y-16525000D01*
X2047857Y-16544048D01*
X2057381Y-16563095D01*
X2066905Y-16601190D01*
X2066905Y-16629762D01*
X2057381Y-16667857D01*
X2047857Y-16686905D01*
X2028809Y-16705952D01*
X2000238Y-16715476D01*
X1952619Y-16715476D01*
X2152619Y-16715476D02*
X2152619Y-16582143D01*
X2152619Y-16620238D02*
X2162143Y-16601190D01*
X2171667Y-16591667D01*
X2190714Y-16582143D01*
X2209762Y-16582143D01*
X2276429Y-16715476D02*
X2276429Y-16582143D01*
X2276429Y-16515476D02*
X2266905Y-16525000D01*
X2276429Y-16534524D01*
X2285952Y-16525000D01*
X2276429Y-16515476D01*
X2276429Y-16534524D01*
X2400238Y-16715476D02*
X2381190Y-16705952D01*
X2371667Y-16686905D01*
X2371667Y-16515476D01*
X2505000Y-16715476D02*
X2485952Y-16705952D01*
X2476429Y-16686905D01*
X2476429Y-16515476D01*
X2733571Y-16715476D02*
X2733571Y-16515476D01*
X2800238Y-16658333D01*
X2866905Y-16515476D01*
X2866905Y-16715476D01*
X3047857Y-16715476D02*
X3047857Y-16610714D01*
X3038333Y-16591667D01*
X3019286Y-16582143D01*
X2981190Y-16582143D01*
X2962143Y-16591667D01*
X3047857Y-16705952D02*
X3028809Y-16715476D01*
X2981190Y-16715476D01*
X2962143Y-16705952D01*
X2952619Y-16686905D01*
X2952619Y-16667857D01*
X2962143Y-16648809D01*
X2981190Y-16639286D01*
X3028809Y-16639286D01*
X3047857Y-16629762D01*
X3143095Y-16582143D02*
X3143095Y-16782143D01*
X3143095Y-16591667D02*
X3162143Y-16582143D01*
X3200238Y-16582143D01*
X3219286Y-16591667D01*
X3228809Y-16601190D01*
X3238333Y-16620238D01*
X3238333Y-16677381D01*
X3228809Y-16696428D01*
X3219286Y-16705952D01*
X3200238Y-16715476D01*
X3162143Y-16715476D01*
X3143095Y-16705952D01*
X3324048Y-16696428D02*
X3333571Y-16705952D01*
X3324048Y-16715476D01*
X3314524Y-16705952D01*
X3324048Y-16696428D01*
X3324048Y-16715476D01*
X3324048Y-16591667D02*
X3333571Y-16601190D01*
X3324048Y-16610714D01*
X3314524Y-16601190D01*
X3324048Y-16591667D01*
X3324048Y-16610714D01*
D12*
X1665000Y-17030000D02*
X1695000Y-17060000D01*
X1695000Y-17030000D02*
X1665000Y-17060000D01*
D11*
X1990714Y-16935476D02*
X2009762Y-16935476D01*
X2028809Y-16945000D01*
X2038333Y-16954524D01*
X2047857Y-16973571D01*
X2057381Y-17011667D01*
X2057381Y-17059286D01*
X2047857Y-17097381D01*
X2038333Y-17116429D01*
X2028809Y-17125952D01*
X2009762Y-17135476D01*
X1990714Y-17135476D01*
X1971667Y-17125952D01*
X1962143Y-17116429D01*
X1952619Y-17097381D01*
X1943095Y-17059286D01*
X1943095Y-17011667D01*
X1952619Y-16973571D01*
X1962143Y-16954524D01*
X1971667Y-16945000D01*
X1990714Y-16935476D01*
X2143095Y-17116429D02*
X2152619Y-17125952D01*
X2143095Y-17135476D01*
X2133571Y-17125952D01*
X2143095Y-17116429D01*
X2143095Y-17135476D01*
X2219286Y-16935476D02*
X2343095Y-16935476D01*
X2276429Y-17011667D01*
X2305000Y-17011667D01*
X2324048Y-17021190D01*
X2333571Y-17030714D01*
X2343095Y-17049762D01*
X2343095Y-17097381D01*
X2333571Y-17116429D01*
X2324048Y-17125952D01*
X2305000Y-17135476D01*
X2247857Y-17135476D01*
X2228810Y-17125952D01*
X2219286Y-17116429D01*
X2466905Y-16935476D02*
X2485952Y-16935476D01*
X2505000Y-16945000D01*
X2514524Y-16954524D01*
X2524048Y-16973571D01*
X2533571Y-17011667D01*
X2533571Y-17059286D01*
X2524048Y-17097381D01*
X2514524Y-17116429D01*
X2505000Y-17125952D01*
X2485952Y-17135476D01*
X2466905Y-17135476D01*
X2447857Y-17125952D01*
X2438333Y-17116429D01*
X2428810Y-17097381D01*
X2419286Y-17059286D01*
X2419286Y-17011667D01*
X2428810Y-16973571D01*
X2438333Y-16954524D01*
X2447857Y-16945000D01*
X2466905Y-16935476D01*
X2657381Y-16935476D02*
X2676429Y-16935476D01*
X2695476Y-16945000D01*
X2705000Y-16954524D01*
X2714524Y-16973571D01*
X2724048Y-17011667D01*
X2724048Y-17059286D01*
X2714524Y-17097381D01*
X2705000Y-17116429D01*
X2695476Y-17125952D01*
X2676429Y-17135476D01*
X2657381Y-17135476D01*
X2638333Y-17125952D01*
X2628810Y-17116429D01*
X2619286Y-17097381D01*
X2609762Y-17059286D01*
X2609762Y-17011667D01*
X2619286Y-16973571D01*
X2628810Y-16954524D01*
X2638333Y-16945000D01*
X2657381Y-16935476D01*
X2809762Y-17135476D02*
X2809762Y-17002143D01*
X2809762Y-17021190D02*
X2819286Y-17011667D01*
X2838333Y-17002143D01*
X2866905Y-17002143D01*
X2885952Y-17011667D01*
X2895476Y-17030714D01*
X2895476Y-17135476D01*
X2895476Y-17030714D02*
X2905000Y-17011667D01*
X2924048Y-17002143D01*
X2952619Y-17002143D01*
X2971667Y-17011667D01*
X2981190Y-17030714D01*
X2981190Y-17135476D01*
X3076428Y-17135476D02*
X3076428Y-17002143D01*
X3076428Y-17021190D02*
X3085952Y-17011667D01*
X3105000Y-17002143D01*
X3133571Y-17002143D01*
X3152619Y-17011667D01*
X3162143Y-17030714D01*
X3162143Y-17135476D01*
X3162143Y-17030714D02*
X3171667Y-17011667D01*
X3190714Y-17002143D01*
X3219286Y-17002143D01*
X3238333Y-17011667D01*
X3247857Y-17030714D01*
X3247857Y-17135476D01*
X3638333Y-16925952D02*
X3466905Y-17183095D01*
X3895476Y-16935476D02*
X3914524Y-16935476D01*
X3933571Y-16945000D01*
X3943095Y-16954524D01*
X3952619Y-16973571D01*
X3962143Y-17011667D01*
X3962143Y-17059286D01*
X3952619Y-17097381D01*
X3943095Y-17116429D01*
X3933571Y-17125952D01*
X3914524Y-17135476D01*
X3895476Y-17135476D01*
X3876428Y-17125952D01*
X3866905Y-17116429D01*
X3857381Y-17097381D01*
X3847857Y-17059286D01*
X3847857Y-17011667D01*
X3857381Y-16973571D01*
X3866905Y-16954524D01*
X3876428Y-16945000D01*
X3895476Y-16935476D01*
X4047857Y-17116429D02*
X4057381Y-17125952D01*
X4047857Y-17135476D01*
X4038333Y-17125952D01*
X4047857Y-17116429D01*
X4047857Y-17135476D01*
X4181190Y-16935476D02*
X4200238Y-16935476D01*
X4219286Y-16945000D01*
X4228810Y-16954524D01*
X4238333Y-16973571D01*
X4247857Y-17011667D01*
X4247857Y-17059286D01*
X4238333Y-17097381D01*
X4228810Y-17116429D01*
X4219286Y-17125952D01*
X4200238Y-17135476D01*
X4181190Y-17135476D01*
X4162143Y-17125952D01*
X4152619Y-17116429D01*
X4143095Y-17097381D01*
X4133571Y-17059286D01*
X4133571Y-17011667D01*
X4143095Y-16973571D01*
X4152619Y-16954524D01*
X4162143Y-16945000D01*
X4181190Y-16935476D01*
X4438333Y-17135476D02*
X4324048Y-17135476D01*
X4381190Y-17135476D02*
X4381190Y-16935476D01*
X4362143Y-16964048D01*
X4343095Y-16983095D01*
X4324048Y-16992619D01*
X4628810Y-17135476D02*
X4514524Y-17135476D01*
X4571667Y-17135476D02*
X4571667Y-16935476D01*
X4552619Y-16964048D01*
X4533571Y-16983095D01*
X4514524Y-16992619D01*
X4743095Y-17021190D02*
X4724048Y-17011667D01*
X4714524Y-17002143D01*
X4705000Y-16983095D01*
X4705000Y-16973571D01*
X4714524Y-16954524D01*
X4724048Y-16945000D01*
X4743095Y-16935476D01*
X4781190Y-16935476D01*
X4800238Y-16945000D01*
X4809762Y-16954524D01*
X4819286Y-16973571D01*
X4819286Y-16983095D01*
X4809762Y-17002143D01*
X4800238Y-17011667D01*
X4781190Y-17021190D01*
X4743095Y-17021190D01*
X4724048Y-17030714D01*
X4714524Y-17040238D01*
X4705000Y-17059286D01*
X4705000Y-17097381D01*
X4714524Y-17116429D01*
X4724048Y-17125952D01*
X4743095Y-17135476D01*
X4781190Y-17135476D01*
X4800238Y-17125952D01*
X4809762Y-17116429D01*
X4819286Y-17097381D01*
X4819286Y-17059286D01*
X4809762Y-17040238D01*
X4800238Y-17030714D01*
X4781190Y-17021190D01*
X4895476Y-16935476D02*
X4895476Y-16973571D01*
X4971667Y-16935476D02*
X4971667Y-16973571D01*
X5266905Y-17211667D02*
X5257381Y-17202143D01*
X5238333Y-17173571D01*
X5228810Y-17154524D01*
X5219286Y-17125952D01*
X5209762Y-17078333D01*
X5209762Y-17040238D01*
X5219286Y-16992619D01*
X5228810Y-16964048D01*
X5238333Y-16945000D01*
X5257381Y-16916429D01*
X5266905Y-16906905D01*
X5333571Y-16954524D02*
X5343095Y-16945000D01*
X5362143Y-16935476D01*
X5409762Y-16935476D01*
X5428810Y-16945000D01*
X5438333Y-16954524D01*
X5447857Y-16973571D01*
X5447857Y-16992619D01*
X5438333Y-17021190D01*
X5324048Y-17135476D01*
X5447857Y-17135476D01*
X5571667Y-16935476D02*
X5590714Y-16935476D01*
X5609762Y-16945000D01*
X5619286Y-16954524D01*
X5628809Y-16973571D01*
X5638333Y-17011667D01*
X5638333Y-17059286D01*
X5628809Y-17097381D01*
X5619286Y-17116429D01*
X5609762Y-17125952D01*
X5590714Y-17135476D01*
X5571667Y-17135476D01*
X5552619Y-17125952D01*
X5543095Y-17116429D01*
X5533571Y-17097381D01*
X5524048Y-17059286D01*
X5524048Y-17011667D01*
X5533571Y-16973571D01*
X5543095Y-16954524D01*
X5552619Y-16945000D01*
X5571667Y-16935476D01*
X5714524Y-16954524D02*
X5724048Y-16945000D01*
X5743095Y-16935476D01*
X5790714Y-16935476D01*
X5809762Y-16945000D01*
X5819286Y-16954524D01*
X5828809Y-16973571D01*
X5828809Y-16992619D01*
X5819286Y-17021190D01*
X5705000Y-17135476D01*
X5828809Y-17135476D01*
X6066905Y-17135476D02*
X6066905Y-16935476D01*
X6152619Y-17135476D02*
X6152619Y-17030714D01*
X6143095Y-17011667D01*
X6124048Y-17002143D01*
X6095476Y-17002143D01*
X6076428Y-17011667D01*
X6066905Y-17021190D01*
X6276428Y-17135476D02*
X6257381Y-17125952D01*
X6247857Y-17116429D01*
X6238333Y-17097381D01*
X6238333Y-17040238D01*
X6247857Y-17021190D01*
X6257381Y-17011667D01*
X6276428Y-17002143D01*
X6305000Y-17002143D01*
X6324048Y-17011667D01*
X6333571Y-17021190D01*
X6343095Y-17040238D01*
X6343095Y-17097381D01*
X6333571Y-17116429D01*
X6324048Y-17125952D01*
X6305000Y-17135476D01*
X6276428Y-17135476D01*
X6457381Y-17135476D02*
X6438333Y-17125952D01*
X6428809Y-17106905D01*
X6428809Y-16935476D01*
X6609762Y-17125952D02*
X6590714Y-17135476D01*
X6552619Y-17135476D01*
X6533571Y-17125952D01*
X6524048Y-17106905D01*
X6524048Y-17030714D01*
X6533571Y-17011667D01*
X6552619Y-17002143D01*
X6590714Y-17002143D01*
X6609762Y-17011667D01*
X6619286Y-17030714D01*
X6619286Y-17049762D01*
X6524048Y-17068810D01*
X6695476Y-17125952D02*
X6714524Y-17135476D01*
X6752619Y-17135476D01*
X6771667Y-17125952D01*
X6781190Y-17106905D01*
X6781190Y-17097381D01*
X6771667Y-17078333D01*
X6752619Y-17068810D01*
X6724048Y-17068810D01*
X6705000Y-17059286D01*
X6695476Y-17040238D01*
X6695476Y-17030714D01*
X6705000Y-17011667D01*
X6724048Y-17002143D01*
X6752619Y-17002143D01*
X6771667Y-17011667D01*
X6847857Y-17211667D02*
X6857381Y-17202143D01*
X6876428Y-17173571D01*
X6885952Y-17154524D01*
X6895476Y-17125952D01*
X6905000Y-17078333D01*
X6905000Y-17040238D01*
X6895476Y-16992619D01*
X6885952Y-16964048D01*
X6876428Y-16945000D01*
X6857381Y-16916429D01*
X6847857Y-16906905D01*
D13*
X1695000Y-17309000D02*
G75*
G03*
X1695000Y-17309000I-20000J0D01*
G01*
D11*
X1990714Y-17199476D02*
X2009762Y-17199476D01*
X2028809Y-17209000D01*
X2038333Y-17218524D01*
X2047857Y-17237571D01*
X2057381Y-17275667D01*
X2057381Y-17323286D01*
X2047857Y-17361381D01*
X2038333Y-17380429D01*
X2028809Y-17389952D01*
X2009762Y-17399476D01*
X1990714Y-17399476D01*
X1971667Y-17389952D01*
X1962143Y-17380429D01*
X1952619Y-17361381D01*
X1943095Y-17323286D01*
X1943095Y-17275667D01*
X1952619Y-17237571D01*
X1962143Y-17218524D01*
X1971667Y-17209000D01*
X1990714Y-17199476D01*
X2143095Y-17380429D02*
X2152619Y-17389952D01*
X2143095Y-17399476D01*
X2133571Y-17389952D01*
X2143095Y-17380429D01*
X2143095Y-17399476D01*
X2324048Y-17266143D02*
X2324048Y-17399476D01*
X2276429Y-17189952D02*
X2228810Y-17332810D01*
X2352619Y-17332810D01*
X2466905Y-17199476D02*
X2485952Y-17199476D01*
X2505000Y-17209000D01*
X2514524Y-17218524D01*
X2524048Y-17237571D01*
X2533571Y-17275667D01*
X2533571Y-17323286D01*
X2524048Y-17361381D01*
X2514524Y-17380429D01*
X2505000Y-17389952D01*
X2485952Y-17399476D01*
X2466905Y-17399476D01*
X2447857Y-17389952D01*
X2438333Y-17380429D01*
X2428810Y-17361381D01*
X2419286Y-17323286D01*
X2419286Y-17275667D01*
X2428810Y-17237571D01*
X2438333Y-17218524D01*
X2447857Y-17209000D01*
X2466905Y-17199476D01*
X2657381Y-17199476D02*
X2676429Y-17199476D01*
X2695476Y-17209000D01*
X2705000Y-17218524D01*
X2714524Y-17237571D01*
X2724048Y-17275667D01*
X2724048Y-17323286D01*
X2714524Y-17361381D01*
X2705000Y-17380429D01*
X2695476Y-17389952D01*
X2676429Y-17399476D01*
X2657381Y-17399476D01*
X2638333Y-17389952D01*
X2628810Y-17380429D01*
X2619286Y-17361381D01*
X2609762Y-17323286D01*
X2609762Y-17275667D01*
X2619286Y-17237571D01*
X2628810Y-17218524D01*
X2638333Y-17209000D01*
X2657381Y-17199476D01*
X2809762Y-17399476D02*
X2809762Y-17266143D01*
X2809762Y-17285190D02*
X2819286Y-17275667D01*
X2838333Y-17266143D01*
X2866905Y-17266143D01*
X2885952Y-17275667D01*
X2895476Y-17294714D01*
X2895476Y-17399476D01*
X2895476Y-17294714D02*
X2905000Y-17275667D01*
X2924048Y-17266143D01*
X2952619Y-17266143D01*
X2971667Y-17275667D01*
X2981190Y-17294714D01*
X2981190Y-17399476D01*
X3076428Y-17399476D02*
X3076428Y-17266143D01*
X3076428Y-17285190D02*
X3085952Y-17275667D01*
X3105000Y-17266143D01*
X3133571Y-17266143D01*
X3152619Y-17275667D01*
X3162143Y-17294714D01*
X3162143Y-17399476D01*
X3162143Y-17294714D02*
X3171667Y-17275667D01*
X3190714Y-17266143D01*
X3219286Y-17266143D01*
X3238333Y-17275667D01*
X3247857Y-17294714D01*
X3247857Y-17399476D01*
X3638333Y-17189952D02*
X3466905Y-17447095D01*
X3895476Y-17199476D02*
X3914524Y-17199476D01*
X3933571Y-17209000D01*
X3943095Y-17218524D01*
X3952619Y-17237571D01*
X3962143Y-17275667D01*
X3962143Y-17323286D01*
X3952619Y-17361381D01*
X3943095Y-17380429D01*
X3933571Y-17389952D01*
X3914524Y-17399476D01*
X3895476Y-17399476D01*
X3876428Y-17389952D01*
X3866905Y-17380429D01*
X3857381Y-17361381D01*
X3847857Y-17323286D01*
X3847857Y-17275667D01*
X3857381Y-17237571D01*
X3866905Y-17218524D01*
X3876428Y-17209000D01*
X3895476Y-17199476D01*
X4047857Y-17380429D02*
X4057381Y-17389952D01*
X4047857Y-17399476D01*
X4038333Y-17389952D01*
X4047857Y-17380429D01*
X4047857Y-17399476D01*
X4181190Y-17199476D02*
X4200238Y-17199476D01*
X4219286Y-17209000D01*
X4228810Y-17218524D01*
X4238333Y-17237571D01*
X4247857Y-17275667D01*
X4247857Y-17323286D01*
X4238333Y-17361381D01*
X4228810Y-17380429D01*
X4219286Y-17389952D01*
X4200238Y-17399476D01*
X4181190Y-17399476D01*
X4162143Y-17389952D01*
X4152619Y-17380429D01*
X4143095Y-17361381D01*
X4133571Y-17323286D01*
X4133571Y-17275667D01*
X4143095Y-17237571D01*
X4152619Y-17218524D01*
X4162143Y-17209000D01*
X4181190Y-17199476D01*
X4438333Y-17399476D02*
X4324048Y-17399476D01*
X4381190Y-17399476D02*
X4381190Y-17199476D01*
X4362143Y-17228048D01*
X4343095Y-17247095D01*
X4324048Y-17256619D01*
X4619286Y-17199476D02*
X4524048Y-17199476D01*
X4514524Y-17294714D01*
X4524048Y-17285190D01*
X4543095Y-17275667D01*
X4590714Y-17275667D01*
X4609762Y-17285190D01*
X4619286Y-17294714D01*
X4628810Y-17313762D01*
X4628810Y-17361381D01*
X4619286Y-17380429D01*
X4609762Y-17389952D01*
X4590714Y-17399476D01*
X4543095Y-17399476D01*
X4524048Y-17389952D01*
X4514524Y-17380429D01*
X4695476Y-17199476D02*
X4828810Y-17199476D01*
X4743095Y-17399476D01*
X4895476Y-17199476D02*
X4895476Y-17237571D01*
X4971667Y-17199476D02*
X4971667Y-17237571D01*
X5266905Y-17475667D02*
X5257381Y-17466143D01*
X5238333Y-17437571D01*
X5228810Y-17418524D01*
X5219286Y-17389952D01*
X5209762Y-17342333D01*
X5209762Y-17304238D01*
X5219286Y-17256619D01*
X5228810Y-17228048D01*
X5238333Y-17209000D01*
X5257381Y-17180429D01*
X5266905Y-17170905D01*
X5428810Y-17266143D02*
X5428810Y-17399476D01*
X5381190Y-17189952D02*
X5333571Y-17332810D01*
X5457381Y-17332810D01*
X5562143Y-17285190D02*
X5543095Y-17275667D01*
X5533571Y-17266143D01*
X5524048Y-17247095D01*
X5524048Y-17237571D01*
X5533571Y-17218524D01*
X5543095Y-17209000D01*
X5562143Y-17199476D01*
X5600238Y-17199476D01*
X5619286Y-17209000D01*
X5628809Y-17218524D01*
X5638333Y-17237571D01*
X5638333Y-17247095D01*
X5628809Y-17266143D01*
X5619286Y-17275667D01*
X5600238Y-17285190D01*
X5562143Y-17285190D01*
X5543095Y-17294714D01*
X5533571Y-17304238D01*
X5524048Y-17323286D01*
X5524048Y-17361381D01*
X5533571Y-17380429D01*
X5543095Y-17389952D01*
X5562143Y-17399476D01*
X5600238Y-17399476D01*
X5619286Y-17389952D01*
X5628809Y-17380429D01*
X5638333Y-17361381D01*
X5638333Y-17323286D01*
X5628809Y-17304238D01*
X5619286Y-17294714D01*
X5600238Y-17285190D01*
X5876428Y-17399476D02*
X5876428Y-17199476D01*
X5962143Y-17399476D02*
X5962143Y-17294714D01*
X5952619Y-17275667D01*
X5933571Y-17266143D01*
X5905000Y-17266143D01*
X5885952Y-17275667D01*
X5876428Y-17285190D01*
X6085952Y-17399476D02*
X6066905Y-17389952D01*
X6057381Y-17380429D01*
X6047857Y-17361381D01*
X6047857Y-17304238D01*
X6057381Y-17285190D01*
X6066905Y-17275667D01*
X6085952Y-17266143D01*
X6114524Y-17266143D01*
X6133571Y-17275667D01*
X6143095Y-17285190D01*
X6152619Y-17304238D01*
X6152619Y-17361381D01*
X6143095Y-17380429D01*
X6133571Y-17389952D01*
X6114524Y-17399476D01*
X6085952Y-17399476D01*
X6266905Y-17399476D02*
X6247857Y-17389952D01*
X6238333Y-17370905D01*
X6238333Y-17199476D01*
X6419286Y-17389952D02*
X6400238Y-17399476D01*
X6362143Y-17399476D01*
X6343095Y-17389952D01*
X6333571Y-17370905D01*
X6333571Y-17294714D01*
X6343095Y-17275667D01*
X6362143Y-17266143D01*
X6400238Y-17266143D01*
X6419286Y-17275667D01*
X6428809Y-17294714D01*
X6428809Y-17313762D01*
X6333571Y-17332810D01*
X6505000Y-17389952D02*
X6524048Y-17399476D01*
X6562143Y-17399476D01*
X6581190Y-17389952D01*
X6590714Y-17370905D01*
X6590714Y-17361381D01*
X6581190Y-17342333D01*
X6562143Y-17332810D01*
X6533571Y-17332810D01*
X6514524Y-17323286D01*
X6505000Y-17304238D01*
X6505000Y-17294714D01*
X6514524Y-17275667D01*
X6533571Y-17266143D01*
X6562143Y-17266143D01*
X6581190Y-17275667D01*
X6657381Y-17475667D02*
X6666905Y-17466143D01*
X6685952Y-17437571D01*
X6695476Y-17418524D01*
X6705000Y-17389952D01*
X6714524Y-17342333D01*
X6714524Y-17304238D01*
X6705000Y-17256619D01*
X6695476Y-17228048D01*
X6685952Y-17209000D01*
X6666905Y-17180429D01*
X6657381Y-17170905D01*
D14*
X1665000Y-17543000D02*
X1665000Y-17603000D01*
X1635000Y-17573000D02*
X1695000Y-17573000D01*
D11*
X1990714Y-17463476D02*
X2009762Y-17463476D01*
X2028809Y-17473000D01*
X2038333Y-17482524D01*
X2047857Y-17501571D01*
X2057381Y-17539667D01*
X2057381Y-17587286D01*
X2047857Y-17625381D01*
X2038333Y-17644429D01*
X2028809Y-17653952D01*
X2009762Y-17663476D01*
X1990714Y-17663476D01*
X1971667Y-17653952D01*
X1962143Y-17644429D01*
X1952619Y-17625381D01*
X1943095Y-17587286D01*
X1943095Y-17539667D01*
X1952619Y-17501571D01*
X1962143Y-17482524D01*
X1971667Y-17473000D01*
X1990714Y-17463476D01*
X2143095Y-17644429D02*
X2152619Y-17653952D01*
X2143095Y-17663476D01*
X2133571Y-17653952D01*
X2143095Y-17644429D01*
X2143095Y-17663476D01*
X2324048Y-17463476D02*
X2285952Y-17463476D01*
X2266905Y-17473000D01*
X2257381Y-17482524D01*
X2238333Y-17511095D01*
X2228810Y-17549190D01*
X2228810Y-17625381D01*
X2238333Y-17644429D01*
X2247857Y-17653952D01*
X2266905Y-17663476D01*
X2305000Y-17663476D01*
X2324048Y-17653952D01*
X2333571Y-17644429D01*
X2343095Y-17625381D01*
X2343095Y-17577762D01*
X2333571Y-17558714D01*
X2324048Y-17549190D01*
X2305000Y-17539667D01*
X2266905Y-17539667D01*
X2247857Y-17549190D01*
X2238333Y-17558714D01*
X2228810Y-17577762D01*
X2466905Y-17463476D02*
X2485952Y-17463476D01*
X2505000Y-17473000D01*
X2514524Y-17482524D01*
X2524048Y-17501571D01*
X2533571Y-17539667D01*
X2533571Y-17587286D01*
X2524048Y-17625381D01*
X2514524Y-17644429D01*
X2505000Y-17653952D01*
X2485952Y-17663476D01*
X2466905Y-17663476D01*
X2447857Y-17653952D01*
X2438333Y-17644429D01*
X2428810Y-17625381D01*
X2419286Y-17587286D01*
X2419286Y-17539667D01*
X2428810Y-17501571D01*
X2438333Y-17482524D01*
X2447857Y-17473000D01*
X2466905Y-17463476D01*
X2657381Y-17463476D02*
X2676429Y-17463476D01*
X2695476Y-17473000D01*
X2705000Y-17482524D01*
X2714524Y-17501571D01*
X2724048Y-17539667D01*
X2724048Y-17587286D01*
X2714524Y-17625381D01*
X2705000Y-17644429D01*
X2695476Y-17653952D01*
X2676429Y-17663476D01*
X2657381Y-17663476D01*
X2638333Y-17653952D01*
X2628810Y-17644429D01*
X2619286Y-17625381D01*
X2609762Y-17587286D01*
X2609762Y-17539667D01*
X2619286Y-17501571D01*
X2628810Y-17482524D01*
X2638333Y-17473000D01*
X2657381Y-17463476D01*
X2809762Y-17663476D02*
X2809762Y-17530143D01*
X2809762Y-17549190D02*
X2819286Y-17539667D01*
X2838333Y-17530143D01*
X2866905Y-17530143D01*
X2885952Y-17539667D01*
X2895476Y-17558714D01*
X2895476Y-17663476D01*
X2895476Y-17558714D02*
X2905000Y-17539667D01*
X2924048Y-17530143D01*
X2952619Y-17530143D01*
X2971667Y-17539667D01*
X2981190Y-17558714D01*
X2981190Y-17663476D01*
X3076428Y-17663476D02*
X3076428Y-17530143D01*
X3076428Y-17549190D02*
X3085952Y-17539667D01*
X3105000Y-17530143D01*
X3133571Y-17530143D01*
X3152619Y-17539667D01*
X3162143Y-17558714D01*
X3162143Y-17663476D01*
X3162143Y-17558714D02*
X3171667Y-17539667D01*
X3190714Y-17530143D01*
X3219286Y-17530143D01*
X3238333Y-17539667D01*
X3247857Y-17558714D01*
X3247857Y-17663476D01*
X3638333Y-17453952D02*
X3466905Y-17711095D01*
X3895476Y-17463476D02*
X3914524Y-17463476D01*
X3933571Y-17473000D01*
X3943095Y-17482524D01*
X3952619Y-17501571D01*
X3962143Y-17539667D01*
X3962143Y-17587286D01*
X3952619Y-17625381D01*
X3943095Y-17644429D01*
X3933571Y-17653952D01*
X3914524Y-17663476D01*
X3895476Y-17663476D01*
X3876428Y-17653952D01*
X3866905Y-17644429D01*
X3857381Y-17625381D01*
X3847857Y-17587286D01*
X3847857Y-17539667D01*
X3857381Y-17501571D01*
X3866905Y-17482524D01*
X3876428Y-17473000D01*
X3895476Y-17463476D01*
X4047857Y-17644429D02*
X4057381Y-17653952D01*
X4047857Y-17663476D01*
X4038333Y-17653952D01*
X4047857Y-17644429D01*
X4047857Y-17663476D01*
X4181190Y-17463476D02*
X4200238Y-17463476D01*
X4219286Y-17473000D01*
X4228810Y-17482524D01*
X4238333Y-17501571D01*
X4247857Y-17539667D01*
X4247857Y-17587286D01*
X4238333Y-17625381D01*
X4228810Y-17644429D01*
X4219286Y-17653952D01*
X4200238Y-17663476D01*
X4181190Y-17663476D01*
X4162143Y-17653952D01*
X4152619Y-17644429D01*
X4143095Y-17625381D01*
X4133571Y-17587286D01*
X4133571Y-17539667D01*
X4143095Y-17501571D01*
X4152619Y-17482524D01*
X4162143Y-17473000D01*
X4181190Y-17463476D01*
X4324048Y-17482524D02*
X4333571Y-17473000D01*
X4352619Y-17463476D01*
X4400238Y-17463476D01*
X4419286Y-17473000D01*
X4428810Y-17482524D01*
X4438333Y-17501571D01*
X4438333Y-17520619D01*
X4428810Y-17549190D01*
X4314524Y-17663476D01*
X4438333Y-17663476D01*
X4505000Y-17463476D02*
X4628810Y-17463476D01*
X4562143Y-17539667D01*
X4590714Y-17539667D01*
X4609762Y-17549190D01*
X4619286Y-17558714D01*
X4628810Y-17577762D01*
X4628810Y-17625381D01*
X4619286Y-17644429D01*
X4609762Y-17653952D01*
X4590714Y-17663476D01*
X4533571Y-17663476D01*
X4514524Y-17653952D01*
X4505000Y-17644429D01*
X4800238Y-17463476D02*
X4762143Y-17463476D01*
X4743095Y-17473000D01*
X4733571Y-17482524D01*
X4714524Y-17511095D01*
X4705000Y-17549190D01*
X4705000Y-17625381D01*
X4714524Y-17644429D01*
X4724048Y-17653952D01*
X4743095Y-17663476D01*
X4781190Y-17663476D01*
X4800238Y-17653952D01*
X4809762Y-17644429D01*
X4819286Y-17625381D01*
X4819286Y-17577762D01*
X4809762Y-17558714D01*
X4800238Y-17549190D01*
X4781190Y-17539667D01*
X4743095Y-17539667D01*
X4724048Y-17549190D01*
X4714524Y-17558714D01*
X4705000Y-17577762D01*
X4895476Y-17463476D02*
X4895476Y-17501571D01*
X4971667Y-17463476D02*
X4971667Y-17501571D01*
X5266905Y-17739667D02*
X5257381Y-17730143D01*
X5238333Y-17701571D01*
X5228810Y-17682524D01*
X5219286Y-17653952D01*
X5209762Y-17606333D01*
X5209762Y-17568238D01*
X5219286Y-17520619D01*
X5228810Y-17492048D01*
X5238333Y-17473000D01*
X5257381Y-17444429D01*
X5266905Y-17434905D01*
X5381190Y-17463476D02*
X5400238Y-17463476D01*
X5419286Y-17473000D01*
X5428810Y-17482524D01*
X5438333Y-17501571D01*
X5447857Y-17539667D01*
X5447857Y-17587286D01*
X5438333Y-17625381D01*
X5428810Y-17644429D01*
X5419286Y-17653952D01*
X5400238Y-17663476D01*
X5381190Y-17663476D01*
X5362143Y-17653952D01*
X5352619Y-17644429D01*
X5343095Y-17625381D01*
X5333571Y-17587286D01*
X5333571Y-17539667D01*
X5343095Y-17501571D01*
X5352619Y-17482524D01*
X5362143Y-17473000D01*
X5381190Y-17463476D01*
X5685952Y-17663476D02*
X5685952Y-17463476D01*
X5771667Y-17663476D02*
X5771667Y-17558714D01*
X5762143Y-17539667D01*
X5743095Y-17530143D01*
X5714524Y-17530143D01*
X5695476Y-17539667D01*
X5685952Y-17549190D01*
X5895476Y-17663476D02*
X5876428Y-17653952D01*
X5866905Y-17644429D01*
X5857381Y-17625381D01*
X5857381Y-17568238D01*
X5866905Y-17549190D01*
X5876428Y-17539667D01*
X5895476Y-17530143D01*
X5924048Y-17530143D01*
X5943095Y-17539667D01*
X5952619Y-17549190D01*
X5962143Y-17568238D01*
X5962143Y-17625381D01*
X5952619Y-17644429D01*
X5943095Y-17653952D01*
X5924048Y-17663476D01*
X5895476Y-17663476D01*
X6076428Y-17663476D02*
X6057381Y-17653952D01*
X6047857Y-17634905D01*
X6047857Y-17463476D01*
X6228809Y-17653952D02*
X6209762Y-17663476D01*
X6171667Y-17663476D01*
X6152619Y-17653952D01*
X6143095Y-17634905D01*
X6143095Y-17558714D01*
X6152619Y-17539667D01*
X6171667Y-17530143D01*
X6209762Y-17530143D01*
X6228809Y-17539667D01*
X6238333Y-17558714D01*
X6238333Y-17577762D01*
X6143095Y-17596810D01*
X6314524Y-17653952D02*
X6333571Y-17663476D01*
X6371667Y-17663476D01*
X6390714Y-17653952D01*
X6400238Y-17634905D01*
X6400238Y-17625381D01*
X6390714Y-17606333D01*
X6371667Y-17596810D01*
X6343095Y-17596810D01*
X6324048Y-17587286D01*
X6314524Y-17568238D01*
X6314524Y-17558714D01*
X6324048Y-17539667D01*
X6343095Y-17530143D01*
X6371667Y-17530143D01*
X6390714Y-17539667D01*
X6638333Y-17587286D02*
X6790714Y-17587286D01*
X6714524Y-17663476D02*
X6714524Y-17511095D01*
X7124048Y-17530143D02*
X7124048Y-17663476D01*
X7076428Y-17453952D02*
X7028809Y-17596810D01*
X7152619Y-17596810D01*
X7371667Y-17653952D02*
X7390714Y-17663476D01*
X7428809Y-17663476D01*
X7447857Y-17653952D01*
X7457381Y-17634905D01*
X7457381Y-17625381D01*
X7447857Y-17606333D01*
X7428809Y-17596810D01*
X7400238Y-17596810D01*
X7381190Y-17587286D01*
X7371667Y-17568238D01*
X7371667Y-17558714D01*
X7381190Y-17539667D01*
X7400238Y-17530143D01*
X7428809Y-17530143D01*
X7447857Y-17539667D01*
X7571667Y-17663476D02*
X7552619Y-17653952D01*
X7543095Y-17634905D01*
X7543095Y-17463476D01*
X7676428Y-17663476D02*
X7657381Y-17653952D01*
X7647857Y-17644429D01*
X7638333Y-17625381D01*
X7638333Y-17568238D01*
X7647857Y-17549190D01*
X7657381Y-17539667D01*
X7676428Y-17530143D01*
X7705000Y-17530143D01*
X7724048Y-17539667D01*
X7733571Y-17549190D01*
X7743095Y-17568238D01*
X7743095Y-17625381D01*
X7733571Y-17644429D01*
X7724048Y-17653952D01*
X7705000Y-17663476D01*
X7676428Y-17663476D01*
X7800238Y-17530143D02*
X7876428Y-17530143D01*
X7828809Y-17463476D02*
X7828809Y-17634905D01*
X7838333Y-17653952D01*
X7857381Y-17663476D01*
X7876428Y-17663476D01*
X7933571Y-17653952D02*
X7952619Y-17663476D01*
X7990714Y-17663476D01*
X8009762Y-17653952D01*
X8019286Y-17634905D01*
X8019286Y-17625381D01*
X8009762Y-17606333D01*
X7990714Y-17596810D01*
X7962143Y-17596810D01*
X7943095Y-17587286D01*
X7933571Y-17568238D01*
X7933571Y-17558714D01*
X7943095Y-17539667D01*
X7962143Y-17530143D01*
X7990714Y-17530143D01*
X8009762Y-17539667D01*
X8085952Y-17739667D02*
X8095476Y-17730143D01*
X8114524Y-17701571D01*
X8124048Y-17682524D01*
X8133571Y-17653952D01*
X8143095Y-17606333D01*
X8143095Y-17568238D01*
X8133571Y-17520619D01*
X8124048Y-17492048D01*
X8114524Y-17473000D01*
X8095476Y-17444429D01*
X8085952Y-17434905D01*
D15*
X1680356Y-17872356D02*
X1680356Y-17801644D01*
X1609644Y-17801644D01*
X1609644Y-17872356D01*
X1680356Y-17872356D01*
D11*
X2057381Y-17927476D02*
X1943095Y-17927476D01*
X2000238Y-17927476D02*
X2000238Y-17727476D01*
X1981190Y-17756048D01*
X1962143Y-17775095D01*
X1943095Y-17784619D01*
X2143095Y-17908429D02*
X2152619Y-17917952D01*
X2143095Y-17927476D01*
X2133571Y-17917952D01*
X2143095Y-17908429D01*
X2143095Y-17927476D01*
X2276429Y-17727476D02*
X2295476Y-17727476D01*
X2314524Y-17737000D01*
X2324048Y-17746524D01*
X2333571Y-17765571D01*
X2343095Y-17803667D01*
X2343095Y-17851286D01*
X2333571Y-17889381D01*
X2324048Y-17908429D01*
X2314524Y-17917952D01*
X2295476Y-17927476D01*
X2276429Y-17927476D01*
X2257381Y-17917952D01*
X2247857Y-17908429D01*
X2238333Y-17889381D01*
X2228810Y-17851286D01*
X2228810Y-17803667D01*
X2238333Y-17765571D01*
X2247857Y-17746524D01*
X2257381Y-17737000D01*
X2276429Y-17727476D01*
X2466905Y-17727476D02*
X2485952Y-17727476D01*
X2505000Y-17737000D01*
X2514524Y-17746524D01*
X2524048Y-17765571D01*
X2533571Y-17803667D01*
X2533571Y-17851286D01*
X2524048Y-17889381D01*
X2514524Y-17908429D01*
X2505000Y-17917952D01*
X2485952Y-17927476D01*
X2466905Y-17927476D01*
X2447857Y-17917952D01*
X2438333Y-17908429D01*
X2428810Y-17889381D01*
X2419286Y-17851286D01*
X2419286Y-17803667D01*
X2428810Y-17765571D01*
X2438333Y-17746524D01*
X2447857Y-17737000D01*
X2466905Y-17727476D01*
X2657381Y-17727476D02*
X2676429Y-17727476D01*
X2695476Y-17737000D01*
X2705000Y-17746524D01*
X2714524Y-17765571D01*
X2724048Y-17803667D01*
X2724048Y-17851286D01*
X2714524Y-17889381D01*
X2705000Y-17908429D01*
X2695476Y-17917952D01*
X2676429Y-17927476D01*
X2657381Y-17927476D01*
X2638333Y-17917952D01*
X2628810Y-17908429D01*
X2619286Y-17889381D01*
X2609762Y-17851286D01*
X2609762Y-17803667D01*
X2619286Y-17765571D01*
X2628810Y-17746524D01*
X2638333Y-17737000D01*
X2657381Y-17727476D01*
X2809762Y-17927476D02*
X2809762Y-17794143D01*
X2809762Y-17813190D02*
X2819286Y-17803667D01*
X2838333Y-17794143D01*
X2866905Y-17794143D01*
X2885952Y-17803667D01*
X2895476Y-17822714D01*
X2895476Y-17927476D01*
X2895476Y-17822714D02*
X2905000Y-17803667D01*
X2924048Y-17794143D01*
X2952619Y-17794143D01*
X2971667Y-17803667D01*
X2981190Y-17822714D01*
X2981190Y-17927476D01*
X3076428Y-17927476D02*
X3076428Y-17794143D01*
X3076428Y-17813190D02*
X3085952Y-17803667D01*
X3105000Y-17794143D01*
X3133571Y-17794143D01*
X3152619Y-17803667D01*
X3162143Y-17822714D01*
X3162143Y-17927476D01*
X3162143Y-17822714D02*
X3171667Y-17803667D01*
X3190714Y-17794143D01*
X3219286Y-17794143D01*
X3238333Y-17803667D01*
X3247857Y-17822714D01*
X3247857Y-17927476D01*
X3638333Y-17717952D02*
X3466905Y-17975095D01*
X3895476Y-17727476D02*
X3914524Y-17727476D01*
X3933571Y-17737000D01*
X3943095Y-17746524D01*
X3952619Y-17765571D01*
X3962143Y-17803667D01*
X3962143Y-17851286D01*
X3952619Y-17889381D01*
X3943095Y-17908429D01*
X3933571Y-17917952D01*
X3914524Y-17927476D01*
X3895476Y-17927476D01*
X3876428Y-17917952D01*
X3866905Y-17908429D01*
X3857381Y-17889381D01*
X3847857Y-17851286D01*
X3847857Y-17803667D01*
X3857381Y-17765571D01*
X3866905Y-17746524D01*
X3876428Y-17737000D01*
X3895476Y-17727476D01*
X4047857Y-17908429D02*
X4057381Y-17917952D01*
X4047857Y-17927476D01*
X4038333Y-17917952D01*
X4047857Y-17908429D01*
X4047857Y-17927476D01*
X4181190Y-17727476D02*
X4200238Y-17727476D01*
X4219286Y-17737000D01*
X4228810Y-17746524D01*
X4238333Y-17765571D01*
X4247857Y-17803667D01*
X4247857Y-17851286D01*
X4238333Y-17889381D01*
X4228810Y-17908429D01*
X4219286Y-17917952D01*
X4200238Y-17927476D01*
X4181190Y-17927476D01*
X4162143Y-17917952D01*
X4152619Y-17908429D01*
X4143095Y-17889381D01*
X4133571Y-17851286D01*
X4133571Y-17803667D01*
X4143095Y-17765571D01*
X4152619Y-17746524D01*
X4162143Y-17737000D01*
X4181190Y-17727476D01*
X4314524Y-17727476D02*
X4438333Y-17727476D01*
X4371667Y-17803667D01*
X4400238Y-17803667D01*
X4419286Y-17813190D01*
X4428810Y-17822714D01*
X4438333Y-17841762D01*
X4438333Y-17889381D01*
X4428810Y-17908429D01*
X4419286Y-17917952D01*
X4400238Y-17927476D01*
X4343095Y-17927476D01*
X4324048Y-17917952D01*
X4314524Y-17908429D01*
X4533571Y-17927476D02*
X4571667Y-17927476D01*
X4590714Y-17917952D01*
X4600238Y-17908429D01*
X4619286Y-17879857D01*
X4628810Y-17841762D01*
X4628810Y-17765571D01*
X4619286Y-17746524D01*
X4609762Y-17737000D01*
X4590714Y-17727476D01*
X4552619Y-17727476D01*
X4533571Y-17737000D01*
X4524048Y-17746524D01*
X4514524Y-17765571D01*
X4514524Y-17813190D01*
X4524048Y-17832238D01*
X4533571Y-17841762D01*
X4552619Y-17851286D01*
X4590714Y-17851286D01*
X4609762Y-17841762D01*
X4619286Y-17832238D01*
X4628810Y-17813190D01*
X4800238Y-17794143D02*
X4800238Y-17927476D01*
X4752619Y-17717952D02*
X4705000Y-17860810D01*
X4828810Y-17860810D01*
X4895476Y-17727476D02*
X4895476Y-17765571D01*
X4971667Y-17727476D02*
X4971667Y-17765571D01*
X5266905Y-18003667D02*
X5257381Y-17994143D01*
X5238333Y-17965571D01*
X5228810Y-17946524D01*
X5219286Y-17917952D01*
X5209762Y-17870333D01*
X5209762Y-17832238D01*
X5219286Y-17784619D01*
X5228810Y-17756048D01*
X5238333Y-17737000D01*
X5257381Y-17708429D01*
X5266905Y-17698905D01*
X5324048Y-17727476D02*
X5457381Y-17727476D01*
X5371667Y-17927476D01*
X5543095Y-17927476D02*
X5581190Y-17927476D01*
X5600238Y-17917952D01*
X5609762Y-17908429D01*
X5628809Y-17879857D01*
X5638333Y-17841762D01*
X5638333Y-17765571D01*
X5628809Y-17746524D01*
X5619286Y-17737000D01*
X5600238Y-17727476D01*
X5562143Y-17727476D01*
X5543095Y-17737000D01*
X5533571Y-17746524D01*
X5524048Y-17765571D01*
X5524048Y-17813190D01*
X5533571Y-17832238D01*
X5543095Y-17841762D01*
X5562143Y-17851286D01*
X5600238Y-17851286D01*
X5619286Y-17841762D01*
X5628809Y-17832238D01*
X5638333Y-17813190D01*
X5876428Y-17927476D02*
X5876428Y-17727476D01*
X5962143Y-17927476D02*
X5962143Y-17822714D01*
X5952619Y-17803667D01*
X5933571Y-17794143D01*
X5905000Y-17794143D01*
X5885952Y-17803667D01*
X5876428Y-17813190D01*
X6085952Y-17927476D02*
X6066905Y-17917952D01*
X6057381Y-17908429D01*
X6047857Y-17889381D01*
X6047857Y-17832238D01*
X6057381Y-17813190D01*
X6066905Y-17803667D01*
X6085952Y-17794143D01*
X6114524Y-17794143D01*
X6133571Y-17803667D01*
X6143095Y-17813190D01*
X6152619Y-17832238D01*
X6152619Y-17889381D01*
X6143095Y-17908429D01*
X6133571Y-17917952D01*
X6114524Y-17927476D01*
X6085952Y-17927476D01*
X6266905Y-17927476D02*
X6247857Y-17917952D01*
X6238333Y-17898905D01*
X6238333Y-17727476D01*
X6419286Y-17917952D02*
X6400238Y-17927476D01*
X6362143Y-17927476D01*
X6343095Y-17917952D01*
X6333571Y-17898905D01*
X6333571Y-17822714D01*
X6343095Y-17803667D01*
X6362143Y-17794143D01*
X6400238Y-17794143D01*
X6419286Y-17803667D01*
X6428809Y-17822714D01*
X6428809Y-17841762D01*
X6333571Y-17860810D01*
X6505000Y-17917952D02*
X6524048Y-17927476D01*
X6562143Y-17927476D01*
X6581190Y-17917952D01*
X6590714Y-17898905D01*
X6590714Y-17889381D01*
X6581190Y-17870333D01*
X6562143Y-17860810D01*
X6533571Y-17860810D01*
X6514524Y-17851286D01*
X6505000Y-17832238D01*
X6505000Y-17822714D01*
X6514524Y-17803667D01*
X6533571Y-17794143D01*
X6562143Y-17794143D01*
X6581190Y-17803667D01*
X6657381Y-18003667D02*
X6666905Y-17994143D01*
X6685952Y-17965571D01*
X6695476Y-17946524D01*
X6705000Y-17917952D01*
X6714524Y-17870333D01*
X6714524Y-17832238D01*
X6705000Y-17784619D01*
X6695476Y-17756048D01*
X6685952Y-17737000D01*
X6666905Y-17708429D01*
X6657381Y-17698905D01*
D16*
X1619000Y-18177000D02*
X1695000Y-18101000D01*
X1619000Y-18025000D01*
X1543000Y-18101000D01*
X1619000Y-18177000D01*
D11*
X2057381Y-18191476D02*
X1943095Y-18191476D01*
X2000238Y-18191476D02*
X2000238Y-17991476D01*
X1981190Y-18020048D01*
X1962143Y-18039095D01*
X1943095Y-18048619D01*
X2143095Y-18172429D02*
X2152619Y-18181952D01*
X2143095Y-18191476D01*
X2133571Y-18181952D01*
X2143095Y-18172429D01*
X2143095Y-18191476D01*
X2333571Y-17991476D02*
X2238333Y-17991476D01*
X2228810Y-18086714D01*
X2238333Y-18077190D01*
X2257381Y-18067667D01*
X2305000Y-18067667D01*
X2324048Y-18077190D01*
X2333571Y-18086714D01*
X2343095Y-18105762D01*
X2343095Y-18153381D01*
X2333571Y-18172429D01*
X2324048Y-18181952D01*
X2305000Y-18191476D01*
X2257381Y-18191476D01*
X2238333Y-18181952D01*
X2228810Y-18172429D01*
X2419286Y-18010524D02*
X2428810Y-18001000D01*
X2447857Y-17991476D01*
X2495476Y-17991476D01*
X2514524Y-18001000D01*
X2524048Y-18010524D01*
X2533571Y-18029571D01*
X2533571Y-18048619D01*
X2524048Y-18077190D01*
X2409762Y-18191476D01*
X2533571Y-18191476D01*
X2657381Y-17991476D02*
X2676429Y-17991476D01*
X2695476Y-18001000D01*
X2705000Y-18010524D01*
X2714524Y-18029571D01*
X2724048Y-18067667D01*
X2724048Y-18115286D01*
X2714524Y-18153381D01*
X2705000Y-18172429D01*
X2695476Y-18181952D01*
X2676429Y-18191476D01*
X2657381Y-18191476D01*
X2638333Y-18181952D01*
X2628810Y-18172429D01*
X2619286Y-18153381D01*
X2609762Y-18115286D01*
X2609762Y-18067667D01*
X2619286Y-18029571D01*
X2628810Y-18010524D01*
X2638333Y-18001000D01*
X2657381Y-17991476D01*
X2809762Y-18191476D02*
X2809762Y-18058143D01*
X2809762Y-18077190D02*
X2819286Y-18067667D01*
X2838333Y-18058143D01*
X2866905Y-18058143D01*
X2885952Y-18067667D01*
X2895476Y-18086714D01*
X2895476Y-18191476D01*
X2895476Y-18086714D02*
X2905000Y-18067667D01*
X2924048Y-18058143D01*
X2952619Y-18058143D01*
X2971667Y-18067667D01*
X2981190Y-18086714D01*
X2981190Y-18191476D01*
X3076428Y-18191476D02*
X3076428Y-18058143D01*
X3076428Y-18077190D02*
X3085952Y-18067667D01*
X3105000Y-18058143D01*
X3133571Y-18058143D01*
X3152619Y-18067667D01*
X3162143Y-18086714D01*
X3162143Y-18191476D01*
X3162143Y-18086714D02*
X3171667Y-18067667D01*
X3190714Y-18058143D01*
X3219286Y-18058143D01*
X3238333Y-18067667D01*
X3247857Y-18086714D01*
X3247857Y-18191476D01*
X3638333Y-17981952D02*
X3466905Y-18239095D01*
X3895476Y-17991476D02*
X3914524Y-17991476D01*
X3933571Y-18001000D01*
X3943095Y-18010524D01*
X3952619Y-18029571D01*
X3962143Y-18067667D01*
X3962143Y-18115286D01*
X3952619Y-18153381D01*
X3943095Y-18172429D01*
X3933571Y-18181952D01*
X3914524Y-18191476D01*
X3895476Y-18191476D01*
X3876428Y-18181952D01*
X3866905Y-18172429D01*
X3857381Y-18153381D01*
X3847857Y-18115286D01*
X3847857Y-18067667D01*
X3857381Y-18029571D01*
X3866905Y-18010524D01*
X3876428Y-18001000D01*
X3895476Y-17991476D01*
X4047857Y-18172429D02*
X4057381Y-18181952D01*
X4047857Y-18191476D01*
X4038333Y-18181952D01*
X4047857Y-18172429D01*
X4047857Y-18191476D01*
X4181190Y-17991476D02*
X4200238Y-17991476D01*
X4219286Y-18001000D01*
X4228810Y-18010524D01*
X4238333Y-18029571D01*
X4247857Y-18067667D01*
X4247857Y-18115286D01*
X4238333Y-18153381D01*
X4228810Y-18172429D01*
X4219286Y-18181952D01*
X4200238Y-18191476D01*
X4181190Y-18191476D01*
X4162143Y-18181952D01*
X4152619Y-18172429D01*
X4143095Y-18153381D01*
X4133571Y-18115286D01*
X4133571Y-18067667D01*
X4143095Y-18029571D01*
X4152619Y-18010524D01*
X4162143Y-18001000D01*
X4181190Y-17991476D01*
X4428810Y-17991476D02*
X4333571Y-17991476D01*
X4324048Y-18086714D01*
X4333571Y-18077190D01*
X4352619Y-18067667D01*
X4400238Y-18067667D01*
X4419286Y-18077190D01*
X4428810Y-18086714D01*
X4438333Y-18105762D01*
X4438333Y-18153381D01*
X4428810Y-18172429D01*
X4419286Y-18181952D01*
X4400238Y-18191476D01*
X4352619Y-18191476D01*
X4333571Y-18181952D01*
X4324048Y-18172429D01*
X4533571Y-18191476D02*
X4571667Y-18191476D01*
X4590714Y-18181952D01*
X4600238Y-18172429D01*
X4619286Y-18143857D01*
X4628810Y-18105762D01*
X4628810Y-18029571D01*
X4619286Y-18010524D01*
X4609762Y-18001000D01*
X4590714Y-17991476D01*
X4552619Y-17991476D01*
X4533571Y-18001000D01*
X4524048Y-18010524D01*
X4514524Y-18029571D01*
X4514524Y-18077190D01*
X4524048Y-18096238D01*
X4533571Y-18105762D01*
X4552619Y-18115286D01*
X4590714Y-18115286D01*
X4609762Y-18105762D01*
X4619286Y-18096238D01*
X4628810Y-18077190D01*
X4743095Y-18077190D02*
X4724048Y-18067667D01*
X4714524Y-18058143D01*
X4705000Y-18039095D01*
X4705000Y-18029571D01*
X4714524Y-18010524D01*
X4724048Y-18001000D01*
X4743095Y-17991476D01*
X4781190Y-17991476D01*
X4800238Y-18001000D01*
X4809762Y-18010524D01*
X4819286Y-18029571D01*
X4819286Y-18039095D01*
X4809762Y-18058143D01*
X4800238Y-18067667D01*
X4781190Y-18077190D01*
X4743095Y-18077190D01*
X4724048Y-18086714D01*
X4714524Y-18096238D01*
X4705000Y-18115286D01*
X4705000Y-18153381D01*
X4714524Y-18172429D01*
X4724048Y-18181952D01*
X4743095Y-18191476D01*
X4781190Y-18191476D01*
X4800238Y-18181952D01*
X4809762Y-18172429D01*
X4819286Y-18153381D01*
X4819286Y-18115286D01*
X4809762Y-18096238D01*
X4800238Y-18086714D01*
X4781190Y-18077190D01*
X4895476Y-17991476D02*
X4895476Y-18029571D01*
X4971667Y-17991476D02*
X4971667Y-18029571D01*
X5266905Y-18267667D02*
X5257381Y-18258143D01*
X5238333Y-18229571D01*
X5228810Y-18210524D01*
X5219286Y-18181952D01*
X5209762Y-18134333D01*
X5209762Y-18096238D01*
X5219286Y-18048619D01*
X5228810Y-18020048D01*
X5238333Y-18001000D01*
X5257381Y-17972429D01*
X5266905Y-17962905D01*
X5333571Y-18010524D02*
X5343095Y-18001000D01*
X5362143Y-17991476D01*
X5409762Y-17991476D01*
X5428810Y-18001000D01*
X5438333Y-18010524D01*
X5447857Y-18029571D01*
X5447857Y-18048619D01*
X5438333Y-18077190D01*
X5324048Y-18191476D01*
X5447857Y-18191476D01*
X5685952Y-18191476D02*
X5685952Y-17991476D01*
X5771667Y-18191476D02*
X5771667Y-18086714D01*
X5762143Y-18067667D01*
X5743095Y-18058143D01*
X5714524Y-18058143D01*
X5695476Y-18067667D01*
X5685952Y-18077190D01*
X5895476Y-18191476D02*
X5876428Y-18181952D01*
X5866905Y-18172429D01*
X5857381Y-18153381D01*
X5857381Y-18096238D01*
X5866905Y-18077190D01*
X5876428Y-18067667D01*
X5895476Y-18058143D01*
X5924048Y-18058143D01*
X5943095Y-18067667D01*
X5952619Y-18077190D01*
X5962143Y-18096238D01*
X5962143Y-18153381D01*
X5952619Y-18172429D01*
X5943095Y-18181952D01*
X5924048Y-18191476D01*
X5895476Y-18191476D01*
X6076428Y-18191476D02*
X6057381Y-18181952D01*
X6047857Y-18162905D01*
X6047857Y-17991476D01*
X6228809Y-18181952D02*
X6209762Y-18191476D01*
X6171667Y-18191476D01*
X6152619Y-18181952D01*
X6143095Y-18162905D01*
X6143095Y-18086714D01*
X6152619Y-18067667D01*
X6171667Y-18058143D01*
X6209762Y-18058143D01*
X6228809Y-18067667D01*
X6238333Y-18086714D01*
X6238333Y-18105762D01*
X6143095Y-18124810D01*
X6314524Y-18181952D02*
X6333571Y-18191476D01*
X6371667Y-18191476D01*
X6390714Y-18181952D01*
X6400238Y-18162905D01*
X6400238Y-18153381D01*
X6390714Y-18134333D01*
X6371667Y-18124810D01*
X6343095Y-18124810D01*
X6324048Y-18115286D01*
X6314524Y-18096238D01*
X6314524Y-18086714D01*
X6324048Y-18067667D01*
X6343095Y-18058143D01*
X6371667Y-18058143D01*
X6390714Y-18067667D01*
X6466905Y-18267667D02*
X6476428Y-18258143D01*
X6495476Y-18229571D01*
X6505000Y-18210524D01*
X6514524Y-18181952D01*
X6524048Y-18134333D01*
X6524048Y-18096238D01*
X6514524Y-18048619D01*
X6505000Y-18020048D01*
X6495476Y-18001000D01*
X6476428Y-17972429D01*
X6466905Y-17962905D01*
X1495000Y-18273000D02*
X1695000Y-18473000D01*
X1695000Y-18273000D02*
X1495000Y-18473000D01*
X1695000Y-18373000D02*
G75*
G03*
X1695000Y-18373000I-100000J0D01*
G01*
X1943095Y-18282524D02*
X1952619Y-18273000D01*
X1971667Y-18263476D01*
X2019286Y-18263476D01*
X2038333Y-18273000D01*
X2047857Y-18282524D01*
X2057381Y-18301571D01*
X2057381Y-18320619D01*
X2047857Y-18349190D01*
X1933571Y-18463476D01*
X2057381Y-18463476D01*
X2143095Y-18444429D02*
X2152619Y-18453952D01*
X2143095Y-18463476D01*
X2133571Y-18453952D01*
X2143095Y-18444429D01*
X2143095Y-18463476D01*
X2276429Y-18263476D02*
X2295476Y-18263476D01*
X2314524Y-18273000D01*
X2324048Y-18282524D01*
X2333571Y-18301571D01*
X2343095Y-18339667D01*
X2343095Y-18387286D01*
X2333571Y-18425381D01*
X2324048Y-18444429D01*
X2314524Y-18453952D01*
X2295476Y-18463476D01*
X2276429Y-18463476D01*
X2257381Y-18453952D01*
X2247857Y-18444429D01*
X2238333Y-18425381D01*
X2228810Y-18387286D01*
X2228810Y-18339667D01*
X2238333Y-18301571D01*
X2247857Y-18282524D01*
X2257381Y-18273000D01*
X2276429Y-18263476D01*
X2466905Y-18263476D02*
X2485952Y-18263476D01*
X2505000Y-18273000D01*
X2514524Y-18282524D01*
X2524048Y-18301571D01*
X2533571Y-18339667D01*
X2533571Y-18387286D01*
X2524048Y-18425381D01*
X2514524Y-18444429D01*
X2505000Y-18453952D01*
X2485952Y-18463476D01*
X2466905Y-18463476D01*
X2447857Y-18453952D01*
X2438333Y-18444429D01*
X2428810Y-18425381D01*
X2419286Y-18387286D01*
X2419286Y-18339667D01*
X2428810Y-18301571D01*
X2438333Y-18282524D01*
X2447857Y-18273000D01*
X2466905Y-18263476D01*
X2657381Y-18263476D02*
X2676429Y-18263476D01*
X2695476Y-18273000D01*
X2705000Y-18282524D01*
X2714524Y-18301571D01*
X2724048Y-18339667D01*
X2724048Y-18387286D01*
X2714524Y-18425381D01*
X2705000Y-18444429D01*
X2695476Y-18453952D01*
X2676429Y-18463476D01*
X2657381Y-18463476D01*
X2638333Y-18453952D01*
X2628810Y-18444429D01*
X2619286Y-18425381D01*
X2609762Y-18387286D01*
X2609762Y-18339667D01*
X2619286Y-18301571D01*
X2628810Y-18282524D01*
X2638333Y-18273000D01*
X2657381Y-18263476D01*
X2809762Y-18463476D02*
X2809762Y-18330143D01*
X2809762Y-18349190D02*
X2819286Y-18339667D01*
X2838333Y-18330143D01*
X2866905Y-18330143D01*
X2885952Y-18339667D01*
X2895476Y-18358714D01*
X2895476Y-18463476D01*
X2895476Y-18358714D02*
X2905000Y-18339667D01*
X2924048Y-18330143D01*
X2952619Y-18330143D01*
X2971667Y-18339667D01*
X2981190Y-18358714D01*
X2981190Y-18463476D01*
X3076428Y-18463476D02*
X3076428Y-18330143D01*
X3076428Y-18349190D02*
X3085952Y-18339667D01*
X3105000Y-18330143D01*
X3133571Y-18330143D01*
X3152619Y-18339667D01*
X3162143Y-18358714D01*
X3162143Y-18463476D01*
X3162143Y-18358714D02*
X3171667Y-18339667D01*
X3190714Y-18330143D01*
X3219286Y-18330143D01*
X3238333Y-18339667D01*
X3247857Y-18358714D01*
X3247857Y-18463476D01*
X3638333Y-18253952D02*
X3466905Y-18511095D01*
X3895476Y-18263476D02*
X3914524Y-18263476D01*
X3933571Y-18273000D01*
X3943095Y-18282524D01*
X3952619Y-18301571D01*
X3962143Y-18339667D01*
X3962143Y-18387286D01*
X3952619Y-18425381D01*
X3943095Y-18444429D01*
X3933571Y-18453952D01*
X3914524Y-18463476D01*
X3895476Y-18463476D01*
X3876428Y-18453952D01*
X3866905Y-18444429D01*
X3857381Y-18425381D01*
X3847857Y-18387286D01*
X3847857Y-18339667D01*
X3857381Y-18301571D01*
X3866905Y-18282524D01*
X3876428Y-18273000D01*
X3895476Y-18263476D01*
X4047857Y-18444429D02*
X4057381Y-18453952D01*
X4047857Y-18463476D01*
X4038333Y-18453952D01*
X4047857Y-18444429D01*
X4047857Y-18463476D01*
X4181190Y-18263476D02*
X4200238Y-18263476D01*
X4219286Y-18273000D01*
X4228810Y-18282524D01*
X4238333Y-18301571D01*
X4247857Y-18339667D01*
X4247857Y-18387286D01*
X4238333Y-18425381D01*
X4228810Y-18444429D01*
X4219286Y-18453952D01*
X4200238Y-18463476D01*
X4181190Y-18463476D01*
X4162143Y-18453952D01*
X4152619Y-18444429D01*
X4143095Y-18425381D01*
X4133571Y-18387286D01*
X4133571Y-18339667D01*
X4143095Y-18301571D01*
X4152619Y-18282524D01*
X4162143Y-18273000D01*
X4181190Y-18263476D01*
X4314524Y-18263476D02*
X4447857Y-18263476D01*
X4362143Y-18463476D01*
X4552619Y-18349190D02*
X4533571Y-18339667D01*
X4524048Y-18330143D01*
X4514524Y-18311095D01*
X4514524Y-18301571D01*
X4524048Y-18282524D01*
X4533571Y-18273000D01*
X4552619Y-18263476D01*
X4590714Y-18263476D01*
X4609762Y-18273000D01*
X4619286Y-18282524D01*
X4628810Y-18301571D01*
X4628810Y-18311095D01*
X4619286Y-18330143D01*
X4609762Y-18339667D01*
X4590714Y-18349190D01*
X4552619Y-18349190D01*
X4533571Y-18358714D01*
X4524048Y-18368238D01*
X4514524Y-18387286D01*
X4514524Y-18425381D01*
X4524048Y-18444429D01*
X4533571Y-18453952D01*
X4552619Y-18463476D01*
X4590714Y-18463476D01*
X4609762Y-18453952D01*
X4619286Y-18444429D01*
X4628810Y-18425381D01*
X4628810Y-18387286D01*
X4619286Y-18368238D01*
X4609762Y-18358714D01*
X4590714Y-18349190D01*
X4695476Y-18263476D02*
X4828810Y-18263476D01*
X4743095Y-18463476D01*
X4895476Y-18263476D02*
X4895476Y-18301571D01*
X4971667Y-18263476D02*
X4971667Y-18301571D01*
X5266905Y-18539667D02*
X5257381Y-18530143D01*
X5238333Y-18501571D01*
X5228810Y-18482524D01*
X5219286Y-18453952D01*
X5209762Y-18406333D01*
X5209762Y-18368238D01*
X5219286Y-18320619D01*
X5228810Y-18292048D01*
X5238333Y-18273000D01*
X5257381Y-18244429D01*
X5266905Y-18234905D01*
X5428810Y-18330143D02*
X5428810Y-18463476D01*
X5381190Y-18253952D02*
X5333571Y-18396810D01*
X5457381Y-18396810D01*
X5685952Y-18463476D02*
X5685952Y-18263476D01*
X5771667Y-18463476D02*
X5771667Y-18358714D01*
X5762143Y-18339667D01*
X5743095Y-18330143D01*
X5714524Y-18330143D01*
X5695476Y-18339667D01*
X5685952Y-18349190D01*
X5895476Y-18463476D02*
X5876428Y-18453952D01*
X5866905Y-18444429D01*
X5857381Y-18425381D01*
X5857381Y-18368238D01*
X5866905Y-18349190D01*
X5876428Y-18339667D01*
X5895476Y-18330143D01*
X5924048Y-18330143D01*
X5943095Y-18339667D01*
X5952619Y-18349190D01*
X5962143Y-18368238D01*
X5962143Y-18425381D01*
X5952619Y-18444429D01*
X5943095Y-18453952D01*
X5924048Y-18463476D01*
X5895476Y-18463476D01*
X6076428Y-18463476D02*
X6057381Y-18453952D01*
X6047857Y-18434905D01*
X6047857Y-18263476D01*
X6228809Y-18453952D02*
X6209762Y-18463476D01*
X6171667Y-18463476D01*
X6152619Y-18453952D01*
X6143095Y-18434905D01*
X6143095Y-18358714D01*
X6152619Y-18339667D01*
X6171667Y-18330143D01*
X6209762Y-18330143D01*
X6228809Y-18339667D01*
X6238333Y-18358714D01*
X6238333Y-18377762D01*
X6143095Y-18396810D01*
X6314524Y-18453952D02*
X6333571Y-18463476D01*
X6371667Y-18463476D01*
X6390714Y-18453952D01*
X6400238Y-18434905D01*
X6400238Y-18425381D01*
X6390714Y-18406333D01*
X6371667Y-18396810D01*
X6343095Y-18396810D01*
X6324048Y-18387286D01*
X6314524Y-18368238D01*
X6314524Y-18358714D01*
X6324048Y-18339667D01*
X6343095Y-18330143D01*
X6371667Y-18330143D01*
X6390714Y-18339667D01*
X6638333Y-18387286D02*
X6790714Y-18387286D01*
X6714524Y-18463476D02*
X6714524Y-18311095D01*
X7124048Y-18330143D02*
X7124048Y-18463476D01*
X7076428Y-18253952D02*
X7028809Y-18396810D01*
X7152619Y-18396810D01*
X7371667Y-18453952D02*
X7390714Y-18463476D01*
X7428809Y-18463476D01*
X7447857Y-18453952D01*
X7457381Y-18434905D01*
X7457381Y-18425381D01*
X7447857Y-18406333D01*
X7428809Y-18396810D01*
X7400238Y-18396810D01*
X7381190Y-18387286D01*
X7371667Y-18368238D01*
X7371667Y-18358714D01*
X7381190Y-18339667D01*
X7400238Y-18330143D01*
X7428809Y-18330143D01*
X7447857Y-18339667D01*
X7571667Y-18463476D02*
X7552619Y-18453952D01*
X7543095Y-18434905D01*
X7543095Y-18263476D01*
X7676428Y-18463476D02*
X7657381Y-18453952D01*
X7647857Y-18444429D01*
X7638333Y-18425381D01*
X7638333Y-18368238D01*
X7647857Y-18349190D01*
X7657381Y-18339667D01*
X7676428Y-18330143D01*
X7705000Y-18330143D01*
X7724048Y-18339667D01*
X7733571Y-18349190D01*
X7743095Y-18368238D01*
X7743095Y-18425381D01*
X7733571Y-18444429D01*
X7724048Y-18453952D01*
X7705000Y-18463476D01*
X7676428Y-18463476D01*
X7800238Y-18330143D02*
X7876428Y-18330143D01*
X7828809Y-18263476D02*
X7828809Y-18434905D01*
X7838333Y-18453952D01*
X7857381Y-18463476D01*
X7876428Y-18463476D01*
X7933571Y-18453952D02*
X7952619Y-18463476D01*
X7990714Y-18463476D01*
X8009762Y-18453952D01*
X8019286Y-18434905D01*
X8019286Y-18425381D01*
X8009762Y-18406333D01*
X7990714Y-18396810D01*
X7962143Y-18396810D01*
X7943095Y-18387286D01*
X7933571Y-18368238D01*
X7933571Y-18358714D01*
X7943095Y-18339667D01*
X7962143Y-18330143D01*
X7990714Y-18330143D01*
X8009762Y-18339667D01*
X8085952Y-18539667D02*
X8095476Y-18530143D01*
X8114524Y-18501571D01*
X8124048Y-18482524D01*
X8133571Y-18453952D01*
X8143095Y-18406333D01*
X8143095Y-18368238D01*
X8133571Y-18320619D01*
X8124048Y-18292048D01*
X8114524Y-18273000D01*
X8095476Y-18244429D01*
X8085952Y-18234905D01*
M02*
