M48
; DRILL file {KiCad (6.0.1)} date Tue Sep 27 15:48:17 2022
; FORMAT={-:-/ absolute / inch / decimal}
; #@! TF.CreationDate,2022-09-27T15:48:17+02:00
; #@! TF.GenerationSoftware,Kicad,Pcbnew,(6.0.1)
; #@! TF.FileFunction,Plated,1,4,PTH
FMAT,2
INCH
; #@! TA.AperFunction,Plated,PTH,ViaDrill
T1C0.0118
; #@! TA.AperFunction,Plated,PTH,ViaDrill
T2C0.0157
; #@! TA.AperFunction,Plated,PTH,ComponentDrill
T3C0.0236
; #@! TA.AperFunction,Plated,PTH,ComponentDrill
T4C0.0394
; #@! TA.AperFunction,Plated,PTH,ComponentDrill
T5C0.0598
; #@! TA.AperFunction,Plated,PTH,ComponentDrill
T6C0.0787
%
G90
G05
T1
X0.7087Y-5.5984
X0.7087Y-5.689
X0.7087Y-5.7756
X0.7126Y-4.5276
X0.7126Y-4.6181
X0.7126Y-4.685
X0.7126Y-4.7835
X0.7126Y-4.8701
X0.7126Y-4.9606
X0.7953Y-4.5472
X0.7953Y-4.6142
X0.7953Y-4.6732
X0.7953Y-5.9134
X0.7953Y-5.9764
X0.7953Y-6.0354
X0.8031Y-4.8386
X0.8031Y-4.8898
X0.8031Y-4.9331
X0.8031Y-5.5866
X0.8031Y-5.6535
X0.8031Y-5.7126
X0.811Y-4.9764
X0.8346Y-5.626
X0.8504Y-4.8189
X0.8543Y-4.5472
X0.8543Y-5.7441
X0.8583Y-4.7402
X0.8583Y-4.937
X0.8622Y-5.5866
X0.8622Y-6.0354
X0.8661Y-4.9764
X0.8661Y-5.8228
X0.8898Y-5.626
X0.911Y-4.9597
X0.9134Y-4.5472
X0.9134Y-5.5866
X0.9173Y-4.8268
X0.9173Y-5.7323
X0.9232Y-4.6457
X0.9252Y-4.6949
X0.9252Y-4.9055
X0.9252Y-5.6614
X0.9252Y-5.8878
X0.9252Y-5.937
X0.9291Y-6.0354
X0.9764Y-6.2874
X1.0236Y-4.7717
X1.0236Y-4.8701
X1.0236Y-4.9685
X1.0236Y-5.5945
X1.0236Y-5.689
X1.0236Y-5.7756
X1.0315Y-4.5276
X1.0315Y-4.5866
X1.0315Y-4.6969
X1.0551Y-6.2874
X1.1299Y-4.3701
X1.1299Y-4.4252
X1.1299Y-4.4803
X1.1299Y-4.5394
X1.1339Y-6.2874
X1.2047Y-4.5669
X1.2717Y-4.3701
X1.2717Y-4.4252
X1.2795Y-4.4724
X1.2795Y-4.5394
X1.2953Y-5.9606
X1.2953Y-6.0118
X1.3031Y-5.0669
X1.3071Y-5.4862
X1.315Y-5.3701
X1.3356Y-4.9941
X1.3898Y-4.685
X1.3937Y-4.6063
X1.4291Y-5.5433
X1.4488Y-5.9606
X1.4488Y-6.0157
X1.4488Y-6.0709
X1.4567Y-4.374
X1.5157Y-4.6063
X1.5157Y-5.2677
X1.5157Y-5.8622
X1.5394Y-4.437
X1.563Y-5.2677
X1.5669Y-4.5591
X1.6378Y-5.0551
X1.6772Y-4.8661
X1.689Y-6.0709
X1.6929Y-4.6063
X1.7165Y-5.8976
X1.7323Y-4.7283
X1.7323Y-4.9803
X1.7717Y-6.0945
X1.7717Y-6.1496
X1.7913Y-4.6063
X1.8031Y-4.7402
X1.8031Y-4.8071
X1.8031Y-4.8583
X1.8268Y-6.1496
X1.8898Y-4.7913
X1.8976Y-4.8583
X1.9055Y-4.7362
X1.9094Y-4.6063
X1.9291Y-4.189
X1.9409Y-5.0709
X1.9567Y-4.189
X1.9685Y-4.7362
X1.9685Y-4.9803
X1.9764Y-4.1417
X1.9843Y-5.2244
X1.9921Y-5.7441
X2.0079Y-4.6063
X2.0276Y-4.7362
X2.0384Y-5.5433
X2.0394Y-4.7953
X2.0394Y-5.9882
X2.0591Y-4.8504
X2.0718Y-5.3849
X2.0906Y-4.7362
X2.0906Y-4.7953
X2.2106Y-4.6969
X2.2992Y-5.0315
X2.2992Y-5.1102
X2.3031Y-5.8425
X2.3386Y-5.4173
X2.378Y-5.4134
X2.4134Y-5.0591
X2.4159Y-5.1482
X2.4173Y-5.5512
X2.4331Y-5.4528
X2.4567Y-4.7992
X2.4803Y-5.1142
X2.4803Y-5.3189
X2.4882Y-5.5512
X2.5433Y-5.0
X2.6176Y-4.8622
X2.6772Y-4.9291
X3.122Y-4.7402
X3.1299Y-5.3858
X3.185Y-5.4213
X3.2126Y-5.9843
X3.2205Y-5.437
X3.3307Y-5.3386
X3.3425Y-5.9291
X3.4291Y-5.9724
X3.5591Y-5.7913
X3.5591Y-5.8228
X3.5591Y-5.874
X3.5748Y-4.5236
X3.6063Y-5.5591
X3.6063Y-5.6142
X3.6063Y-5.6693
X3.6063Y-5.7205
X3.6457Y-4.5945
X3.6575Y-5.5591
X3.6575Y-5.6142
X3.6575Y-5.6693
X3.6575Y-5.7205
X3.7008Y-5.9961
X3.7047Y-6.1339
X3.7126Y-5.5591
X3.7126Y-5.6102
X3.7126Y-5.6693
X3.7126Y-5.7205
X3.752Y-6.0906
X3.7559Y-4.7402
X3.7559Y-5.437
X3.7677Y-5.5591
X3.7677Y-5.6142
X3.7677Y-5.6693
X3.7677Y-5.7205
X3.7793Y-4.3887
X3.7913Y-4.5534
X3.8622Y-4.8898
X3.8838Y-5.685
X3.9016Y-5.9685
X3.9134Y-5.9016
X3.9173Y-5.7362
X3.9213Y-5.3386
X3.9262Y-4.5573
X3.9363Y-4.3957
X3.9724Y-4.3898
X4.0118Y-5.4882
X4.0118Y-5.5394
X4.0276Y-5.5866
X4.0361Y-5.9337
X4.0584Y-5.956
X4.0866Y-5.4764
X4.0984Y-5.6378
X4.1024Y-5.252
X4.2165Y-5.9606
X4.218Y-6.0203
X4.2598Y-4.9646
X4.2598Y-5.4055
X4.2913Y-4.9606
X4.2913Y-5.3465
X4.2933Y-5.4803
X4.3268Y-5.9606
X4.3701Y-6.0157
X4.4724Y-5.9488
X4.5114Y-4.6581
X4.5118Y-6.0157
T2
X0.7047Y-5.9016
X0.7047Y-5.9016
X0.7047Y-5.9646
X0.7047Y-5.9646
X0.7047Y-6.0276
X1.0315Y-5.9803
X1.0315Y-6.0354
X1.0354Y-5.9331
X1.3071Y-5.2638
X1.5512Y-6.1024
X1.6969Y-5.7874
X1.7362Y-5.0866
X1.7913Y-4.4409
X1.811Y-5.3622
X1.9055Y-4.4409
X2.248Y-5.9567
X2.248Y-5.9921
X2.248Y-6.0276
X2.3622Y-6.0
X2.4409Y-4.4488
X2.5276Y-5.0748
X2.5984Y-6.0197
X2.6181Y-4.6969
X2.6299Y-5.4331
X2.7165Y-5.2362
X2.7559Y-5.1654
X2.7874Y-5.7441
X2.7953Y-4.7047
X2.8307Y-4.5354
X2.8819Y-5.2362
X3.0Y-4.1772
X3.0669Y-4.4606
X3.0866Y-4.1339
X3.1575Y-4.1358
X3.3307Y-4.1299
X3.4528Y-5.6102
X3.5118Y-4.1299
X3.5118Y-4.1299
X3.5551Y-4.1339
X3.5669Y-5.9646
X3.6535Y-4.1299
X3.8307Y-4.5928
X4.0433Y-5.815
X4.0748Y-4.5433
X4.1496Y-4.1457
X4.3386Y-4.6339
X4.5472Y-5.878
X4.5669Y-5.3228
T4
X0.8661Y-4.2074
X0.8661Y-4.4042
X0.878Y-6.1732
X0.878Y-6.3701
X1.1956Y-6.378
X1.3924Y-6.378
X1.7915Y-4.3189
X1.7953Y-6.2283
X1.8915Y-4.3189
X1.8953Y-6.2283
X1.9754Y-5.3232
X1.9754Y-5.4232
X1.9915Y-4.3189
X1.9953Y-6.2283
X2.0915Y-4.3189
X2.0953Y-6.2283
X2.2325Y-4.3189
X2.3325Y-4.3189
X2.4008Y-6.2244
X2.4016Y-6.3376
X2.4325Y-4.3189
X2.5008Y-6.2244
X2.5016Y-6.3376
X2.5325Y-4.3189
X2.6008Y-6.2244
X2.6016Y-6.3376
X2.6334Y-5.0748
X2.6339Y-5.1772
X2.6339Y-5.2772
X2.6656Y-4.3189
X2.7008Y-6.2244
X2.7016Y-6.3376
X2.7656Y-4.3189
X2.8008Y-6.2244
X2.8016Y-6.3376
X2.8656Y-4.3189
X2.9008Y-6.2244
X2.9016Y-6.3376
X2.9656Y-4.3189
X3.0008Y-6.2244
X3.0016Y-6.3376
X3.1008Y-6.2244
X3.1016Y-4.3179
X3.1016Y-6.3376
X3.2008Y-6.2244
X3.2016Y-4.3179
X3.2016Y-6.3376
X3.3008Y-6.2244
X3.3016Y-4.3179
X3.3016Y-6.3376
X3.3858Y-4.8976
X3.4008Y-6.2244
X3.4016Y-4.3179
X3.4016Y-6.3376
X3.5008Y-6.2244
X3.5016Y-4.3179
X3.5016Y-6.3376
X3.6008Y-6.2244
X3.6016Y-4.3179
X3.6016Y-6.3376
X3.7008Y-6.2244
X3.7016Y-6.3376
X4.0394Y-4.9134
X4.0453Y-6.3873
X4.1152Y-6.248
X4.1453Y-6.3873
X4.2152Y-6.248
X4.2458Y-6.3874
X4.314Y-4.1604
X4.3152Y-6.248
X4.3458Y-6.3874
X4.412Y-4.3161
X4.414Y-4.1604
X4.4152Y-6.248
X4.4463Y-6.3858
X4.512Y-4.3161
X4.514Y-4.1604
X4.5152Y-6.248
X4.5463Y-6.3858
T5
X1.1992Y-4.2008
X1.3992Y-4.2008
T6
X1.378Y-4.8524
X1.378Y-5.6988
X1.4961Y-4.8819
X1.4961Y-5.6693
T3
G00X3.7079Y-4.151
M15
G01X3.7079Y-4.1825
M16
G05
G00X3.7079Y-4.3093
M15
G01X3.7079Y-4.3526
M16
G05
G00X4.048Y-4.151
M15
G01X4.048Y-4.1825
M16
G05
G00X4.048Y-4.3093
M15
G01X4.048Y-4.3526
M16
G05
T6
G00X0.9687Y-5.1927
M15
G01X0.9687Y-5.0746
M16
G05
G00X0.9687Y-5.4841
M15
G01X0.9687Y-5.3659
M16
G05
G00X4.4094Y-4.9213
M15
G01X4.4094Y-4.8425
M16
G05
G00X4.4094Y-5.7087
M15
G01X4.4094Y-5.6299
M16
G05
T0
M30
