%TF.GenerationSoftware,KiCad,Pcbnew,(6.0.1)*%
%TF.CreationDate,2022-09-27T15:52:50+02:00*%
%TF.ProjectId,WetterStationPCB,57657474-6572-4537-9461-74696f6e5043,rev?*%
%TF.SameCoordinates,Original*%
%TF.FileFunction,Copper,L1,Top*%
%TF.FilePolarity,Positive*%
%FSLAX46Y46*%
G04 Gerber Fmt 4.6, Leading zero omitted, Abs format (unit mm)*
G04 Created by KiCad (PCBNEW (6.0.1)) date 2022-09-27 15:52:50*
%MOMM*%
%LPD*%
G01*
G04 APERTURE LIST*
G04 Aperture macros list*
%AMRoundRect*
0 Rectangle with rounded corners*
0 $1 Rounding radius*
0 $2 $3 $4 $5 $6 $7 $8 $9 X,Y pos of 4 corners*
0 Add a 4 corners polygon primitive as box body*
4,1,4,$2,$3,$4,$5,$6,$7,$8,$9,$2,$3,0*
0 Add four circle primitives for the rounded corners*
1,1,$1+$1,$2,$3*
1,1,$1+$1,$4,$5*
1,1,$1+$1,$6,$7*
1,1,$1+$1,$8,$9*
0 Add four rect primitives between the rounded corners*
20,1,$1+$1,$2,$3,$4,$5,0*
20,1,$1+$1,$4,$5,$6,$7,0*
20,1,$1+$1,$6,$7,$8,$9,0*
20,1,$1+$1,$8,$9,$2,$3,0*%
%AMFreePoly0*
4,1,6,1.000000,0.000000,0.500000,-0.750000,-0.500000,-0.750000,-0.500000,0.750000,0.500000,0.750000,1.000000,0.000000,1.000000,0.000000,$1*%
%AMFreePoly1*
4,1,7,0.700000,0.000000,1.200000,-0.750000,-1.200000,-0.750000,-0.700000,0.000000,-1.200000,0.750000,1.200000,0.750000,0.700000,0.000000,0.700000,0.000000,$1*%
G04 Aperture macros list end*
%TA.AperFunction,ComponentPad*%
%ADD10R,1.700000X1.700000*%
%TD*%
%TA.AperFunction,ComponentPad*%
%ADD11O,1.700000X1.700000*%
%TD*%
%TA.AperFunction,SMDPad,CuDef*%
%ADD12R,0.900000X1.850000*%
%TD*%
%TA.AperFunction,SMDPad,CuDef*%
%ADD13R,0.750000X0.750000*%
%TD*%
%TA.AperFunction,SMDPad,CuDef*%
%ADD14R,1.450000X0.870000*%
%TD*%
%TA.AperFunction,ComponentPad*%
%ADD15R,2.000000X2.000000*%
%TD*%
%TA.AperFunction,ComponentPad*%
%ADD16C,2.000000*%
%TD*%
%TA.AperFunction,ComponentPad*%
%ADD17RoundRect,0.650000X6.850000X2.600000X-6.850000X2.600000X-6.850000X-2.600000X6.850000X-2.600000X0*%
%TD*%
%TA.AperFunction,SMDPad,CuDef*%
%ADD18RoundRect,0.237500X-0.237500X0.250000X-0.237500X-0.250000X0.237500X-0.250000X0.237500X0.250000X0*%
%TD*%
%TA.AperFunction,SMDPad,CuDef*%
%ADD19R,0.600000X1.160000*%
%TD*%
%TA.AperFunction,SMDPad,CuDef*%
%ADD20R,0.300000X1.160000*%
%TD*%
%TA.AperFunction,ComponentPad*%
%ADD21O,1.200000X2.000000*%
%TD*%
%TA.AperFunction,ComponentPad*%
%ADD22O,1.200000X2.300000*%
%TD*%
%TA.AperFunction,ComponentPad*%
%ADD23R,3.000000X3.000000*%
%TD*%
%TA.AperFunction,ComponentPad*%
%ADD24C,3.000000*%
%TD*%
%TA.AperFunction,SMDPad,CuDef*%
%ADD25FreePoly0,0.000000*%
%TD*%
%TA.AperFunction,SMDPad,CuDef*%
%ADD26FreePoly1,0.000000*%
%TD*%
%TA.AperFunction,SMDPad,CuDef*%
%ADD27FreePoly0,180.000000*%
%TD*%
%TA.AperFunction,ComponentPad*%
%ADD28C,4.000000*%
%TD*%
%TA.AperFunction,SMDPad,CuDef*%
%ADD29R,13.000000X6.000000*%
%TD*%
%TA.AperFunction,SMDPad,CuDef*%
%ADD30R,10.000000X7.000000*%
%TD*%
%TA.AperFunction,ComponentPad*%
%ADD31O,5.000000X7.000000*%
%TD*%
%TA.AperFunction,SMDPad,CuDef*%
%ADD32R,0.900000X1.700000*%
%TD*%
%TA.AperFunction,ViaPad*%
%ADD33C,0.600000*%
%TD*%
%TA.AperFunction,ViaPad*%
%ADD34C,0.800000*%
%TD*%
%TA.AperFunction,Conductor*%
%ADD35C,0.500000*%
%TD*%
%TA.AperFunction,Conductor*%
%ADD36C,1.500000*%
%TD*%
%TA.AperFunction,Conductor*%
%ADD37C,1.000000*%
%TD*%
%TA.AperFunction,Conductor*%
%ADD38C,0.200000*%
%TD*%
%TA.AperFunction,Conductor*%
%ADD39C,2.000000*%
%TD*%
%TA.AperFunction,Conductor*%
%ADD40C,5.000000*%
%TD*%
G04 APERTURE END LIST*
D10*
%TO.P,J1,1,Pin_1*%
%TO.N,IO9*%
X50175000Y-137750000D03*
D11*
%TO.P,J1,2,Pin_2*%
%TO.N,IO8*%
X50175000Y-135210000D03*
%TD*%
D12*
%TO.P,Q13,1,D*%
%TO.N,VCC*%
X18800000Y-150325000D03*
X25200000Y-152675000D03*
X25200000Y-150325000D03*
X18800000Y-152675000D03*
D13*
%TO.P,Q13,2,G*%
%TO.N,Net-(Q13-Pad2)*%
X23450000Y-151500000D03*
D14*
%TO.P,Q13,3,S*%
%TO.N,Phase_Boost*%
X21700000Y-152110000D03*
X21700000Y-150890000D03*
%TD*%
D12*
%TO.P,Q9,1,D*%
%TO.N,/BuckBoost/+Vin*%
X25200000Y-116125000D03*
X25200000Y-118475000D03*
X18800000Y-116125000D03*
X18800000Y-118475000D03*
D13*
%TO.P,Q9,2,G*%
%TO.N,Net-(Q9-Pad2)*%
X23450000Y-117300000D03*
D14*
%TO.P,Q9,3,S*%
%TO.N,Phase_Buck*%
X21700000Y-117910000D03*
X21700000Y-116690000D03*
%TD*%
D15*
%TO.P,C33,1*%
%TO.N,VCC*%
X22300000Y-156800000D03*
D16*
%TO.P,C33,2*%
%TO.N,GND*%
X22300000Y-161800000D03*
%TD*%
D10*
%TO.P,J16,1,Pin_1*%
%TO.N,Net-(D1-Pad2)*%
X112064729Y-109628803D03*
D11*
%TO.P,J16,2,Pin_2*%
%TO.N,+5V*%
X114604729Y-109628803D03*
%TD*%
D10*
%TO.P,J13,1,Pin_1*%
%TO.N,IO6*%
X105289398Y-162238140D03*
D11*
%TO.P,J13,2,Pin_2*%
%TO.N,+3V3*%
X102749398Y-162238140D03*
%TD*%
D10*
%TO.P,J2,1,Pin_1*%
%TO.N,+5V*%
X61000000Y-160975000D03*
D11*
%TO.P,J2,2,Pin_2*%
X63540000Y-160975000D03*
%TO.P,J2,3,Pin_3*%
%TO.N,GND*%
X66080000Y-160975000D03*
%TO.P,J2,4,Pin_4*%
X68620000Y-160975000D03*
%TO.P,J2,5,Pin_5*%
%TO.N,+3V3*%
X71160000Y-160975000D03*
%TO.P,J2,6,Pin_6*%
X73700000Y-160975000D03*
%TO.P,J2,7,Pin_7*%
%TO.N,GND*%
X76240000Y-160975000D03*
%TO.P,J2,8,Pin_8*%
X78780000Y-160975000D03*
%TO.P,J2,9,Pin_9*%
%TO.N,IO15*%
X81320000Y-160975000D03*
%TO.P,J2,10,Pin_10*%
%TO.N,IO16*%
X83860000Y-160975000D03*
%TO.P,J2,11,Pin_11*%
%TO.N,IO11*%
X86400000Y-160975000D03*
%TO.P,J2,12,Pin_12*%
%TO.N,IO46*%
X88940000Y-160975000D03*
%TO.P,J2,13,Pin_13*%
%TO.N,IO3*%
X91480000Y-160975000D03*
%TO.P,J2,14,Pin_14*%
%TO.N,GND*%
X94020000Y-160975000D03*
%TD*%
D10*
%TO.P,J6,1,Pin_1*%
%TO.N,IO17*%
X66900000Y-131500000D03*
D11*
%TO.P,J6,2,Pin_2*%
%TO.N,IO18*%
X66900000Y-134040000D03*
%TD*%
D10*
%TO.P,J4,1,Pin_1*%
%TO.N,+3V3*%
X78780000Y-109675000D03*
D11*
%TO.P,J4,2,Pin_2*%
%TO.N,GND*%
X81320000Y-109675000D03*
%TO.P,J4,3,Pin_3*%
%TO.N,IO0*%
X83860000Y-109675000D03*
%TO.P,J4,4,Pin_4*%
%TO.N,RXD0*%
X86400000Y-109675000D03*
%TO.P,J4,5,Pin_5*%
%TO.N,TXD0*%
X88940000Y-109675000D03*
%TO.P,J4,6,Pin_6*%
%TO.N,EN*%
X91480000Y-109675000D03*
%TD*%
D10*
%TO.P,U7,1,EN*%
%TO.N,Net-(U7-Pad1)*%
X67705000Y-109700000D03*
D11*
%TO.P,U7,2,Vin*%
%TO.N,Net-(JP3-Pad2)*%
X70245000Y-109700000D03*
%TO.P,U7,3,GND*%
%TO.N,GND*%
X72785000Y-109700000D03*
%TO.P,U7,4,Vout*%
%TO.N,+3V3*%
X75325000Y-109700000D03*
%TD*%
D10*
%TO.P,U4,1,EN*%
%TO.N,Net-(U4-Pad1)*%
X45505000Y-109700000D03*
D11*
%TO.P,U4,2,Vin*%
%TO.N,+VSW*%
X48045000Y-109700000D03*
%TO.P,U4,3,GND*%
%TO.N,GND*%
X50585000Y-109700000D03*
%TO.P,U4,4,Vout*%
%TO.N,Net-(JP2-Pad2)*%
X53125000Y-109700000D03*
%TD*%
D10*
%TO.P,J15,1,Pin_1*%
%TO.N,IO4*%
X115475000Y-162200000D03*
D11*
%TO.P,J15,2,Pin_2*%
%TO.N,+3V3*%
X112935000Y-162200000D03*
%TD*%
D10*
%TO.P,U5,1,EN*%
%TO.N,Net-(U5-Pad1)*%
X56705000Y-109700000D03*
D11*
%TO.P,U5,2,Vin*%
%TO.N,VCC*%
X59245000Y-109700000D03*
%TO.P,U5,3,GND*%
%TO.N,GND*%
X61785000Y-109700000D03*
%TO.P,U5,4,Vout*%
%TO.N,+5V*%
X64325000Y-109700000D03*
%TD*%
D15*
%TO.P,C21,1*%
%TO.N,/BuckBoost/+Vin*%
X22000000Y-111867677D03*
D16*
%TO.P,C21,2*%
%TO.N,GND*%
X22000000Y-106867677D03*
%TD*%
D15*
%TO.P,C28,1*%
%TO.N,VCC*%
X35367677Y-162000000D03*
D16*
%TO.P,C28,2*%
%TO.N,GND*%
X30367677Y-162000000D03*
%TD*%
D12*
%TO.P,Q10,1,D*%
%TO.N,Phase_Buck*%
X25200000Y-124875000D03*
X18800000Y-122525000D03*
X25200000Y-122525000D03*
X18800000Y-124875000D03*
D13*
%TO.P,Q10,2,G*%
%TO.N,Net-(Q10-Pad2)*%
X23450000Y-123700000D03*
D14*
%TO.P,Q10,3,S*%
%TO.N,GND*%
X21700000Y-123090000D03*
X21700000Y-124310000D03*
%TD*%
D10*
%TO.P,J8,1,Pin_1*%
%TO.N,Net-(U4-Pad1)*%
X109575000Y-105675000D03*
D11*
%TO.P,J8,2,Pin_2*%
%TO.N,Net-(U5-Pad1)*%
X112115000Y-105675000D03*
%TO.P,J8,3,Pin_3*%
%TO.N,Net-(U7-Pad1)*%
X114655000Y-105675000D03*
%TD*%
D10*
%TO.P,J14,1,Pin_1*%
%TO.N,IO5*%
X110383635Y-162239472D03*
D11*
%TO.P,J14,2,Pin_2*%
%TO.N,+3V3*%
X107843635Y-162239472D03*
%TD*%
D12*
%TO.P,Q14,1,D*%
%TO.N,Phase_Boost*%
X25200000Y-145675000D03*
X18800000Y-143325000D03*
X18800000Y-145675000D03*
X25200000Y-143325000D03*
D13*
%TO.P,Q14,2,G*%
%TO.N,Net-(Q14-Pad2)*%
X23450000Y-144500000D03*
D14*
%TO.P,Q14,3,S*%
%TO.N,GND*%
X21700000Y-143890000D03*
X21700000Y-145110000D03*
%TD*%
D17*
%TO.P,L1,1,1*%
%TO.N,Phase_Buck*%
X24605000Y-130395000D03*
%TO.P,L1,2,2*%
%TO.N,Phase_Boost*%
X24605000Y-137795000D03*
%TD*%
D10*
%TO.P,J7,1,Pin_1*%
%TO.N,IO1*%
X66887500Y-128900000D03*
%TD*%
D18*
%TO.P,R2,1*%
%TO.N,IO0*%
X81600000Y-104787500D03*
%TO.P,R2,2*%
%TO.N,Net-(R2-Pad2)*%
X81600000Y-106612500D03*
%TD*%
D19*
%TO.P,P1,A1,GND*%
%TO.N,GND*%
X101700000Y-110585000D03*
%TO.P,P1,A4,VBUS*%
%TO.N,+5V*%
X100900000Y-110585000D03*
D20*
%TO.P,P1,A5,CC*%
%TO.N,Net-(P1-PadA5)*%
X99750000Y-110585000D03*
%TO.P,P1,A6,D+*%
%TO.N,D+*%
X98750000Y-110585000D03*
%TO.P,P1,A7,D-*%
%TO.N,D-*%
X98250000Y-110585000D03*
%TO.P,P1,A8*%
%TO.N,N/C*%
X97250000Y-110585000D03*
D19*
%TO.P,P1,A9,VBUS*%
%TO.N,+5V*%
X96100000Y-110585000D03*
%TO.P,P1,A12,GND*%
%TO.N,GND*%
X95300000Y-110585000D03*
%TO.P,P1,B1,GND*%
X95300000Y-110585000D03*
%TO.P,P1,B4,VBUS*%
%TO.N,+5V*%
X96100000Y-110585000D03*
D20*
%TO.P,P1,B5,VCONN*%
%TO.N,Net-(P1-PadB5)*%
X96750000Y-110585000D03*
%TO.P,P1,B6*%
%TO.N,N/C*%
X97750000Y-110585000D03*
%TO.P,P1,B7*%
X99250000Y-110585000D03*
%TO.P,P1,B8*%
X100250000Y-110585000D03*
D19*
%TO.P,P1,B9,VBUS*%
%TO.N,+5V*%
X100900000Y-110585000D03*
%TO.P,P1,B12,GND*%
%TO.N,GND*%
X101700000Y-110585000D03*
D21*
%TO.P,P1,S1,SHIELD*%
X94180000Y-105835000D03*
D22*
X102820000Y-110005000D03*
D21*
X102820000Y-105835000D03*
D22*
X94180000Y-110005000D03*
%TD*%
D23*
%TO.P,J17,1,Pin_1*%
%TO.N,GND*%
X35540000Y-106700000D03*
D24*
%TO.P,J17,2,Pin_2*%
%TO.N,+VSW*%
X30460000Y-106700000D03*
%TD*%
D25*
%TO.P,JP2,1,A*%
%TO.N,+5V*%
X51300000Y-106400000D03*
D26*
%TO.P,JP2,2,C*%
%TO.N,Net-(JP2-Pad2)*%
X53300000Y-106400000D03*
D27*
%TO.P,JP2,3,B*%
%TO.N,+3V3*%
X55300000Y-106400000D03*
%TD*%
D28*
%TO.P,BT1,1,+*%
%TO.N,Net-(BT1-Pad1)*%
X35000000Y-144750000D03*
X38000000Y-144000000D03*
D29*
X34000000Y-144750000D03*
%TO.P,BT1,2,-*%
%TO.N,Net-(BT1-Pad2)*%
X34000000Y-123250000D03*
D28*
X35000000Y-123250000D03*
X38000000Y-124000000D03*
D30*
%TO.P,BT1,3,Vsense*%
%TO.N,Net-(BT1-Pad3)*%
X114500000Y-144000000D03*
X114500000Y-124000000D03*
D31*
X112000000Y-124000000D03*
X112000000Y-144000000D03*
%TD*%
D32*
%TO.P,SW1,1*%
%TO.N,GND*%
X88000000Y-105700000D03*
%TO.P,SW1,2*%
%TO.N,EN*%
X91400000Y-105700000D03*
%TD*%
%TO.P,SW2,1*%
%TO.N,GND*%
X86500000Y-105700000D03*
%TO.P,SW2,2*%
%TO.N,Net-(R2-Pad2)*%
X83100000Y-105700000D03*
%TD*%
D10*
%TO.P,U1,1,EN*%
%TO.N,unconnected-(U1-Pad1)*%
X45600000Y-158200000D03*
D11*
%TO.P,U1,2,Vin*%
%TO.N,Net-(JP1-Pad2)*%
X48140000Y-158200000D03*
%TO.P,U1,3,GND*%
%TO.N,GND*%
X50680000Y-158200000D03*
%TO.P,U1,4,Vout*%
%TO.N,+12V*%
X53220000Y-158200000D03*
%TD*%
D10*
%TO.P,J3,1,Pin_1*%
%TO.N,+3V3*%
X104525000Y-158700000D03*
D11*
%TO.P,J3,2,Pin_2*%
%TO.N,IO10*%
X107065000Y-158700000D03*
%TO.P,J3,3,Pin_3*%
%TO.N,IO38*%
X109605000Y-158700000D03*
%TO.P,J3,4,Pin_4*%
%TO.N,IO2*%
X112145000Y-158700000D03*
%TO.P,J3,5,Pin_5*%
%TO.N,IO7*%
X114685000Y-158700000D03*
%TD*%
D10*
%TO.P,J5,1,Pin_1*%
%TO.N,IO12*%
X94000000Y-158100000D03*
D11*
%TO.P,J5,2,Pin_2*%
%TO.N,IO13*%
X91460000Y-158100000D03*
%TO.P,J5,3,Pin_3*%
%TO.N,IO14*%
X88920000Y-158100000D03*
%TO.P,J5,4,Pin_4*%
%TO.N,IO21*%
X86380000Y-158100000D03*
%TO.P,J5,5,Pin_5*%
%TO.N,IO47*%
X83840000Y-158100000D03*
%TO.P,J5,6,Pin_6*%
%TO.N,IO48*%
X81300000Y-158100000D03*
%TO.P,J5,7,Pin_7*%
%TO.N,IO45*%
X78760000Y-158100000D03*
%TO.P,J5,8,Pin_8*%
%TO.N,IO35*%
X76220000Y-158100000D03*
%TO.P,J5,9,Pin_9*%
%TO.N,IO36*%
X73680000Y-158100000D03*
%TO.P,J5,10,Pin_10*%
%TO.N,IO37*%
X71140000Y-158100000D03*
%TO.P,J5,11,Pin_11*%
%TO.N,IO39*%
X68600000Y-158100000D03*
%TO.P,J5,12,Pin_12*%
%TO.N,IO40*%
X66060000Y-158100000D03*
%TO.P,J5,13,Pin_13*%
%TO.N,IO41*%
X63520000Y-158100000D03*
%TO.P,J5,14,Pin_14*%
%TO.N,IO42*%
X60980000Y-158100000D03*
%TD*%
D10*
%TO.P,J10,1,Pin_1*%
%TO.N,Net-(IC2-Pad6)*%
X86000000Y-124398209D03*
%TD*%
%TO.P,J11,1,Pin_1*%
%TO.N,Net-(IC3-Pad6)*%
X102600000Y-124800000D03*
%TD*%
D33*
%TO.N,Phase_Buck*%
X21800000Y-120400000D03*
%TO.N,Phase_Boost*%
X22000000Y-147900000D03*
%TO.N,IO16*%
X99500000Y-145700000D03*
%TO.N,IO9*%
X87100000Y-151700000D03*
%TO.N,IO15*%
X98649500Y-144400000D03*
%TO.N,IO8*%
X90400000Y-149200000D03*
%TO.N,IO2*%
X99400000Y-149900000D03*
%TO.N,IO7*%
X104100000Y-143200000D03*
%TO.N,IO38*%
X99100000Y-151600000D03*
%TO.N,IO10*%
X95300000Y-154700000D03*
%TO.N,+3V3*%
X45000000Y-156200000D03*
X46400000Y-156200000D03*
X52622881Y-136777119D03*
X63000000Y-129900000D03*
X68000000Y-125200000D03*
X63000000Y-135100000D03*
X45000000Y-154800000D03*
X61363372Y-130763372D03*
%TO.N,GND*%
X92600000Y-116700000D03*
D34*
X45500000Y-112800000D03*
X87700000Y-142500000D03*
D33*
X38500000Y-148900000D03*
D34*
X46000000Y-136200000D03*
X64200000Y-128900000D03*
D33*
X91600000Y-142600000D03*
D34*
X77900000Y-113300000D03*
D33*
X95700000Y-141200000D03*
X109050500Y-139200000D03*
X51500000Y-120300000D03*
D34*
X89200000Y-104900000D03*
X73200000Y-133000000D03*
D33*
X91600000Y-141200000D03*
D34*
X89200000Y-104900000D03*
X102700000Y-147700000D03*
D33*
X91600000Y-144000000D03*
X104200000Y-133400000D03*
X41600000Y-128400000D03*
X61400000Y-141000000D03*
D34*
X48400000Y-112800000D03*
D33*
X20400000Y-122900000D03*
X91600000Y-145300000D03*
X21800000Y-125400000D03*
X92900000Y-144000000D03*
X28800000Y-159700000D03*
D34*
X44100000Y-129200000D03*
X66800000Y-138000000D03*
D33*
X94300000Y-144000000D03*
X23139167Y-125977452D03*
X21200000Y-142900000D03*
X39100000Y-112700000D03*
X94300000Y-141200000D03*
X20400000Y-145100000D03*
X114589753Y-118316622D03*
D34*
X70800000Y-145900000D03*
X69000000Y-133000000D03*
D33*
X92900000Y-145300000D03*
X20400000Y-141900000D03*
X21900000Y-141900000D03*
X22600000Y-142900000D03*
X50000000Y-120300000D03*
D34*
X103500000Y-115400000D03*
D33*
X42900000Y-154200000D03*
X21600000Y-122400000D03*
X21700000Y-145900000D03*
X22000000Y-126400000D03*
X60400000Y-137500000D03*
X53100000Y-120300000D03*
X50400000Y-132700000D03*
D34*
X110200000Y-117700000D03*
D33*
X48200000Y-123400000D03*
X95700000Y-145300000D03*
X48000000Y-121700000D03*
X24800000Y-159700000D03*
X26800000Y-159700000D03*
X35400000Y-117000000D03*
D34*
X92800000Y-104900000D03*
D33*
X94300000Y-145300000D03*
X99600000Y-135600480D03*
X51800000Y-121800000D03*
X20400000Y-125300000D03*
D34*
X43100000Y-147000000D03*
D33*
X53100000Y-121800000D03*
X98100000Y-124200000D03*
D34*
X71900000Y-115200000D03*
D33*
X20600000Y-126400000D03*
X20400000Y-143600000D03*
X43600000Y-149800000D03*
D34*
X84600000Y-104900000D03*
D33*
X51775500Y-140800000D03*
X94300000Y-142500000D03*
X62400000Y-121900000D03*
X61800000Y-138500000D03*
X38500000Y-117000000D03*
X23300000Y-122600000D03*
D34*
X71000000Y-119500000D03*
D33*
X95700000Y-144000000D03*
D34*
X70000000Y-131200000D03*
X66500000Y-119300000D03*
D33*
X107138175Y-152916063D03*
X95700000Y-142600000D03*
X48400000Y-120300000D03*
X92900000Y-141200000D03*
D34*
X78400000Y-105000000D03*
X62000000Y-113000000D03*
D33*
X63200000Y-141000000D03*
D34*
X116000000Y-135200000D03*
X39400000Y-155000000D03*
D33*
X35300000Y-119000000D03*
X92900000Y-142600000D03*
X36300000Y-140800000D03*
X58399500Y-129800000D03*
X23200000Y-141900000D03*
X66487020Y-123500000D03*
X61300000Y-128500000D03*
X52300000Y-123200000D03*
X109000000Y-135800000D03*
X51800000Y-152100000D03*
X103800000Y-139100000D03*
D34*
X66000000Y-152900000D03*
D33*
X37000000Y-111100000D03*
D34*
X105400000Y-105300000D03*
X76200000Y-106100000D03*
X60000000Y-152400000D03*
D33*
X56149011Y-119300000D03*
X84600000Y-135600000D03*
X20400000Y-124200000D03*
X111000000Y-152800000D03*
D34*
X90600000Y-151500000D03*
X97300000Y-116656250D03*
X115500000Y-149300000D03*
D33*
X114600000Y-152800000D03*
D34*
X33200000Y-133700000D03*
D33*
X23300000Y-145600000D03*
D34*
%TO.N,EN*%
X90300000Y-105000000D03*
D33*
X95400000Y-138100000D03*
X90800000Y-114900000D03*
D34*
%TO.N,IO0*%
X80200000Y-105050500D03*
D33*
X81600000Y-152000000D03*
%TO.N,RXD0*%
X80900000Y-137700000D03*
%TO.N,TXD0*%
X81800000Y-138100000D03*
%TO.N,IO17*%
X90400000Y-147100000D03*
%TO.N,IO18*%
X90400000Y-147900000D03*
%TO.N,IO1*%
X79500000Y-136800000D03*
D34*
%TO.N,+5V*%
X57100000Y-151300000D03*
D33*
X49000000Y-106400000D03*
X100900000Y-111500000D03*
X95993222Y-111473024D03*
D34*
X57100000Y-152200000D03*
X57100000Y-153100000D03*
D33*
X39800000Y-115800000D03*
X49700000Y-106400000D03*
%TO.N,/BuckBoost/+Vin*%
X28700000Y-113800000D03*
X32500000Y-113600000D03*
X18100000Y-119000000D03*
X30600000Y-116000000D03*
X26200000Y-116500000D03*
X18100000Y-115000000D03*
X28700000Y-115300000D03*
X26200000Y-115000000D03*
X32500000Y-115300000D03*
X18100000Y-117300000D03*
X26200000Y-119300000D03*
%TO.N,VCC*%
X32900000Y-151400000D03*
D34*
X17900000Y-153100000D03*
D33*
X36800000Y-152800000D03*
D34*
X17900000Y-151500000D03*
X17900000Y-149900000D03*
D33*
X36800000Y-154200000D03*
D34*
X17900000Y-149900000D03*
X17900000Y-151500000D03*
X26200000Y-151900000D03*
X26200000Y-153300000D03*
D33*
X36800000Y-151400000D03*
D34*
X26300000Y-150700000D03*
D33*
X32900000Y-152700000D03*
%TO.N,+VSW*%
X28700000Y-112400000D03*
X32300000Y-111000000D03*
X32300000Y-112400000D03*
X28700000Y-111000000D03*
%TO.N,IO35*%
X108200000Y-126100000D03*
X84900000Y-150600000D03*
%TO.N,IO12*%
X108200000Y-137300000D03*
%TO.N,IO11*%
X109000000Y-126000000D03*
X94000000Y-152300000D03*
X94100000Y-155800000D03*
%TO.N,IO6*%
X107100000Y-151400000D03*
X102300000Y-141900000D03*
%TO.N,IO5*%
X101900000Y-140700000D03*
X109900000Y-151400000D03*
%TO.N,IO4*%
X101900000Y-139400000D03*
X113600000Y-151100000D03*
%TO.N,+12V*%
X38500000Y-133800000D03*
X50600000Y-145900000D03*
X49300000Y-128800000D03*
X39700000Y-133800000D03*
%TO.N,Net-(C10-Pad2)*%
X58399500Y-127800000D03*
X64600000Y-127000000D03*
%TO.N,Net-(Q9-Pad2)*%
X23450156Y-118000000D03*
X33924499Y-126849502D03*
%TO.N,Net-(Q10-Pad2)*%
X23500000Y-124600000D03*
X33100000Y-128699500D03*
%TO.N,Net-(Q13-Pad2)*%
X33200000Y-139349500D03*
X23500000Y-150800000D03*
%TO.N,Net-(Q14-Pad2)*%
X33400000Y-136400000D03*
X23500000Y-143800000D03*
%TO.N,Net-(BT1-Pad3)*%
X79300000Y-120400000D03*
X95400000Y-120400000D03*
%TO.N,Net-(C7-Pad1)*%
X59400000Y-137600000D03*
X58500000Y-148400000D03*
%TO.N,Net-(BT1-Pad2)*%
X45800000Y-120400000D03*
X42600000Y-123600000D03*
X44000000Y-120100000D03*
X45800000Y-122100000D03*
X45800000Y-123400000D03*
%TO.N,Net-(Q2-Pad1)*%
X45500000Y-117000000D03*
X48500000Y-117000000D03*
X43000000Y-117000000D03*
X51000000Y-117000000D03*
X50000000Y-126500000D03*
X44000000Y-126500000D03*
%TO.N,D-*%
X102517157Y-150717157D03*
%TO.N,D+*%
X103082843Y-151282843D03*
%TO.N,Phase_Buck*%
X18100000Y-121500000D03*
X26000000Y-123700000D03*
X21700000Y-115500000D03*
X23500000Y-119249500D03*
X20200000Y-118700000D03*
X20200000Y-115500000D03*
X26000000Y-126200000D03*
X23200000Y-115500000D03*
X18100000Y-126000000D03*
X20200000Y-117200000D03*
X26000000Y-121200000D03*
X18100000Y-123700000D03*
%TO.N,Phase_Boost*%
X18000000Y-142200000D03*
X20200000Y-151800000D03*
X23600000Y-153300000D03*
X26000000Y-146700000D03*
X20200000Y-153300000D03*
X26000000Y-144500000D03*
X23500000Y-149550500D03*
X18000000Y-144500000D03*
X18000000Y-146700000D03*
X21900000Y-153300000D03*
X26000000Y-142100000D03*
X20200000Y-150200000D03*
%TO.N,Net-(U4-Pad1)*%
X50200000Y-105200000D03*
%TO.N,Net-(P1-PadB5)*%
X96300000Y-115656250D03*
%TO.N,Net-(P1-PadA5)*%
X99724500Y-115756250D03*
X99983118Y-111650500D03*
%TD*%
D35*
%TO.N,+3V3*%
X69099511Y-126299511D02*
X69099511Y-130200489D01*
X61926255Y-130200489D02*
X61363372Y-130763372D01*
X64699511Y-130200489D02*
X69099511Y-130200489D01*
D36*
X75300000Y-132500000D02*
X75300000Y-155700000D01*
D35*
X63300489Y-130200489D02*
X61926255Y-130200489D01*
X69099511Y-130200489D02*
X73000489Y-130200489D01*
D36*
X55205000Y-106400000D02*
X74005000Y-106400000D01*
X75300000Y-111100000D02*
X75300000Y-132500000D01*
D35*
X64699511Y-133400489D02*
X63000000Y-135100000D01*
X73000489Y-130200489D02*
X75300000Y-132500000D01*
D37*
X112935000Y-161135000D02*
X112935000Y-162200000D01*
X107843635Y-162239472D02*
X107843635Y-162018635D01*
D35*
X63000000Y-129900000D02*
X63300489Y-130200489D01*
X64699511Y-130200489D02*
X64699511Y-133400489D01*
D36*
X74005000Y-106400000D02*
X75325000Y-107720000D01*
X75325000Y-111075000D02*
X75300000Y-111100000D01*
D35*
X63300489Y-130200489D02*
X64699511Y-130200489D01*
D36*
X75325000Y-107720000D02*
X75325000Y-109700000D01*
D35*
X68000000Y-125200000D02*
X69099511Y-126299511D01*
D36*
X75325000Y-109700000D02*
X75325000Y-111075000D01*
D35*
%TO.N,GND*%
X101700000Y-110585000D02*
X102240000Y-110585000D01*
D37*
X88800000Y-104900000D02*
X88000000Y-105700000D01*
X86500000Y-105700000D02*
X88000000Y-105700000D01*
D35*
X94760000Y-110585000D02*
X94180000Y-110005000D01*
X102240000Y-110585000D02*
X102820000Y-110005000D01*
X95300000Y-110585000D02*
X94760000Y-110585000D01*
D37*
X89200000Y-104900000D02*
X88800000Y-104900000D01*
D35*
%TO.N,EN*%
X86727500Y-114427500D02*
X91480000Y-109675000D01*
X90800000Y-114900000D02*
X87200000Y-114900000D01*
X85898609Y-138100000D02*
X82800000Y-135001391D01*
X82800000Y-118355000D02*
X86727500Y-114427500D01*
X95400000Y-138100000D02*
X85898609Y-138100000D01*
X87200000Y-114900000D02*
X86727500Y-114427500D01*
X91400000Y-105700000D02*
X91000000Y-105700000D01*
X82800000Y-135001391D02*
X82800000Y-118355000D01*
X91000000Y-105700000D02*
X90300000Y-105000000D01*
D38*
%TO.N,IO0*%
X80100000Y-113435000D02*
X83860000Y-109675000D01*
D35*
X80350500Y-105050500D02*
X80200000Y-105050500D01*
D38*
X80100000Y-150500000D02*
X80100000Y-113435000D01*
D35*
X80463000Y-104787500D02*
X80200000Y-105050500D01*
X81600000Y-104787500D02*
X80463000Y-104787500D01*
D38*
X81600000Y-152000000D02*
X80100000Y-150500000D01*
%TO.N,RXD0*%
X80900000Y-115175000D02*
X86400000Y-109675000D01*
X80900000Y-137700000D02*
X80900000Y-115175000D01*
%TO.N,TXD0*%
X81800000Y-116815000D02*
X88940000Y-109675000D01*
X81800000Y-138100000D02*
X81800000Y-116815000D01*
D35*
%TO.N,+5V*%
X44205489Y-108400489D02*
X46205978Y-106400000D01*
X39800000Y-115800000D02*
X40100000Y-115800000D01*
X44205489Y-111694511D02*
X44205489Y-108400489D01*
X46205978Y-106400000D02*
X49000000Y-106400000D01*
D36*
X57100000Y-152200000D02*
X57100000Y-151300000D01*
X49000000Y-106400000D02*
X51300000Y-106400000D01*
D35*
X96100000Y-111366246D02*
X95993222Y-111473024D01*
X100900000Y-110585000D02*
X100900000Y-111500000D01*
X40100000Y-115800000D02*
X44205489Y-111694511D01*
X96100000Y-110585000D02*
X96100000Y-111366246D01*
D36*
X57100000Y-153100000D02*
X57100000Y-152200000D01*
X64325000Y-115475000D02*
X64325000Y-109700000D01*
X57100000Y-122700000D02*
X64325000Y-115475000D01*
X57100000Y-151300000D02*
X57100000Y-122700000D01*
D39*
%TO.N,VCC*%
X54699511Y-115804511D02*
X59245000Y-111259022D01*
X36800000Y-152800000D02*
X37400000Y-152200000D01*
X37400000Y-152200000D02*
X49600000Y-152200000D01*
X49600000Y-152200000D02*
X54699511Y-147100489D01*
X54699511Y-147100489D02*
X54699511Y-115804511D01*
X59245000Y-111259022D02*
X59245000Y-109700000D01*
D38*
%TO.N,IO12*%
X105502076Y-155400000D02*
X96700000Y-155400000D01*
X108200000Y-137300000D02*
X108200000Y-152702076D01*
X96700000Y-155400000D02*
X94000000Y-158100000D01*
X108200000Y-152702076D02*
X105502076Y-155400000D01*
D36*
%TO.N,+12V*%
X40500000Y-133800000D02*
X39700000Y-133800000D01*
X44100000Y-134200000D02*
X43700000Y-133800000D01*
X43700000Y-133800000D02*
X40500000Y-133800000D01*
D35*
X39700000Y-133800000D02*
X38500000Y-133800000D01*
D36*
X50600000Y-145900000D02*
X44100000Y-139400000D01*
D35*
X44100000Y-134000000D02*
X44100000Y-134200000D01*
D36*
X44100000Y-139400000D02*
X44100000Y-134200000D01*
D35*
X49300000Y-128800000D02*
X44100000Y-134000000D01*
%TO.N,Net-(Q9-Pad2)*%
X23450156Y-117300156D02*
X23450000Y-117300000D01*
X23450156Y-118000000D02*
X23450156Y-117300156D01*
%TO.N,Net-(Q10-Pad2)*%
X23450000Y-124550000D02*
X23450000Y-124000000D01*
X23500000Y-124600000D02*
X23450000Y-124550000D01*
%TO.N,Net-(Q13-Pad2)*%
X23500000Y-150800000D02*
X23450000Y-150850000D01*
X23450000Y-150850000D02*
X23450000Y-151500000D01*
%TO.N,Net-(Q14-Pad2)*%
X23450000Y-143850000D02*
X23450000Y-144500000D01*
X23500000Y-143800000D02*
X23450000Y-143850000D01*
D36*
%TO.N,Net-(JP2-Pad2)*%
X53205000Y-106400000D02*
X53205000Y-109620000D01*
X53205000Y-109620000D02*
X53125000Y-109700000D01*
D40*
%TO.N,Net-(BT1-Pad3)*%
X112050011Y-143949989D02*
X112000000Y-144000000D01*
X112050011Y-124050011D02*
X112050011Y-143949989D01*
X112000000Y-124000000D02*
X112050011Y-124050011D01*
D38*
%TO.N,Net-(C7-Pad1)*%
X59600000Y-137800000D02*
X59400000Y-137600000D01*
X58500000Y-148400000D02*
X59600000Y-147300000D01*
X59600000Y-147300000D02*
X59600000Y-137800000D01*
%TO.N,D-*%
X98250000Y-112015006D02*
X105125480Y-118890486D01*
X105125480Y-122324532D02*
X105125480Y-122325480D01*
X104526428Y-121724532D02*
X104526428Y-121725480D01*
X105125480Y-148356321D02*
X102764644Y-150717157D01*
X98250000Y-110585000D02*
X98250000Y-112015006D01*
X102764644Y-150717157D02*
X102517157Y-150717157D01*
X105125480Y-118890486D02*
X105125480Y-121125480D01*
X105125480Y-122325480D02*
X105125480Y-148356321D01*
X104526428Y-121724532D02*
G75*
G02*
X104825954Y-121425006I299526J0D01*
G01*
X104825954Y-122025006D02*
G75*
G02*
X104526428Y-121725480I0J299526D01*
G01*
X105125480Y-122324532D02*
G75*
G03*
X104825954Y-122025006I-299526J0D01*
G01*
X104825954Y-121425006D02*
G75*
G03*
X105125480Y-121125480I0J299526D01*
G01*
%TO.N,D+*%
X105525000Y-118725000D02*
X105525000Y-148840686D01*
X98750000Y-110585000D02*
X98750000Y-111950000D01*
X105525000Y-148840686D02*
X103082843Y-151282843D01*
X98750000Y-111950000D02*
X105525000Y-118725000D01*
%TO.N,Net-(U4-Pad1)*%
X79500000Y-107500000D02*
X77200000Y-105200000D01*
X77200000Y-105200000D02*
X50200000Y-105200000D01*
X107325000Y-105675000D02*
X105500000Y-107500000D01*
X105500000Y-107500000D02*
X79500000Y-107500000D01*
X109575000Y-105675000D02*
X107325000Y-105675000D01*
D35*
%TO.N,Net-(R2-Pad2)*%
X82512500Y-105700000D02*
X81600000Y-106612500D01*
X83100000Y-105700000D02*
X82512500Y-105700000D01*
D38*
%TO.N,Net-(P1-PadB5)*%
X96750000Y-115206250D02*
X96750000Y-110585000D01*
X96300000Y-115656250D02*
X96750000Y-115206250D01*
%TO.N,Net-(P1-PadA5)*%
X99750000Y-110585000D02*
X99750000Y-111417382D01*
X99750000Y-111417382D02*
X99983118Y-111650500D01*
%TD*%
%TA.AperFunction,Conductor*%
%TO.N,Net-(BT1-Pad2)*%
G36*
X46110169Y-119620002D02*
G01*
X46137714Y-119644000D01*
X46669666Y-120264610D01*
X46698812Y-120329349D01*
X46700000Y-120346610D01*
X46700000Y-123958000D01*
X46679998Y-124026121D01*
X46674800Y-124033600D01*
X46437800Y-124349600D01*
X46380926Y-124392095D01*
X46337000Y-124400000D01*
X41600000Y-124400000D01*
X41300000Y-124700000D01*
X41300000Y-125747810D01*
X41279998Y-125815931D01*
X41263095Y-125836905D01*
X40936905Y-126163095D01*
X40874593Y-126197121D01*
X40847810Y-126200000D01*
X35126000Y-126200000D01*
X35057879Y-126179998D01*
X35011386Y-126126342D01*
X35000000Y-126074000D01*
X35000000Y-120340378D01*
X35023470Y-120267142D01*
X35462311Y-119652764D01*
X35518181Y-119608958D01*
X35564841Y-119600000D01*
X46042048Y-119600000D01*
X46110169Y-119620002D01*
G37*
%TD.AperFunction*%
%TD*%
%TA.AperFunction,Conductor*%
%TO.N,+VSW*%
G36*
X32557005Y-104270002D02*
G01*
X32582539Y-104291710D01*
X33186786Y-104963095D01*
X33367655Y-105164061D01*
X33398358Y-105228076D01*
X33400000Y-105248351D01*
X33400000Y-111847810D01*
X33379998Y-111915931D01*
X33363095Y-111936905D01*
X32536905Y-112763095D01*
X32474593Y-112797121D01*
X32447810Y-112800000D01*
X28046610Y-112800000D01*
X27978489Y-112779998D01*
X27964610Y-112769666D01*
X25944000Y-111037714D01*
X25905296Y-110978195D01*
X25900000Y-110942048D01*
X25900000Y-105052190D01*
X25920002Y-104984069D01*
X25936905Y-104963095D01*
X26613095Y-104286905D01*
X26675407Y-104252879D01*
X26702190Y-104250000D01*
X32488884Y-104250000D01*
X32557005Y-104270002D01*
G37*
%TD.AperFunction*%
%TD*%
%TA.AperFunction,Conductor*%
%TO.N,GND*%
G36*
X23705121Y-141320002D02*
G01*
X23737800Y-141350400D01*
X23974800Y-141666400D01*
X23999671Y-141732898D01*
X24000000Y-141742000D01*
X24000000Y-143295775D01*
X23979998Y-143363896D01*
X23926342Y-143410389D01*
X23856068Y-143420493D01*
X23805471Y-143401509D01*
X23712095Y-143340985D01*
X23574739Y-143299907D01*
X23565763Y-143299852D01*
X23565762Y-143299852D01*
X23505555Y-143299484D01*
X23431376Y-143299031D01*
X23293529Y-143338428D01*
X23172280Y-143414930D01*
X23077377Y-143522388D01*
X23016447Y-143652163D01*
X22994391Y-143793823D01*
X22995555Y-143802725D01*
X22995555Y-143802728D01*
X22998343Y-143824045D01*
X22999310Y-143845329D01*
X22998235Y-143872687D01*
X22975574Y-143939970D01*
X22942336Y-143972504D01*
X22940763Y-143973555D01*
X22940761Y-143973557D01*
X22930448Y-143980448D01*
X22886133Y-144046769D01*
X22874500Y-144105252D01*
X22874500Y-144894748D01*
X22886133Y-144953231D01*
X22930448Y-145019552D01*
X22996769Y-145063867D01*
X23008938Y-145066288D01*
X23008939Y-145066288D01*
X23046132Y-145073686D01*
X23055252Y-145075500D01*
X23844748Y-145075500D01*
X23850816Y-145074293D01*
X23856979Y-145073686D01*
X23857134Y-145075260D01*
X23920136Y-145080900D01*
X23976202Y-145124456D01*
X24000000Y-145198150D01*
X24000000Y-145747810D01*
X23979998Y-145815931D01*
X23963095Y-145836905D01*
X23636905Y-146163095D01*
X23574593Y-146197121D01*
X23547810Y-146200000D01*
X20452190Y-146200000D01*
X20384069Y-146179998D01*
X20363095Y-146163095D01*
X19936905Y-145736905D01*
X19902879Y-145674593D01*
X19900000Y-145647810D01*
X19900000Y-141652190D01*
X19920002Y-141584069D01*
X19936905Y-141563095D01*
X20163095Y-141336905D01*
X20225407Y-141302879D01*
X20252190Y-141300000D01*
X23637000Y-141300000D01*
X23705121Y-141320002D01*
G37*
%TD.AperFunction*%
%TD*%
%TA.AperFunction,Conductor*%
%TO.N,Net-(Q2-Pad1)*%
G36*
X52315931Y-115720002D02*
G01*
X52336905Y-115736905D01*
X52763095Y-116163095D01*
X52797121Y-116225407D01*
X52800000Y-116252190D01*
X52800000Y-118847810D01*
X52779998Y-118915931D01*
X52763095Y-118936905D01*
X52536905Y-119163095D01*
X52474593Y-119197121D01*
X52447810Y-119200000D01*
X42026000Y-119200000D01*
X41957879Y-119179998D01*
X41911386Y-119126342D01*
X41900000Y-119074000D01*
X41900000Y-116345618D01*
X41920002Y-116277497D01*
X41929204Y-116264955D01*
X41983333Y-116200000D01*
X42362219Y-115745337D01*
X42421195Y-115705810D01*
X42459015Y-115700000D01*
X52247810Y-115700000D01*
X52315931Y-115720002D01*
G37*
%TD.AperFunction*%
%TD*%
%TA.AperFunction,Conductor*%
%TO.N,GND*%
G36*
X23615931Y-122120002D02*
G01*
X23636905Y-122136905D01*
X23963095Y-122463095D01*
X23997121Y-122525407D01*
X24000000Y-122552190D01*
X24000000Y-123001850D01*
X23979998Y-123069971D01*
X23926342Y-123116464D01*
X23857155Y-123124529D01*
X23856979Y-123126314D01*
X23850816Y-123125707D01*
X23844748Y-123124500D01*
X23055252Y-123124500D01*
X23049184Y-123125707D01*
X23008939Y-123133712D01*
X23008938Y-123133712D01*
X22996769Y-123136133D01*
X22930448Y-123180448D01*
X22886133Y-123246769D01*
X22874500Y-123305252D01*
X22874500Y-124094748D01*
X22886133Y-124153231D01*
X22930448Y-124219552D01*
X22940761Y-124226443D01*
X22940765Y-124226447D01*
X22943501Y-124228275D01*
X22948121Y-124233803D01*
X22949540Y-124235222D01*
X22949413Y-124235349D01*
X22989029Y-124282751D01*
X22999500Y-124333040D01*
X22999500Y-124515780D01*
X22998627Y-124530589D01*
X22994636Y-124564310D01*
X22995964Y-124571579D01*
X22995693Y-124575977D01*
X22995882Y-124575979D01*
X22995772Y-124584950D01*
X22994391Y-124593823D01*
X23012980Y-124735979D01*
X23070720Y-124867203D01*
X23162970Y-124976948D01*
X23282313Y-125056390D01*
X23419157Y-125099142D01*
X23428129Y-125099306D01*
X23428132Y-125099307D01*
X23493463Y-125100504D01*
X23562499Y-125101770D01*
X23571533Y-125099307D01*
X23692158Y-125066421D01*
X23692160Y-125066420D01*
X23700817Y-125064060D01*
X23708464Y-125059365D01*
X23708468Y-125059363D01*
X23808072Y-124998206D01*
X23876589Y-124979608D01*
X23944284Y-125001005D01*
X23989665Y-125055605D01*
X24000000Y-125105581D01*
X24000000Y-126347810D01*
X23979998Y-126415931D01*
X23963095Y-126436905D01*
X23536905Y-126863095D01*
X23474593Y-126897121D01*
X23447810Y-126900000D01*
X20452190Y-126900000D01*
X20384069Y-126879998D01*
X20363095Y-126863095D01*
X19936905Y-126436905D01*
X19902879Y-126374593D01*
X19900000Y-126347810D01*
X19900000Y-122560559D01*
X19920002Y-122492438D01*
X19947288Y-122462170D01*
X20365486Y-122127611D01*
X20431175Y-122100675D01*
X20444198Y-122100000D01*
X23547810Y-122100000D01*
X23615931Y-122120002D01*
G37*
%TD.AperFunction*%
%TD*%
%TA.AperFunction,Conductor*%
%TO.N,+3V3*%
G36*
X46622938Y-154009650D02*
G01*
X90344214Y-154199757D01*
X90412246Y-154220055D01*
X90437317Y-154241464D01*
X92200000Y-156200000D01*
X93759498Y-156200000D01*
X93829317Y-156221113D01*
X93853041Y-156236905D01*
X93882313Y-156256390D01*
X94019157Y-156299142D01*
X94028129Y-156299306D01*
X94028132Y-156299307D01*
X94093463Y-156300504D01*
X94162499Y-156301770D01*
X94171533Y-156299307D01*
X94292158Y-156266421D01*
X94292160Y-156266420D01*
X94300817Y-156264060D01*
X94374815Y-156218625D01*
X94440744Y-156200000D01*
X95170839Y-156200000D01*
X95238960Y-156220002D01*
X95285453Y-156273658D01*
X95295557Y-156343932D01*
X95266063Y-156408512D01*
X95259934Y-156415095D01*
X94662434Y-157012595D01*
X94600122Y-157046621D01*
X94573339Y-157049500D01*
X93130252Y-157049500D01*
X93124184Y-157050707D01*
X93083939Y-157058712D01*
X93083938Y-157058712D01*
X93071769Y-157061133D01*
X93005448Y-157105448D01*
X92961133Y-157171769D01*
X92958712Y-157183938D01*
X92958712Y-157183939D01*
X92954434Y-157205448D01*
X92949500Y-157230252D01*
X92949500Y-158969748D01*
X92950707Y-158975816D01*
X92955518Y-159000000D01*
X92961133Y-159028231D01*
X93005448Y-159094552D01*
X93071769Y-159138867D01*
X93083938Y-159141288D01*
X93083939Y-159141288D01*
X93124184Y-159149293D01*
X93130252Y-159150500D01*
X94869748Y-159150500D01*
X94875816Y-159149293D01*
X94916061Y-159141288D01*
X94916062Y-159141288D01*
X94928231Y-159138867D01*
X94994552Y-159094552D01*
X95038867Y-159028231D01*
X95044483Y-159000000D01*
X97390539Y-159000000D01*
X97410354Y-159251775D01*
X97411508Y-159256582D01*
X97411509Y-159256588D01*
X97416325Y-159276646D01*
X97469312Y-159497351D01*
X97471205Y-159501922D01*
X97471206Y-159501924D01*
X97546685Y-159684145D01*
X97565960Y-159730680D01*
X97697919Y-159946017D01*
X97861939Y-160138061D01*
X98053983Y-160302081D01*
X98269320Y-160434040D01*
X98273890Y-160435933D01*
X98273894Y-160435935D01*
X98498076Y-160528794D01*
X98502649Y-160530688D01*
X98588865Y-160551387D01*
X98743412Y-160588491D01*
X98743418Y-160588492D01*
X98748225Y-160589646D01*
X98836253Y-160596574D01*
X98934507Y-160604307D01*
X98934516Y-160604307D01*
X98936964Y-160604500D01*
X99063036Y-160604500D01*
X99065484Y-160604307D01*
X99065493Y-160604307D01*
X99163747Y-160596574D01*
X99251775Y-160589646D01*
X99256582Y-160588492D01*
X99256588Y-160588491D01*
X99411135Y-160551387D01*
X99497351Y-160530688D01*
X99501924Y-160528794D01*
X99726106Y-160435935D01*
X99726110Y-160435933D01*
X99730680Y-160434040D01*
X99946017Y-160302081D01*
X100138061Y-160138061D01*
X100302081Y-159946017D01*
X100434040Y-159730680D01*
X100453316Y-159684145D01*
X100528794Y-159501924D01*
X100528795Y-159501922D01*
X100530688Y-159497351D01*
X100583675Y-159276646D01*
X100588491Y-159256588D01*
X100588492Y-159256582D01*
X100589646Y-159251775D01*
X100609461Y-159000000D01*
X100589646Y-158748225D01*
X100588492Y-158743418D01*
X100588491Y-158743412D01*
X100574530Y-158685262D01*
X106009520Y-158685262D01*
X106026759Y-158890553D01*
X106028458Y-158896478D01*
X106078157Y-159069798D01*
X106083544Y-159088586D01*
X106086359Y-159094063D01*
X106086360Y-159094066D01*
X106169249Y-159255351D01*
X106177712Y-159271818D01*
X106305677Y-159433270D01*
X106462564Y-159566791D01*
X106642398Y-159667297D01*
X106737238Y-159698112D01*
X106832471Y-159729056D01*
X106832475Y-159729057D01*
X106838329Y-159730959D01*
X107042894Y-159755351D01*
X107049029Y-159754879D01*
X107049031Y-159754879D01*
X107105039Y-159750569D01*
X107248300Y-159739546D01*
X107254230Y-159737890D01*
X107254232Y-159737890D01*
X107440797Y-159685800D01*
X107440796Y-159685800D01*
X107446725Y-159684145D01*
X107452214Y-159681372D01*
X107452220Y-159681370D01*
X107625116Y-159594033D01*
X107630610Y-159591258D01*
X107792951Y-159464424D01*
X107927564Y-159308472D01*
X107948387Y-159271818D01*
X107988365Y-159201443D01*
X108029323Y-159129344D01*
X108094351Y-158933863D01*
X108120171Y-158729474D01*
X108120583Y-158700000D01*
X108119138Y-158685262D01*
X108549520Y-158685262D01*
X108566759Y-158890553D01*
X108568458Y-158896478D01*
X108618157Y-159069798D01*
X108623544Y-159088586D01*
X108626359Y-159094063D01*
X108626360Y-159094066D01*
X108709249Y-159255351D01*
X108717712Y-159271818D01*
X108845677Y-159433270D01*
X109002564Y-159566791D01*
X109182398Y-159667297D01*
X109277238Y-159698112D01*
X109372471Y-159729056D01*
X109372475Y-159729057D01*
X109378329Y-159730959D01*
X109582894Y-159755351D01*
X109589029Y-159754879D01*
X109589031Y-159754879D01*
X109645039Y-159750569D01*
X109788300Y-159739546D01*
X109794230Y-159737890D01*
X109794232Y-159737890D01*
X109980797Y-159685800D01*
X109980796Y-159685800D01*
X109986725Y-159684145D01*
X109992214Y-159681372D01*
X109992220Y-159681370D01*
X110165116Y-159594033D01*
X110170610Y-159591258D01*
X110332951Y-159464424D01*
X110467564Y-159308472D01*
X110488387Y-159271818D01*
X110528365Y-159201443D01*
X110569323Y-159129344D01*
X110634351Y-158933863D01*
X110660171Y-158729474D01*
X110660583Y-158700000D01*
X110659138Y-158685262D01*
X111089520Y-158685262D01*
X111106759Y-158890553D01*
X111108458Y-158896478D01*
X111158157Y-159069798D01*
X111163544Y-159088586D01*
X111166359Y-159094063D01*
X111166360Y-159094066D01*
X111249249Y-159255351D01*
X111257712Y-159271818D01*
X111385677Y-159433270D01*
X111542564Y-159566791D01*
X111722398Y-159667297D01*
X111817238Y-159698112D01*
X111912471Y-159729056D01*
X111912475Y-159729057D01*
X111918329Y-159730959D01*
X112122894Y-159755351D01*
X112129029Y-159754879D01*
X112129031Y-159754879D01*
X112185039Y-159750569D01*
X112328300Y-159739546D01*
X112334230Y-159737890D01*
X112334232Y-159737890D01*
X112520797Y-159685800D01*
X112520796Y-159685800D01*
X112526725Y-159684145D01*
X112532214Y-159681372D01*
X112532220Y-159681370D01*
X112705116Y-159594033D01*
X112710610Y-159591258D01*
X112872951Y-159464424D01*
X113007564Y-159308472D01*
X113028387Y-159271818D01*
X113068365Y-159201443D01*
X113109323Y-159129344D01*
X113174351Y-158933863D01*
X113200171Y-158729474D01*
X113200583Y-158700000D01*
X113199138Y-158685262D01*
X113629520Y-158685262D01*
X113646759Y-158890553D01*
X113648458Y-158896478D01*
X113698157Y-159069798D01*
X113703544Y-159088586D01*
X113706359Y-159094063D01*
X113706360Y-159094066D01*
X113789249Y-159255351D01*
X113797712Y-159271818D01*
X113925677Y-159433270D01*
X114082564Y-159566791D01*
X114262398Y-159667297D01*
X114357238Y-159698112D01*
X114452471Y-159729056D01*
X114452475Y-159729057D01*
X114458329Y-159730959D01*
X114662894Y-159755351D01*
X114669029Y-159754879D01*
X114669031Y-159754879D01*
X114725039Y-159750569D01*
X114868300Y-159739546D01*
X114874230Y-159737890D01*
X114874232Y-159737890D01*
X115060797Y-159685800D01*
X115060796Y-159685800D01*
X115066725Y-159684145D01*
X115072214Y-159681372D01*
X115072220Y-159681370D01*
X115245116Y-159594033D01*
X115250610Y-159591258D01*
X115412951Y-159464424D01*
X115547564Y-159308472D01*
X115568387Y-159271818D01*
X115608365Y-159201443D01*
X115649323Y-159129344D01*
X115714351Y-158933863D01*
X115740171Y-158729474D01*
X115740583Y-158700000D01*
X115720480Y-158494970D01*
X115660935Y-158297749D01*
X115564218Y-158115849D01*
X115449066Y-157974659D01*
X115437906Y-157960975D01*
X115437903Y-157960972D01*
X115434011Y-157956200D01*
X115416786Y-157941950D01*
X115280025Y-157828811D01*
X115280021Y-157828809D01*
X115275275Y-157824882D01*
X115094055Y-157726897D01*
X114897254Y-157665977D01*
X114891129Y-157665333D01*
X114891128Y-157665333D01*
X114698498Y-157645087D01*
X114698496Y-157645087D01*
X114692369Y-157644443D01*
X114605529Y-157652346D01*
X114493342Y-157662555D01*
X114493339Y-157662556D01*
X114487203Y-157663114D01*
X114289572Y-157721280D01*
X114107002Y-157816726D01*
X114102201Y-157820586D01*
X114102198Y-157820588D01*
X113951254Y-157941950D01*
X113946447Y-157945815D01*
X113814024Y-158103630D01*
X113811056Y-158109028D01*
X113811053Y-158109033D01*
X113725255Y-158265100D01*
X113714776Y-158284162D01*
X113652484Y-158480532D01*
X113651798Y-158486649D01*
X113651797Y-158486653D01*
X113631642Y-158666341D01*
X113629520Y-158685262D01*
X113199138Y-158685262D01*
X113180480Y-158494970D01*
X113120935Y-158297749D01*
X113024218Y-158115849D01*
X112909066Y-157974659D01*
X112897906Y-157960975D01*
X112897903Y-157960972D01*
X112894011Y-157956200D01*
X112876786Y-157941950D01*
X112740025Y-157828811D01*
X112740021Y-157828809D01*
X112735275Y-157824882D01*
X112554055Y-157726897D01*
X112357254Y-157665977D01*
X112351129Y-157665333D01*
X112351128Y-157665333D01*
X112158498Y-157645087D01*
X112158496Y-157645087D01*
X112152369Y-157644443D01*
X112065529Y-157652346D01*
X111953342Y-157662555D01*
X111953339Y-157662556D01*
X111947203Y-157663114D01*
X111749572Y-157721280D01*
X111567002Y-157816726D01*
X111562201Y-157820586D01*
X111562198Y-157820588D01*
X111411254Y-157941950D01*
X111406447Y-157945815D01*
X111274024Y-158103630D01*
X111271056Y-158109028D01*
X111271053Y-158109033D01*
X111185255Y-158265100D01*
X111174776Y-158284162D01*
X111112484Y-158480532D01*
X111111798Y-158486649D01*
X111111797Y-158486653D01*
X111091642Y-158666341D01*
X111089520Y-158685262D01*
X110659138Y-158685262D01*
X110640480Y-158494970D01*
X110580935Y-158297749D01*
X110484218Y-158115849D01*
X110369066Y-157974659D01*
X110357906Y-157960975D01*
X110357903Y-157960972D01*
X110354011Y-157956200D01*
X110336786Y-157941950D01*
X110200025Y-157828811D01*
X110200021Y-157828809D01*
X110195275Y-157824882D01*
X110014055Y-157726897D01*
X109817254Y-157665977D01*
X109811129Y-157665333D01*
X109811128Y-157665333D01*
X109618498Y-157645087D01*
X109618496Y-157645087D01*
X109612369Y-157644443D01*
X109525529Y-157652346D01*
X109413342Y-157662555D01*
X109413339Y-157662556D01*
X109407203Y-157663114D01*
X109209572Y-157721280D01*
X109027002Y-157816726D01*
X109022201Y-157820586D01*
X109022198Y-157820588D01*
X108871254Y-157941950D01*
X108866447Y-157945815D01*
X108734024Y-158103630D01*
X108731056Y-158109028D01*
X108731053Y-158109033D01*
X108645255Y-158265100D01*
X108634776Y-158284162D01*
X108572484Y-158480532D01*
X108571798Y-158486649D01*
X108571797Y-158486653D01*
X108551642Y-158666341D01*
X108549520Y-158685262D01*
X108119138Y-158685262D01*
X108100480Y-158494970D01*
X108040935Y-158297749D01*
X107944218Y-158115849D01*
X107829066Y-157974659D01*
X107817906Y-157960975D01*
X107817903Y-157960972D01*
X107814011Y-157956200D01*
X107796786Y-157941950D01*
X107660025Y-157828811D01*
X107660021Y-157828809D01*
X107655275Y-157824882D01*
X107474055Y-157726897D01*
X107277254Y-157665977D01*
X107271129Y-157665333D01*
X107271128Y-157665333D01*
X107078498Y-157645087D01*
X107078496Y-157645087D01*
X107072369Y-157644443D01*
X106985529Y-157652346D01*
X106873342Y-157662555D01*
X106873339Y-157662556D01*
X106867203Y-157663114D01*
X106669572Y-157721280D01*
X106487002Y-157816726D01*
X106482201Y-157820586D01*
X106482198Y-157820588D01*
X106331254Y-157941950D01*
X106326447Y-157945815D01*
X106194024Y-158103630D01*
X106191056Y-158109028D01*
X106191053Y-158109033D01*
X106105255Y-158265100D01*
X106094776Y-158284162D01*
X106032484Y-158480532D01*
X106031798Y-158486649D01*
X106031797Y-158486653D01*
X106011642Y-158666341D01*
X106009520Y-158685262D01*
X100574530Y-158685262D01*
X100531843Y-158507461D01*
X100530688Y-158502649D01*
X100502196Y-158433863D01*
X100435935Y-158273894D01*
X100435933Y-158273890D01*
X100434040Y-158269320D01*
X100302081Y-158053983D01*
X100138061Y-157861939D01*
X99946017Y-157697919D01*
X99730680Y-157565960D01*
X99726110Y-157564067D01*
X99726106Y-157564065D01*
X99501924Y-157471206D01*
X99501922Y-157471205D01*
X99497351Y-157469312D01*
X99383381Y-157441950D01*
X99256588Y-157411509D01*
X99256582Y-157411508D01*
X99251775Y-157410354D01*
X99163747Y-157403426D01*
X99065493Y-157395693D01*
X99065484Y-157395693D01*
X99063036Y-157395500D01*
X98936964Y-157395500D01*
X98934516Y-157395693D01*
X98934507Y-157395693D01*
X98836253Y-157403426D01*
X98748225Y-157410354D01*
X98743418Y-157411508D01*
X98743412Y-157411509D01*
X98616619Y-157441950D01*
X98502649Y-157469312D01*
X98498078Y-157471205D01*
X98498076Y-157471206D01*
X98273894Y-157564065D01*
X98273890Y-157564067D01*
X98269320Y-157565960D01*
X98053983Y-157697919D01*
X97861939Y-157861939D01*
X97697919Y-158053983D01*
X97565960Y-158269320D01*
X97564067Y-158273890D01*
X97564065Y-158273894D01*
X97497804Y-158433863D01*
X97469312Y-158502649D01*
X97468157Y-158507461D01*
X97411509Y-158743412D01*
X97411508Y-158743418D01*
X97410354Y-158748225D01*
X97390539Y-159000000D01*
X95044483Y-159000000D01*
X95049293Y-158975816D01*
X95050500Y-158969748D01*
X95050500Y-157526661D01*
X95070502Y-157458540D01*
X95087405Y-157437566D01*
X96288066Y-156236905D01*
X96350378Y-156202879D01*
X96377161Y-156200000D01*
X116347810Y-156200000D01*
X116415931Y-156220002D01*
X116436905Y-156236905D01*
X116763095Y-156563095D01*
X116797121Y-156625407D01*
X116800000Y-156652190D01*
X116800000Y-163674000D01*
X116779998Y-163742121D01*
X116726342Y-163788614D01*
X116674000Y-163800000D01*
X45052190Y-163800000D01*
X44984069Y-163779998D01*
X44963095Y-163763095D01*
X44307888Y-163107888D01*
X104238898Y-163107888D01*
X104250531Y-163166371D01*
X104294846Y-163232692D01*
X104361167Y-163277007D01*
X104373336Y-163279428D01*
X104373337Y-163279428D01*
X104413582Y-163287433D01*
X104419650Y-163288640D01*
X106159146Y-163288640D01*
X106165214Y-163287433D01*
X106205459Y-163279428D01*
X106205460Y-163279428D01*
X106217629Y-163277007D01*
X106283950Y-163232692D01*
X106328265Y-163166371D01*
X106339633Y-163109220D01*
X109333135Y-163109220D01*
X109334342Y-163115288D01*
X109338969Y-163138547D01*
X109344768Y-163167703D01*
X109389083Y-163234024D01*
X109455404Y-163278339D01*
X109467573Y-163280760D01*
X109467574Y-163280760D01*
X109507191Y-163288640D01*
X109513887Y-163289972D01*
X111253383Y-163289972D01*
X111260079Y-163288640D01*
X111299696Y-163280760D01*
X111299697Y-163280760D01*
X111311866Y-163278339D01*
X111378187Y-163234024D01*
X111422502Y-163167703D01*
X111428302Y-163138547D01*
X111432928Y-163115288D01*
X111434135Y-163109220D01*
X111434135Y-163069748D01*
X114424500Y-163069748D01*
X114425707Y-163075816D01*
X114433294Y-163113956D01*
X114436133Y-163128231D01*
X114480448Y-163194552D01*
X114546769Y-163238867D01*
X114558938Y-163241288D01*
X114558939Y-163241288D01*
X114599184Y-163249293D01*
X114605252Y-163250500D01*
X116344748Y-163250500D01*
X116350816Y-163249293D01*
X116391061Y-163241288D01*
X116391062Y-163241288D01*
X116403231Y-163238867D01*
X116469552Y-163194552D01*
X116513867Y-163128231D01*
X116516707Y-163113956D01*
X116524293Y-163075816D01*
X116525500Y-163069748D01*
X116525500Y-161330252D01*
X116523874Y-161322079D01*
X116516288Y-161283939D01*
X116516288Y-161283938D01*
X116513867Y-161271769D01*
X116469552Y-161205448D01*
X116403231Y-161161133D01*
X116391062Y-161158712D01*
X116391061Y-161158712D01*
X116350816Y-161150707D01*
X116344748Y-161149500D01*
X114605252Y-161149500D01*
X114599184Y-161150707D01*
X114558939Y-161158712D01*
X114558938Y-161158712D01*
X114546769Y-161161133D01*
X114480448Y-161205448D01*
X114436133Y-161271769D01*
X114433712Y-161283938D01*
X114433712Y-161283939D01*
X114426126Y-161322079D01*
X114424500Y-161330252D01*
X114424500Y-163069748D01*
X111434135Y-163069748D01*
X111434135Y-161369724D01*
X111422502Y-161311241D01*
X111378187Y-161244920D01*
X111311866Y-161200605D01*
X111299697Y-161198184D01*
X111299696Y-161198184D01*
X111259451Y-161190179D01*
X111253383Y-161188972D01*
X109513887Y-161188972D01*
X109507819Y-161190179D01*
X109467574Y-161198184D01*
X109467573Y-161198184D01*
X109455404Y-161200605D01*
X109389083Y-161244920D01*
X109344768Y-161311241D01*
X109333135Y-161369724D01*
X109333135Y-163109220D01*
X106339633Y-163109220D01*
X106339898Y-163107888D01*
X106339898Y-161368392D01*
X106333542Y-161336439D01*
X106330686Y-161322079D01*
X106330686Y-161322078D01*
X106328265Y-161309909D01*
X106283950Y-161243588D01*
X106217629Y-161199273D01*
X106205460Y-161196852D01*
X106205459Y-161196852D01*
X106165214Y-161188847D01*
X106159146Y-161187640D01*
X104419650Y-161187640D01*
X104413582Y-161188847D01*
X104373337Y-161196852D01*
X104373336Y-161196852D01*
X104361167Y-161199273D01*
X104294846Y-161243588D01*
X104250531Y-161309909D01*
X104248110Y-161322078D01*
X104248110Y-161322079D01*
X104245254Y-161336439D01*
X104238898Y-161368392D01*
X104238898Y-163107888D01*
X44307888Y-163107888D01*
X44036905Y-162836905D01*
X44002879Y-162774593D01*
X44000000Y-162747810D01*
X44000000Y-161844748D01*
X59949500Y-161844748D01*
X59950707Y-161850816D01*
X59954331Y-161869033D01*
X59961133Y-161903231D01*
X60005448Y-161969552D01*
X60071769Y-162013867D01*
X60083938Y-162016288D01*
X60083939Y-162016288D01*
X60124184Y-162024293D01*
X60130252Y-162025500D01*
X61869748Y-162025500D01*
X61875816Y-162024293D01*
X61916061Y-162016288D01*
X61916062Y-162016288D01*
X61928231Y-162013867D01*
X61994552Y-161969552D01*
X62038867Y-161903231D01*
X62045670Y-161869033D01*
X62049293Y-161850816D01*
X62050500Y-161844748D01*
X62050500Y-160960262D01*
X62484520Y-160960262D01*
X62485036Y-160966406D01*
X62501185Y-161158712D01*
X62501759Y-161165553D01*
X62503458Y-161171478D01*
X62550760Y-161336439D01*
X62558544Y-161363586D01*
X62561359Y-161369063D01*
X62561360Y-161369066D01*
X62582247Y-161409707D01*
X62652712Y-161546818D01*
X62780677Y-161708270D01*
X62937564Y-161841791D01*
X63117398Y-161942297D01*
X63201280Y-161969552D01*
X63307471Y-162004056D01*
X63307475Y-162004057D01*
X63313329Y-162005959D01*
X63517894Y-162030351D01*
X63524029Y-162029879D01*
X63524031Y-162029879D01*
X63596625Y-162024293D01*
X63723300Y-162014546D01*
X63729230Y-162012890D01*
X63729232Y-162012890D01*
X63915797Y-161960800D01*
X63915796Y-161960800D01*
X63921725Y-161959145D01*
X63927214Y-161956372D01*
X63927220Y-161956370D01*
X64100116Y-161869033D01*
X64105610Y-161866258D01*
X64267951Y-161739424D01*
X64402564Y-161583472D01*
X64423387Y-161546818D01*
X64501276Y-161409707D01*
X64504323Y-161404344D01*
X64569351Y-161208863D01*
X64595171Y-161004474D01*
X64595583Y-160975000D01*
X64594138Y-160960262D01*
X65024520Y-160960262D01*
X65025036Y-160966406D01*
X65041185Y-161158712D01*
X65041759Y-161165553D01*
X65043458Y-161171478D01*
X65090760Y-161336439D01*
X65098544Y-161363586D01*
X65101359Y-161369063D01*
X65101360Y-161369066D01*
X65122247Y-161409707D01*
X65192712Y-161546818D01*
X65320677Y-161708270D01*
X65477564Y-161841791D01*
X65657398Y-161942297D01*
X65741280Y-161969552D01*
X65847471Y-162004056D01*
X65847475Y-162004057D01*
X65853329Y-162005959D01*
X66057894Y-162030351D01*
X66064029Y-162029879D01*
X66064031Y-162029879D01*
X66136625Y-162024293D01*
X66263300Y-162014546D01*
X66269230Y-162012890D01*
X66269232Y-162012890D01*
X66455797Y-161960800D01*
X66455796Y-161960800D01*
X66461725Y-161959145D01*
X66467214Y-161956372D01*
X66467220Y-161956370D01*
X66640116Y-161869033D01*
X66645610Y-161866258D01*
X66807951Y-161739424D01*
X66942564Y-161583472D01*
X66963387Y-161546818D01*
X67041276Y-161409707D01*
X67044323Y-161404344D01*
X67109351Y-161208863D01*
X67135171Y-161004474D01*
X67135583Y-160975000D01*
X67134138Y-160960262D01*
X67564520Y-160960262D01*
X67565036Y-160966406D01*
X67581185Y-161158712D01*
X67581759Y-161165553D01*
X67583458Y-161171478D01*
X67630760Y-161336439D01*
X67638544Y-161363586D01*
X67641359Y-161369063D01*
X67641360Y-161369066D01*
X67662247Y-161409707D01*
X67732712Y-161546818D01*
X67860677Y-161708270D01*
X68017564Y-161841791D01*
X68197398Y-161942297D01*
X68281280Y-161969552D01*
X68387471Y-162004056D01*
X68387475Y-162004057D01*
X68393329Y-162005959D01*
X68597894Y-162030351D01*
X68604029Y-162029879D01*
X68604031Y-162029879D01*
X68676625Y-162024293D01*
X68803300Y-162014546D01*
X68809230Y-162012890D01*
X68809232Y-162012890D01*
X68995797Y-161960800D01*
X68995796Y-161960800D01*
X69001725Y-161959145D01*
X69007214Y-161956372D01*
X69007220Y-161956370D01*
X69180116Y-161869033D01*
X69185610Y-161866258D01*
X69347951Y-161739424D01*
X69482564Y-161583472D01*
X69503387Y-161546818D01*
X69581276Y-161409707D01*
X69584323Y-161404344D01*
X69649351Y-161208863D01*
X69675171Y-161004474D01*
X69675583Y-160975000D01*
X69674138Y-160960262D01*
X75184520Y-160960262D01*
X75185036Y-160966406D01*
X75201185Y-161158712D01*
X75201759Y-161165553D01*
X75203458Y-161171478D01*
X75250760Y-161336439D01*
X75258544Y-161363586D01*
X75261359Y-161369063D01*
X75261360Y-161369066D01*
X75282247Y-161409707D01*
X75352712Y-161546818D01*
X75480677Y-161708270D01*
X75637564Y-161841791D01*
X75817398Y-161942297D01*
X75901280Y-161969552D01*
X76007471Y-162004056D01*
X76007475Y-162004057D01*
X76013329Y-162005959D01*
X76217894Y-162030351D01*
X76224029Y-162029879D01*
X76224031Y-162029879D01*
X76296625Y-162024293D01*
X76423300Y-162014546D01*
X76429230Y-162012890D01*
X76429232Y-162012890D01*
X76615797Y-161960800D01*
X76615796Y-161960800D01*
X76621725Y-161959145D01*
X76627214Y-161956372D01*
X76627220Y-161956370D01*
X76800116Y-161869033D01*
X76805610Y-161866258D01*
X76967951Y-161739424D01*
X77102564Y-161583472D01*
X77123387Y-161546818D01*
X77201276Y-161409707D01*
X77204323Y-161404344D01*
X77269351Y-161208863D01*
X77295171Y-161004474D01*
X77295583Y-160975000D01*
X77294138Y-160960262D01*
X77724520Y-160960262D01*
X77725036Y-160966406D01*
X77741185Y-161158712D01*
X77741759Y-161165553D01*
X77743458Y-161171478D01*
X77790760Y-161336439D01*
X77798544Y-161363586D01*
X77801359Y-161369063D01*
X77801360Y-161369066D01*
X77822247Y-161409707D01*
X77892712Y-161546818D01*
X78020677Y-161708270D01*
X78177564Y-161841791D01*
X78357398Y-161942297D01*
X78441280Y-161969552D01*
X78547471Y-162004056D01*
X78547475Y-162004057D01*
X78553329Y-162005959D01*
X78757894Y-162030351D01*
X78764029Y-162029879D01*
X78764031Y-162029879D01*
X78836625Y-162024293D01*
X78963300Y-162014546D01*
X78969230Y-162012890D01*
X78969232Y-162012890D01*
X79155797Y-161960800D01*
X79155796Y-161960800D01*
X79161725Y-161959145D01*
X79167214Y-161956372D01*
X79167220Y-161956370D01*
X79340116Y-161869033D01*
X79345610Y-161866258D01*
X79507951Y-161739424D01*
X79642564Y-161583472D01*
X79663387Y-161546818D01*
X79741276Y-161409707D01*
X79744323Y-161404344D01*
X79809351Y-161208863D01*
X79835171Y-161004474D01*
X79835583Y-160975000D01*
X79834138Y-160960262D01*
X80264520Y-160960262D01*
X80265036Y-160966406D01*
X80281185Y-161158712D01*
X80281759Y-161165553D01*
X80283458Y-161171478D01*
X80330760Y-161336439D01*
X80338544Y-161363586D01*
X80341359Y-161369063D01*
X80341360Y-161369066D01*
X80362247Y-161409707D01*
X80432712Y-161546818D01*
X80560677Y-161708270D01*
X80717564Y-161841791D01*
X80897398Y-161942297D01*
X80981280Y-161969552D01*
X81087471Y-162004056D01*
X81087475Y-162004057D01*
X81093329Y-162005959D01*
X81297894Y-162030351D01*
X81304029Y-162029879D01*
X81304031Y-162029879D01*
X81376625Y-162024293D01*
X81503300Y-162014546D01*
X81509230Y-162012890D01*
X81509232Y-162012890D01*
X81695797Y-161960800D01*
X81695796Y-161960800D01*
X81701725Y-161959145D01*
X81707214Y-161956372D01*
X81707220Y-161956370D01*
X81880116Y-161869033D01*
X81885610Y-161866258D01*
X82047951Y-161739424D01*
X82182564Y-161583472D01*
X82203387Y-161546818D01*
X82281276Y-161409707D01*
X82284323Y-161404344D01*
X82349351Y-161208863D01*
X82375171Y-161004474D01*
X82375583Y-160975000D01*
X82374138Y-160960262D01*
X82804520Y-160960262D01*
X82805036Y-160966406D01*
X82821185Y-161158712D01*
X82821759Y-161165553D01*
X82823458Y-161171478D01*
X82870760Y-161336439D01*
X82878544Y-161363586D01*
X82881359Y-161369063D01*
X82881360Y-161369066D01*
X82902247Y-161409707D01*
X82972712Y-161546818D01*
X83100677Y-161708270D01*
X83257564Y-161841791D01*
X83437398Y-161942297D01*
X83521280Y-161969552D01*
X83627471Y-162004056D01*
X83627475Y-162004057D01*
X83633329Y-162005959D01*
X83837894Y-162030351D01*
X83844029Y-162029879D01*
X83844031Y-162029879D01*
X83916625Y-162024293D01*
X84043300Y-162014546D01*
X84049230Y-162012890D01*
X84049232Y-162012890D01*
X84235797Y-161960800D01*
X84235796Y-161960800D01*
X84241725Y-161959145D01*
X84247214Y-161956372D01*
X84247220Y-161956370D01*
X84420116Y-161869033D01*
X84425610Y-161866258D01*
X84587951Y-161739424D01*
X84722564Y-161583472D01*
X84743387Y-161546818D01*
X84821276Y-161409707D01*
X84824323Y-161404344D01*
X84889351Y-161208863D01*
X84915171Y-161004474D01*
X84915583Y-160975000D01*
X84914138Y-160960262D01*
X85344520Y-160960262D01*
X85345036Y-160966406D01*
X85361185Y-161158712D01*
X85361759Y-161165553D01*
X85363458Y-161171478D01*
X85410760Y-161336439D01*
X85418544Y-161363586D01*
X85421359Y-161369063D01*
X85421360Y-161369066D01*
X85442247Y-161409707D01*
X85512712Y-161546818D01*
X85640677Y-161708270D01*
X85797564Y-161841791D01*
X85977398Y-161942297D01*
X86061280Y-161969552D01*
X86167471Y-162004056D01*
X86167475Y-162004057D01*
X86173329Y-162005959D01*
X86377894Y-162030351D01*
X86384029Y-162029879D01*
X86384031Y-162029879D01*
X86456625Y-162024293D01*
X86583300Y-162014546D01*
X86589230Y-162012890D01*
X86589232Y-162012890D01*
X86775797Y-161960800D01*
X86775796Y-161960800D01*
X86781725Y-161959145D01*
X86787214Y-161956372D01*
X86787220Y-161956370D01*
X86960116Y-161869033D01*
X86965610Y-161866258D01*
X87127951Y-161739424D01*
X87262564Y-161583472D01*
X87283387Y-161546818D01*
X87361276Y-161409707D01*
X87364323Y-161404344D01*
X87429351Y-161208863D01*
X87455171Y-161004474D01*
X87455583Y-160975000D01*
X87454138Y-160960262D01*
X87884520Y-160960262D01*
X87885036Y-160966406D01*
X87901185Y-161158712D01*
X87901759Y-161165553D01*
X87903458Y-161171478D01*
X87950760Y-161336439D01*
X87958544Y-161363586D01*
X87961359Y-161369063D01*
X87961360Y-161369066D01*
X87982247Y-161409707D01*
X88052712Y-161546818D01*
X88180677Y-161708270D01*
X88337564Y-161841791D01*
X88517398Y-161942297D01*
X88601280Y-161969552D01*
X88707471Y-162004056D01*
X88707475Y-162004057D01*
X88713329Y-162005959D01*
X88917894Y-162030351D01*
X88924029Y-162029879D01*
X88924031Y-162029879D01*
X88996625Y-162024293D01*
X89123300Y-162014546D01*
X89129230Y-162012890D01*
X89129232Y-162012890D01*
X89315797Y-161960800D01*
X89315796Y-161960800D01*
X89321725Y-161959145D01*
X89327214Y-161956372D01*
X89327220Y-161956370D01*
X89500116Y-161869033D01*
X89505610Y-161866258D01*
X89667951Y-161739424D01*
X89802564Y-161583472D01*
X89823387Y-161546818D01*
X89901276Y-161409707D01*
X89904323Y-161404344D01*
X89969351Y-161208863D01*
X89995171Y-161004474D01*
X89995583Y-160975000D01*
X89994138Y-160960262D01*
X90424520Y-160960262D01*
X90425036Y-160966406D01*
X90441185Y-161158712D01*
X90441759Y-161165553D01*
X90443458Y-161171478D01*
X90490760Y-161336439D01*
X90498544Y-161363586D01*
X90501359Y-161369063D01*
X90501360Y-161369066D01*
X90522247Y-161409707D01*
X90592712Y-161546818D01*
X90720677Y-161708270D01*
X90877564Y-161841791D01*
X91057398Y-161942297D01*
X91141280Y-161969552D01*
X91247471Y-162004056D01*
X91247475Y-162004057D01*
X91253329Y-162005959D01*
X91457894Y-162030351D01*
X91464029Y-162029879D01*
X91464031Y-162029879D01*
X91536625Y-162024293D01*
X91663300Y-162014546D01*
X91669230Y-162012890D01*
X91669232Y-162012890D01*
X91855797Y-161960800D01*
X91855796Y-161960800D01*
X91861725Y-161959145D01*
X91867214Y-161956372D01*
X91867220Y-161956370D01*
X92040116Y-161869033D01*
X92045610Y-161866258D01*
X92207951Y-161739424D01*
X92342564Y-161583472D01*
X92363387Y-161546818D01*
X92441276Y-161409707D01*
X92444323Y-161404344D01*
X92509351Y-161208863D01*
X92535171Y-161004474D01*
X92535583Y-160975000D01*
X92534138Y-160960262D01*
X92964520Y-160960262D01*
X92965036Y-160966406D01*
X92981185Y-161158712D01*
X92981759Y-161165553D01*
X92983458Y-161171478D01*
X93030760Y-161336439D01*
X93038544Y-161363586D01*
X93041359Y-161369063D01*
X93041360Y-161369066D01*
X93062247Y-161409707D01*
X93132712Y-161546818D01*
X93260677Y-161708270D01*
X93417564Y-161841791D01*
X93597398Y-161942297D01*
X93681280Y-161969552D01*
X93787471Y-162004056D01*
X93787475Y-162004057D01*
X93793329Y-162005959D01*
X93997894Y-162030351D01*
X94004029Y-162029879D01*
X94004031Y-162029879D01*
X94076625Y-162024293D01*
X94203300Y-162014546D01*
X94209230Y-162012890D01*
X94209232Y-162012890D01*
X94395797Y-161960800D01*
X94395796Y-161960800D01*
X94401725Y-161959145D01*
X94407214Y-161956372D01*
X94407220Y-161956370D01*
X94580116Y-161869033D01*
X94585610Y-161866258D01*
X94747951Y-161739424D01*
X94882564Y-161583472D01*
X94903387Y-161546818D01*
X94981276Y-161409707D01*
X94984323Y-161404344D01*
X95049351Y-161208863D01*
X95075171Y-161004474D01*
X95075583Y-160975000D01*
X95055480Y-160769970D01*
X94995935Y-160572749D01*
X94899218Y-160390849D01*
X94824197Y-160298865D01*
X94772906Y-160235975D01*
X94772903Y-160235972D01*
X94769011Y-160231200D01*
X94751786Y-160216950D01*
X94615025Y-160103811D01*
X94615021Y-160103809D01*
X94610275Y-160099882D01*
X94429055Y-160001897D01*
X94232254Y-159940977D01*
X94226129Y-159940333D01*
X94226128Y-159940333D01*
X94033498Y-159920087D01*
X94033496Y-159920087D01*
X94027369Y-159919443D01*
X93940529Y-159927346D01*
X93828342Y-159937555D01*
X93828339Y-159937556D01*
X93822203Y-159938114D01*
X93624572Y-159996280D01*
X93442002Y-160091726D01*
X93437201Y-160095586D01*
X93437198Y-160095588D01*
X93380376Y-160141274D01*
X93281447Y-160220815D01*
X93149024Y-160378630D01*
X93146056Y-160384028D01*
X93146053Y-160384033D01*
X93118562Y-160434040D01*
X93049776Y-160559162D01*
X92987484Y-160755532D01*
X92986798Y-160761649D01*
X92986797Y-160761653D01*
X92965207Y-160954137D01*
X92964520Y-160960262D01*
X92534138Y-160960262D01*
X92515480Y-160769970D01*
X92455935Y-160572749D01*
X92359218Y-160390849D01*
X92284197Y-160298865D01*
X92232906Y-160235975D01*
X92232903Y-160235972D01*
X92229011Y-160231200D01*
X92211786Y-160216950D01*
X92075025Y-160103811D01*
X92075021Y-160103809D01*
X92070275Y-160099882D01*
X91889055Y-160001897D01*
X91692254Y-159940977D01*
X91686129Y-159940333D01*
X91686128Y-159940333D01*
X91493498Y-159920087D01*
X91493496Y-159920087D01*
X91487369Y-159919443D01*
X91400529Y-159927346D01*
X91288342Y-159937555D01*
X91288339Y-159937556D01*
X91282203Y-159938114D01*
X91084572Y-159996280D01*
X90902002Y-160091726D01*
X90897201Y-160095586D01*
X90897198Y-160095588D01*
X90840376Y-160141274D01*
X90741447Y-160220815D01*
X90609024Y-160378630D01*
X90606056Y-160384028D01*
X90606053Y-160384033D01*
X90578562Y-160434040D01*
X90509776Y-160559162D01*
X90447484Y-160755532D01*
X90446798Y-160761649D01*
X90446797Y-160761653D01*
X90425207Y-160954137D01*
X90424520Y-160960262D01*
X89994138Y-160960262D01*
X89975480Y-160769970D01*
X89915935Y-160572749D01*
X89819218Y-160390849D01*
X89744197Y-160298865D01*
X89692906Y-160235975D01*
X89692903Y-160235972D01*
X89689011Y-160231200D01*
X89671786Y-160216950D01*
X89535025Y-160103811D01*
X89535021Y-160103809D01*
X89530275Y-160099882D01*
X89349055Y-160001897D01*
X89152254Y-159940977D01*
X89146129Y-159940333D01*
X89146128Y-159940333D01*
X88953498Y-159920087D01*
X88953496Y-159920087D01*
X88947369Y-159919443D01*
X88860529Y-159927346D01*
X88748342Y-159937555D01*
X88748339Y-159937556D01*
X88742203Y-159938114D01*
X88544572Y-159996280D01*
X88362002Y-160091726D01*
X88357201Y-160095586D01*
X88357198Y-160095588D01*
X88300376Y-160141274D01*
X88201447Y-160220815D01*
X88069024Y-160378630D01*
X88066056Y-160384028D01*
X88066053Y-160384033D01*
X88038562Y-160434040D01*
X87969776Y-160559162D01*
X87907484Y-160755532D01*
X87906798Y-160761649D01*
X87906797Y-160761653D01*
X87885207Y-160954137D01*
X87884520Y-160960262D01*
X87454138Y-160960262D01*
X87435480Y-160769970D01*
X87375935Y-160572749D01*
X87279218Y-160390849D01*
X87204197Y-160298865D01*
X87152906Y-160235975D01*
X87152903Y-160235972D01*
X87149011Y-160231200D01*
X87131786Y-160216950D01*
X86995025Y-160103811D01*
X86995021Y-160103809D01*
X86990275Y-160099882D01*
X86809055Y-160001897D01*
X86612254Y-159940977D01*
X86606129Y-159940333D01*
X86606128Y-159940333D01*
X86413498Y-159920087D01*
X86413496Y-159920087D01*
X86407369Y-159919443D01*
X86320529Y-159927346D01*
X86208342Y-159937555D01*
X86208339Y-159937556D01*
X86202203Y-159938114D01*
X86004572Y-159996280D01*
X85822002Y-160091726D01*
X85817201Y-160095586D01*
X85817198Y-160095588D01*
X85760376Y-160141274D01*
X85661447Y-160220815D01*
X85529024Y-160378630D01*
X85526056Y-160384028D01*
X85526053Y-160384033D01*
X85498562Y-160434040D01*
X85429776Y-160559162D01*
X85367484Y-160755532D01*
X85366798Y-160761649D01*
X85366797Y-160761653D01*
X85345207Y-160954137D01*
X85344520Y-160960262D01*
X84914138Y-160960262D01*
X84895480Y-160769970D01*
X84835935Y-160572749D01*
X84739218Y-160390849D01*
X84664197Y-160298865D01*
X84612906Y-160235975D01*
X84612903Y-160235972D01*
X84609011Y-160231200D01*
X84591786Y-160216950D01*
X84455025Y-160103811D01*
X84455021Y-160103809D01*
X84450275Y-160099882D01*
X84269055Y-160001897D01*
X84072254Y-159940977D01*
X84066129Y-159940333D01*
X84066128Y-159940333D01*
X83873498Y-159920087D01*
X83873496Y-159920087D01*
X83867369Y-159919443D01*
X83780529Y-159927346D01*
X83668342Y-159937555D01*
X83668339Y-159937556D01*
X83662203Y-159938114D01*
X83464572Y-159996280D01*
X83282002Y-160091726D01*
X83277201Y-160095586D01*
X83277198Y-160095588D01*
X83220376Y-160141274D01*
X83121447Y-160220815D01*
X82989024Y-160378630D01*
X82986056Y-160384028D01*
X82986053Y-160384033D01*
X82958562Y-160434040D01*
X82889776Y-160559162D01*
X82827484Y-160755532D01*
X82826798Y-160761649D01*
X82826797Y-160761653D01*
X82805207Y-160954137D01*
X82804520Y-160960262D01*
X82374138Y-160960262D01*
X82355480Y-160769970D01*
X82295935Y-160572749D01*
X82199218Y-160390849D01*
X82124197Y-160298865D01*
X82072906Y-160235975D01*
X82072903Y-160235972D01*
X82069011Y-160231200D01*
X82051786Y-160216950D01*
X81915025Y-160103811D01*
X81915021Y-160103809D01*
X81910275Y-160099882D01*
X81729055Y-160001897D01*
X81532254Y-159940977D01*
X81526129Y-159940333D01*
X81526128Y-159940333D01*
X81333498Y-159920087D01*
X81333496Y-159920087D01*
X81327369Y-159919443D01*
X81240529Y-159927346D01*
X81128342Y-159937555D01*
X81128339Y-159937556D01*
X81122203Y-159938114D01*
X80924572Y-159996280D01*
X80742002Y-160091726D01*
X80737201Y-160095586D01*
X80737198Y-160095588D01*
X80680376Y-160141274D01*
X80581447Y-160220815D01*
X80449024Y-160378630D01*
X80446056Y-160384028D01*
X80446053Y-160384033D01*
X80418562Y-160434040D01*
X80349776Y-160559162D01*
X80287484Y-160755532D01*
X80286798Y-160761649D01*
X80286797Y-160761653D01*
X80265207Y-160954137D01*
X80264520Y-160960262D01*
X79834138Y-160960262D01*
X79815480Y-160769970D01*
X79755935Y-160572749D01*
X79659218Y-160390849D01*
X79584197Y-160298865D01*
X79532906Y-160235975D01*
X79532903Y-160235972D01*
X79529011Y-160231200D01*
X79511786Y-160216950D01*
X79375025Y-160103811D01*
X79375021Y-160103809D01*
X79370275Y-160099882D01*
X79189055Y-160001897D01*
X78992254Y-159940977D01*
X78986129Y-159940333D01*
X78986128Y-159940333D01*
X78793498Y-159920087D01*
X78793496Y-159920087D01*
X78787369Y-159919443D01*
X78700529Y-159927346D01*
X78588342Y-159937555D01*
X78588339Y-159937556D01*
X78582203Y-159938114D01*
X78384572Y-159996280D01*
X78202002Y-160091726D01*
X78197201Y-160095586D01*
X78197198Y-160095588D01*
X78140376Y-160141274D01*
X78041447Y-160220815D01*
X77909024Y-160378630D01*
X77906056Y-160384028D01*
X77906053Y-160384033D01*
X77878562Y-160434040D01*
X77809776Y-160559162D01*
X77747484Y-160755532D01*
X77746798Y-160761649D01*
X77746797Y-160761653D01*
X77725207Y-160954137D01*
X77724520Y-160960262D01*
X77294138Y-160960262D01*
X77275480Y-160769970D01*
X77215935Y-160572749D01*
X77119218Y-160390849D01*
X77044197Y-160298865D01*
X76992906Y-160235975D01*
X76992903Y-160235972D01*
X76989011Y-160231200D01*
X76971786Y-160216950D01*
X76835025Y-160103811D01*
X76835021Y-160103809D01*
X76830275Y-160099882D01*
X76649055Y-160001897D01*
X76452254Y-159940977D01*
X76446129Y-159940333D01*
X76446128Y-159940333D01*
X76253498Y-159920087D01*
X76253496Y-159920087D01*
X76247369Y-159919443D01*
X76160529Y-159927346D01*
X76048342Y-159937555D01*
X76048339Y-159937556D01*
X76042203Y-159938114D01*
X75844572Y-159996280D01*
X75662002Y-160091726D01*
X75657201Y-160095586D01*
X75657198Y-160095588D01*
X75600376Y-160141274D01*
X75501447Y-160220815D01*
X75369024Y-160378630D01*
X75366056Y-160384028D01*
X75366053Y-160384033D01*
X75338562Y-160434040D01*
X75269776Y-160559162D01*
X75207484Y-160755532D01*
X75206798Y-160761649D01*
X75206797Y-160761653D01*
X75185207Y-160954137D01*
X75184520Y-160960262D01*
X69674138Y-160960262D01*
X69655480Y-160769970D01*
X69595935Y-160572749D01*
X69499218Y-160390849D01*
X69424197Y-160298865D01*
X69372906Y-160235975D01*
X69372903Y-160235972D01*
X69369011Y-160231200D01*
X69351786Y-160216950D01*
X69215025Y-160103811D01*
X69215021Y-160103809D01*
X69210275Y-160099882D01*
X69029055Y-160001897D01*
X68832254Y-159940977D01*
X68826129Y-159940333D01*
X68826128Y-159940333D01*
X68633498Y-159920087D01*
X68633496Y-159920087D01*
X68627369Y-159919443D01*
X68540529Y-159927346D01*
X68428342Y-159937555D01*
X68428339Y-159937556D01*
X68422203Y-159938114D01*
X68224572Y-159996280D01*
X68042002Y-160091726D01*
X68037201Y-160095586D01*
X68037198Y-160095588D01*
X67980376Y-160141274D01*
X67881447Y-160220815D01*
X67749024Y-160378630D01*
X67746056Y-160384028D01*
X67746053Y-160384033D01*
X67718562Y-160434040D01*
X67649776Y-160559162D01*
X67587484Y-160755532D01*
X67586798Y-160761649D01*
X67586797Y-160761653D01*
X67565207Y-160954137D01*
X67564520Y-160960262D01*
X67134138Y-160960262D01*
X67115480Y-160769970D01*
X67055935Y-160572749D01*
X66959218Y-160390849D01*
X66884197Y-160298865D01*
X66832906Y-160235975D01*
X66832903Y-160235972D01*
X66829011Y-160231200D01*
X66811786Y-160216950D01*
X66675025Y-160103811D01*
X66675021Y-160103809D01*
X66670275Y-160099882D01*
X66489055Y-160001897D01*
X66292254Y-159940977D01*
X66286129Y-159940333D01*
X66286128Y-159940333D01*
X66093498Y-159920087D01*
X66093496Y-159920087D01*
X66087369Y-159919443D01*
X66000529Y-159927346D01*
X65888342Y-159937555D01*
X65888339Y-159937556D01*
X65882203Y-159938114D01*
X65684572Y-159996280D01*
X65502002Y-160091726D01*
X65497201Y-160095586D01*
X65497198Y-160095588D01*
X65440376Y-160141274D01*
X65341447Y-160220815D01*
X65209024Y-160378630D01*
X65206056Y-160384028D01*
X65206053Y-160384033D01*
X65178562Y-160434040D01*
X65109776Y-160559162D01*
X65047484Y-160755532D01*
X65046798Y-160761649D01*
X65046797Y-160761653D01*
X65025207Y-160954137D01*
X65024520Y-160960262D01*
X64594138Y-160960262D01*
X64575480Y-160769970D01*
X64515935Y-160572749D01*
X64419218Y-160390849D01*
X64344197Y-160298865D01*
X64292906Y-160235975D01*
X64292903Y-160235972D01*
X64289011Y-160231200D01*
X64271786Y-160216950D01*
X64135025Y-160103811D01*
X64135021Y-160103809D01*
X64130275Y-160099882D01*
X63949055Y-160001897D01*
X63752254Y-159940977D01*
X63746129Y-159940333D01*
X63746128Y-159940333D01*
X63553498Y-159920087D01*
X63553496Y-159920087D01*
X63547369Y-159919443D01*
X63460529Y-159927346D01*
X63348342Y-159937555D01*
X63348339Y-159937556D01*
X63342203Y-159938114D01*
X63144572Y-159996280D01*
X62962002Y-160091726D01*
X62957201Y-160095586D01*
X62957198Y-160095588D01*
X62900376Y-160141274D01*
X62801447Y-160220815D01*
X62669024Y-160378630D01*
X62666056Y-160384028D01*
X62666053Y-160384033D01*
X62638562Y-160434040D01*
X62569776Y-160559162D01*
X62507484Y-160755532D01*
X62506798Y-160761649D01*
X62506797Y-160761653D01*
X62485207Y-160954137D01*
X62484520Y-160960262D01*
X62050500Y-160960262D01*
X62050500Y-160105252D01*
X62038867Y-160046769D01*
X61994552Y-159980448D01*
X61928231Y-159936133D01*
X61916062Y-159933712D01*
X61916061Y-159933712D01*
X61875816Y-159925707D01*
X61869748Y-159924500D01*
X60130252Y-159924500D01*
X60124184Y-159925707D01*
X60083939Y-159933712D01*
X60083938Y-159933712D01*
X60071769Y-159936133D01*
X60005448Y-159980448D01*
X59961133Y-160046769D01*
X59949500Y-160105252D01*
X59949500Y-161844748D01*
X44000000Y-161844748D01*
X44000000Y-159069748D01*
X44549500Y-159069748D01*
X44550707Y-159075816D01*
X44555805Y-159101443D01*
X44561133Y-159128231D01*
X44605448Y-159194552D01*
X44671769Y-159238867D01*
X44683938Y-159241288D01*
X44683939Y-159241288D01*
X44711857Y-159246841D01*
X44730252Y-159250500D01*
X46469748Y-159250500D01*
X46488143Y-159246841D01*
X46516061Y-159241288D01*
X46516062Y-159241288D01*
X46528231Y-159238867D01*
X46594552Y-159194552D01*
X46638867Y-159128231D01*
X46644196Y-159101443D01*
X46649293Y-159075816D01*
X46650500Y-159069748D01*
X46650500Y-158185262D01*
X47084520Y-158185262D01*
X47085036Y-158191406D01*
X47096999Y-158333863D01*
X47101759Y-158390553D01*
X47103458Y-158396478D01*
X47141557Y-158529344D01*
X47158544Y-158588586D01*
X47161359Y-158594063D01*
X47161360Y-158594066D01*
X47249897Y-158766341D01*
X47252712Y-158771818D01*
X47380677Y-158933270D01*
X47385370Y-158937264D01*
X47385371Y-158937265D01*
X47459085Y-159000000D01*
X47537564Y-159066791D01*
X47542942Y-159069797D01*
X47542944Y-159069798D01*
X47574563Y-159087469D01*
X47717398Y-159167297D01*
X47801280Y-159194552D01*
X47907471Y-159229056D01*
X47907475Y-159229057D01*
X47913329Y-159230959D01*
X48117894Y-159255351D01*
X48124029Y-159254879D01*
X48124031Y-159254879D01*
X48196625Y-159249293D01*
X48323300Y-159239546D01*
X48329230Y-159237890D01*
X48329232Y-159237890D01*
X48515797Y-159185800D01*
X48515796Y-159185800D01*
X48521725Y-159184145D01*
X48527214Y-159181372D01*
X48527220Y-159181370D01*
X48700116Y-159094033D01*
X48705610Y-159091258D01*
X48714715Y-159084145D01*
X48816105Y-159004930D01*
X48867951Y-158964424D01*
X48894331Y-158933863D01*
X48998540Y-158813134D01*
X48998540Y-158813133D01*
X49002564Y-158808472D01*
X49023387Y-158771818D01*
X49049444Y-158725949D01*
X49104323Y-158629344D01*
X49169351Y-158433863D01*
X49195171Y-158229474D01*
X49195583Y-158200000D01*
X49194138Y-158185262D01*
X49624520Y-158185262D01*
X49625036Y-158191406D01*
X49636999Y-158333863D01*
X49641759Y-158390553D01*
X49643458Y-158396478D01*
X49681557Y-158529344D01*
X49698544Y-158588586D01*
X49701359Y-158594063D01*
X49701360Y-158594066D01*
X49789897Y-158766341D01*
X49792712Y-158771818D01*
X49920677Y-158933270D01*
X49925370Y-158937264D01*
X49925371Y-158937265D01*
X49999085Y-159000000D01*
X50077564Y-159066791D01*
X50082942Y-159069797D01*
X50082944Y-159069798D01*
X50114563Y-159087469D01*
X50257398Y-159167297D01*
X50341280Y-159194552D01*
X50447471Y-159229056D01*
X50447475Y-159229057D01*
X50453329Y-159230959D01*
X50657894Y-159255351D01*
X50664029Y-159254879D01*
X50664031Y-159254879D01*
X50736625Y-159249293D01*
X50863300Y-159239546D01*
X50869230Y-159237890D01*
X50869232Y-159237890D01*
X51055797Y-159185800D01*
X51055796Y-159185800D01*
X51061725Y-159184145D01*
X51067214Y-159181372D01*
X51067220Y-159181370D01*
X51240116Y-159094033D01*
X51245610Y-159091258D01*
X51254715Y-159084145D01*
X51356105Y-159004930D01*
X51407951Y-158964424D01*
X51434331Y-158933863D01*
X51538540Y-158813134D01*
X51538540Y-158813133D01*
X51542564Y-158808472D01*
X51563387Y-158771818D01*
X51589444Y-158725949D01*
X51644323Y-158629344D01*
X51709351Y-158433863D01*
X51735171Y-158229474D01*
X51735583Y-158200000D01*
X51734138Y-158185262D01*
X52164520Y-158185262D01*
X52165036Y-158191406D01*
X52176999Y-158333863D01*
X52181759Y-158390553D01*
X52183458Y-158396478D01*
X52221557Y-158529344D01*
X52238544Y-158588586D01*
X52241359Y-158594063D01*
X52241360Y-158594066D01*
X52329897Y-158766341D01*
X52332712Y-158771818D01*
X52460677Y-158933270D01*
X52465370Y-158937264D01*
X52465371Y-158937265D01*
X52539085Y-159000000D01*
X52617564Y-159066791D01*
X52622942Y-159069797D01*
X52622944Y-159069798D01*
X52654563Y-159087469D01*
X52797398Y-159167297D01*
X52881280Y-159194552D01*
X52987471Y-159229056D01*
X52987475Y-159229057D01*
X52993329Y-159230959D01*
X53197894Y-159255351D01*
X53204029Y-159254879D01*
X53204031Y-159254879D01*
X53276625Y-159249293D01*
X53403300Y-159239546D01*
X53409230Y-159237890D01*
X53409232Y-159237890D01*
X53595797Y-159185800D01*
X53595796Y-159185800D01*
X53601725Y-159184145D01*
X53607214Y-159181372D01*
X53607220Y-159181370D01*
X53780116Y-159094033D01*
X53785610Y-159091258D01*
X53794715Y-159084145D01*
X53896105Y-159004930D01*
X53947951Y-158964424D01*
X53974331Y-158933863D01*
X54078540Y-158813134D01*
X54078540Y-158813133D01*
X54082564Y-158808472D01*
X54103387Y-158771818D01*
X54129444Y-158725949D01*
X54184323Y-158629344D01*
X54249351Y-158433863D01*
X54275171Y-158229474D01*
X54275583Y-158200000D01*
X54264333Y-158085262D01*
X59924520Y-158085262D01*
X59927545Y-158121290D01*
X59939622Y-158265100D01*
X59941759Y-158290553D01*
X59943458Y-158296478D01*
X59996235Y-158480532D01*
X59998544Y-158488586D01*
X60001359Y-158494063D01*
X60001360Y-158494066D01*
X60089897Y-158666341D01*
X60092712Y-158671818D01*
X60220677Y-158833270D01*
X60225370Y-158837264D01*
X60225371Y-158837265D01*
X60369310Y-158959766D01*
X60377564Y-158966791D01*
X60382942Y-158969797D01*
X60382944Y-158969798D01*
X60465722Y-159016061D01*
X60557398Y-159067297D01*
X60619481Y-159087469D01*
X60747471Y-159129056D01*
X60747475Y-159129057D01*
X60753329Y-159130959D01*
X60957894Y-159155351D01*
X60964029Y-159154879D01*
X60964031Y-159154879D01*
X61036625Y-159149293D01*
X61163300Y-159139546D01*
X61169230Y-159137890D01*
X61169232Y-159137890D01*
X61345819Y-159088586D01*
X61361725Y-159084145D01*
X61367214Y-159081372D01*
X61367220Y-159081370D01*
X61518544Y-159004930D01*
X61545610Y-158991258D01*
X61575107Y-158968213D01*
X61626905Y-158927744D01*
X61707951Y-158864424D01*
X61808251Y-158748225D01*
X61838540Y-158713134D01*
X61838540Y-158713133D01*
X61842564Y-158708472D01*
X61849369Y-158696494D01*
X61941276Y-158534707D01*
X61944323Y-158529344D01*
X62009351Y-158333863D01*
X62035171Y-158129474D01*
X62035583Y-158100000D01*
X62034138Y-158085262D01*
X62464520Y-158085262D01*
X62467545Y-158121290D01*
X62479622Y-158265100D01*
X62481759Y-158290553D01*
X62483458Y-158296478D01*
X62536235Y-158480532D01*
X62538544Y-158488586D01*
X62541359Y-158494063D01*
X62541360Y-158494066D01*
X62629897Y-158666341D01*
X62632712Y-158671818D01*
X62760677Y-158833270D01*
X62765370Y-158837264D01*
X62765371Y-158837265D01*
X62909310Y-158959766D01*
X62917564Y-158966791D01*
X62922942Y-158969797D01*
X62922944Y-158969798D01*
X63005722Y-159016061D01*
X63097398Y-159067297D01*
X63159481Y-159087469D01*
X63287471Y-159129056D01*
X63287475Y-159129057D01*
X63293329Y-159130959D01*
X63497894Y-159155351D01*
X63504029Y-159154879D01*
X63504031Y-159154879D01*
X63576625Y-159149293D01*
X63703300Y-159139546D01*
X63709230Y-159137890D01*
X63709232Y-159137890D01*
X63885819Y-159088586D01*
X63901725Y-159084145D01*
X63907214Y-159081372D01*
X63907220Y-159081370D01*
X64058544Y-159004930D01*
X64085610Y-158991258D01*
X64115107Y-158968213D01*
X64166905Y-158927744D01*
X64247951Y-158864424D01*
X64348251Y-158748225D01*
X64378540Y-158713134D01*
X64378540Y-158713133D01*
X64382564Y-158708472D01*
X64389369Y-158696494D01*
X64481276Y-158534707D01*
X64484323Y-158529344D01*
X64549351Y-158333863D01*
X64575171Y-158129474D01*
X64575583Y-158100000D01*
X64574138Y-158085262D01*
X65004520Y-158085262D01*
X65007545Y-158121290D01*
X65019622Y-158265100D01*
X65021759Y-158290553D01*
X65023458Y-158296478D01*
X65076235Y-158480532D01*
X65078544Y-158488586D01*
X65081359Y-158494063D01*
X65081360Y-158494066D01*
X65169897Y-158666341D01*
X65172712Y-158671818D01*
X65300677Y-158833270D01*
X65305370Y-158837264D01*
X65305371Y-158837265D01*
X65449310Y-158959766D01*
X65457564Y-158966791D01*
X65462942Y-158969797D01*
X65462944Y-158969798D01*
X65545722Y-159016061D01*
X65637398Y-159067297D01*
X65699481Y-159087469D01*
X65827471Y-159129056D01*
X65827475Y-159129057D01*
X65833329Y-159130959D01*
X66037894Y-159155351D01*
X66044029Y-159154879D01*
X66044031Y-159154879D01*
X66116625Y-159149293D01*
X66243300Y-159139546D01*
X66249230Y-159137890D01*
X66249232Y-159137890D01*
X66425819Y-159088586D01*
X66441725Y-159084145D01*
X66447214Y-159081372D01*
X66447220Y-159081370D01*
X66598544Y-159004930D01*
X66625610Y-158991258D01*
X66655107Y-158968213D01*
X66706905Y-158927744D01*
X66787951Y-158864424D01*
X66888251Y-158748225D01*
X66918540Y-158713134D01*
X66918540Y-158713133D01*
X66922564Y-158708472D01*
X66929369Y-158696494D01*
X67021276Y-158534707D01*
X67024323Y-158529344D01*
X67089351Y-158333863D01*
X67115171Y-158129474D01*
X67115583Y-158100000D01*
X67114138Y-158085262D01*
X67544520Y-158085262D01*
X67547545Y-158121290D01*
X67559622Y-158265100D01*
X67561759Y-158290553D01*
X67563458Y-158296478D01*
X67616235Y-158480532D01*
X67618544Y-158488586D01*
X67621359Y-158494063D01*
X67621360Y-158494066D01*
X67709897Y-158666341D01*
X67712712Y-158671818D01*
X67840677Y-158833270D01*
X67845370Y-158837264D01*
X67845371Y-158837265D01*
X67989310Y-158959766D01*
X67997564Y-158966791D01*
X68002942Y-158969797D01*
X68002944Y-158969798D01*
X68085722Y-159016061D01*
X68177398Y-159067297D01*
X68239481Y-159087469D01*
X68367471Y-159129056D01*
X68367475Y-159129057D01*
X68373329Y-159130959D01*
X68577894Y-159155351D01*
X68584029Y-159154879D01*
X68584031Y-159154879D01*
X68656625Y-159149293D01*
X68783300Y-159139546D01*
X68789230Y-159137890D01*
X68789232Y-159137890D01*
X68965819Y-159088586D01*
X68981725Y-159084145D01*
X68987214Y-159081372D01*
X68987220Y-159081370D01*
X69138544Y-159004930D01*
X69165610Y-158991258D01*
X69195107Y-158968213D01*
X69246905Y-158927744D01*
X69327951Y-158864424D01*
X69428251Y-158748225D01*
X69458540Y-158713134D01*
X69458540Y-158713133D01*
X69462564Y-158708472D01*
X69469369Y-158696494D01*
X69561276Y-158534707D01*
X69564323Y-158529344D01*
X69629351Y-158333863D01*
X69655171Y-158129474D01*
X69655583Y-158100000D01*
X69654138Y-158085262D01*
X70084520Y-158085262D01*
X70087545Y-158121290D01*
X70099622Y-158265100D01*
X70101759Y-158290553D01*
X70103458Y-158296478D01*
X70156235Y-158480532D01*
X70158544Y-158488586D01*
X70161359Y-158494063D01*
X70161360Y-158494066D01*
X70249897Y-158666341D01*
X70252712Y-158671818D01*
X70380677Y-158833270D01*
X70385370Y-158837264D01*
X70385371Y-158837265D01*
X70529310Y-158959766D01*
X70537564Y-158966791D01*
X70542942Y-158969797D01*
X70542944Y-158969798D01*
X70625722Y-159016061D01*
X70717398Y-159067297D01*
X70779481Y-159087469D01*
X70907471Y-159129056D01*
X70907475Y-159129057D01*
X70913329Y-159130959D01*
X71117894Y-159155351D01*
X71124029Y-159154879D01*
X71124031Y-159154879D01*
X71196625Y-159149293D01*
X71323300Y-159139546D01*
X71329230Y-159137890D01*
X71329232Y-159137890D01*
X71505819Y-159088586D01*
X71521725Y-159084145D01*
X71527214Y-159081372D01*
X71527220Y-159081370D01*
X71678544Y-159004930D01*
X71705610Y-158991258D01*
X71735107Y-158968213D01*
X71786905Y-158927744D01*
X71867951Y-158864424D01*
X71968251Y-158748225D01*
X71998540Y-158713134D01*
X71998540Y-158713133D01*
X72002564Y-158708472D01*
X72009369Y-158696494D01*
X72101276Y-158534707D01*
X72104323Y-158529344D01*
X72169351Y-158333863D01*
X72195171Y-158129474D01*
X72195583Y-158100000D01*
X72194138Y-158085262D01*
X72624520Y-158085262D01*
X72627545Y-158121290D01*
X72639622Y-158265100D01*
X72641759Y-158290553D01*
X72643458Y-158296478D01*
X72696235Y-158480532D01*
X72698544Y-158488586D01*
X72701359Y-158494063D01*
X72701360Y-158494066D01*
X72789897Y-158666341D01*
X72792712Y-158671818D01*
X72920677Y-158833270D01*
X72925370Y-158837264D01*
X72925371Y-158837265D01*
X73069310Y-158959766D01*
X73077564Y-158966791D01*
X73082942Y-158969797D01*
X73082944Y-158969798D01*
X73165722Y-159016061D01*
X73257398Y-159067297D01*
X73319481Y-159087469D01*
X73447471Y-159129056D01*
X73447475Y-159129057D01*
X73453329Y-159130959D01*
X73657894Y-159155351D01*
X73664029Y-159154879D01*
X73664031Y-159154879D01*
X73736625Y-159149293D01*
X73863300Y-159139546D01*
X73869230Y-159137890D01*
X73869232Y-159137890D01*
X74045819Y-159088586D01*
X74061725Y-159084145D01*
X74067214Y-159081372D01*
X74067220Y-159081370D01*
X74218544Y-159004930D01*
X74245610Y-158991258D01*
X74275107Y-158968213D01*
X74326905Y-158927744D01*
X74407951Y-158864424D01*
X74508251Y-158748225D01*
X74538540Y-158713134D01*
X74538540Y-158713133D01*
X74542564Y-158708472D01*
X74549369Y-158696494D01*
X74641276Y-158534707D01*
X74644323Y-158529344D01*
X74709351Y-158333863D01*
X74735171Y-158129474D01*
X74735583Y-158100000D01*
X74734138Y-158085262D01*
X75164520Y-158085262D01*
X75167545Y-158121290D01*
X75179622Y-158265100D01*
X75181759Y-158290553D01*
X75183458Y-158296478D01*
X75236235Y-158480532D01*
X75238544Y-158488586D01*
X75241359Y-158494063D01*
X75241360Y-158494066D01*
X75329897Y-158666341D01*
X75332712Y-158671818D01*
X75460677Y-158833270D01*
X75465370Y-158837264D01*
X75465371Y-158837265D01*
X75609310Y-158959766D01*
X75617564Y-158966791D01*
X75622942Y-158969797D01*
X75622944Y-158969798D01*
X75705722Y-159016061D01*
X75797398Y-159067297D01*
X75859481Y-159087469D01*
X75987471Y-159129056D01*
X75987475Y-159129057D01*
X75993329Y-159130959D01*
X76197894Y-159155351D01*
X76204029Y-159154879D01*
X76204031Y-159154879D01*
X76276625Y-159149293D01*
X76403300Y-159139546D01*
X76409230Y-159137890D01*
X76409232Y-159137890D01*
X76585819Y-159088586D01*
X76601725Y-159084145D01*
X76607214Y-159081372D01*
X76607220Y-159081370D01*
X76758544Y-159004930D01*
X76785610Y-158991258D01*
X76815107Y-158968213D01*
X76866905Y-158927744D01*
X76947951Y-158864424D01*
X77048251Y-158748225D01*
X77078540Y-158713134D01*
X77078540Y-158713133D01*
X77082564Y-158708472D01*
X77089369Y-158696494D01*
X77181276Y-158534707D01*
X77184323Y-158529344D01*
X77249351Y-158333863D01*
X77275171Y-158129474D01*
X77275583Y-158100000D01*
X77274138Y-158085262D01*
X77704520Y-158085262D01*
X77707545Y-158121290D01*
X77719622Y-158265100D01*
X77721759Y-158290553D01*
X77723458Y-158296478D01*
X77776235Y-158480532D01*
X77778544Y-158488586D01*
X77781359Y-158494063D01*
X77781360Y-158494066D01*
X77869897Y-158666341D01*
X77872712Y-158671818D01*
X78000677Y-158833270D01*
X78005370Y-158837264D01*
X78005371Y-158837265D01*
X78149310Y-158959766D01*
X78157564Y-158966791D01*
X78162942Y-158969797D01*
X78162944Y-158969798D01*
X78245722Y-159016061D01*
X78337398Y-159067297D01*
X78399481Y-159087469D01*
X78527471Y-159129056D01*
X78527475Y-159129057D01*
X78533329Y-159130959D01*
X78737894Y-159155351D01*
X78744029Y-159154879D01*
X78744031Y-159154879D01*
X78816625Y-159149293D01*
X78943300Y-159139546D01*
X78949230Y-159137890D01*
X78949232Y-159137890D01*
X79125819Y-159088586D01*
X79141725Y-159084145D01*
X79147214Y-159081372D01*
X79147220Y-159081370D01*
X79298544Y-159004930D01*
X79325610Y-158991258D01*
X79355107Y-158968213D01*
X79406905Y-158927744D01*
X79487951Y-158864424D01*
X79588251Y-158748225D01*
X79618540Y-158713134D01*
X79618540Y-158713133D01*
X79622564Y-158708472D01*
X79629369Y-158696494D01*
X79721276Y-158534707D01*
X79724323Y-158529344D01*
X79789351Y-158333863D01*
X79815171Y-158129474D01*
X79815583Y-158100000D01*
X79814138Y-158085262D01*
X80244520Y-158085262D01*
X80247545Y-158121290D01*
X80259622Y-158265100D01*
X80261759Y-158290553D01*
X80263458Y-158296478D01*
X80316235Y-158480532D01*
X80318544Y-158488586D01*
X80321359Y-158494063D01*
X80321360Y-158494066D01*
X80409897Y-158666341D01*
X80412712Y-158671818D01*
X80540677Y-158833270D01*
X80545370Y-158837264D01*
X80545371Y-158837265D01*
X80689310Y-158959766D01*
X80697564Y-158966791D01*
X80702942Y-158969797D01*
X80702944Y-158969798D01*
X80785722Y-159016061D01*
X80877398Y-159067297D01*
X80939481Y-159087469D01*
X81067471Y-159129056D01*
X81067475Y-159129057D01*
X81073329Y-159130959D01*
X81277894Y-159155351D01*
X81284029Y-159154879D01*
X81284031Y-159154879D01*
X81356625Y-159149293D01*
X81483300Y-159139546D01*
X81489230Y-159137890D01*
X81489232Y-159137890D01*
X81665819Y-159088586D01*
X81681725Y-159084145D01*
X81687214Y-159081372D01*
X81687220Y-159081370D01*
X81838544Y-159004930D01*
X81865610Y-158991258D01*
X81895107Y-158968213D01*
X81946905Y-158927744D01*
X82027951Y-158864424D01*
X82128251Y-158748225D01*
X82158540Y-158713134D01*
X82158540Y-158713133D01*
X82162564Y-158708472D01*
X82169369Y-158696494D01*
X82261276Y-158534707D01*
X82264323Y-158529344D01*
X82329351Y-158333863D01*
X82355171Y-158129474D01*
X82355583Y-158100000D01*
X82354138Y-158085262D01*
X82784520Y-158085262D01*
X82787545Y-158121290D01*
X82799622Y-158265100D01*
X82801759Y-158290553D01*
X82803458Y-158296478D01*
X82856235Y-158480532D01*
X82858544Y-158488586D01*
X82861359Y-158494063D01*
X82861360Y-158494066D01*
X82949897Y-158666341D01*
X82952712Y-158671818D01*
X83080677Y-158833270D01*
X83085370Y-158837264D01*
X83085371Y-158837265D01*
X83229310Y-158959766D01*
X83237564Y-158966791D01*
X83242942Y-158969797D01*
X83242944Y-158969798D01*
X83325722Y-159016061D01*
X83417398Y-159067297D01*
X83479481Y-159087469D01*
X83607471Y-159129056D01*
X83607475Y-159129057D01*
X83613329Y-159130959D01*
X83817894Y-159155351D01*
X83824029Y-159154879D01*
X83824031Y-159154879D01*
X83896625Y-159149293D01*
X84023300Y-159139546D01*
X84029230Y-159137890D01*
X84029232Y-159137890D01*
X84205819Y-159088586D01*
X84221725Y-159084145D01*
X84227214Y-159081372D01*
X84227220Y-159081370D01*
X84378544Y-159004930D01*
X84405610Y-158991258D01*
X84435107Y-158968213D01*
X84486905Y-158927744D01*
X84567951Y-158864424D01*
X84668251Y-158748225D01*
X84698540Y-158713134D01*
X84698540Y-158713133D01*
X84702564Y-158708472D01*
X84709369Y-158696494D01*
X84801276Y-158534707D01*
X84804323Y-158529344D01*
X84869351Y-158333863D01*
X84895171Y-158129474D01*
X84895583Y-158100000D01*
X84894138Y-158085262D01*
X85324520Y-158085262D01*
X85327545Y-158121290D01*
X85339622Y-158265100D01*
X85341759Y-158290553D01*
X85343458Y-158296478D01*
X85396235Y-158480532D01*
X85398544Y-158488586D01*
X85401359Y-158494063D01*
X85401360Y-158494066D01*
X85489897Y-158666341D01*
X85492712Y-158671818D01*
X85620677Y-158833270D01*
X85625370Y-158837264D01*
X85625371Y-158837265D01*
X85769310Y-158959766D01*
X85777564Y-158966791D01*
X85782942Y-158969797D01*
X85782944Y-158969798D01*
X85865722Y-159016061D01*
X85957398Y-159067297D01*
X86019481Y-159087469D01*
X86147471Y-159129056D01*
X86147475Y-159129057D01*
X86153329Y-159130959D01*
X86357894Y-159155351D01*
X86364029Y-159154879D01*
X86364031Y-159154879D01*
X86436625Y-159149293D01*
X86563300Y-159139546D01*
X86569230Y-159137890D01*
X86569232Y-159137890D01*
X86745819Y-159088586D01*
X86761725Y-159084145D01*
X86767214Y-159081372D01*
X86767220Y-159081370D01*
X86918544Y-159004930D01*
X86945610Y-158991258D01*
X86975107Y-158968213D01*
X87026905Y-158927744D01*
X87107951Y-158864424D01*
X87208251Y-158748225D01*
X87238540Y-158713134D01*
X87238540Y-158713133D01*
X87242564Y-158708472D01*
X87249369Y-158696494D01*
X87341276Y-158534707D01*
X87344323Y-158529344D01*
X87409351Y-158333863D01*
X87435171Y-158129474D01*
X87435583Y-158100000D01*
X87434138Y-158085262D01*
X87864520Y-158085262D01*
X87867545Y-158121290D01*
X87879622Y-158265100D01*
X87881759Y-158290553D01*
X87883458Y-158296478D01*
X87936235Y-158480532D01*
X87938544Y-158488586D01*
X87941359Y-158494063D01*
X87941360Y-158494066D01*
X88029897Y-158666341D01*
X88032712Y-158671818D01*
X88160677Y-158833270D01*
X88165370Y-158837264D01*
X88165371Y-158837265D01*
X88309310Y-158959766D01*
X88317564Y-158966791D01*
X88322942Y-158969797D01*
X88322944Y-158969798D01*
X88405722Y-159016061D01*
X88497398Y-159067297D01*
X88559481Y-159087469D01*
X88687471Y-159129056D01*
X88687475Y-159129057D01*
X88693329Y-159130959D01*
X88897894Y-159155351D01*
X88904029Y-159154879D01*
X88904031Y-159154879D01*
X88976625Y-159149293D01*
X89103300Y-159139546D01*
X89109230Y-159137890D01*
X89109232Y-159137890D01*
X89285819Y-159088586D01*
X89301725Y-159084145D01*
X89307214Y-159081372D01*
X89307220Y-159081370D01*
X89458544Y-159004930D01*
X89485610Y-158991258D01*
X89515107Y-158968213D01*
X89566905Y-158927744D01*
X89647951Y-158864424D01*
X89748251Y-158748225D01*
X89778540Y-158713134D01*
X89778540Y-158713133D01*
X89782564Y-158708472D01*
X89789369Y-158696494D01*
X89881276Y-158534707D01*
X89884323Y-158529344D01*
X89949351Y-158333863D01*
X89975171Y-158129474D01*
X89975583Y-158100000D01*
X89974138Y-158085262D01*
X90404520Y-158085262D01*
X90407545Y-158121290D01*
X90419622Y-158265100D01*
X90421759Y-158290553D01*
X90423458Y-158296478D01*
X90476235Y-158480532D01*
X90478544Y-158488586D01*
X90481359Y-158494063D01*
X90481360Y-158494066D01*
X90569897Y-158666341D01*
X90572712Y-158671818D01*
X90700677Y-158833270D01*
X90705370Y-158837264D01*
X90705371Y-158837265D01*
X90849310Y-158959766D01*
X90857564Y-158966791D01*
X90862942Y-158969797D01*
X90862944Y-158969798D01*
X90945722Y-159016061D01*
X91037398Y-159067297D01*
X91099481Y-159087469D01*
X91227471Y-159129056D01*
X91227475Y-159129057D01*
X91233329Y-159130959D01*
X91437894Y-159155351D01*
X91444029Y-159154879D01*
X91444031Y-159154879D01*
X91516625Y-159149293D01*
X91643300Y-159139546D01*
X91649230Y-159137890D01*
X91649232Y-159137890D01*
X91825819Y-159088586D01*
X91841725Y-159084145D01*
X91847214Y-159081372D01*
X91847220Y-159081370D01*
X91998544Y-159004930D01*
X92025610Y-158991258D01*
X92055107Y-158968213D01*
X92106905Y-158927744D01*
X92187951Y-158864424D01*
X92288251Y-158748225D01*
X92318540Y-158713134D01*
X92318540Y-158713133D01*
X92322564Y-158708472D01*
X92329369Y-158696494D01*
X92421276Y-158534707D01*
X92424323Y-158529344D01*
X92489351Y-158333863D01*
X92515171Y-158129474D01*
X92515583Y-158100000D01*
X92495480Y-157894970D01*
X92435935Y-157697749D01*
X92339218Y-157515849D01*
X92241221Y-157395693D01*
X92212906Y-157360975D01*
X92212903Y-157360972D01*
X92209011Y-157356200D01*
X92185124Y-157336439D01*
X92055025Y-157228811D01*
X92055021Y-157228809D01*
X92050275Y-157224882D01*
X91913091Y-157150707D01*
X91874474Y-157129827D01*
X91869055Y-157126897D01*
X91672254Y-157065977D01*
X91666129Y-157065333D01*
X91666128Y-157065333D01*
X91473498Y-157045087D01*
X91473496Y-157045087D01*
X91467369Y-157044443D01*
X91380529Y-157052346D01*
X91268342Y-157062555D01*
X91268339Y-157062556D01*
X91262203Y-157063114D01*
X91064572Y-157121280D01*
X91059107Y-157124137D01*
X91008284Y-157150707D01*
X90882002Y-157216726D01*
X90877201Y-157220586D01*
X90877198Y-157220588D01*
X90733108Y-157336439D01*
X90721447Y-157345815D01*
X90589024Y-157503630D01*
X90586056Y-157509028D01*
X90586053Y-157509033D01*
X90501347Y-157663114D01*
X90489776Y-157684162D01*
X90427484Y-157880532D01*
X90426798Y-157886649D01*
X90426797Y-157886653D01*
X90415310Y-157989068D01*
X90404520Y-158085262D01*
X89974138Y-158085262D01*
X89955480Y-157894970D01*
X89895935Y-157697749D01*
X89799218Y-157515849D01*
X89701221Y-157395693D01*
X89672906Y-157360975D01*
X89672903Y-157360972D01*
X89669011Y-157356200D01*
X89645124Y-157336439D01*
X89515025Y-157228811D01*
X89515021Y-157228809D01*
X89510275Y-157224882D01*
X89373091Y-157150707D01*
X89334474Y-157129827D01*
X89329055Y-157126897D01*
X89132254Y-157065977D01*
X89126129Y-157065333D01*
X89126128Y-157065333D01*
X88933498Y-157045087D01*
X88933496Y-157045087D01*
X88927369Y-157044443D01*
X88840529Y-157052346D01*
X88728342Y-157062555D01*
X88728339Y-157062556D01*
X88722203Y-157063114D01*
X88524572Y-157121280D01*
X88519107Y-157124137D01*
X88468284Y-157150707D01*
X88342002Y-157216726D01*
X88337201Y-157220586D01*
X88337198Y-157220588D01*
X88193108Y-157336439D01*
X88181447Y-157345815D01*
X88049024Y-157503630D01*
X88046056Y-157509028D01*
X88046053Y-157509033D01*
X87961347Y-157663114D01*
X87949776Y-157684162D01*
X87887484Y-157880532D01*
X87886798Y-157886649D01*
X87886797Y-157886653D01*
X87875310Y-157989068D01*
X87864520Y-158085262D01*
X87434138Y-158085262D01*
X87415480Y-157894970D01*
X87355935Y-157697749D01*
X87259218Y-157515849D01*
X87161221Y-157395693D01*
X87132906Y-157360975D01*
X87132903Y-157360972D01*
X87129011Y-157356200D01*
X87105124Y-157336439D01*
X86975025Y-157228811D01*
X86975021Y-157228809D01*
X86970275Y-157224882D01*
X86833091Y-157150707D01*
X86794474Y-157129827D01*
X86789055Y-157126897D01*
X86592254Y-157065977D01*
X86586129Y-157065333D01*
X86586128Y-157065333D01*
X86393498Y-157045087D01*
X86393496Y-157045087D01*
X86387369Y-157044443D01*
X86300529Y-157052346D01*
X86188342Y-157062555D01*
X86188339Y-157062556D01*
X86182203Y-157063114D01*
X85984572Y-157121280D01*
X85979107Y-157124137D01*
X85928284Y-157150707D01*
X85802002Y-157216726D01*
X85797201Y-157220586D01*
X85797198Y-157220588D01*
X85653108Y-157336439D01*
X85641447Y-157345815D01*
X85509024Y-157503630D01*
X85506056Y-157509028D01*
X85506053Y-157509033D01*
X85421347Y-157663114D01*
X85409776Y-157684162D01*
X85347484Y-157880532D01*
X85346798Y-157886649D01*
X85346797Y-157886653D01*
X85335310Y-157989068D01*
X85324520Y-158085262D01*
X84894138Y-158085262D01*
X84875480Y-157894970D01*
X84815935Y-157697749D01*
X84719218Y-157515849D01*
X84621221Y-157395693D01*
X84592906Y-157360975D01*
X84592903Y-157360972D01*
X84589011Y-157356200D01*
X84565124Y-157336439D01*
X84435025Y-157228811D01*
X84435021Y-157228809D01*
X84430275Y-157224882D01*
X84293091Y-157150707D01*
X84254474Y-157129827D01*
X84249055Y-157126897D01*
X84052254Y-157065977D01*
X84046129Y-157065333D01*
X84046128Y-157065333D01*
X83853498Y-157045087D01*
X83853496Y-157045087D01*
X83847369Y-157044443D01*
X83760529Y-157052346D01*
X83648342Y-157062555D01*
X83648339Y-157062556D01*
X83642203Y-157063114D01*
X83444572Y-157121280D01*
X83439107Y-157124137D01*
X83388284Y-157150707D01*
X83262002Y-157216726D01*
X83257201Y-157220586D01*
X83257198Y-157220588D01*
X83113108Y-157336439D01*
X83101447Y-157345815D01*
X82969024Y-157503630D01*
X82966056Y-157509028D01*
X82966053Y-157509033D01*
X82881347Y-157663114D01*
X82869776Y-157684162D01*
X82807484Y-157880532D01*
X82806798Y-157886649D01*
X82806797Y-157886653D01*
X82795310Y-157989068D01*
X82784520Y-158085262D01*
X82354138Y-158085262D01*
X82335480Y-157894970D01*
X82275935Y-157697749D01*
X82179218Y-157515849D01*
X82081221Y-157395693D01*
X82052906Y-157360975D01*
X82052903Y-157360972D01*
X82049011Y-157356200D01*
X82025124Y-157336439D01*
X81895025Y-157228811D01*
X81895021Y-157228809D01*
X81890275Y-157224882D01*
X81753091Y-157150707D01*
X81714474Y-157129827D01*
X81709055Y-157126897D01*
X81512254Y-157065977D01*
X81506129Y-157065333D01*
X81506128Y-157065333D01*
X81313498Y-157045087D01*
X81313496Y-157045087D01*
X81307369Y-157044443D01*
X81220529Y-157052346D01*
X81108342Y-157062555D01*
X81108339Y-157062556D01*
X81102203Y-157063114D01*
X80904572Y-157121280D01*
X80899107Y-157124137D01*
X80848284Y-157150707D01*
X80722002Y-157216726D01*
X80717201Y-157220586D01*
X80717198Y-157220588D01*
X80573108Y-157336439D01*
X80561447Y-157345815D01*
X80429024Y-157503630D01*
X80426056Y-157509028D01*
X80426053Y-157509033D01*
X80341347Y-157663114D01*
X80329776Y-157684162D01*
X80267484Y-157880532D01*
X80266798Y-157886649D01*
X80266797Y-157886653D01*
X80255310Y-157989068D01*
X80244520Y-158085262D01*
X79814138Y-158085262D01*
X79795480Y-157894970D01*
X79735935Y-157697749D01*
X79639218Y-157515849D01*
X79541221Y-157395693D01*
X79512906Y-157360975D01*
X79512903Y-157360972D01*
X79509011Y-157356200D01*
X79485124Y-157336439D01*
X79355025Y-157228811D01*
X79355021Y-157228809D01*
X79350275Y-157224882D01*
X79213091Y-157150707D01*
X79174474Y-157129827D01*
X79169055Y-157126897D01*
X78972254Y-157065977D01*
X78966129Y-157065333D01*
X78966128Y-157065333D01*
X78773498Y-157045087D01*
X78773496Y-157045087D01*
X78767369Y-157044443D01*
X78680529Y-157052346D01*
X78568342Y-157062555D01*
X78568339Y-157062556D01*
X78562203Y-157063114D01*
X78364572Y-157121280D01*
X78359107Y-157124137D01*
X78308284Y-157150707D01*
X78182002Y-157216726D01*
X78177201Y-157220586D01*
X78177198Y-157220588D01*
X78033108Y-157336439D01*
X78021447Y-157345815D01*
X77889024Y-157503630D01*
X77886056Y-157509028D01*
X77886053Y-157509033D01*
X77801347Y-157663114D01*
X77789776Y-157684162D01*
X77727484Y-157880532D01*
X77726798Y-157886649D01*
X77726797Y-157886653D01*
X77715310Y-157989068D01*
X77704520Y-158085262D01*
X77274138Y-158085262D01*
X77255480Y-157894970D01*
X77195935Y-157697749D01*
X77099218Y-157515849D01*
X77001221Y-157395693D01*
X76972906Y-157360975D01*
X76972903Y-157360972D01*
X76969011Y-157356200D01*
X76945124Y-157336439D01*
X76815025Y-157228811D01*
X76815021Y-157228809D01*
X76810275Y-157224882D01*
X76673091Y-157150707D01*
X76634474Y-157129827D01*
X76629055Y-157126897D01*
X76432254Y-157065977D01*
X76426129Y-157065333D01*
X76426128Y-157065333D01*
X76233498Y-157045087D01*
X76233496Y-157045087D01*
X76227369Y-157044443D01*
X76140529Y-157052346D01*
X76028342Y-157062555D01*
X76028339Y-157062556D01*
X76022203Y-157063114D01*
X75824572Y-157121280D01*
X75819107Y-157124137D01*
X75768284Y-157150707D01*
X75642002Y-157216726D01*
X75637201Y-157220586D01*
X75637198Y-157220588D01*
X75493108Y-157336439D01*
X75481447Y-157345815D01*
X75349024Y-157503630D01*
X75346056Y-157509028D01*
X75346053Y-157509033D01*
X75261347Y-157663114D01*
X75249776Y-157684162D01*
X75187484Y-157880532D01*
X75186798Y-157886649D01*
X75186797Y-157886653D01*
X75175310Y-157989068D01*
X75164520Y-158085262D01*
X74734138Y-158085262D01*
X74715480Y-157894970D01*
X74655935Y-157697749D01*
X74559218Y-157515849D01*
X74461221Y-157395693D01*
X74432906Y-157360975D01*
X74432903Y-157360972D01*
X74429011Y-157356200D01*
X74405124Y-157336439D01*
X74275025Y-157228811D01*
X74275021Y-157228809D01*
X74270275Y-157224882D01*
X74133091Y-157150707D01*
X74094474Y-157129827D01*
X74089055Y-157126897D01*
X73892254Y-157065977D01*
X73886129Y-157065333D01*
X73886128Y-157065333D01*
X73693498Y-157045087D01*
X73693496Y-157045087D01*
X73687369Y-157044443D01*
X73600529Y-157052346D01*
X73488342Y-157062555D01*
X73488339Y-157062556D01*
X73482203Y-157063114D01*
X73284572Y-157121280D01*
X73279107Y-157124137D01*
X73228284Y-157150707D01*
X73102002Y-157216726D01*
X73097201Y-157220586D01*
X73097198Y-157220588D01*
X72953108Y-157336439D01*
X72941447Y-157345815D01*
X72809024Y-157503630D01*
X72806056Y-157509028D01*
X72806053Y-157509033D01*
X72721347Y-157663114D01*
X72709776Y-157684162D01*
X72647484Y-157880532D01*
X72646798Y-157886649D01*
X72646797Y-157886653D01*
X72635310Y-157989068D01*
X72624520Y-158085262D01*
X72194138Y-158085262D01*
X72175480Y-157894970D01*
X72115935Y-157697749D01*
X72019218Y-157515849D01*
X71921221Y-157395693D01*
X71892906Y-157360975D01*
X71892903Y-157360972D01*
X71889011Y-157356200D01*
X71865124Y-157336439D01*
X71735025Y-157228811D01*
X71735021Y-157228809D01*
X71730275Y-157224882D01*
X71593091Y-157150707D01*
X71554474Y-157129827D01*
X71549055Y-157126897D01*
X71352254Y-157065977D01*
X71346129Y-157065333D01*
X71346128Y-157065333D01*
X71153498Y-157045087D01*
X71153496Y-157045087D01*
X71147369Y-157044443D01*
X71060529Y-157052346D01*
X70948342Y-157062555D01*
X70948339Y-157062556D01*
X70942203Y-157063114D01*
X70744572Y-157121280D01*
X70739107Y-157124137D01*
X70688284Y-157150707D01*
X70562002Y-157216726D01*
X70557201Y-157220586D01*
X70557198Y-157220588D01*
X70413108Y-157336439D01*
X70401447Y-157345815D01*
X70269024Y-157503630D01*
X70266056Y-157509028D01*
X70266053Y-157509033D01*
X70181347Y-157663114D01*
X70169776Y-157684162D01*
X70107484Y-157880532D01*
X70106798Y-157886649D01*
X70106797Y-157886653D01*
X70095310Y-157989068D01*
X70084520Y-158085262D01*
X69654138Y-158085262D01*
X69635480Y-157894970D01*
X69575935Y-157697749D01*
X69479218Y-157515849D01*
X69381221Y-157395693D01*
X69352906Y-157360975D01*
X69352903Y-157360972D01*
X69349011Y-157356200D01*
X69325124Y-157336439D01*
X69195025Y-157228811D01*
X69195021Y-157228809D01*
X69190275Y-157224882D01*
X69053091Y-157150707D01*
X69014474Y-157129827D01*
X69009055Y-157126897D01*
X68812254Y-157065977D01*
X68806129Y-157065333D01*
X68806128Y-157065333D01*
X68613498Y-157045087D01*
X68613496Y-157045087D01*
X68607369Y-157044443D01*
X68520529Y-157052346D01*
X68408342Y-157062555D01*
X68408339Y-157062556D01*
X68402203Y-157063114D01*
X68204572Y-157121280D01*
X68199107Y-157124137D01*
X68148284Y-157150707D01*
X68022002Y-157216726D01*
X68017201Y-157220586D01*
X68017198Y-157220588D01*
X67873108Y-157336439D01*
X67861447Y-157345815D01*
X67729024Y-157503630D01*
X67726056Y-157509028D01*
X67726053Y-157509033D01*
X67641347Y-157663114D01*
X67629776Y-157684162D01*
X67567484Y-157880532D01*
X67566798Y-157886649D01*
X67566797Y-157886653D01*
X67555310Y-157989068D01*
X67544520Y-158085262D01*
X67114138Y-158085262D01*
X67095480Y-157894970D01*
X67035935Y-157697749D01*
X66939218Y-157515849D01*
X66841221Y-157395693D01*
X66812906Y-157360975D01*
X66812903Y-157360972D01*
X66809011Y-157356200D01*
X66785124Y-157336439D01*
X66655025Y-157228811D01*
X66655021Y-157228809D01*
X66650275Y-157224882D01*
X66513091Y-157150707D01*
X66474474Y-157129827D01*
X66469055Y-157126897D01*
X66272254Y-157065977D01*
X66266129Y-157065333D01*
X66266128Y-157065333D01*
X66073498Y-157045087D01*
X66073496Y-157045087D01*
X66067369Y-157044443D01*
X65980529Y-157052346D01*
X65868342Y-157062555D01*
X65868339Y-157062556D01*
X65862203Y-157063114D01*
X65664572Y-157121280D01*
X65659107Y-157124137D01*
X65608284Y-157150707D01*
X65482002Y-157216726D01*
X65477201Y-157220586D01*
X65477198Y-157220588D01*
X65333108Y-157336439D01*
X65321447Y-157345815D01*
X65189024Y-157503630D01*
X65186056Y-157509028D01*
X65186053Y-157509033D01*
X65101347Y-157663114D01*
X65089776Y-157684162D01*
X65027484Y-157880532D01*
X65026798Y-157886649D01*
X65026797Y-157886653D01*
X65015310Y-157989068D01*
X65004520Y-158085262D01*
X64574138Y-158085262D01*
X64555480Y-157894970D01*
X64495935Y-157697749D01*
X64399218Y-157515849D01*
X64301221Y-157395693D01*
X64272906Y-157360975D01*
X64272903Y-157360972D01*
X64269011Y-157356200D01*
X64245124Y-157336439D01*
X64115025Y-157228811D01*
X64115021Y-157228809D01*
X64110275Y-157224882D01*
X63973091Y-157150707D01*
X63934474Y-157129827D01*
X63929055Y-157126897D01*
X63732254Y-157065977D01*
X63726129Y-157065333D01*
X63726128Y-157065333D01*
X63533498Y-157045087D01*
X63533496Y-157045087D01*
X63527369Y-157044443D01*
X63440529Y-157052346D01*
X63328342Y-157062555D01*
X63328339Y-157062556D01*
X63322203Y-157063114D01*
X63124572Y-157121280D01*
X63119107Y-157124137D01*
X63068284Y-157150707D01*
X62942002Y-157216726D01*
X62937201Y-157220586D01*
X62937198Y-157220588D01*
X62793108Y-157336439D01*
X62781447Y-157345815D01*
X62649024Y-157503630D01*
X62646056Y-157509028D01*
X62646053Y-157509033D01*
X62561347Y-157663114D01*
X62549776Y-157684162D01*
X62487484Y-157880532D01*
X62486798Y-157886649D01*
X62486797Y-157886653D01*
X62475310Y-157989068D01*
X62464520Y-158085262D01*
X62034138Y-158085262D01*
X62015480Y-157894970D01*
X61955935Y-157697749D01*
X61859218Y-157515849D01*
X61761221Y-157395693D01*
X61732906Y-157360975D01*
X61732903Y-157360972D01*
X61729011Y-157356200D01*
X61705124Y-157336439D01*
X61575025Y-157228811D01*
X61575021Y-157228809D01*
X61570275Y-157224882D01*
X61433091Y-157150707D01*
X61394474Y-157129827D01*
X61389055Y-157126897D01*
X61192254Y-157065977D01*
X61186129Y-157065333D01*
X61186128Y-157065333D01*
X60993498Y-157045087D01*
X60993496Y-157045087D01*
X60987369Y-157044443D01*
X60900529Y-157052346D01*
X60788342Y-157062555D01*
X60788339Y-157062556D01*
X60782203Y-157063114D01*
X60584572Y-157121280D01*
X60579107Y-157124137D01*
X60528284Y-157150707D01*
X60402002Y-157216726D01*
X60397201Y-157220586D01*
X60397198Y-157220588D01*
X60253108Y-157336439D01*
X60241447Y-157345815D01*
X60109024Y-157503630D01*
X60106056Y-157509028D01*
X60106053Y-157509033D01*
X60021347Y-157663114D01*
X60009776Y-157684162D01*
X59947484Y-157880532D01*
X59946798Y-157886649D01*
X59946797Y-157886653D01*
X59935310Y-157989068D01*
X59924520Y-158085262D01*
X54264333Y-158085262D01*
X54255480Y-157994970D01*
X54195935Y-157797749D01*
X54099218Y-157615849D01*
X54017660Y-157515849D01*
X53972906Y-157460975D01*
X53972903Y-157460972D01*
X53969011Y-157456200D01*
X53951786Y-157441950D01*
X53815025Y-157328811D01*
X53815021Y-157328809D01*
X53810275Y-157324882D01*
X53629055Y-157226897D01*
X53432254Y-157165977D01*
X53426129Y-157165333D01*
X53426128Y-157165333D01*
X53233498Y-157145087D01*
X53233496Y-157145087D01*
X53227369Y-157144443D01*
X53140529Y-157152346D01*
X53028342Y-157162555D01*
X53028339Y-157162556D01*
X53022203Y-157163114D01*
X52824572Y-157221280D01*
X52642002Y-157316726D01*
X52637201Y-157320586D01*
X52637198Y-157320588D01*
X52592906Y-157356200D01*
X52481447Y-157445815D01*
X52349024Y-157603630D01*
X52346056Y-157609028D01*
X52346053Y-157609033D01*
X52279647Y-157729827D01*
X52249776Y-157784162D01*
X52187484Y-157980532D01*
X52186798Y-157986649D01*
X52186797Y-157986653D01*
X52165207Y-158179137D01*
X52164520Y-158185262D01*
X51734138Y-158185262D01*
X51715480Y-157994970D01*
X51655935Y-157797749D01*
X51559218Y-157615849D01*
X51477660Y-157515849D01*
X51432906Y-157460975D01*
X51432903Y-157460972D01*
X51429011Y-157456200D01*
X51411786Y-157441950D01*
X51275025Y-157328811D01*
X51275021Y-157328809D01*
X51270275Y-157324882D01*
X51089055Y-157226897D01*
X50892254Y-157165977D01*
X50886129Y-157165333D01*
X50886128Y-157165333D01*
X50693498Y-157145087D01*
X50693496Y-157145087D01*
X50687369Y-157144443D01*
X50600529Y-157152346D01*
X50488342Y-157162555D01*
X50488339Y-157162556D01*
X50482203Y-157163114D01*
X50284572Y-157221280D01*
X50102002Y-157316726D01*
X50097201Y-157320586D01*
X50097198Y-157320588D01*
X50052906Y-157356200D01*
X49941447Y-157445815D01*
X49809024Y-157603630D01*
X49806056Y-157609028D01*
X49806053Y-157609033D01*
X49739647Y-157729827D01*
X49709776Y-157784162D01*
X49647484Y-157980532D01*
X49646798Y-157986649D01*
X49646797Y-157986653D01*
X49625207Y-158179137D01*
X49624520Y-158185262D01*
X49194138Y-158185262D01*
X49175480Y-157994970D01*
X49115935Y-157797749D01*
X49019218Y-157615849D01*
X48937660Y-157515849D01*
X48892906Y-157460975D01*
X48892903Y-157460972D01*
X48889011Y-157456200D01*
X48871786Y-157441950D01*
X48735025Y-157328811D01*
X48735021Y-157328809D01*
X48730275Y-157324882D01*
X48549055Y-157226897D01*
X48352254Y-157165977D01*
X48346129Y-157165333D01*
X48346128Y-157165333D01*
X48153498Y-157145087D01*
X48153496Y-157145087D01*
X48147369Y-157144443D01*
X48060529Y-157152346D01*
X47948342Y-157162555D01*
X47948339Y-157162556D01*
X47942203Y-157163114D01*
X47744572Y-157221280D01*
X47562002Y-157316726D01*
X47557201Y-157320586D01*
X47557198Y-157320588D01*
X47512906Y-157356200D01*
X47401447Y-157445815D01*
X47269024Y-157603630D01*
X47266056Y-157609028D01*
X47266053Y-157609033D01*
X47199647Y-157729827D01*
X47169776Y-157784162D01*
X47107484Y-157980532D01*
X47106798Y-157986649D01*
X47106797Y-157986653D01*
X47085207Y-158179137D01*
X47084520Y-158185262D01*
X46650500Y-158185262D01*
X46650500Y-157330252D01*
X46638867Y-157271769D01*
X46594552Y-157205448D01*
X46528231Y-157161133D01*
X46516062Y-157158712D01*
X46516061Y-157158712D01*
X46475816Y-157150707D01*
X46469748Y-157149500D01*
X44730252Y-157149500D01*
X44724184Y-157150707D01*
X44683939Y-157158712D01*
X44683938Y-157158712D01*
X44671769Y-157161133D01*
X44605448Y-157205448D01*
X44561133Y-157271769D01*
X44549500Y-157330252D01*
X44549500Y-159069748D01*
X44000000Y-159069748D01*
X44000000Y-154852271D01*
X44020002Y-154784150D01*
X44037001Y-154763080D01*
X44762885Y-154038760D01*
X44825234Y-154004802D01*
X44852432Y-154001952D01*
X46622938Y-154009650D01*
G37*
%TD.AperFunction*%
%TD*%
%TA.AperFunction,Conductor*%
%TO.N,Phase_Boost*%
G36*
X17482349Y-140791175D02*
G01*
X17571504Y-140835752D01*
X17700000Y-140900000D01*
X19379553Y-140900000D01*
X19419398Y-140906466D01*
X19613845Y-140971282D01*
X19672145Y-141011799D01*
X19699284Y-141077404D01*
X19700000Y-141090816D01*
X19700000Y-145800000D01*
X20300000Y-146400000D01*
X21664791Y-146400000D01*
X21667102Y-146400021D01*
X21762499Y-146401770D01*
X21767448Y-146400421D01*
X21774231Y-146400000D01*
X23700000Y-146400000D01*
X24200000Y-145900000D01*
X24200000Y-141031701D01*
X24220002Y-140963580D01*
X24273658Y-140917087D01*
X24331571Y-140905824D01*
X24586040Y-140917087D01*
X24657907Y-140920268D01*
X24659606Y-140920251D01*
X24659618Y-140920251D01*
X26657315Y-140900006D01*
X26658592Y-140900000D01*
X27074000Y-140900000D01*
X27142121Y-140920002D01*
X27188614Y-140973658D01*
X27200000Y-141026000D01*
X27200000Y-148347810D01*
X27179998Y-148415931D01*
X27163095Y-148436905D01*
X26636905Y-148963095D01*
X26574593Y-148997121D01*
X26547810Y-149000000D01*
X24700000Y-149000000D01*
X24400000Y-149300000D01*
X24400000Y-150147810D01*
X24379998Y-150215931D01*
X24363095Y-150236905D01*
X24236905Y-150363095D01*
X24174593Y-150397121D01*
X24147810Y-150400000D01*
X23840406Y-150400000D01*
X23771875Y-150379733D01*
X23712095Y-150340985D01*
X23574739Y-150299907D01*
X23565763Y-150299852D01*
X23565762Y-150299852D01*
X23505555Y-150299484D01*
X23431376Y-150299031D01*
X23293529Y-150338428D01*
X23254434Y-150363095D01*
X23226750Y-150380562D01*
X23159515Y-150400000D01*
X23100000Y-150400000D01*
X23092782Y-150410827D01*
X23092781Y-150410828D01*
X22910348Y-150684477D01*
X22910347Y-150684479D01*
X22900000Y-150700000D01*
X22900000Y-150994556D01*
X22891089Y-151039352D01*
X22886133Y-151046769D01*
X22874500Y-151105252D01*
X22874500Y-151894748D01*
X22886133Y-151953231D01*
X22930448Y-152019552D01*
X22940761Y-152026443D01*
X22940762Y-152026444D01*
X22946729Y-152030431D01*
X22989422Y-152078844D01*
X23000000Y-152100000D01*
X24147810Y-152100000D01*
X24215931Y-152120002D01*
X24236905Y-152136905D01*
X24363095Y-152263095D01*
X24397121Y-152325407D01*
X24400000Y-152352190D01*
X24400000Y-153647810D01*
X24379998Y-153715931D01*
X24363095Y-153736905D01*
X24136905Y-153963095D01*
X24074593Y-153997121D01*
X24047810Y-154000000D01*
X19963000Y-154000000D01*
X19894879Y-153979998D01*
X19862200Y-153949600D01*
X19625200Y-153633600D01*
X19600329Y-153567102D01*
X19600000Y-153558000D01*
X19600000Y-149400000D01*
X19200000Y-149000000D01*
X17752190Y-149000000D01*
X17684069Y-148979998D01*
X17663095Y-148963095D01*
X17336905Y-148636905D01*
X17302879Y-148574593D01*
X17300000Y-148547810D01*
X17300000Y-140903873D01*
X17320002Y-140835752D01*
X17373658Y-140789259D01*
X17443932Y-140779155D01*
X17482349Y-140791175D01*
G37*
%TD.AperFunction*%
%TD*%
%TA.AperFunction,Conductor*%
%TO.N,VCC*%
G36*
X19015931Y-149120002D02*
G01*
X19036905Y-149136905D01*
X19363095Y-149463095D01*
X19397121Y-149525407D01*
X19400000Y-149552190D01*
X19400000Y-153800000D01*
X19900000Y-154300000D01*
X24100000Y-154300000D01*
X24600000Y-153800000D01*
X24600000Y-149552190D01*
X24620002Y-149484069D01*
X24636905Y-149463095D01*
X24863095Y-149236905D01*
X24925407Y-149202879D01*
X24952190Y-149200000D01*
X26047810Y-149200000D01*
X26115931Y-149220002D01*
X26136905Y-149236905D01*
X26463095Y-149563095D01*
X26497121Y-149625407D01*
X26500000Y-149652190D01*
X26500000Y-150300000D01*
X27100000Y-150900000D01*
X37647810Y-150900000D01*
X37715931Y-150920002D01*
X37736905Y-150936905D01*
X38263095Y-151463095D01*
X38297121Y-151525407D01*
X38300000Y-151552190D01*
X38300000Y-162922128D01*
X38279998Y-162990249D01*
X38230350Y-163034825D01*
X36926604Y-163686698D01*
X36870255Y-163700000D01*
X18257952Y-163700000D01*
X18189831Y-163679998D01*
X18162286Y-163656000D01*
X17684502Y-163098586D01*
X17630334Y-163035389D01*
X17601188Y-162970651D01*
X17600000Y-162953390D01*
X17600000Y-161768440D01*
X21094770Y-161768440D01*
X21109200Y-161988604D01*
X21110621Y-161994200D01*
X21110622Y-161994205D01*
X21162090Y-162196857D01*
X21163511Y-162202452D01*
X21165928Y-162207694D01*
X21165928Y-162207695D01*
X21202452Y-162286921D01*
X21255883Y-162402821D01*
X21383222Y-162583002D01*
X21541264Y-162736961D01*
X21546060Y-162740166D01*
X21546063Y-162740168D01*
X21630261Y-162796427D01*
X21724717Y-162859540D01*
X21730020Y-162861818D01*
X21730023Y-162861820D01*
X21922129Y-162944355D01*
X21927436Y-162946635D01*
X22007088Y-162964658D01*
X22136995Y-162994054D01*
X22137001Y-162994055D01*
X22142632Y-162995329D01*
X22148403Y-162995556D01*
X22148405Y-162995556D01*
X22216211Y-162998220D01*
X22363098Y-163003991D01*
X22472275Y-162988161D01*
X22575738Y-162973160D01*
X22575743Y-162973159D01*
X22581452Y-162972331D01*
X22586916Y-162970476D01*
X22586921Y-162970475D01*
X22784907Y-162903268D01*
X22784912Y-162903266D01*
X22790379Y-162901410D01*
X22982884Y-162793602D01*
X22990788Y-162787029D01*
X23148086Y-162656204D01*
X23152518Y-162652518D01*
X23214256Y-162578287D01*
X23289908Y-162487326D01*
X23289910Y-162487323D01*
X23293602Y-162482884D01*
X23401410Y-162290379D01*
X23403266Y-162284912D01*
X23403268Y-162284907D01*
X23470475Y-162086921D01*
X23470476Y-162086916D01*
X23472331Y-162081452D01*
X23473159Y-162075743D01*
X23473160Y-162075738D01*
X23488717Y-161968440D01*
X29162447Y-161968440D01*
X29176877Y-162188604D01*
X29178298Y-162194200D01*
X29178299Y-162194205D01*
X29229767Y-162396857D01*
X29231188Y-162402452D01*
X29233605Y-162407694D01*
X29233605Y-162407695D01*
X29270316Y-162487326D01*
X29323560Y-162602821D01*
X29450899Y-162783002D01*
X29608941Y-162936961D01*
X29613737Y-162940166D01*
X29613740Y-162940168D01*
X29694387Y-162994054D01*
X29792394Y-163059540D01*
X29797697Y-163061818D01*
X29797700Y-163061820D01*
X29989806Y-163144355D01*
X29995113Y-163146635D01*
X30074765Y-163164658D01*
X30204672Y-163194054D01*
X30204678Y-163194055D01*
X30210309Y-163195329D01*
X30216080Y-163195556D01*
X30216082Y-163195556D01*
X30283888Y-163198220D01*
X30430775Y-163203991D01*
X30539952Y-163188161D01*
X30643415Y-163173160D01*
X30643420Y-163173159D01*
X30649129Y-163172331D01*
X30654593Y-163170476D01*
X30654598Y-163170475D01*
X30852584Y-163103268D01*
X30852589Y-163103266D01*
X30858056Y-163101410D01*
X31050561Y-162993602D01*
X31076137Y-162972331D01*
X31215763Y-162856204D01*
X31220195Y-162852518D01*
X31313636Y-162740168D01*
X31357585Y-162687326D01*
X31357587Y-162687323D01*
X31361279Y-162682884D01*
X31469087Y-162490379D01*
X31470943Y-162484912D01*
X31470945Y-162484907D01*
X31538152Y-162286921D01*
X31538153Y-162286916D01*
X31540008Y-162281452D01*
X31540836Y-162275743D01*
X31540837Y-162275738D01*
X31571135Y-162066772D01*
X31571668Y-162063098D01*
X31573320Y-162000000D01*
X31553131Y-161780289D01*
X31551416Y-161774206D01*
X31496726Y-161580289D01*
X31493242Y-161567936D01*
X31395657Y-161370053D01*
X31368365Y-161333504D01*
X31267097Y-161197891D01*
X31267097Y-161197890D01*
X31263644Y-161193267D01*
X31101626Y-161043499D01*
X30915027Y-160925764D01*
X30710098Y-160844006D01*
X30704438Y-160842880D01*
X30704434Y-160842879D01*
X30499368Y-160802089D01*
X30499365Y-160802089D01*
X30493701Y-160800962D01*
X30487926Y-160800886D01*
X30487922Y-160800886D01*
X30377181Y-160799437D01*
X30273083Y-160798074D01*
X30267386Y-160799053D01*
X30267385Y-160799053D01*
X30061331Y-160834459D01*
X30061330Y-160834459D01*
X30055634Y-160835438D01*
X29848634Y-160911804D01*
X29843673Y-160914756D01*
X29843672Y-160914756D01*
X29718290Y-160989351D01*
X29659018Y-161024614D01*
X29493134Y-161170090D01*
X29356540Y-161343360D01*
X29253808Y-161538620D01*
X29188380Y-161749333D01*
X29162447Y-161968440D01*
X23488717Y-161968440D01*
X23503458Y-161866772D01*
X23503991Y-161863098D01*
X23505643Y-161800000D01*
X23485454Y-161580289D01*
X23483540Y-161573500D01*
X23427134Y-161373500D01*
X23425565Y-161367936D01*
X23327980Y-161170053D01*
X23195967Y-160993267D01*
X23033949Y-160843499D01*
X22847350Y-160725764D01*
X22642421Y-160644006D01*
X22636761Y-160642880D01*
X22636757Y-160642879D01*
X22431691Y-160602089D01*
X22431688Y-160602089D01*
X22426024Y-160600962D01*
X22420249Y-160600886D01*
X22420245Y-160600886D01*
X22309504Y-160599437D01*
X22205406Y-160598074D01*
X22199709Y-160599053D01*
X22199708Y-160599053D01*
X21993654Y-160634459D01*
X21993653Y-160634459D01*
X21987957Y-160635438D01*
X21780957Y-160711804D01*
X21775996Y-160714756D01*
X21775995Y-160714756D01*
X21635951Y-160798074D01*
X21591341Y-160824614D01*
X21425457Y-160970090D01*
X21288863Y-161143360D01*
X21186131Y-161338620D01*
X21120703Y-161549333D01*
X21094770Y-161768440D01*
X17600000Y-161768440D01*
X17600000Y-159693823D01*
X24294391Y-159693823D01*
X24295555Y-159702725D01*
X24295555Y-159702728D01*
X24296814Y-159712354D01*
X24312980Y-159835979D01*
X24370720Y-159967203D01*
X24376497Y-159974076D01*
X24376498Y-159974077D01*
X24383792Y-159982754D01*
X24462970Y-160076948D01*
X24582313Y-160156390D01*
X24719157Y-160199142D01*
X24728129Y-160199306D01*
X24728132Y-160199307D01*
X24793463Y-160200504D01*
X24862499Y-160201770D01*
X24871533Y-160199307D01*
X24992158Y-160166421D01*
X24992160Y-160166420D01*
X25000817Y-160164060D01*
X25122991Y-160089045D01*
X25219200Y-159982754D01*
X25281710Y-159853733D01*
X25305496Y-159712354D01*
X25305647Y-159700000D01*
X25304762Y-159693823D01*
X26294391Y-159693823D01*
X26295555Y-159702725D01*
X26295555Y-159702728D01*
X26296814Y-159712354D01*
X26312980Y-159835979D01*
X26370720Y-159967203D01*
X26376497Y-159974076D01*
X26376498Y-159974077D01*
X26383792Y-159982754D01*
X26462970Y-160076948D01*
X26582313Y-160156390D01*
X26719157Y-160199142D01*
X26728129Y-160199306D01*
X26728132Y-160199307D01*
X26793463Y-160200504D01*
X26862499Y-160201770D01*
X26871533Y-160199307D01*
X26992158Y-160166421D01*
X26992160Y-160166420D01*
X27000817Y-160164060D01*
X27122991Y-160089045D01*
X27219200Y-159982754D01*
X27281710Y-159853733D01*
X27305496Y-159712354D01*
X27305647Y-159700000D01*
X27304762Y-159693823D01*
X28294391Y-159693823D01*
X28295555Y-159702725D01*
X28295555Y-159702728D01*
X28296814Y-159712354D01*
X28312980Y-159835979D01*
X28370720Y-159967203D01*
X28376497Y-159974076D01*
X28376498Y-159974077D01*
X28383792Y-159982754D01*
X28462970Y-160076948D01*
X28582313Y-160156390D01*
X28719157Y-160199142D01*
X28728129Y-160199306D01*
X28728132Y-160199307D01*
X28793463Y-160200504D01*
X28862499Y-160201770D01*
X28871533Y-160199307D01*
X28992158Y-160166421D01*
X28992160Y-160166420D01*
X29000817Y-160164060D01*
X29122991Y-160089045D01*
X29219200Y-159982754D01*
X29281710Y-159853733D01*
X29305496Y-159712354D01*
X29305647Y-159700000D01*
X29285323Y-159558082D01*
X29225984Y-159427572D01*
X29207598Y-159406234D01*
X29138260Y-159325763D01*
X29138257Y-159325760D01*
X29132400Y-159318963D01*
X29012095Y-159240985D01*
X28874739Y-159199907D01*
X28865763Y-159199852D01*
X28865762Y-159199852D01*
X28805555Y-159199484D01*
X28731376Y-159199031D01*
X28593529Y-159238428D01*
X28472280Y-159314930D01*
X28377377Y-159422388D01*
X28316447Y-159552163D01*
X28294391Y-159693823D01*
X27304762Y-159693823D01*
X27285323Y-159558082D01*
X27225984Y-159427572D01*
X27207598Y-159406234D01*
X27138260Y-159325763D01*
X27138257Y-159325760D01*
X27132400Y-159318963D01*
X27012095Y-159240985D01*
X26874739Y-159199907D01*
X26865763Y-159199852D01*
X26865762Y-159199852D01*
X26805555Y-159199484D01*
X26731376Y-159199031D01*
X26593529Y-159238428D01*
X26472280Y-159314930D01*
X26377377Y-159422388D01*
X26316447Y-159552163D01*
X26294391Y-159693823D01*
X25304762Y-159693823D01*
X25285323Y-159558082D01*
X25225984Y-159427572D01*
X25207598Y-159406234D01*
X25138260Y-159325763D01*
X25138257Y-159325760D01*
X25132400Y-159318963D01*
X25012095Y-159240985D01*
X24874739Y-159199907D01*
X24865763Y-159199852D01*
X24865762Y-159199852D01*
X24805555Y-159199484D01*
X24731376Y-159199031D01*
X24593529Y-159238428D01*
X24472280Y-159314930D01*
X24377377Y-159422388D01*
X24316447Y-159552163D01*
X24294391Y-159693823D01*
X17600000Y-159693823D01*
X17600000Y-149652190D01*
X17620002Y-149584069D01*
X17636905Y-149563095D01*
X18063095Y-149136905D01*
X18125407Y-149102879D01*
X18152190Y-149100000D01*
X18947810Y-149100000D01*
X19015931Y-149120002D01*
G37*
%TD.AperFunction*%
%TD*%
%TA.AperFunction,Conductor*%
%TO.N,Net-(Q2-Pad1)*%
G36*
X52207562Y-124820002D02*
G01*
X52237830Y-124847288D01*
X52572389Y-125265486D01*
X52599325Y-125331175D01*
X52600000Y-125344198D01*
X52600000Y-126347810D01*
X52579998Y-126415931D01*
X52563095Y-126436905D01*
X52036905Y-126963095D01*
X51974593Y-126997121D01*
X51947810Y-127000000D01*
X42367433Y-127000000D01*
X42299312Y-126979998D01*
X42262595Y-126943892D01*
X41921162Y-126431743D01*
X41900000Y-126361851D01*
X41900000Y-124926000D01*
X41920002Y-124857879D01*
X41973658Y-124811386D01*
X42026000Y-124800000D01*
X52139441Y-124800000D01*
X52207562Y-124820002D01*
G37*
%TD.AperFunction*%
%TD*%
%TA.AperFunction,Conductor*%
%TO.N,Phase_Buck*%
G36*
X24015931Y-114820002D02*
G01*
X24036905Y-114836905D01*
X24163095Y-114963095D01*
X24197121Y-115025407D01*
X24200000Y-115052190D01*
X24200000Y-116347810D01*
X24179998Y-116415931D01*
X24163095Y-116436905D01*
X24036905Y-116563095D01*
X23974593Y-116597121D01*
X23947810Y-116600000D01*
X23100000Y-116600000D01*
X22900000Y-116800000D01*
X22900000Y-116810651D01*
X22897955Y-116814396D01*
X22891893Y-116838149D01*
X22886133Y-116846769D01*
X22874500Y-116905252D01*
X22874500Y-117694748D01*
X22886133Y-117753231D01*
X22891089Y-117760648D01*
X22900000Y-117805444D01*
X22900000Y-117900000D01*
X22908855Y-117908855D01*
X22942881Y-117971167D01*
X22944929Y-117991372D01*
X22944547Y-117993823D01*
X22963136Y-118135979D01*
X23020876Y-118267203D01*
X23113126Y-118376948D01*
X23232469Y-118456390D01*
X23369313Y-118499142D01*
X23378285Y-118499306D01*
X23378288Y-118499307D01*
X23443619Y-118500504D01*
X23512655Y-118501770D01*
X23521689Y-118499307D01*
X23642314Y-118466421D01*
X23642316Y-118466420D01*
X23650973Y-118464060D01*
X23773147Y-118389045D01*
X23869356Y-118282754D01*
X23894407Y-118231049D01*
X23942107Y-118178467D01*
X24010666Y-118160021D01*
X24078314Y-118181568D01*
X24096893Y-118196893D01*
X24163095Y-118263095D01*
X24197121Y-118325407D01*
X24200000Y-118352190D01*
X24200000Y-119500000D01*
X24700000Y-120000000D01*
X26547810Y-120000000D01*
X26615931Y-120020002D01*
X26636905Y-120036905D01*
X27163095Y-120563095D01*
X27197121Y-120625407D01*
X27200000Y-120652190D01*
X27200000Y-127174000D01*
X27179998Y-127242121D01*
X27126342Y-127288614D01*
X27074000Y-127300000D01*
X24326000Y-127300000D01*
X24257879Y-127279998D01*
X24211386Y-127226342D01*
X24200000Y-127174000D01*
X24200000Y-122400000D01*
X23700000Y-121900000D01*
X21676118Y-121900000D01*
X21674739Y-121899898D01*
X21674739Y-121899907D01*
X21538649Y-121899075D01*
X21538643Y-121899075D01*
X21531376Y-121899031D01*
X21528894Y-121899740D01*
X21525088Y-121900000D01*
X20300000Y-121900000D01*
X20284626Y-121912812D01*
X19713917Y-122388402D01*
X19713916Y-122388403D01*
X19700000Y-122400000D01*
X19700000Y-126947810D01*
X19679998Y-127015931D01*
X19663095Y-127036905D01*
X19436905Y-127263095D01*
X19374593Y-127297121D01*
X19347810Y-127300000D01*
X17700000Y-127300000D01*
X17688346Y-127308741D01*
X17688345Y-127308741D01*
X17501600Y-127448800D01*
X17435102Y-127473671D01*
X17365714Y-127458642D01*
X17315467Y-127408485D01*
X17300000Y-127348000D01*
X17300000Y-120152190D01*
X17320002Y-120084069D01*
X17336905Y-120063095D01*
X17563095Y-119836905D01*
X17625407Y-119802879D01*
X17652190Y-119800000D01*
X19200000Y-119800000D01*
X19600000Y-119400000D01*
X19600000Y-115152190D01*
X19620002Y-115084069D01*
X19636905Y-115063095D01*
X19863095Y-114836905D01*
X19925407Y-114802879D01*
X19952190Y-114800000D01*
X23947810Y-114800000D01*
X24015931Y-114820002D01*
G37*
%TD.AperFunction*%
%TD*%
%TA.AperFunction,Conductor*%
%TO.N,/BuckBoost/+Vin*%
G36*
X24910945Y-104320002D02*
G01*
X24937649Y-104343028D01*
X25568825Y-105064371D01*
X25598629Y-105128809D01*
X25600000Y-105147343D01*
X25600000Y-111100000D01*
X27800000Y-113000000D01*
X32447810Y-113000000D01*
X32515931Y-113020002D01*
X32536905Y-113036905D01*
X33363095Y-113863095D01*
X33397121Y-113925407D01*
X33400000Y-113952190D01*
X33400000Y-118847810D01*
X33379998Y-118915931D01*
X33363095Y-118936905D01*
X32536905Y-119763095D01*
X32474593Y-119797121D01*
X32447810Y-119800000D01*
X24852190Y-119800000D01*
X24784069Y-119779998D01*
X24763095Y-119763095D01*
X24436905Y-119436905D01*
X24402879Y-119374593D01*
X24400000Y-119347810D01*
X24400000Y-114900000D01*
X24100000Y-114600000D01*
X19800000Y-114600000D01*
X19400000Y-115000000D01*
X19400000Y-119247810D01*
X19379998Y-119315931D01*
X19363095Y-119336905D01*
X19136905Y-119563095D01*
X19074593Y-119597121D01*
X19047810Y-119600000D01*
X17652190Y-119600000D01*
X17584069Y-119579998D01*
X17563095Y-119563095D01*
X17336905Y-119336905D01*
X17302879Y-119274593D01*
X17300000Y-119247810D01*
X17300000Y-111800890D01*
X17300013Y-111799090D01*
X17370462Y-106867677D01*
X20744723Y-106867677D01*
X20763793Y-107085654D01*
X20820425Y-107297007D01*
X20912898Y-107495315D01*
X21038402Y-107674554D01*
X21193123Y-107829275D01*
X21197631Y-107832432D01*
X21197634Y-107832434D01*
X21225079Y-107851651D01*
X21372361Y-107954779D01*
X21377343Y-107957102D01*
X21377348Y-107957105D01*
X21544016Y-108034823D01*
X21570670Y-108047252D01*
X21575978Y-108048674D01*
X21575980Y-108048675D01*
X21641745Y-108066297D01*
X21782023Y-108103884D01*
X22000000Y-108122954D01*
X22217977Y-108103884D01*
X22358255Y-108066297D01*
X22424020Y-108048675D01*
X22424022Y-108048674D01*
X22429330Y-108047252D01*
X22455984Y-108034823D01*
X22622652Y-107957105D01*
X22622657Y-107957102D01*
X22627639Y-107954779D01*
X22774921Y-107851651D01*
X22802366Y-107832434D01*
X22802369Y-107832432D01*
X22806877Y-107829275D01*
X22961598Y-107674554D01*
X23087102Y-107495315D01*
X23179575Y-107297007D01*
X23236207Y-107085654D01*
X23255277Y-106867677D01*
X23236207Y-106649700D01*
X23179575Y-106438347D01*
X23177252Y-106433365D01*
X23089425Y-106245020D01*
X23089423Y-106245017D01*
X23087102Y-106240039D01*
X22961598Y-106060800D01*
X22806877Y-105906079D01*
X22802369Y-105902922D01*
X22802366Y-105902920D01*
X22632148Y-105783732D01*
X22632145Y-105783730D01*
X22627639Y-105780575D01*
X22622657Y-105778252D01*
X22622652Y-105778249D01*
X22434312Y-105690425D01*
X22434311Y-105690424D01*
X22429330Y-105688102D01*
X22424022Y-105686680D01*
X22424020Y-105686679D01*
X22358255Y-105669057D01*
X22217977Y-105631470D01*
X22000000Y-105612400D01*
X21782023Y-105631470D01*
X21641745Y-105669057D01*
X21575980Y-105686679D01*
X21575978Y-105686680D01*
X21570670Y-105688102D01*
X21565690Y-105690424D01*
X21565688Y-105690425D01*
X21377343Y-105778252D01*
X21377340Y-105778254D01*
X21372362Y-105780575D01*
X21193123Y-105906079D01*
X21038402Y-106060800D01*
X20912898Y-106240039D01*
X20910577Y-106245017D01*
X20910575Y-106245020D01*
X20822748Y-106433365D01*
X20820425Y-106438347D01*
X20763793Y-106649700D01*
X20744723Y-106867677D01*
X17370462Y-106867677D01*
X17399173Y-104857915D01*
X17420146Y-104790087D01*
X17444497Y-104762919D01*
X17964955Y-104329204D01*
X18030092Y-104300960D01*
X18045618Y-104300000D01*
X24842824Y-104300000D01*
X24910945Y-104320002D01*
G37*
%TD.AperFunction*%
%TD*%
M02*
