%TF.GenerationSoftware,KiCad,Pcbnew,(6.0.1)*%
%TF.CreationDate,2022-09-27T15:52:50+02:00*%
%TF.ProjectId,WetterStationPCB,57657474-6572-4537-9461-74696f6e5043,rev?*%
%TF.SameCoordinates,Original*%
%TF.FileFunction,Paste,Bot*%
%TF.FilePolarity,Positive*%
%FSLAX46Y46*%
G04 Gerber Fmt 4.6, Leading zero omitted, Abs format (unit mm)*
G04 Created by KiCad (PCBNEW (6.0.1)) date 2022-09-27 15:52:50*
%MOMM*%
%LPD*%
G01*
G04 APERTURE LIST*
G04 Aperture macros list*
%AMRoundRect*
0 Rectangle with rounded corners*
0 $1 Rounding radius*
0 $2 $3 $4 $5 $6 $7 $8 $9 X,Y pos of 4 corners*
0 Add a 4 corners polygon primitive as box body*
4,1,4,$2,$3,$4,$5,$6,$7,$8,$9,$2,$3,0*
0 Add four circle primitives for the rounded corners*
1,1,$1+$1,$2,$3*
1,1,$1+$1,$4,$5*
1,1,$1+$1,$6,$7*
1,1,$1+$1,$8,$9*
0 Add four rect primitives between the rounded corners*
20,1,$1+$1,$2,$3,$4,$5,0*
20,1,$1+$1,$4,$5,$6,$7,0*
20,1,$1+$1,$6,$7,$8,$9,0*
20,1,$1+$1,$8,$9,$2,$3,0*%
G04 Aperture macros list end*
%ADD10RoundRect,0.150000X0.587500X0.150000X-0.587500X0.150000X-0.587500X-0.150000X0.587500X-0.150000X0*%
%ADD11RoundRect,0.237500X-0.237500X0.250000X-0.237500X-0.250000X0.237500X-0.250000X0.237500X0.250000X0*%
%ADD12RoundRect,0.250000X-0.450000X0.350000X-0.450000X-0.350000X0.450000X-0.350000X0.450000X0.350000X0*%
%ADD13RoundRect,0.237500X0.250000X0.237500X-0.250000X0.237500X-0.250000X-0.237500X0.250000X-0.237500X0*%
%ADD14RoundRect,0.250000X0.337500X0.475000X-0.337500X0.475000X-0.337500X-0.475000X0.337500X-0.475000X0*%
%ADD15RoundRect,0.237500X-0.250000X-0.237500X0.250000X-0.237500X0.250000X0.237500X-0.250000X0.237500X0*%
%ADD16RoundRect,0.250000X-0.475000X0.337500X-0.475000X-0.337500X0.475000X-0.337500X0.475000X0.337500X0*%
%ADD17RoundRect,0.249999X-0.450001X-1.425001X0.450001X-1.425001X0.450001X1.425001X-0.450001X1.425001X0*%
%ADD18RoundRect,0.150000X-0.825000X-0.150000X0.825000X-0.150000X0.825000X0.150000X-0.825000X0.150000X0*%
%ADD19RoundRect,0.250000X0.350000X0.450000X-0.350000X0.450000X-0.350000X-0.450000X0.350000X-0.450000X0*%
%ADD20RoundRect,0.250000X-0.337500X-0.475000X0.337500X-0.475000X0.337500X0.475000X-0.337500X0.475000X0*%
%ADD21RoundRect,0.250000X-0.350000X-0.450000X0.350000X-0.450000X0.350000X0.450000X-0.350000X0.450000X0*%
%ADD22RoundRect,0.237500X0.237500X-0.250000X0.237500X0.250000X-0.237500X0.250000X-0.237500X-0.250000X0*%
%ADD23RoundRect,0.250000X0.450000X-0.350000X0.450000X0.350000X-0.450000X0.350000X-0.450000X-0.350000X0*%
%ADD24R,1.850000X0.900000*%
%ADD25R,0.750000X0.750000*%
%ADD26R,0.870000X1.450000*%
%ADD27RoundRect,0.150000X-0.587500X-0.150000X0.587500X-0.150000X0.587500X0.150000X-0.587500X0.150000X0*%
%ADD28RoundRect,0.250000X0.475000X-0.337500X0.475000X0.337500X-0.475000X0.337500X-0.475000X-0.337500X0*%
%ADD29R,0.700000X1.525000*%
%ADD30R,1.150000X0.600000*%
%ADD31R,0.250000X1.100000*%
%ADD32R,1.500000X0.900000*%
%ADD33R,0.900000X1.500000*%
%ADD34R,0.900000X0.900000*%
%ADD35R,3.500000X1.800000*%
%ADD36RoundRect,0.250000X-1.100000X0.412500X-1.100000X-0.412500X1.100000X-0.412500X1.100000X0.412500X0*%
G04 APERTURE END LIST*
D10*
%TO.C,Q1*%
X56937500Y-127850000D03*
X56937500Y-129750000D03*
X55062500Y-128800000D03*
%TD*%
D11*
%TO.C,R24*%
X111900000Y-137387500D03*
X111900000Y-139212500D03*
%TD*%
D12*
%TO.C,R35*%
X33100000Y-129500000D03*
X33100000Y-131500000D03*
%TD*%
D13*
%TO.C,R5*%
X59200000Y-120000000D03*
X57375000Y-120000000D03*
%TD*%
D14*
%TO.C,C7*%
X53494866Y-150450824D03*
X51419866Y-150450824D03*
%TD*%
D15*
%TO.C,R7*%
X61550000Y-119900000D03*
X63375000Y-119900000D03*
%TD*%
D11*
%TO.C,R18*%
X73100000Y-122487500D03*
X73100000Y-124312500D03*
%TD*%
D16*
%TO.C,C27*%
X28788699Y-156694548D03*
X28788699Y-158769548D03*
%TD*%
D17*
%TO.C,R20*%
X76950000Y-120300000D03*
X83050000Y-120300000D03*
%TD*%
D18*
%TO.C,U2*%
X30525000Y-114905000D03*
X30525000Y-113635000D03*
X30525000Y-112365000D03*
X30525000Y-111095000D03*
X35475000Y-111095000D03*
X35475000Y-112365000D03*
X35475000Y-113635000D03*
X35475000Y-114905000D03*
%TD*%
D13*
%TO.C,R15*%
X67200000Y-125200000D03*
X65375000Y-125200000D03*
%TD*%
D14*
%TO.C,C4*%
X63500000Y-121900000D03*
X61425000Y-121900000D03*
%TD*%
%TO.C,C5*%
X59261962Y-121891118D03*
X57186962Y-121891118D03*
%TD*%
D15*
%TO.C,R14*%
X65375000Y-126700000D03*
X67200000Y-126700000D03*
%TD*%
D17*
%TO.C,R21*%
X93987500Y-120450000D03*
X100087500Y-120450000D03*
%TD*%
D19*
%TO.C,R16*%
X52600000Y-128800000D03*
X50600000Y-128800000D03*
%TD*%
D20*
%TO.C,C8*%
X37900000Y-112700000D03*
X39975000Y-112700000D03*
%TD*%
D21*
%TO.C,R39*%
X33400000Y-135400000D03*
X35400000Y-135400000D03*
%TD*%
D20*
%TO.C,C16*%
X106062500Y-152800000D03*
X108137500Y-152800000D03*
%TD*%
D11*
%TO.C,R19*%
X90037500Y-122537500D03*
X90037500Y-124362500D03*
%TD*%
D14*
%TO.C,C1*%
X93637500Y-116700000D03*
X91562500Y-116700000D03*
%TD*%
D13*
%TO.C,R10*%
X53433644Y-148800000D03*
X51608644Y-148800000D03*
%TD*%
D18*
%TO.C,U6*%
X35025000Y-152705000D03*
X35025000Y-151435000D03*
X35025000Y-150165000D03*
X35025000Y-148895000D03*
X39975000Y-148895000D03*
X39975000Y-150165000D03*
X39975000Y-151435000D03*
X39975000Y-152705000D03*
%TD*%
D14*
%TO.C,C10*%
X67525000Y-123500000D03*
X65450000Y-123500000D03*
%TD*%
D13*
%TO.C,R6*%
X63377228Y-118278860D03*
X61552228Y-118278860D03*
%TD*%
D22*
%TO.C,R17*%
X55000000Y-126000000D03*
X55000000Y-124175000D03*
%TD*%
%TO.C,R25*%
X110400000Y-139212500D03*
X110400000Y-137387500D03*
%TD*%
D13*
%TO.C,R36*%
X51412500Y-132700000D03*
X49587500Y-132700000D03*
%TD*%
D23*
%TO.C,R38*%
X33200000Y-140300000D03*
X33200000Y-138300000D03*
%TD*%
D24*
%TO.C,Q3*%
X42825000Y-118800000D03*
X42825000Y-125200000D03*
X45175000Y-118800000D03*
X45175000Y-125200000D03*
D25*
X44000000Y-123450000D03*
D26*
X44610000Y-121700000D03*
X43390000Y-121700000D03*
%TD*%
D27*
%TO.C,Q6*%
X110162500Y-118650000D03*
X110162500Y-116750000D03*
X112037500Y-117700000D03*
%TD*%
D28*
%TO.C,C13*%
X75000000Y-124337500D03*
X75000000Y-122262500D03*
%TD*%
D14*
%TO.C,C18*%
X111937500Y-135800000D03*
X109862500Y-135800000D03*
%TD*%
D27*
%TO.C,Q4*%
X81062500Y-125250000D03*
X81062500Y-123350000D03*
X82937500Y-124300000D03*
%TD*%
D16*
%TO.C,C25*%
X35300000Y-137262500D03*
X35300000Y-139337500D03*
%TD*%
D24*
%TO.C,Q2*%
X51175000Y-118800000D03*
X51175000Y-125200000D03*
X48825000Y-125200000D03*
X48825000Y-118800000D03*
D25*
X50000000Y-123450000D03*
D26*
X49390000Y-121700000D03*
X50610000Y-121700000D03*
%TD*%
D27*
%TO.C,Q5*%
X98100000Y-125400000D03*
X98100000Y-123500000D03*
X99975000Y-124450000D03*
%TD*%
D21*
%TO.C,R34*%
X33100000Y-127500000D03*
X35100000Y-127500000D03*
%TD*%
D29*
%TO.C,IC5*%
X41005000Y-140812000D03*
X39735000Y-140812000D03*
X38465000Y-140812000D03*
X37195000Y-140812000D03*
X37195000Y-135388000D03*
X38465000Y-135388000D03*
X39735000Y-135388000D03*
X41005000Y-135388000D03*
%TD*%
D13*
%TO.C,R26*%
X108212500Y-154600000D03*
X106387500Y-154600000D03*
%TD*%
D30*
%TO.C,IC3*%
X93787500Y-125400000D03*
X93787500Y-124450000D03*
X93787500Y-123500000D03*
X96287500Y-123500000D03*
X96287500Y-124450000D03*
X96287500Y-125400000D03*
%TD*%
D13*
%TO.C,R30*%
X115477753Y-118365674D03*
X113652753Y-118365674D03*
%TD*%
D20*
%TO.C,C19*%
X32361722Y-118990647D03*
X34436722Y-118990647D03*
%TD*%
%TO.C,C20*%
X113562500Y-152800000D03*
X115637500Y-152800000D03*
%TD*%
%TO.C,C22*%
X32362500Y-117000000D03*
X34437500Y-117000000D03*
%TD*%
D11*
%TO.C,R22*%
X61400000Y-139987500D03*
X61400000Y-141812500D03*
%TD*%
D28*
%TO.C,C9*%
X61300000Y-131675000D03*
X61300000Y-129600000D03*
%TD*%
D11*
%TO.C,R9*%
X49750888Y-148840468D03*
X49750888Y-150665468D03*
%TD*%
D20*
%TO.C,C17*%
X109862500Y-152800000D03*
X111937500Y-152800000D03*
%TD*%
D11*
%TO.C,R4*%
X55703291Y-118253689D03*
X55703291Y-120078689D03*
%TD*%
D13*
%TO.C,R27*%
X111812500Y-154500000D03*
X109987500Y-154500000D03*
%TD*%
D31*
%TO.C,U3*%
X61400000Y-138450000D03*
X60900000Y-138450000D03*
X60400000Y-138450000D03*
X59900000Y-138450000D03*
X59400000Y-138450000D03*
X59400000Y-134150000D03*
X59900000Y-134150000D03*
X60400000Y-134150000D03*
X60900000Y-134150000D03*
X61400000Y-134150000D03*
%TD*%
D16*
%TO.C,C6*%
X38500000Y-115800000D03*
X38500000Y-117875000D03*
%TD*%
D15*
%TO.C,R29*%
X98787500Y-115756250D03*
X100612500Y-115756250D03*
%TD*%
D11*
%TO.C,R32*%
X52700000Y-134187500D03*
X52700000Y-136012500D03*
%TD*%
D16*
%TO.C,C11*%
X42900000Y-153062500D03*
X42900000Y-155137500D03*
%TD*%
D32*
%TO.C,IC1*%
X100850000Y-135540000D03*
X100850000Y-136810000D03*
X100850000Y-138080000D03*
X100850000Y-139350000D03*
X100850000Y-140620000D03*
X100850000Y-141890000D03*
X100850000Y-143160000D03*
X100850000Y-144430000D03*
X100850000Y-145700000D03*
X100850000Y-146970000D03*
X100850000Y-148240000D03*
X100850000Y-149510000D03*
X100850000Y-150780000D03*
X100850000Y-152050000D03*
D33*
X99085000Y-153300000D03*
X97815000Y-153300000D03*
X96545000Y-153300000D03*
X95275000Y-153300000D03*
X94005000Y-153300000D03*
X92735000Y-153300000D03*
X91465000Y-153300000D03*
X90195000Y-153300000D03*
X88925000Y-153300000D03*
X87655000Y-153300000D03*
X86385000Y-153300000D03*
X85115000Y-153300000D03*
D32*
X83350000Y-152050000D03*
X83350000Y-150780000D03*
X83350000Y-149510000D03*
X83350000Y-148240000D03*
X83350000Y-146970000D03*
X83350000Y-145700000D03*
X83350000Y-144430000D03*
X83350000Y-143160000D03*
X83350000Y-141890000D03*
X83350000Y-140620000D03*
X83350000Y-139350000D03*
X83350000Y-138080000D03*
X83350000Y-136810000D03*
X83350000Y-135540000D03*
D34*
X93600000Y-143260000D03*
X93600000Y-141860000D03*
X95000000Y-141860000D03*
X95000000Y-143260000D03*
X95000000Y-144660000D03*
X93600000Y-144660000D03*
X92200000Y-144660000D03*
X92200000Y-143260000D03*
X92200000Y-141860000D03*
%TD*%
D20*
%TO.C,C12*%
X42462500Y-149800000D03*
X44537500Y-149800000D03*
%TD*%
D16*
%TO.C,C23*%
X24800000Y-156700000D03*
X24800000Y-158775000D03*
%TD*%
D28*
%TO.C,C24*%
X34900000Y-132437500D03*
X34900000Y-130362500D03*
%TD*%
%TO.C,C14*%
X92037500Y-124487500D03*
X92037500Y-122412500D03*
%TD*%
D22*
%TO.C,R12*%
X64400000Y-133412500D03*
X64400000Y-131587500D03*
%TD*%
%TO.C,R11*%
X63000000Y-137812500D03*
X63000000Y-135987500D03*
%TD*%
D35*
%TO.C,D1*%
X114500000Y-114000000D03*
X109500000Y-114000000D03*
%TD*%
D30*
%TO.C,IC2*%
X76750000Y-125250000D03*
X76750000Y-124300000D03*
X76750000Y-123350000D03*
X79250000Y-123350000D03*
X79250000Y-124300000D03*
X79250000Y-125250000D03*
%TD*%
D36*
%TO.C,C2*%
X103800000Y-137137500D03*
X103800000Y-140262500D03*
%TD*%
D22*
%TO.C,R23*%
X59848657Y-141801419D03*
X59848657Y-139976419D03*
%TD*%
D13*
%TO.C,R28*%
X97312500Y-115756250D03*
X95487500Y-115756250D03*
%TD*%
%TO.C,R37*%
X52712500Y-140800000D03*
X50887500Y-140800000D03*
%TD*%
D11*
%TO.C,R33*%
X52700000Y-137487500D03*
X52700000Y-139312500D03*
%TD*%
D28*
%TO.C,C3*%
X103100000Y-135437500D03*
X103100000Y-133362500D03*
%TD*%
D13*
%TO.C,R3*%
X59171983Y-118269978D03*
X57346983Y-118269978D03*
%TD*%
%TO.C,R31*%
X115412500Y-154500000D03*
X113587500Y-154500000D03*
%TD*%
D16*
%TO.C,C26*%
X26800000Y-156700000D03*
X26800000Y-158775000D03*
%TD*%
D22*
%TO.C,R8*%
X48232788Y-150698711D03*
X48232788Y-148873711D03*
%TD*%
%TO.C,R13*%
X63000000Y-132512500D03*
X63000000Y-130687500D03*
%TD*%
D16*
%TO.C,C15*%
X63150801Y-139818175D03*
X63150801Y-141893175D03*
%TD*%
D15*
%TO.C,R1*%
X91587500Y-114900000D03*
X93412500Y-114900000D03*
%TD*%
D29*
%TO.C,IC4*%
X37230000Y-127288000D03*
X38500000Y-127288000D03*
X39770000Y-127288000D03*
X41040000Y-127288000D03*
X41040000Y-132712000D03*
X39770000Y-132712000D03*
X38500000Y-132712000D03*
X37230000Y-132712000D03*
%TD*%
M02*
