%TF.GenerationSoftware,KiCad,Pcbnew,(6.0.1)*%
%TF.CreationDate,2022-09-27T15:52:51+02:00*%
%TF.ProjectId,WetterStationPCB,57657474-6572-4537-9461-74696f6e5043,rev?*%
%TF.SameCoordinates,Original*%
%TF.FileFunction,Legend,Bot*%
%TF.FilePolarity,Positive*%
%FSLAX46Y46*%
G04 Gerber Fmt 4.6, Leading zero omitted, Abs format (unit mm)*
G04 Created by KiCad (PCBNEW (6.0.1)) date 2022-09-27 15:52:51*
%MOMM*%
%LPD*%
G01*
G04 APERTURE LIST*
%ADD10C,0.150000*%
%ADD11C,0.254000*%
%ADD12C,0.120000*%
%ADD13C,0.200000*%
%ADD14C,0.100000*%
G04 APERTURE END LIST*
D10*
%TO.C,Q1*%
X58295238Y-127047619D02*
X58390476Y-127000000D01*
X58485714Y-126904761D01*
X58628571Y-126761904D01*
X58723809Y-126714285D01*
X58819047Y-126714285D01*
X58771428Y-126952380D02*
X58866666Y-126904761D01*
X58961904Y-126809523D01*
X59009523Y-126619047D01*
X59009523Y-126285714D01*
X58961904Y-126095238D01*
X58866666Y-126000000D01*
X58771428Y-125952380D01*
X58580952Y-125952380D01*
X58485714Y-126000000D01*
X58390476Y-126095238D01*
X58342857Y-126285714D01*
X58342857Y-126619047D01*
X58390476Y-126809523D01*
X58485714Y-126904761D01*
X58580952Y-126952380D01*
X58771428Y-126952380D01*
X57390476Y-126952380D02*
X57961904Y-126952380D01*
X57676190Y-126952380D02*
X57676190Y-125952380D01*
X57771428Y-126095238D01*
X57866666Y-126190476D01*
X57961904Y-126238095D01*
%TO.C,R24*%
X110922380Y-137657142D02*
X110446190Y-137323809D01*
X110922380Y-137085714D02*
X109922380Y-137085714D01*
X109922380Y-137466666D01*
X109970000Y-137561904D01*
X110017619Y-137609523D01*
X110112857Y-137657142D01*
X110255714Y-137657142D01*
X110350952Y-137609523D01*
X110398571Y-137561904D01*
X110446190Y-137466666D01*
X110446190Y-137085714D01*
X110017619Y-138038095D02*
X109970000Y-138085714D01*
X109922380Y-138180952D01*
X109922380Y-138419047D01*
X109970000Y-138514285D01*
X110017619Y-138561904D01*
X110112857Y-138609523D01*
X110208095Y-138609523D01*
X110350952Y-138561904D01*
X110922380Y-137990476D01*
X110922380Y-138609523D01*
X110255714Y-139466666D02*
X110922380Y-139466666D01*
X109874761Y-139228571D02*
X110589047Y-138990476D01*
X110589047Y-139609523D01*
%TO.C,R35*%
X43152380Y-130157142D02*
X42676190Y-129823809D01*
X43152380Y-129585714D02*
X42152380Y-129585714D01*
X42152380Y-129966666D01*
X42200000Y-130061904D01*
X42247619Y-130109523D01*
X42342857Y-130157142D01*
X42485714Y-130157142D01*
X42580952Y-130109523D01*
X42628571Y-130061904D01*
X42676190Y-129966666D01*
X42676190Y-129585714D01*
X42152380Y-130490476D02*
X42152380Y-131109523D01*
X42533333Y-130776190D01*
X42533333Y-130919047D01*
X42580952Y-131014285D01*
X42628571Y-131061904D01*
X42723809Y-131109523D01*
X42961904Y-131109523D01*
X43057142Y-131061904D01*
X43104761Y-131014285D01*
X43152380Y-130919047D01*
X43152380Y-130633333D01*
X43104761Y-130538095D01*
X43057142Y-130490476D01*
X42152380Y-132014285D02*
X42152380Y-131538095D01*
X42628571Y-131490476D01*
X42580952Y-131538095D01*
X42533333Y-131633333D01*
X42533333Y-131871428D01*
X42580952Y-131966666D01*
X42628571Y-132014285D01*
X42723809Y-132061904D01*
X42961904Y-132061904D01*
X43057142Y-132014285D01*
X43104761Y-131966666D01*
X43152380Y-131871428D01*
X43152380Y-131633333D01*
X43104761Y-131538095D01*
X43057142Y-131490476D01*
%TO.C,R5*%
X58454166Y-115411262D02*
X58787500Y-114935072D01*
X59025595Y-115411262D02*
X59025595Y-114411262D01*
X58644642Y-114411262D01*
X58549404Y-114458882D01*
X58501785Y-114506501D01*
X58454166Y-114601739D01*
X58454166Y-114744596D01*
X58501785Y-114839834D01*
X58549404Y-114887453D01*
X58644642Y-114935072D01*
X59025595Y-114935072D01*
X57549404Y-114411262D02*
X58025595Y-114411262D01*
X58073214Y-114887453D01*
X58025595Y-114839834D01*
X57930357Y-114792215D01*
X57692261Y-114792215D01*
X57597023Y-114839834D01*
X57549404Y-114887453D01*
X57501785Y-114982691D01*
X57501785Y-115220786D01*
X57549404Y-115316024D01*
X57597023Y-115363643D01*
X57692261Y-115411262D01*
X57930357Y-115411262D01*
X58025595Y-115363643D01*
X58073214Y-115316024D01*
%TO.C,C7*%
X55466666Y-150857142D02*
X55514285Y-150904761D01*
X55657142Y-150952380D01*
X55752380Y-150952380D01*
X55895238Y-150904761D01*
X55990476Y-150809523D01*
X56038095Y-150714285D01*
X56085714Y-150523809D01*
X56085714Y-150380952D01*
X56038095Y-150190476D01*
X55990476Y-150095238D01*
X55895238Y-150000000D01*
X55752380Y-149952380D01*
X55657142Y-149952380D01*
X55514285Y-150000000D01*
X55466666Y-150047619D01*
X55133333Y-149952380D02*
X54466666Y-149952380D01*
X54895238Y-150952380D01*
%TO.C,R7*%
X65366666Y-120452380D02*
X65700000Y-119976190D01*
X65938095Y-120452380D02*
X65938095Y-119452380D01*
X65557142Y-119452380D01*
X65461904Y-119500000D01*
X65414285Y-119547619D01*
X65366666Y-119642857D01*
X65366666Y-119785714D01*
X65414285Y-119880952D01*
X65461904Y-119928571D01*
X65557142Y-119976190D01*
X65938095Y-119976190D01*
X65033333Y-119452380D02*
X64366666Y-119452380D01*
X64795238Y-120452380D01*
%TO.C,R18*%
X73552380Y-125857142D02*
X73076190Y-125523809D01*
X73552380Y-125285714D02*
X72552380Y-125285714D01*
X72552380Y-125666666D01*
X72600000Y-125761904D01*
X72647619Y-125809523D01*
X72742857Y-125857142D01*
X72885714Y-125857142D01*
X72980952Y-125809523D01*
X73028571Y-125761904D01*
X73076190Y-125666666D01*
X73076190Y-125285714D01*
X73552380Y-126809523D02*
X73552380Y-126238095D01*
X73552380Y-126523809D02*
X72552380Y-126523809D01*
X72695238Y-126428571D01*
X72790476Y-126333333D01*
X72838095Y-126238095D01*
X72980952Y-127380952D02*
X72933333Y-127285714D01*
X72885714Y-127238095D01*
X72790476Y-127190476D01*
X72742857Y-127190476D01*
X72647619Y-127238095D01*
X72600000Y-127285714D01*
X72552380Y-127380952D01*
X72552380Y-127571428D01*
X72600000Y-127666666D01*
X72647619Y-127714285D01*
X72742857Y-127761904D01*
X72790476Y-127761904D01*
X72885714Y-127714285D01*
X72933333Y-127666666D01*
X72980952Y-127571428D01*
X72980952Y-127380952D01*
X73028571Y-127285714D01*
X73076190Y-127238095D01*
X73171428Y-127190476D01*
X73361904Y-127190476D01*
X73457142Y-127238095D01*
X73504761Y-127285714D01*
X73552380Y-127380952D01*
X73552380Y-127571428D01*
X73504761Y-127666666D01*
X73457142Y-127714285D01*
X73361904Y-127761904D01*
X73171428Y-127761904D01*
X73076190Y-127714285D01*
X73028571Y-127666666D01*
X72980952Y-127571428D01*
%TO.C,C27*%
X31057142Y-153757142D02*
X31104761Y-153709523D01*
X31152380Y-153566666D01*
X31152380Y-153471428D01*
X31104761Y-153328571D01*
X31009523Y-153233333D01*
X30914285Y-153185714D01*
X30723809Y-153138095D01*
X30580952Y-153138095D01*
X30390476Y-153185714D01*
X30295238Y-153233333D01*
X30200000Y-153328571D01*
X30152380Y-153471428D01*
X30152380Y-153566666D01*
X30200000Y-153709523D01*
X30247619Y-153757142D01*
X30247619Y-154138095D02*
X30200000Y-154185714D01*
X30152380Y-154280952D01*
X30152380Y-154519047D01*
X30200000Y-154614285D01*
X30247619Y-154661904D01*
X30342857Y-154709523D01*
X30438095Y-154709523D01*
X30580952Y-154661904D01*
X31152380Y-154090476D01*
X31152380Y-154709523D01*
X30152380Y-155042857D02*
X30152380Y-155709523D01*
X31152380Y-155280952D01*
%TO.C,R20*%
X80742857Y-118152380D02*
X81076190Y-117676190D01*
X81314285Y-118152380D02*
X81314285Y-117152380D01*
X80933333Y-117152380D01*
X80838095Y-117200000D01*
X80790476Y-117247619D01*
X80742857Y-117342857D01*
X80742857Y-117485714D01*
X80790476Y-117580952D01*
X80838095Y-117628571D01*
X80933333Y-117676190D01*
X81314285Y-117676190D01*
X80361904Y-117247619D02*
X80314285Y-117200000D01*
X80219047Y-117152380D01*
X79980952Y-117152380D01*
X79885714Y-117200000D01*
X79838095Y-117247619D01*
X79790476Y-117342857D01*
X79790476Y-117438095D01*
X79838095Y-117580952D01*
X80409523Y-118152380D01*
X79790476Y-118152380D01*
X79171428Y-117152380D02*
X79076190Y-117152380D01*
X78980952Y-117200000D01*
X78933333Y-117247619D01*
X78885714Y-117342857D01*
X78838095Y-117533333D01*
X78838095Y-117771428D01*
X78885714Y-117961904D01*
X78933333Y-118057142D01*
X78980952Y-118104761D01*
X79076190Y-118152380D01*
X79171428Y-118152380D01*
X79266666Y-118104761D01*
X79314285Y-118057142D01*
X79361904Y-117961904D01*
X79409523Y-117771428D01*
X79409523Y-117533333D01*
X79361904Y-117342857D01*
X79314285Y-117247619D01*
X79266666Y-117200000D01*
X79171428Y-117152380D01*
%TO.C,U2*%
X33052380Y-112338095D02*
X33861904Y-112338095D01*
X33957142Y-112385714D01*
X34004761Y-112433333D01*
X34052380Y-112528571D01*
X34052380Y-112719047D01*
X34004761Y-112814285D01*
X33957142Y-112861904D01*
X33861904Y-112909523D01*
X33052380Y-112909523D01*
X33147619Y-113338095D02*
X33100000Y-113385714D01*
X33052380Y-113480952D01*
X33052380Y-113719047D01*
X33100000Y-113814285D01*
X33147619Y-113861904D01*
X33242857Y-113909523D01*
X33338095Y-113909523D01*
X33480952Y-113861904D01*
X34052380Y-113290476D01*
X34052380Y-113909523D01*
%TO.C,R15*%
X69942857Y-125652380D02*
X70276190Y-125176190D01*
X70514285Y-125652380D02*
X70514285Y-124652380D01*
X70133333Y-124652380D01*
X70038095Y-124700000D01*
X69990476Y-124747619D01*
X69942857Y-124842857D01*
X69942857Y-124985714D01*
X69990476Y-125080952D01*
X70038095Y-125128571D01*
X70133333Y-125176190D01*
X70514285Y-125176190D01*
X68990476Y-125652380D02*
X69561904Y-125652380D01*
X69276190Y-125652380D02*
X69276190Y-124652380D01*
X69371428Y-124795238D01*
X69466666Y-124890476D01*
X69561904Y-124938095D01*
X68085714Y-124652380D02*
X68561904Y-124652380D01*
X68609523Y-125128571D01*
X68561904Y-125080952D01*
X68466666Y-125033333D01*
X68228571Y-125033333D01*
X68133333Y-125080952D01*
X68085714Y-125128571D01*
X68038095Y-125223809D01*
X68038095Y-125461904D01*
X68085714Y-125557142D01*
X68133333Y-125604761D01*
X68228571Y-125652380D01*
X68466666Y-125652380D01*
X68561904Y-125604761D01*
X68609523Y-125557142D01*
%TO.C,C4*%
X62566666Y-123957142D02*
X62614285Y-124004761D01*
X62757142Y-124052380D01*
X62852380Y-124052380D01*
X62995238Y-124004761D01*
X63090476Y-123909523D01*
X63138095Y-123814285D01*
X63185714Y-123623809D01*
X63185714Y-123480952D01*
X63138095Y-123290476D01*
X63090476Y-123195238D01*
X62995238Y-123100000D01*
X62852380Y-123052380D01*
X62757142Y-123052380D01*
X62614285Y-123100000D01*
X62566666Y-123147619D01*
X61709523Y-123385714D02*
X61709523Y-124052380D01*
X61947619Y-123004761D02*
X62185714Y-123719047D01*
X61566666Y-123719047D01*
%TO.C,C5*%
X58391128Y-116957142D02*
X58438747Y-117004761D01*
X58581604Y-117052380D01*
X58676842Y-117052380D01*
X58819700Y-117004761D01*
X58914938Y-116909523D01*
X58962557Y-116814285D01*
X59010176Y-116623809D01*
X59010176Y-116480952D01*
X58962557Y-116290476D01*
X58914938Y-116195238D01*
X58819700Y-116100000D01*
X58676842Y-116052380D01*
X58581604Y-116052380D01*
X58438747Y-116100000D01*
X58391128Y-116147619D01*
X57486366Y-116052380D02*
X57962557Y-116052380D01*
X58010176Y-116528571D01*
X57962557Y-116480952D01*
X57867319Y-116433333D01*
X57629223Y-116433333D01*
X57533985Y-116480952D01*
X57486366Y-116528571D01*
X57438747Y-116623809D01*
X57438747Y-116861904D01*
X57486366Y-116957142D01*
X57533985Y-117004761D01*
X57629223Y-117052380D01*
X57867319Y-117052380D01*
X57962557Y-117004761D01*
X58010176Y-116957142D01*
%TO.C,R14*%
X69942857Y-127052380D02*
X70276190Y-126576190D01*
X70514285Y-127052380D02*
X70514285Y-126052380D01*
X70133333Y-126052380D01*
X70038095Y-126100000D01*
X69990476Y-126147619D01*
X69942857Y-126242857D01*
X69942857Y-126385714D01*
X69990476Y-126480952D01*
X70038095Y-126528571D01*
X70133333Y-126576190D01*
X70514285Y-126576190D01*
X68990476Y-127052380D02*
X69561904Y-127052380D01*
X69276190Y-127052380D02*
X69276190Y-126052380D01*
X69371428Y-126195238D01*
X69466666Y-126290476D01*
X69561904Y-126338095D01*
X68133333Y-126385714D02*
X68133333Y-127052380D01*
X68371428Y-126004761D02*
X68609523Y-126719047D01*
X67990476Y-126719047D01*
%TO.C,R21*%
X97642857Y-118452380D02*
X97976190Y-117976190D01*
X98214285Y-118452380D02*
X98214285Y-117452380D01*
X97833333Y-117452380D01*
X97738095Y-117500000D01*
X97690476Y-117547619D01*
X97642857Y-117642857D01*
X97642857Y-117785714D01*
X97690476Y-117880952D01*
X97738095Y-117928571D01*
X97833333Y-117976190D01*
X98214285Y-117976190D01*
X97261904Y-117547619D02*
X97214285Y-117500000D01*
X97119047Y-117452380D01*
X96880952Y-117452380D01*
X96785714Y-117500000D01*
X96738095Y-117547619D01*
X96690476Y-117642857D01*
X96690476Y-117738095D01*
X96738095Y-117880952D01*
X97309523Y-118452380D01*
X96690476Y-118452380D01*
X95738095Y-118452380D02*
X96309523Y-118452380D01*
X96023809Y-118452380D02*
X96023809Y-117452380D01*
X96119047Y-117595238D01*
X96214285Y-117690476D01*
X96309523Y-117738095D01*
%TO.C,R16*%
X52242857Y-127602380D02*
X52576190Y-127126190D01*
X52814285Y-127602380D02*
X52814285Y-126602380D01*
X52433333Y-126602380D01*
X52338095Y-126650000D01*
X52290476Y-126697619D01*
X52242857Y-126792857D01*
X52242857Y-126935714D01*
X52290476Y-127030952D01*
X52338095Y-127078571D01*
X52433333Y-127126190D01*
X52814285Y-127126190D01*
X51290476Y-127602380D02*
X51861904Y-127602380D01*
X51576190Y-127602380D02*
X51576190Y-126602380D01*
X51671428Y-126745238D01*
X51766666Y-126840476D01*
X51861904Y-126888095D01*
X50433333Y-126602380D02*
X50623809Y-126602380D01*
X50719047Y-126650000D01*
X50766666Y-126697619D01*
X50861904Y-126840476D01*
X50909523Y-127030952D01*
X50909523Y-127411904D01*
X50861904Y-127507142D01*
X50814285Y-127554761D01*
X50719047Y-127602380D01*
X50528571Y-127602380D01*
X50433333Y-127554761D01*
X50385714Y-127507142D01*
X50338095Y-127411904D01*
X50338095Y-127173809D01*
X50385714Y-127078571D01*
X50433333Y-127030952D01*
X50528571Y-126983333D01*
X50719047Y-126983333D01*
X50814285Y-127030952D01*
X50861904Y-127078571D01*
X50909523Y-127173809D01*
%TO.C,J10*%
X86809523Y-121520589D02*
X86809523Y-122234875D01*
X86857142Y-122377732D01*
X86952380Y-122472970D01*
X87095238Y-122520589D01*
X87190476Y-122520589D01*
X85809523Y-122520589D02*
X86380952Y-122520589D01*
X86095238Y-122520589D02*
X86095238Y-121520589D01*
X86190476Y-121663447D01*
X86285714Y-121758685D01*
X86380952Y-121806304D01*
X85190476Y-121520589D02*
X85095238Y-121520589D01*
X85000000Y-121568209D01*
X84952380Y-121615828D01*
X84904761Y-121711066D01*
X84857142Y-121901542D01*
X84857142Y-122139637D01*
X84904761Y-122330113D01*
X84952380Y-122425351D01*
X85000000Y-122472970D01*
X85095238Y-122520589D01*
X85190476Y-122520589D01*
X85285714Y-122472970D01*
X85333333Y-122425351D01*
X85380952Y-122330113D01*
X85428571Y-122139637D01*
X85428571Y-121901542D01*
X85380952Y-121711066D01*
X85333333Y-121615828D01*
X85285714Y-121568209D01*
X85190476Y-121520589D01*
%TO.C,C8*%
X39104166Y-114737142D02*
X39151785Y-114784761D01*
X39294642Y-114832380D01*
X39389880Y-114832380D01*
X39532738Y-114784761D01*
X39627976Y-114689523D01*
X39675595Y-114594285D01*
X39723214Y-114403809D01*
X39723214Y-114260952D01*
X39675595Y-114070476D01*
X39627976Y-113975238D01*
X39532738Y-113880000D01*
X39389880Y-113832380D01*
X39294642Y-113832380D01*
X39151785Y-113880000D01*
X39104166Y-113927619D01*
X38532738Y-114260952D02*
X38627976Y-114213333D01*
X38675595Y-114165714D01*
X38723214Y-114070476D01*
X38723214Y-114022857D01*
X38675595Y-113927619D01*
X38627976Y-113880000D01*
X38532738Y-113832380D01*
X38342261Y-113832380D01*
X38247023Y-113880000D01*
X38199404Y-113927619D01*
X38151785Y-114022857D01*
X38151785Y-114070476D01*
X38199404Y-114165714D01*
X38247023Y-114213333D01*
X38342261Y-114260952D01*
X38532738Y-114260952D01*
X38627976Y-114308571D01*
X38675595Y-114356190D01*
X38723214Y-114451428D01*
X38723214Y-114641904D01*
X38675595Y-114737142D01*
X38627976Y-114784761D01*
X38532738Y-114832380D01*
X38342261Y-114832380D01*
X38247023Y-114784761D01*
X38199404Y-114737142D01*
X38151785Y-114641904D01*
X38151785Y-114451428D01*
X38199404Y-114356190D01*
X38247023Y-114308571D01*
X38342261Y-114260952D01*
%TO.C,R39*%
X44142857Y-135752380D02*
X44476190Y-135276190D01*
X44714285Y-135752380D02*
X44714285Y-134752380D01*
X44333333Y-134752380D01*
X44238095Y-134800000D01*
X44190476Y-134847619D01*
X44142857Y-134942857D01*
X44142857Y-135085714D01*
X44190476Y-135180952D01*
X44238095Y-135228571D01*
X44333333Y-135276190D01*
X44714285Y-135276190D01*
X43809523Y-134752380D02*
X43190476Y-134752380D01*
X43523809Y-135133333D01*
X43380952Y-135133333D01*
X43285714Y-135180952D01*
X43238095Y-135228571D01*
X43190476Y-135323809D01*
X43190476Y-135561904D01*
X43238095Y-135657142D01*
X43285714Y-135704761D01*
X43380952Y-135752380D01*
X43666666Y-135752380D01*
X43761904Y-135704761D01*
X43809523Y-135657142D01*
X42714285Y-135752380D02*
X42523809Y-135752380D01*
X42428571Y-135704761D01*
X42380952Y-135657142D01*
X42285714Y-135514285D01*
X42238095Y-135323809D01*
X42238095Y-134942857D01*
X42285714Y-134847619D01*
X42333333Y-134800000D01*
X42428571Y-134752380D01*
X42619047Y-134752380D01*
X42714285Y-134800000D01*
X42761904Y-134847619D01*
X42809523Y-134942857D01*
X42809523Y-135180952D01*
X42761904Y-135276190D01*
X42714285Y-135323809D01*
X42619047Y-135371428D01*
X42428571Y-135371428D01*
X42333333Y-135323809D01*
X42285714Y-135276190D01*
X42238095Y-135180952D01*
%TO.C,C16*%
X109142857Y-151057142D02*
X109190476Y-151104761D01*
X109333333Y-151152380D01*
X109428571Y-151152380D01*
X109571428Y-151104761D01*
X109666666Y-151009523D01*
X109714285Y-150914285D01*
X109761904Y-150723809D01*
X109761904Y-150580952D01*
X109714285Y-150390476D01*
X109666666Y-150295238D01*
X109571428Y-150200000D01*
X109428571Y-150152380D01*
X109333333Y-150152380D01*
X109190476Y-150200000D01*
X109142857Y-150247619D01*
X108190476Y-151152380D02*
X108761904Y-151152380D01*
X108476190Y-151152380D02*
X108476190Y-150152380D01*
X108571428Y-150295238D01*
X108666666Y-150390476D01*
X108761904Y-150438095D01*
X107333333Y-150152380D02*
X107523809Y-150152380D01*
X107619047Y-150200000D01*
X107666666Y-150247619D01*
X107761904Y-150390476D01*
X107809523Y-150580952D01*
X107809523Y-150961904D01*
X107761904Y-151057142D01*
X107714285Y-151104761D01*
X107619047Y-151152380D01*
X107428571Y-151152380D01*
X107333333Y-151104761D01*
X107285714Y-151057142D01*
X107238095Y-150961904D01*
X107238095Y-150723809D01*
X107285714Y-150628571D01*
X107333333Y-150580952D01*
X107428571Y-150533333D01*
X107619047Y-150533333D01*
X107714285Y-150580952D01*
X107761904Y-150628571D01*
X107809523Y-150723809D01*
%TO.C,JP6*%
X105173761Y-116683288D02*
X105888047Y-116683288D01*
X106030904Y-116635669D01*
X106126142Y-116540431D01*
X106173761Y-116397574D01*
X106173761Y-116302336D01*
X106173761Y-117159479D02*
X105173761Y-117159479D01*
X105173761Y-117540431D01*
X105221381Y-117635669D01*
X105269000Y-117683288D01*
X105364238Y-117730907D01*
X105507095Y-117730907D01*
X105602333Y-117683288D01*
X105649952Y-117635669D01*
X105697571Y-117540431D01*
X105697571Y-117159479D01*
X105173761Y-118588050D02*
X105173761Y-118397574D01*
X105221381Y-118302336D01*
X105269000Y-118254717D01*
X105411857Y-118159479D01*
X105602333Y-118111860D01*
X105983285Y-118111860D01*
X106078523Y-118159479D01*
X106126142Y-118207098D01*
X106173761Y-118302336D01*
X106173761Y-118492812D01*
X106126142Y-118588050D01*
X106078523Y-118635669D01*
X105983285Y-118683288D01*
X105745190Y-118683288D01*
X105649952Y-118635669D01*
X105602333Y-118588050D01*
X105554714Y-118492812D01*
X105554714Y-118302336D01*
X105602333Y-118207098D01*
X105649952Y-118159479D01*
X105745190Y-118111860D01*
%TO.C,R19*%
X89059880Y-122807142D02*
X88583690Y-122473809D01*
X89059880Y-122235714D02*
X88059880Y-122235714D01*
X88059880Y-122616666D01*
X88107500Y-122711904D01*
X88155119Y-122759523D01*
X88250357Y-122807142D01*
X88393214Y-122807142D01*
X88488452Y-122759523D01*
X88536071Y-122711904D01*
X88583690Y-122616666D01*
X88583690Y-122235714D01*
X89059880Y-123759523D02*
X89059880Y-123188095D01*
X89059880Y-123473809D02*
X88059880Y-123473809D01*
X88202738Y-123378571D01*
X88297976Y-123283333D01*
X88345595Y-123188095D01*
X89059880Y-124235714D02*
X89059880Y-124426190D01*
X89012261Y-124521428D01*
X88964642Y-124569047D01*
X88821785Y-124664285D01*
X88631309Y-124711904D01*
X88250357Y-124711904D01*
X88155119Y-124664285D01*
X88107500Y-124616666D01*
X88059880Y-124521428D01*
X88059880Y-124330952D01*
X88107500Y-124235714D01*
X88155119Y-124188095D01*
X88250357Y-124140476D01*
X88488452Y-124140476D01*
X88583690Y-124188095D01*
X88631309Y-124235714D01*
X88678928Y-124330952D01*
X88678928Y-124521428D01*
X88631309Y-124616666D01*
X88583690Y-124664285D01*
X88488452Y-124711904D01*
%TO.C,C1*%
X89866666Y-117057142D02*
X89914285Y-117104761D01*
X90057142Y-117152380D01*
X90152380Y-117152380D01*
X90295238Y-117104761D01*
X90390476Y-117009523D01*
X90438095Y-116914285D01*
X90485714Y-116723809D01*
X90485714Y-116580952D01*
X90438095Y-116390476D01*
X90390476Y-116295238D01*
X90295238Y-116200000D01*
X90152380Y-116152380D01*
X90057142Y-116152380D01*
X89914285Y-116200000D01*
X89866666Y-116247619D01*
X88914285Y-117152380D02*
X89485714Y-117152380D01*
X89200000Y-117152380D02*
X89200000Y-116152380D01*
X89295238Y-116295238D01*
X89390476Y-116390476D01*
X89485714Y-116438095D01*
%TO.C,R10*%
X53377304Y-146871037D02*
X53710637Y-146394847D01*
X53948732Y-146871037D02*
X53948732Y-145871037D01*
X53567780Y-145871037D01*
X53472542Y-145918657D01*
X53424923Y-145966276D01*
X53377304Y-146061514D01*
X53377304Y-146204371D01*
X53424923Y-146299609D01*
X53472542Y-146347228D01*
X53567780Y-146394847D01*
X53948732Y-146394847D01*
X52424923Y-146871037D02*
X52996351Y-146871037D01*
X52710637Y-146871037D02*
X52710637Y-145871037D01*
X52805875Y-146013895D01*
X52901113Y-146109133D01*
X52996351Y-146156752D01*
X51805875Y-145871037D02*
X51710637Y-145871037D01*
X51615399Y-145918657D01*
X51567780Y-145966276D01*
X51520161Y-146061514D01*
X51472542Y-146251990D01*
X51472542Y-146490085D01*
X51520161Y-146680561D01*
X51567780Y-146775799D01*
X51615399Y-146823418D01*
X51710637Y-146871037D01*
X51805875Y-146871037D01*
X51901113Y-146823418D01*
X51948732Y-146775799D01*
X51996351Y-146680561D01*
X52043970Y-146490085D01*
X52043970Y-146251990D01*
X51996351Y-146061514D01*
X51948732Y-145966276D01*
X51901113Y-145918657D01*
X51805875Y-145871037D01*
%TO.C,U6*%
X38261904Y-153652380D02*
X38261904Y-154461904D01*
X38214285Y-154557142D01*
X38166666Y-154604761D01*
X38071428Y-154652380D01*
X37880952Y-154652380D01*
X37785714Y-154604761D01*
X37738095Y-154557142D01*
X37690476Y-154461904D01*
X37690476Y-153652380D01*
X36785714Y-153652380D02*
X36976190Y-153652380D01*
X37071428Y-153700000D01*
X37119047Y-153747619D01*
X37214285Y-153890476D01*
X37261904Y-154080952D01*
X37261904Y-154461904D01*
X37214285Y-154557142D01*
X37166666Y-154604761D01*
X37071428Y-154652380D01*
X36880952Y-154652380D01*
X36785714Y-154604761D01*
X36738095Y-154557142D01*
X36690476Y-154461904D01*
X36690476Y-154223809D01*
X36738095Y-154128571D01*
X36785714Y-154080952D01*
X36880952Y-154033333D01*
X37071428Y-154033333D01*
X37166666Y-154080952D01*
X37214285Y-154128571D01*
X37261904Y-154223809D01*
%TO.C,C10*%
X70242857Y-123857142D02*
X70290476Y-123904761D01*
X70433333Y-123952380D01*
X70528571Y-123952380D01*
X70671428Y-123904761D01*
X70766666Y-123809523D01*
X70814285Y-123714285D01*
X70861904Y-123523809D01*
X70861904Y-123380952D01*
X70814285Y-123190476D01*
X70766666Y-123095238D01*
X70671428Y-123000000D01*
X70528571Y-122952380D01*
X70433333Y-122952380D01*
X70290476Y-123000000D01*
X70242857Y-123047619D01*
X69290476Y-123952380D02*
X69861904Y-123952380D01*
X69576190Y-123952380D02*
X69576190Y-122952380D01*
X69671428Y-123095238D01*
X69766666Y-123190476D01*
X69861904Y-123238095D01*
X68671428Y-122952380D02*
X68576190Y-122952380D01*
X68480952Y-123000000D01*
X68433333Y-123047619D01*
X68385714Y-123142857D01*
X68338095Y-123333333D01*
X68338095Y-123571428D01*
X68385714Y-123761904D01*
X68433333Y-123857142D01*
X68480952Y-123904761D01*
X68576190Y-123952380D01*
X68671428Y-123952380D01*
X68766666Y-123904761D01*
X68814285Y-123857142D01*
X68861904Y-123761904D01*
X68909523Y-123571428D01*
X68909523Y-123333333D01*
X68861904Y-123142857D01*
X68814285Y-123047619D01*
X68766666Y-123000000D01*
X68671428Y-122952380D01*
%TO.C,R6*%
X65366666Y-118852380D02*
X65700000Y-118376190D01*
X65938095Y-118852380D02*
X65938095Y-117852380D01*
X65557142Y-117852380D01*
X65461904Y-117900000D01*
X65414285Y-117947619D01*
X65366666Y-118042857D01*
X65366666Y-118185714D01*
X65414285Y-118280952D01*
X65461904Y-118328571D01*
X65557142Y-118376190D01*
X65938095Y-118376190D01*
X64509523Y-117852380D02*
X64700000Y-117852380D01*
X64795238Y-117900000D01*
X64842857Y-117947619D01*
X64938095Y-118090476D01*
X64985714Y-118280952D01*
X64985714Y-118661904D01*
X64938095Y-118757142D01*
X64890476Y-118804761D01*
X64795238Y-118852380D01*
X64604761Y-118852380D01*
X64509523Y-118804761D01*
X64461904Y-118757142D01*
X64414285Y-118661904D01*
X64414285Y-118423809D01*
X64461904Y-118328571D01*
X64509523Y-118280952D01*
X64604761Y-118233333D01*
X64795238Y-118233333D01*
X64890476Y-118280952D01*
X64938095Y-118328571D01*
X64985714Y-118423809D01*
%TO.C,R17*%
X56882380Y-124444642D02*
X56406190Y-124111309D01*
X56882380Y-123873214D02*
X55882380Y-123873214D01*
X55882380Y-124254166D01*
X55930000Y-124349404D01*
X55977619Y-124397023D01*
X56072857Y-124444642D01*
X56215714Y-124444642D01*
X56310952Y-124397023D01*
X56358571Y-124349404D01*
X56406190Y-124254166D01*
X56406190Y-123873214D01*
X56882380Y-125397023D02*
X56882380Y-124825595D01*
X56882380Y-125111309D02*
X55882380Y-125111309D01*
X56025238Y-125016071D01*
X56120476Y-124920833D01*
X56168095Y-124825595D01*
X55882380Y-125730357D02*
X55882380Y-126397023D01*
X56882380Y-125968452D01*
%TO.C,R25*%
X112282380Y-137657142D02*
X111806190Y-137323809D01*
X112282380Y-137085714D02*
X111282380Y-137085714D01*
X111282380Y-137466666D01*
X111330000Y-137561904D01*
X111377619Y-137609523D01*
X111472857Y-137657142D01*
X111615714Y-137657142D01*
X111710952Y-137609523D01*
X111758571Y-137561904D01*
X111806190Y-137466666D01*
X111806190Y-137085714D01*
X111377619Y-138038095D02*
X111330000Y-138085714D01*
X111282380Y-138180952D01*
X111282380Y-138419047D01*
X111330000Y-138514285D01*
X111377619Y-138561904D01*
X111472857Y-138609523D01*
X111568095Y-138609523D01*
X111710952Y-138561904D01*
X112282380Y-137990476D01*
X112282380Y-138609523D01*
X111282380Y-139514285D02*
X111282380Y-139038095D01*
X111758571Y-138990476D01*
X111710952Y-139038095D01*
X111663333Y-139133333D01*
X111663333Y-139371428D01*
X111710952Y-139466666D01*
X111758571Y-139514285D01*
X111853809Y-139561904D01*
X112091904Y-139561904D01*
X112187142Y-139514285D01*
X112234761Y-139466666D01*
X112282380Y-139371428D01*
X112282380Y-139133333D01*
X112234761Y-139038095D01*
X112187142Y-138990476D01*
%TO.C,R36*%
X51842857Y-131622380D02*
X52176190Y-131146190D01*
X52414285Y-131622380D02*
X52414285Y-130622380D01*
X52033333Y-130622380D01*
X51938095Y-130670000D01*
X51890476Y-130717619D01*
X51842857Y-130812857D01*
X51842857Y-130955714D01*
X51890476Y-131050952D01*
X51938095Y-131098571D01*
X52033333Y-131146190D01*
X52414285Y-131146190D01*
X51509523Y-130622380D02*
X50890476Y-130622380D01*
X51223809Y-131003333D01*
X51080952Y-131003333D01*
X50985714Y-131050952D01*
X50938095Y-131098571D01*
X50890476Y-131193809D01*
X50890476Y-131431904D01*
X50938095Y-131527142D01*
X50985714Y-131574761D01*
X51080952Y-131622380D01*
X51366666Y-131622380D01*
X51461904Y-131574761D01*
X51509523Y-131527142D01*
X50033333Y-130622380D02*
X50223809Y-130622380D01*
X50319047Y-130670000D01*
X50366666Y-130717619D01*
X50461904Y-130860476D01*
X50509523Y-131050952D01*
X50509523Y-131431904D01*
X50461904Y-131527142D01*
X50414285Y-131574761D01*
X50319047Y-131622380D01*
X50128571Y-131622380D01*
X50033333Y-131574761D01*
X49985714Y-131527142D01*
X49938095Y-131431904D01*
X49938095Y-131193809D01*
X49985714Y-131098571D01*
X50033333Y-131050952D01*
X50128571Y-131003333D01*
X50319047Y-131003333D01*
X50414285Y-131050952D01*
X50461904Y-131098571D01*
X50509523Y-131193809D01*
%TO.C,JP1*%
X48308333Y-152477380D02*
X48308333Y-153191666D01*
X48355952Y-153334523D01*
X48451190Y-153429761D01*
X48594047Y-153477380D01*
X48689285Y-153477380D01*
X47832142Y-153477380D02*
X47832142Y-152477380D01*
X47451190Y-152477380D01*
X47355952Y-152525000D01*
X47308333Y-152572619D01*
X47260714Y-152667857D01*
X47260714Y-152810714D01*
X47308333Y-152905952D01*
X47355952Y-152953571D01*
X47451190Y-153001190D01*
X47832142Y-153001190D01*
X46308333Y-153477380D02*
X46879761Y-153477380D01*
X46594047Y-153477380D02*
X46594047Y-152477380D01*
X46689285Y-152620238D01*
X46784523Y-152715476D01*
X46879761Y-152763095D01*
%TO.C,R38*%
X43352380Y-140057142D02*
X42876190Y-139723809D01*
X43352380Y-139485714D02*
X42352380Y-139485714D01*
X42352380Y-139866666D01*
X42400000Y-139961904D01*
X42447619Y-140009523D01*
X42542857Y-140057142D01*
X42685714Y-140057142D01*
X42780952Y-140009523D01*
X42828571Y-139961904D01*
X42876190Y-139866666D01*
X42876190Y-139485714D01*
X42352380Y-140390476D02*
X42352380Y-141009523D01*
X42733333Y-140676190D01*
X42733333Y-140819047D01*
X42780952Y-140914285D01*
X42828571Y-140961904D01*
X42923809Y-141009523D01*
X43161904Y-141009523D01*
X43257142Y-140961904D01*
X43304761Y-140914285D01*
X43352380Y-140819047D01*
X43352380Y-140533333D01*
X43304761Y-140438095D01*
X43257142Y-140390476D01*
X42780952Y-141580952D02*
X42733333Y-141485714D01*
X42685714Y-141438095D01*
X42590476Y-141390476D01*
X42542857Y-141390476D01*
X42447619Y-141438095D01*
X42400000Y-141485714D01*
X42352380Y-141580952D01*
X42352380Y-141771428D01*
X42400000Y-141866666D01*
X42447619Y-141914285D01*
X42542857Y-141961904D01*
X42590476Y-141961904D01*
X42685714Y-141914285D01*
X42733333Y-141866666D01*
X42780952Y-141771428D01*
X42780952Y-141580952D01*
X42828571Y-141485714D01*
X42876190Y-141438095D01*
X42971428Y-141390476D01*
X43161904Y-141390476D01*
X43257142Y-141438095D01*
X43304761Y-141485714D01*
X43352380Y-141580952D01*
X43352380Y-141771428D01*
X43304761Y-141866666D01*
X43257142Y-141914285D01*
X43161904Y-141961904D01*
X42971428Y-141961904D01*
X42876190Y-141914285D01*
X42828571Y-141866666D01*
X42780952Y-141771428D01*
%TO.C,Q3*%
X48047619Y-121904761D02*
X48000000Y-121809523D01*
X47904761Y-121714285D01*
X47761904Y-121571428D01*
X47714285Y-121476190D01*
X47714285Y-121380952D01*
X47952380Y-121428571D02*
X47904761Y-121333333D01*
X47809523Y-121238095D01*
X47619047Y-121190476D01*
X47285714Y-121190476D01*
X47095238Y-121238095D01*
X47000000Y-121333333D01*
X46952380Y-121428571D01*
X46952380Y-121619047D01*
X47000000Y-121714285D01*
X47095238Y-121809523D01*
X47285714Y-121857142D01*
X47619047Y-121857142D01*
X47809523Y-121809523D01*
X47904761Y-121714285D01*
X47952380Y-121619047D01*
X47952380Y-121428571D01*
X46952380Y-122190476D02*
X46952380Y-122809523D01*
X47333333Y-122476190D01*
X47333333Y-122619047D01*
X47380952Y-122714285D01*
X47428571Y-122761904D01*
X47523809Y-122809523D01*
X47761904Y-122809523D01*
X47857142Y-122761904D01*
X47904761Y-122714285D01*
X47952380Y-122619047D01*
X47952380Y-122333333D01*
X47904761Y-122238095D01*
X47857142Y-122190476D01*
%TO.C,Q6*%
X114695238Y-120547619D02*
X114790476Y-120500000D01*
X114885714Y-120404761D01*
X115028571Y-120261904D01*
X115123809Y-120214285D01*
X115219047Y-120214285D01*
X115171428Y-120452380D02*
X115266666Y-120404761D01*
X115361904Y-120309523D01*
X115409523Y-120119047D01*
X115409523Y-119785714D01*
X115361904Y-119595238D01*
X115266666Y-119500000D01*
X115171428Y-119452380D01*
X114980952Y-119452380D01*
X114885714Y-119500000D01*
X114790476Y-119595238D01*
X114742857Y-119785714D01*
X114742857Y-120119047D01*
X114790476Y-120309523D01*
X114885714Y-120404761D01*
X114980952Y-120452380D01*
X115171428Y-120452380D01*
X113885714Y-119452380D02*
X114076190Y-119452380D01*
X114171428Y-119500000D01*
X114219047Y-119547619D01*
X114314285Y-119690476D01*
X114361904Y-119880952D01*
X114361904Y-120261904D01*
X114314285Y-120357142D01*
X114266666Y-120404761D01*
X114171428Y-120452380D01*
X113980952Y-120452380D01*
X113885714Y-120404761D01*
X113838095Y-120357142D01*
X113790476Y-120261904D01*
X113790476Y-120023809D01*
X113838095Y-119928571D01*
X113885714Y-119880952D01*
X113980952Y-119833333D01*
X114171428Y-119833333D01*
X114266666Y-119880952D01*
X114314285Y-119928571D01*
X114361904Y-120023809D01*
%TO.C,C13*%
X75457142Y-126057142D02*
X75504761Y-126009523D01*
X75552380Y-125866666D01*
X75552380Y-125771428D01*
X75504761Y-125628571D01*
X75409523Y-125533333D01*
X75314285Y-125485714D01*
X75123809Y-125438095D01*
X74980952Y-125438095D01*
X74790476Y-125485714D01*
X74695238Y-125533333D01*
X74600000Y-125628571D01*
X74552380Y-125771428D01*
X74552380Y-125866666D01*
X74600000Y-126009523D01*
X74647619Y-126057142D01*
X75552380Y-127009523D02*
X75552380Y-126438095D01*
X75552380Y-126723809D02*
X74552380Y-126723809D01*
X74695238Y-126628571D01*
X74790476Y-126533333D01*
X74838095Y-126438095D01*
X74552380Y-127342857D02*
X74552380Y-127961904D01*
X74933333Y-127628571D01*
X74933333Y-127771428D01*
X74980952Y-127866666D01*
X75028571Y-127914285D01*
X75123809Y-127961904D01*
X75361904Y-127961904D01*
X75457142Y-127914285D01*
X75504761Y-127866666D01*
X75552380Y-127771428D01*
X75552380Y-127485714D01*
X75504761Y-127390476D01*
X75457142Y-127342857D01*
%TO.C,C18*%
X111542857Y-134477142D02*
X111590476Y-134524761D01*
X111733333Y-134572380D01*
X111828571Y-134572380D01*
X111971428Y-134524761D01*
X112066666Y-134429523D01*
X112114285Y-134334285D01*
X112161904Y-134143809D01*
X112161904Y-134000952D01*
X112114285Y-133810476D01*
X112066666Y-133715238D01*
X111971428Y-133620000D01*
X111828571Y-133572380D01*
X111733333Y-133572380D01*
X111590476Y-133620000D01*
X111542857Y-133667619D01*
X110590476Y-134572380D02*
X111161904Y-134572380D01*
X110876190Y-134572380D02*
X110876190Y-133572380D01*
X110971428Y-133715238D01*
X111066666Y-133810476D01*
X111161904Y-133858095D01*
X110019047Y-134000952D02*
X110114285Y-133953333D01*
X110161904Y-133905714D01*
X110209523Y-133810476D01*
X110209523Y-133762857D01*
X110161904Y-133667619D01*
X110114285Y-133620000D01*
X110019047Y-133572380D01*
X109828571Y-133572380D01*
X109733333Y-133620000D01*
X109685714Y-133667619D01*
X109638095Y-133762857D01*
X109638095Y-133810476D01*
X109685714Y-133905714D01*
X109733333Y-133953333D01*
X109828571Y-134000952D01*
X110019047Y-134000952D01*
X110114285Y-134048571D01*
X110161904Y-134096190D01*
X110209523Y-134191428D01*
X110209523Y-134381904D01*
X110161904Y-134477142D01*
X110114285Y-134524761D01*
X110019047Y-134572380D01*
X109828571Y-134572380D01*
X109733333Y-134524761D01*
X109685714Y-134477142D01*
X109638095Y-134381904D01*
X109638095Y-134191428D01*
X109685714Y-134096190D01*
X109733333Y-134048571D01*
X109828571Y-134000952D01*
%TO.C,Q4*%
X82095238Y-127247619D02*
X82190476Y-127200000D01*
X82285714Y-127104761D01*
X82428571Y-126961904D01*
X82523809Y-126914285D01*
X82619047Y-126914285D01*
X82571428Y-127152380D02*
X82666666Y-127104761D01*
X82761904Y-127009523D01*
X82809523Y-126819047D01*
X82809523Y-126485714D01*
X82761904Y-126295238D01*
X82666666Y-126200000D01*
X82571428Y-126152380D01*
X82380952Y-126152380D01*
X82285714Y-126200000D01*
X82190476Y-126295238D01*
X82142857Y-126485714D01*
X82142857Y-126819047D01*
X82190476Y-127009523D01*
X82285714Y-127104761D01*
X82380952Y-127152380D01*
X82571428Y-127152380D01*
X81285714Y-126485714D02*
X81285714Y-127152380D01*
X81523809Y-126104761D02*
X81761904Y-126819047D01*
X81142857Y-126819047D01*
%TO.C,C25*%
X43257142Y-137157142D02*
X43304761Y-137109523D01*
X43352380Y-136966666D01*
X43352380Y-136871428D01*
X43304761Y-136728571D01*
X43209523Y-136633333D01*
X43114285Y-136585714D01*
X42923809Y-136538095D01*
X42780952Y-136538095D01*
X42590476Y-136585714D01*
X42495238Y-136633333D01*
X42400000Y-136728571D01*
X42352380Y-136871428D01*
X42352380Y-136966666D01*
X42400000Y-137109523D01*
X42447619Y-137157142D01*
X42447619Y-137538095D02*
X42400000Y-137585714D01*
X42352380Y-137680952D01*
X42352380Y-137919047D01*
X42400000Y-138014285D01*
X42447619Y-138061904D01*
X42542857Y-138109523D01*
X42638095Y-138109523D01*
X42780952Y-138061904D01*
X43352380Y-137490476D01*
X43352380Y-138109523D01*
X42352380Y-139014285D02*
X42352380Y-138538095D01*
X42828571Y-138490476D01*
X42780952Y-138538095D01*
X42733333Y-138633333D01*
X42733333Y-138871428D01*
X42780952Y-138966666D01*
X42828571Y-139014285D01*
X42923809Y-139061904D01*
X43161904Y-139061904D01*
X43257142Y-139014285D01*
X43304761Y-138966666D01*
X43352380Y-138871428D01*
X43352380Y-138633333D01*
X43304761Y-138538095D01*
X43257142Y-138490476D01*
%TO.C,Q2*%
X54047619Y-121904761D02*
X54000000Y-121809523D01*
X53904761Y-121714285D01*
X53761904Y-121571428D01*
X53714285Y-121476190D01*
X53714285Y-121380952D01*
X53952380Y-121428571D02*
X53904761Y-121333333D01*
X53809523Y-121238095D01*
X53619047Y-121190476D01*
X53285714Y-121190476D01*
X53095238Y-121238095D01*
X53000000Y-121333333D01*
X52952380Y-121428571D01*
X52952380Y-121619047D01*
X53000000Y-121714285D01*
X53095238Y-121809523D01*
X53285714Y-121857142D01*
X53619047Y-121857142D01*
X53809523Y-121809523D01*
X53904761Y-121714285D01*
X53952380Y-121619047D01*
X53952380Y-121428571D01*
X53047619Y-122238095D02*
X53000000Y-122285714D01*
X52952380Y-122380952D01*
X52952380Y-122619047D01*
X53000000Y-122714285D01*
X53047619Y-122761904D01*
X53142857Y-122809523D01*
X53238095Y-122809523D01*
X53380952Y-122761904D01*
X53952380Y-122190476D01*
X53952380Y-122809523D01*
%TO.C,Q5*%
X99195238Y-127547619D02*
X99290476Y-127500000D01*
X99385714Y-127404761D01*
X99528571Y-127261904D01*
X99623809Y-127214285D01*
X99719047Y-127214285D01*
X99671428Y-127452380D02*
X99766666Y-127404761D01*
X99861904Y-127309523D01*
X99909523Y-127119047D01*
X99909523Y-126785714D01*
X99861904Y-126595238D01*
X99766666Y-126500000D01*
X99671428Y-126452380D01*
X99480952Y-126452380D01*
X99385714Y-126500000D01*
X99290476Y-126595238D01*
X99242857Y-126785714D01*
X99242857Y-127119047D01*
X99290476Y-127309523D01*
X99385714Y-127404761D01*
X99480952Y-127452380D01*
X99671428Y-127452380D01*
X98338095Y-126452380D02*
X98814285Y-126452380D01*
X98861904Y-126928571D01*
X98814285Y-126880952D01*
X98719047Y-126833333D01*
X98480952Y-126833333D01*
X98385714Y-126880952D01*
X98338095Y-126928571D01*
X98290476Y-127023809D01*
X98290476Y-127261904D01*
X98338095Y-127357142D01*
X98385714Y-127404761D01*
X98480952Y-127452380D01*
X98719047Y-127452380D01*
X98814285Y-127404761D01*
X98861904Y-127357142D01*
%TO.C,R34*%
X43152380Y-126857142D02*
X42676190Y-126523809D01*
X43152380Y-126285714D02*
X42152380Y-126285714D01*
X42152380Y-126666666D01*
X42200000Y-126761904D01*
X42247619Y-126809523D01*
X42342857Y-126857142D01*
X42485714Y-126857142D01*
X42580952Y-126809523D01*
X42628571Y-126761904D01*
X42676190Y-126666666D01*
X42676190Y-126285714D01*
X42152380Y-127190476D02*
X42152380Y-127809523D01*
X42533333Y-127476190D01*
X42533333Y-127619047D01*
X42580952Y-127714285D01*
X42628571Y-127761904D01*
X42723809Y-127809523D01*
X42961904Y-127809523D01*
X43057142Y-127761904D01*
X43104761Y-127714285D01*
X43152380Y-127619047D01*
X43152380Y-127333333D01*
X43104761Y-127238095D01*
X43057142Y-127190476D01*
X42485714Y-128666666D02*
X43152380Y-128666666D01*
X42104761Y-128428571D02*
X42819047Y-128190476D01*
X42819047Y-128809523D01*
D11*
%TO.C,IC5*%
X39674523Y-136860238D02*
X38404523Y-136860238D01*
X39553571Y-138190714D02*
X39614047Y-138130238D01*
X39674523Y-137948809D01*
X39674523Y-137827857D01*
X39614047Y-137646428D01*
X39493095Y-137525476D01*
X39372142Y-137465000D01*
X39130238Y-137404523D01*
X38948809Y-137404523D01*
X38706904Y-137465000D01*
X38585952Y-137525476D01*
X38465000Y-137646428D01*
X38404523Y-137827857D01*
X38404523Y-137948809D01*
X38465000Y-138130238D01*
X38525476Y-138190714D01*
X38404523Y-139339761D02*
X38404523Y-138735000D01*
X39009285Y-138674523D01*
X38948809Y-138735000D01*
X38888333Y-138855952D01*
X38888333Y-139158333D01*
X38948809Y-139279285D01*
X39009285Y-139339761D01*
X39130238Y-139400238D01*
X39432619Y-139400238D01*
X39553571Y-139339761D01*
X39614047Y-139279285D01*
X39674523Y-139158333D01*
X39674523Y-138855952D01*
X39614047Y-138735000D01*
X39553571Y-138674523D01*
D10*
%TO.C,R26*%
X109242857Y-149652380D02*
X109576190Y-149176190D01*
X109814285Y-149652380D02*
X109814285Y-148652380D01*
X109433333Y-148652380D01*
X109338095Y-148700000D01*
X109290476Y-148747619D01*
X109242857Y-148842857D01*
X109242857Y-148985714D01*
X109290476Y-149080952D01*
X109338095Y-149128571D01*
X109433333Y-149176190D01*
X109814285Y-149176190D01*
X108861904Y-148747619D02*
X108814285Y-148700000D01*
X108719047Y-148652380D01*
X108480952Y-148652380D01*
X108385714Y-148700000D01*
X108338095Y-148747619D01*
X108290476Y-148842857D01*
X108290476Y-148938095D01*
X108338095Y-149080952D01*
X108909523Y-149652380D01*
X108290476Y-149652380D01*
X107433333Y-148652380D02*
X107623809Y-148652380D01*
X107719047Y-148700000D01*
X107766666Y-148747619D01*
X107861904Y-148890476D01*
X107909523Y-149080952D01*
X107909523Y-149461904D01*
X107861904Y-149557142D01*
X107814285Y-149604761D01*
X107719047Y-149652380D01*
X107528571Y-149652380D01*
X107433333Y-149604761D01*
X107385714Y-149557142D01*
X107338095Y-149461904D01*
X107338095Y-149223809D01*
X107385714Y-149128571D01*
X107433333Y-149080952D01*
X107528571Y-149033333D01*
X107719047Y-149033333D01*
X107814285Y-149080952D01*
X107861904Y-149128571D01*
X107909523Y-149223809D01*
D11*
%TO.C,IC3*%
X96339761Y-127574523D02*
X96339761Y-126304523D01*
X95009285Y-127453571D02*
X95069761Y-127514047D01*
X95251190Y-127574523D01*
X95372142Y-127574523D01*
X95553571Y-127514047D01*
X95674523Y-127393095D01*
X95735000Y-127272142D01*
X95795476Y-127030238D01*
X95795476Y-126848809D01*
X95735000Y-126606904D01*
X95674523Y-126485952D01*
X95553571Y-126365000D01*
X95372142Y-126304523D01*
X95251190Y-126304523D01*
X95069761Y-126365000D01*
X95009285Y-126425476D01*
X94585952Y-126304523D02*
X93799761Y-126304523D01*
X94223095Y-126788333D01*
X94041666Y-126788333D01*
X93920714Y-126848809D01*
X93860238Y-126909285D01*
X93799761Y-127030238D01*
X93799761Y-127332619D01*
X93860238Y-127453571D01*
X93920714Y-127514047D01*
X94041666Y-127574523D01*
X94404523Y-127574523D01*
X94525476Y-127514047D01*
X94585952Y-127453571D01*
D10*
%TO.C,R30*%
X115208110Y-117388054D02*
X115541443Y-116911864D01*
X115779538Y-117388054D02*
X115779538Y-116388054D01*
X115398586Y-116388054D01*
X115303348Y-116435674D01*
X115255729Y-116483293D01*
X115208110Y-116578531D01*
X115208110Y-116721388D01*
X115255729Y-116816626D01*
X115303348Y-116864245D01*
X115398586Y-116911864D01*
X115779538Y-116911864D01*
X114874776Y-116388054D02*
X114255729Y-116388054D01*
X114589062Y-116769007D01*
X114446205Y-116769007D01*
X114350967Y-116816626D01*
X114303348Y-116864245D01*
X114255729Y-116959483D01*
X114255729Y-117197578D01*
X114303348Y-117292816D01*
X114350967Y-117340435D01*
X114446205Y-117388054D01*
X114731919Y-117388054D01*
X114827157Y-117340435D01*
X114874776Y-117292816D01*
X113636681Y-116388054D02*
X113541443Y-116388054D01*
X113446205Y-116435674D01*
X113398586Y-116483293D01*
X113350967Y-116578531D01*
X113303348Y-116769007D01*
X113303348Y-117007102D01*
X113350967Y-117197578D01*
X113398586Y-117292816D01*
X113446205Y-117340435D01*
X113541443Y-117388054D01*
X113636681Y-117388054D01*
X113731919Y-117340435D01*
X113779538Y-117292816D01*
X113827157Y-117197578D01*
X113874776Y-117007102D01*
X113874776Y-116769007D01*
X113827157Y-116578531D01*
X113779538Y-116483293D01*
X113731919Y-116435674D01*
X113636681Y-116388054D01*
%TO.C,C19*%
X34042857Y-121027789D02*
X34090476Y-121075408D01*
X34233333Y-121123027D01*
X34328571Y-121123027D01*
X34471428Y-121075408D01*
X34566666Y-120980170D01*
X34614285Y-120884932D01*
X34661904Y-120694456D01*
X34661904Y-120551599D01*
X34614285Y-120361123D01*
X34566666Y-120265885D01*
X34471428Y-120170647D01*
X34328571Y-120123027D01*
X34233333Y-120123027D01*
X34090476Y-120170647D01*
X34042857Y-120218266D01*
X33090476Y-121123027D02*
X33661904Y-121123027D01*
X33376190Y-121123027D02*
X33376190Y-120123027D01*
X33471428Y-120265885D01*
X33566666Y-120361123D01*
X33661904Y-120408742D01*
X32614285Y-121123027D02*
X32423809Y-121123027D01*
X32328571Y-121075408D01*
X32280952Y-121027789D01*
X32185714Y-120884932D01*
X32138095Y-120694456D01*
X32138095Y-120313504D01*
X32185714Y-120218266D01*
X32233333Y-120170647D01*
X32328571Y-120123027D01*
X32519047Y-120123027D01*
X32614285Y-120170647D01*
X32661904Y-120218266D01*
X32709523Y-120313504D01*
X32709523Y-120551599D01*
X32661904Y-120646837D01*
X32614285Y-120694456D01*
X32519047Y-120742075D01*
X32328571Y-120742075D01*
X32233333Y-120694456D01*
X32185714Y-120646837D01*
X32138095Y-120551599D01*
%TO.C,C20*%
X115442857Y-151057142D02*
X115490476Y-151104761D01*
X115633333Y-151152380D01*
X115728571Y-151152380D01*
X115871428Y-151104761D01*
X115966666Y-151009523D01*
X116014285Y-150914285D01*
X116061904Y-150723809D01*
X116061904Y-150580952D01*
X116014285Y-150390476D01*
X115966666Y-150295238D01*
X115871428Y-150200000D01*
X115728571Y-150152380D01*
X115633333Y-150152380D01*
X115490476Y-150200000D01*
X115442857Y-150247619D01*
X115061904Y-150247619D02*
X115014285Y-150200000D01*
X114919047Y-150152380D01*
X114680952Y-150152380D01*
X114585714Y-150200000D01*
X114538095Y-150247619D01*
X114490476Y-150342857D01*
X114490476Y-150438095D01*
X114538095Y-150580952D01*
X115109523Y-151152380D01*
X114490476Y-151152380D01*
X113871428Y-150152380D02*
X113776190Y-150152380D01*
X113680952Y-150200000D01*
X113633333Y-150247619D01*
X113585714Y-150342857D01*
X113538095Y-150533333D01*
X113538095Y-150771428D01*
X113585714Y-150961904D01*
X113633333Y-151057142D01*
X113680952Y-151104761D01*
X113776190Y-151152380D01*
X113871428Y-151152380D01*
X113966666Y-151104761D01*
X114014285Y-151057142D01*
X114061904Y-150961904D01*
X114109523Y-150771428D01*
X114109523Y-150533333D01*
X114061904Y-150342857D01*
X114014285Y-150247619D01*
X113966666Y-150200000D01*
X113871428Y-150152380D01*
%TO.C,C22*%
X30442857Y-117357142D02*
X30490476Y-117404761D01*
X30633333Y-117452380D01*
X30728571Y-117452380D01*
X30871428Y-117404761D01*
X30966666Y-117309523D01*
X31014285Y-117214285D01*
X31061904Y-117023809D01*
X31061904Y-116880952D01*
X31014285Y-116690476D01*
X30966666Y-116595238D01*
X30871428Y-116500000D01*
X30728571Y-116452380D01*
X30633333Y-116452380D01*
X30490476Y-116500000D01*
X30442857Y-116547619D01*
X30061904Y-116547619D02*
X30014285Y-116500000D01*
X29919047Y-116452380D01*
X29680952Y-116452380D01*
X29585714Y-116500000D01*
X29538095Y-116547619D01*
X29490476Y-116642857D01*
X29490476Y-116738095D01*
X29538095Y-116880952D01*
X30109523Y-117452380D01*
X29490476Y-117452380D01*
X29109523Y-116547619D02*
X29061904Y-116500000D01*
X28966666Y-116452380D01*
X28728571Y-116452380D01*
X28633333Y-116500000D01*
X28585714Y-116547619D01*
X28538095Y-116642857D01*
X28538095Y-116738095D01*
X28585714Y-116880952D01*
X29157142Y-117452380D01*
X28538095Y-117452380D01*
%TO.C,R22*%
X58852380Y-140246061D02*
X58376190Y-139912728D01*
X58852380Y-139674633D02*
X57852380Y-139674633D01*
X57852380Y-140055585D01*
X57900000Y-140150823D01*
X57947619Y-140198442D01*
X58042857Y-140246061D01*
X58185714Y-140246061D01*
X58280952Y-140198442D01*
X58328571Y-140150823D01*
X58376190Y-140055585D01*
X58376190Y-139674633D01*
X57947619Y-140627014D02*
X57900000Y-140674633D01*
X57852380Y-140769871D01*
X57852380Y-141007966D01*
X57900000Y-141103204D01*
X57947619Y-141150823D01*
X58042857Y-141198442D01*
X58138095Y-141198442D01*
X58280952Y-141150823D01*
X58852380Y-140579395D01*
X58852380Y-141198442D01*
X57947619Y-141579395D02*
X57900000Y-141627014D01*
X57852380Y-141722252D01*
X57852380Y-141960347D01*
X57900000Y-142055585D01*
X57947619Y-142103204D01*
X58042857Y-142150823D01*
X58138095Y-142150823D01*
X58280952Y-142103204D01*
X58852380Y-141531776D01*
X58852380Y-142150823D01*
%TO.C,C9*%
X61857142Y-126933333D02*
X61904761Y-126885714D01*
X61952380Y-126742857D01*
X61952380Y-126647619D01*
X61904761Y-126504761D01*
X61809523Y-126409523D01*
X61714285Y-126361904D01*
X61523809Y-126314285D01*
X61380952Y-126314285D01*
X61190476Y-126361904D01*
X61095238Y-126409523D01*
X61000000Y-126504761D01*
X60952380Y-126647619D01*
X60952380Y-126742857D01*
X61000000Y-126885714D01*
X61047619Y-126933333D01*
X61952380Y-127409523D02*
X61952380Y-127600000D01*
X61904761Y-127695238D01*
X61857142Y-127742857D01*
X61714285Y-127838095D01*
X61523809Y-127885714D01*
X61142857Y-127885714D01*
X61047619Y-127838095D01*
X61000000Y-127790476D01*
X60952380Y-127695238D01*
X60952380Y-127504761D01*
X61000000Y-127409523D01*
X61047619Y-127361904D01*
X61142857Y-127314285D01*
X61380952Y-127314285D01*
X61476190Y-127361904D01*
X61523809Y-127409523D01*
X61571428Y-127504761D01*
X61571428Y-127695238D01*
X61523809Y-127790476D01*
X61476190Y-127838095D01*
X61380952Y-127885714D01*
%TO.C,R9*%
X48652380Y-146933333D02*
X48176190Y-146600000D01*
X48652380Y-146361904D02*
X47652380Y-146361904D01*
X47652380Y-146742857D01*
X47700000Y-146838095D01*
X47747619Y-146885714D01*
X47842857Y-146933333D01*
X47985714Y-146933333D01*
X48080952Y-146885714D01*
X48128571Y-146838095D01*
X48176190Y-146742857D01*
X48176190Y-146361904D01*
X48652380Y-147409523D02*
X48652380Y-147600000D01*
X48604761Y-147695238D01*
X48557142Y-147742857D01*
X48414285Y-147838095D01*
X48223809Y-147885714D01*
X47842857Y-147885714D01*
X47747619Y-147838095D01*
X47700000Y-147790476D01*
X47652380Y-147695238D01*
X47652380Y-147504761D01*
X47700000Y-147409523D01*
X47747619Y-147361904D01*
X47842857Y-147314285D01*
X48080952Y-147314285D01*
X48176190Y-147361904D01*
X48223809Y-147409523D01*
X48271428Y-147504761D01*
X48271428Y-147695238D01*
X48223809Y-147790476D01*
X48176190Y-147838095D01*
X48080952Y-147885714D01*
%TO.C,C17*%
X112442857Y-151057142D02*
X112490476Y-151104761D01*
X112633333Y-151152380D01*
X112728571Y-151152380D01*
X112871428Y-151104761D01*
X112966666Y-151009523D01*
X113014285Y-150914285D01*
X113061904Y-150723809D01*
X113061904Y-150580952D01*
X113014285Y-150390476D01*
X112966666Y-150295238D01*
X112871428Y-150200000D01*
X112728571Y-150152380D01*
X112633333Y-150152380D01*
X112490476Y-150200000D01*
X112442857Y-150247619D01*
X111490476Y-151152380D02*
X112061904Y-151152380D01*
X111776190Y-151152380D02*
X111776190Y-150152380D01*
X111871428Y-150295238D01*
X111966666Y-150390476D01*
X112061904Y-150438095D01*
X111157142Y-150152380D02*
X110490476Y-150152380D01*
X110919047Y-151152380D01*
%TO.C,R4*%
X54725671Y-118999522D02*
X54249481Y-118666189D01*
X54725671Y-118428093D02*
X53725671Y-118428093D01*
X53725671Y-118809046D01*
X53773291Y-118904284D01*
X53820910Y-118951903D01*
X53916148Y-118999522D01*
X54059005Y-118999522D01*
X54154243Y-118951903D01*
X54201862Y-118904284D01*
X54249481Y-118809046D01*
X54249481Y-118428093D01*
X54059005Y-119856665D02*
X54725671Y-119856665D01*
X53678052Y-119618569D02*
X54392338Y-119380474D01*
X54392338Y-119999522D01*
%TO.C,R27*%
X112342857Y-149752380D02*
X112676190Y-149276190D01*
X112914285Y-149752380D02*
X112914285Y-148752380D01*
X112533333Y-148752380D01*
X112438095Y-148800000D01*
X112390476Y-148847619D01*
X112342857Y-148942857D01*
X112342857Y-149085714D01*
X112390476Y-149180952D01*
X112438095Y-149228571D01*
X112533333Y-149276190D01*
X112914285Y-149276190D01*
X111961904Y-148847619D02*
X111914285Y-148800000D01*
X111819047Y-148752380D01*
X111580952Y-148752380D01*
X111485714Y-148800000D01*
X111438095Y-148847619D01*
X111390476Y-148942857D01*
X111390476Y-149038095D01*
X111438095Y-149180952D01*
X112009523Y-149752380D01*
X111390476Y-149752380D01*
X111057142Y-148752380D02*
X110390476Y-148752380D01*
X110819047Y-149752380D01*
%TO.C,U3*%
X59852380Y-135238095D02*
X60661904Y-135238095D01*
X60757142Y-135285714D01*
X60804761Y-135333333D01*
X60852380Y-135428571D01*
X60852380Y-135619047D01*
X60804761Y-135714285D01*
X60757142Y-135761904D01*
X60661904Y-135809523D01*
X59852380Y-135809523D01*
X59852380Y-136190476D02*
X59852380Y-136809523D01*
X60233333Y-136476190D01*
X60233333Y-136619047D01*
X60280952Y-136714285D01*
X60328571Y-136761904D01*
X60423809Y-136809523D01*
X60661904Y-136809523D01*
X60757142Y-136761904D01*
X60804761Y-136714285D01*
X60852380Y-136619047D01*
X60852380Y-136333333D01*
X60804761Y-136238095D01*
X60757142Y-136190476D01*
%TO.C,C6*%
X37177142Y-116670833D02*
X37224761Y-116623214D01*
X37272380Y-116480357D01*
X37272380Y-116385119D01*
X37224761Y-116242261D01*
X37129523Y-116147023D01*
X37034285Y-116099404D01*
X36843809Y-116051785D01*
X36700952Y-116051785D01*
X36510476Y-116099404D01*
X36415238Y-116147023D01*
X36320000Y-116242261D01*
X36272380Y-116385119D01*
X36272380Y-116480357D01*
X36320000Y-116623214D01*
X36367619Y-116670833D01*
X36272380Y-117527976D02*
X36272380Y-117337500D01*
X36320000Y-117242261D01*
X36367619Y-117194642D01*
X36510476Y-117099404D01*
X36700952Y-117051785D01*
X37081904Y-117051785D01*
X37177142Y-117099404D01*
X37224761Y-117147023D01*
X37272380Y-117242261D01*
X37272380Y-117432738D01*
X37224761Y-117527976D01*
X37177142Y-117575595D01*
X37081904Y-117623214D01*
X36843809Y-117623214D01*
X36748571Y-117575595D01*
X36700952Y-117527976D01*
X36653333Y-117432738D01*
X36653333Y-117242261D01*
X36700952Y-117147023D01*
X36748571Y-117099404D01*
X36843809Y-117051785D01*
%TO.C,R29*%
X100342857Y-114852380D02*
X100676190Y-114376190D01*
X100914285Y-114852380D02*
X100914285Y-113852380D01*
X100533333Y-113852380D01*
X100438095Y-113900000D01*
X100390476Y-113947619D01*
X100342857Y-114042857D01*
X100342857Y-114185714D01*
X100390476Y-114280952D01*
X100438095Y-114328571D01*
X100533333Y-114376190D01*
X100914285Y-114376190D01*
X99961904Y-113947619D02*
X99914285Y-113900000D01*
X99819047Y-113852380D01*
X99580952Y-113852380D01*
X99485714Y-113900000D01*
X99438095Y-113947619D01*
X99390476Y-114042857D01*
X99390476Y-114138095D01*
X99438095Y-114280952D01*
X100009523Y-114852380D01*
X99390476Y-114852380D01*
X98914285Y-114852380D02*
X98723809Y-114852380D01*
X98628571Y-114804761D01*
X98580952Y-114757142D01*
X98485714Y-114614285D01*
X98438095Y-114423809D01*
X98438095Y-114042857D01*
X98485714Y-113947619D01*
X98533333Y-113900000D01*
X98628571Y-113852380D01*
X98819047Y-113852380D01*
X98914285Y-113900000D01*
X98961904Y-113947619D01*
X99009523Y-114042857D01*
X99009523Y-114280952D01*
X98961904Y-114376190D01*
X98914285Y-114423809D01*
X98819047Y-114471428D01*
X98628571Y-114471428D01*
X98533333Y-114423809D01*
X98485714Y-114376190D01*
X98438095Y-114280952D01*
%TO.C,R32*%
X54752380Y-134557142D02*
X54276190Y-134223809D01*
X54752380Y-133985714D02*
X53752380Y-133985714D01*
X53752380Y-134366666D01*
X53800000Y-134461904D01*
X53847619Y-134509523D01*
X53942857Y-134557142D01*
X54085714Y-134557142D01*
X54180952Y-134509523D01*
X54228571Y-134461904D01*
X54276190Y-134366666D01*
X54276190Y-133985714D01*
X53752380Y-134890476D02*
X53752380Y-135509523D01*
X54133333Y-135176190D01*
X54133333Y-135319047D01*
X54180952Y-135414285D01*
X54228571Y-135461904D01*
X54323809Y-135509523D01*
X54561904Y-135509523D01*
X54657142Y-135461904D01*
X54704761Y-135414285D01*
X54752380Y-135319047D01*
X54752380Y-135033333D01*
X54704761Y-134938095D01*
X54657142Y-134890476D01*
X53847619Y-135890476D02*
X53800000Y-135938095D01*
X53752380Y-136033333D01*
X53752380Y-136271428D01*
X53800000Y-136366666D01*
X53847619Y-136414285D01*
X53942857Y-136461904D01*
X54038095Y-136461904D01*
X54180952Y-136414285D01*
X54752380Y-135842857D01*
X54752380Y-136461904D01*
%TO.C,C11*%
X41042857Y-154957142D02*
X41090476Y-155004761D01*
X41233333Y-155052380D01*
X41328571Y-155052380D01*
X41471428Y-155004761D01*
X41566666Y-154909523D01*
X41614285Y-154814285D01*
X41661904Y-154623809D01*
X41661904Y-154480952D01*
X41614285Y-154290476D01*
X41566666Y-154195238D01*
X41471428Y-154100000D01*
X41328571Y-154052380D01*
X41233333Y-154052380D01*
X41090476Y-154100000D01*
X41042857Y-154147619D01*
X40090476Y-155052380D02*
X40661904Y-155052380D01*
X40376190Y-155052380D02*
X40376190Y-154052380D01*
X40471428Y-154195238D01*
X40566666Y-154290476D01*
X40661904Y-154338095D01*
X39138095Y-155052380D02*
X39709523Y-155052380D01*
X39423809Y-155052380D02*
X39423809Y-154052380D01*
X39519047Y-154195238D01*
X39614285Y-154290476D01*
X39709523Y-154338095D01*
D11*
%TO.C,IC1*%
X93324507Y-141651928D02*
X93324507Y-140381928D01*
X91994031Y-141530976D02*
X92054507Y-141591452D01*
X92235936Y-141651928D01*
X92356888Y-141651928D01*
X92538317Y-141591452D01*
X92659269Y-141470500D01*
X92719746Y-141349547D01*
X92780222Y-141107643D01*
X92780222Y-140926214D01*
X92719746Y-140684309D01*
X92659269Y-140563357D01*
X92538317Y-140442405D01*
X92356888Y-140381928D01*
X92235936Y-140381928D01*
X92054507Y-140442405D01*
X91994031Y-140502881D01*
X90784507Y-141651928D02*
X91510222Y-141651928D01*
X91147365Y-141651928D02*
X91147365Y-140381928D01*
X91268317Y-140563357D01*
X91389269Y-140684309D01*
X91510222Y-140744785D01*
D10*
%TO.C,C12*%
X44142857Y-151837142D02*
X44190476Y-151884761D01*
X44333333Y-151932380D01*
X44428571Y-151932380D01*
X44571428Y-151884761D01*
X44666666Y-151789523D01*
X44714285Y-151694285D01*
X44761904Y-151503809D01*
X44761904Y-151360952D01*
X44714285Y-151170476D01*
X44666666Y-151075238D01*
X44571428Y-150980000D01*
X44428571Y-150932380D01*
X44333333Y-150932380D01*
X44190476Y-150980000D01*
X44142857Y-151027619D01*
X43190476Y-151932380D02*
X43761904Y-151932380D01*
X43476190Y-151932380D02*
X43476190Y-150932380D01*
X43571428Y-151075238D01*
X43666666Y-151170476D01*
X43761904Y-151218095D01*
X42809523Y-151027619D02*
X42761904Y-150980000D01*
X42666666Y-150932380D01*
X42428571Y-150932380D01*
X42333333Y-150980000D01*
X42285714Y-151027619D01*
X42238095Y-151122857D01*
X42238095Y-151218095D01*
X42285714Y-151360952D01*
X42857142Y-151932380D01*
X42238095Y-151932380D01*
%TO.C,C23*%
X28057142Y-153757142D02*
X28104761Y-153709523D01*
X28152380Y-153566666D01*
X28152380Y-153471428D01*
X28104761Y-153328571D01*
X28009523Y-153233333D01*
X27914285Y-153185714D01*
X27723809Y-153138095D01*
X27580952Y-153138095D01*
X27390476Y-153185714D01*
X27295238Y-153233333D01*
X27200000Y-153328571D01*
X27152380Y-153471428D01*
X27152380Y-153566666D01*
X27200000Y-153709523D01*
X27247619Y-153757142D01*
X27247619Y-154138095D02*
X27200000Y-154185714D01*
X27152380Y-154280952D01*
X27152380Y-154519047D01*
X27200000Y-154614285D01*
X27247619Y-154661904D01*
X27342857Y-154709523D01*
X27438095Y-154709523D01*
X27580952Y-154661904D01*
X28152380Y-154090476D01*
X28152380Y-154709523D01*
X27152380Y-155042857D02*
X27152380Y-155661904D01*
X27533333Y-155328571D01*
X27533333Y-155471428D01*
X27580952Y-155566666D01*
X27628571Y-155614285D01*
X27723809Y-155661904D01*
X27961904Y-155661904D01*
X28057142Y-155614285D01*
X28104761Y-155566666D01*
X28152380Y-155471428D01*
X28152380Y-155185714D01*
X28104761Y-155090476D01*
X28057142Y-155042857D01*
%TO.C,C24*%
X35542857Y-134157142D02*
X35590476Y-134204761D01*
X35733333Y-134252380D01*
X35828571Y-134252380D01*
X35971428Y-134204761D01*
X36066666Y-134109523D01*
X36114285Y-134014285D01*
X36161904Y-133823809D01*
X36161904Y-133680952D01*
X36114285Y-133490476D01*
X36066666Y-133395238D01*
X35971428Y-133300000D01*
X35828571Y-133252380D01*
X35733333Y-133252380D01*
X35590476Y-133300000D01*
X35542857Y-133347619D01*
X35161904Y-133347619D02*
X35114285Y-133300000D01*
X35019047Y-133252380D01*
X34780952Y-133252380D01*
X34685714Y-133300000D01*
X34638095Y-133347619D01*
X34590476Y-133442857D01*
X34590476Y-133538095D01*
X34638095Y-133680952D01*
X35209523Y-134252380D01*
X34590476Y-134252380D01*
X33733333Y-133585714D02*
X33733333Y-134252380D01*
X33971428Y-133204761D02*
X34209523Y-133919047D01*
X33590476Y-133919047D01*
%TO.C,C14*%
X92357142Y-119557142D02*
X92404761Y-119509523D01*
X92452380Y-119366666D01*
X92452380Y-119271428D01*
X92404761Y-119128571D01*
X92309523Y-119033333D01*
X92214285Y-118985714D01*
X92023809Y-118938095D01*
X91880952Y-118938095D01*
X91690476Y-118985714D01*
X91595238Y-119033333D01*
X91500000Y-119128571D01*
X91452380Y-119271428D01*
X91452380Y-119366666D01*
X91500000Y-119509523D01*
X91547619Y-119557142D01*
X92452380Y-120509523D02*
X92452380Y-119938095D01*
X92452380Y-120223809D02*
X91452380Y-120223809D01*
X91595238Y-120128571D01*
X91690476Y-120033333D01*
X91738095Y-119938095D01*
X91785714Y-121366666D02*
X92452380Y-121366666D01*
X91404761Y-121128571D02*
X92119047Y-120890476D01*
X92119047Y-121509523D01*
%TO.C,R12*%
X62942857Y-134452380D02*
X63276190Y-133976190D01*
X63514285Y-134452380D02*
X63514285Y-133452380D01*
X63133333Y-133452380D01*
X63038095Y-133500000D01*
X62990476Y-133547619D01*
X62942857Y-133642857D01*
X62942857Y-133785714D01*
X62990476Y-133880952D01*
X63038095Y-133928571D01*
X63133333Y-133976190D01*
X63514285Y-133976190D01*
X61990476Y-134452380D02*
X62561904Y-134452380D01*
X62276190Y-134452380D02*
X62276190Y-133452380D01*
X62371428Y-133595238D01*
X62466666Y-133690476D01*
X62561904Y-133738095D01*
X61609523Y-133547619D02*
X61561904Y-133500000D01*
X61466666Y-133452380D01*
X61228571Y-133452380D01*
X61133333Y-133500000D01*
X61085714Y-133547619D01*
X61038095Y-133642857D01*
X61038095Y-133738095D01*
X61085714Y-133880952D01*
X61657142Y-134452380D01*
X61038095Y-134452380D01*
%TO.C,R11*%
X65052380Y-136357142D02*
X64576190Y-136023809D01*
X65052380Y-135785714D02*
X64052380Y-135785714D01*
X64052380Y-136166666D01*
X64100000Y-136261904D01*
X64147619Y-136309523D01*
X64242857Y-136357142D01*
X64385714Y-136357142D01*
X64480952Y-136309523D01*
X64528571Y-136261904D01*
X64576190Y-136166666D01*
X64576190Y-135785714D01*
X65052380Y-137309523D02*
X65052380Y-136738095D01*
X65052380Y-137023809D02*
X64052380Y-137023809D01*
X64195238Y-136928571D01*
X64290476Y-136833333D01*
X64338095Y-136738095D01*
X65052380Y-138261904D02*
X65052380Y-137690476D01*
X65052380Y-137976190D02*
X64052380Y-137976190D01*
X64195238Y-137880952D01*
X64290476Y-137785714D01*
X64338095Y-137690476D01*
%TO.C,D1*%
X112738095Y-111952380D02*
X112738095Y-110952380D01*
X112500000Y-110952380D01*
X112357142Y-111000000D01*
X112261904Y-111095238D01*
X112214285Y-111190476D01*
X112166666Y-111380952D01*
X112166666Y-111523809D01*
X112214285Y-111714285D01*
X112261904Y-111809523D01*
X112357142Y-111904761D01*
X112500000Y-111952380D01*
X112738095Y-111952380D01*
X111214285Y-111952380D02*
X111785714Y-111952380D01*
X111500000Y-111952380D02*
X111500000Y-110952380D01*
X111595238Y-111095238D01*
X111690476Y-111190476D01*
X111785714Y-111238095D01*
D11*
%TO.C,IC2*%
X79239761Y-127574523D02*
X79239761Y-126304523D01*
X77909285Y-127453571D02*
X77969761Y-127514047D01*
X78151190Y-127574523D01*
X78272142Y-127574523D01*
X78453571Y-127514047D01*
X78574523Y-127393095D01*
X78635000Y-127272142D01*
X78695476Y-127030238D01*
X78695476Y-126848809D01*
X78635000Y-126606904D01*
X78574523Y-126485952D01*
X78453571Y-126365000D01*
X78272142Y-126304523D01*
X78151190Y-126304523D01*
X77969761Y-126365000D01*
X77909285Y-126425476D01*
X77425476Y-126425476D02*
X77365000Y-126365000D01*
X77244047Y-126304523D01*
X76941666Y-126304523D01*
X76820714Y-126365000D01*
X76760238Y-126425476D01*
X76699761Y-126546428D01*
X76699761Y-126667380D01*
X76760238Y-126848809D01*
X77485952Y-127574523D01*
X76699761Y-127574523D01*
D10*
%TO.C,C2*%
X104166666Y-142357142D02*
X104214285Y-142404761D01*
X104357142Y-142452380D01*
X104452380Y-142452380D01*
X104595238Y-142404761D01*
X104690476Y-142309523D01*
X104738095Y-142214285D01*
X104785714Y-142023809D01*
X104785714Y-141880952D01*
X104738095Y-141690476D01*
X104690476Y-141595238D01*
X104595238Y-141500000D01*
X104452380Y-141452380D01*
X104357142Y-141452380D01*
X104214285Y-141500000D01*
X104166666Y-141547619D01*
X103785714Y-141547619D02*
X103738095Y-141500000D01*
X103642857Y-141452380D01*
X103404761Y-141452380D01*
X103309523Y-141500000D01*
X103261904Y-141547619D01*
X103214285Y-141642857D01*
X103214285Y-141738095D01*
X103261904Y-141880952D01*
X103833333Y-142452380D01*
X103214285Y-142452380D01*
%TO.C,R23*%
X57352380Y-140157142D02*
X56876190Y-139823809D01*
X57352380Y-139585714D02*
X56352380Y-139585714D01*
X56352380Y-139966666D01*
X56400000Y-140061904D01*
X56447619Y-140109523D01*
X56542857Y-140157142D01*
X56685714Y-140157142D01*
X56780952Y-140109523D01*
X56828571Y-140061904D01*
X56876190Y-139966666D01*
X56876190Y-139585714D01*
X56447619Y-140538095D02*
X56400000Y-140585714D01*
X56352380Y-140680952D01*
X56352380Y-140919047D01*
X56400000Y-141014285D01*
X56447619Y-141061904D01*
X56542857Y-141109523D01*
X56638095Y-141109523D01*
X56780952Y-141061904D01*
X57352380Y-140490476D01*
X57352380Y-141109523D01*
X56352380Y-141442857D02*
X56352380Y-142061904D01*
X56733333Y-141728571D01*
X56733333Y-141871428D01*
X56780952Y-141966666D01*
X56828571Y-142014285D01*
X56923809Y-142061904D01*
X57161904Y-142061904D01*
X57257142Y-142014285D01*
X57304761Y-141966666D01*
X57352380Y-141871428D01*
X57352380Y-141585714D01*
X57304761Y-141490476D01*
X57257142Y-141442857D01*
%TO.C,R28*%
X97042857Y-114778630D02*
X97376190Y-114302440D01*
X97614285Y-114778630D02*
X97614285Y-113778630D01*
X97233333Y-113778630D01*
X97138095Y-113826250D01*
X97090476Y-113873869D01*
X97042857Y-113969107D01*
X97042857Y-114111964D01*
X97090476Y-114207202D01*
X97138095Y-114254821D01*
X97233333Y-114302440D01*
X97614285Y-114302440D01*
X96661904Y-113873869D02*
X96614285Y-113826250D01*
X96519047Y-113778630D01*
X96280952Y-113778630D01*
X96185714Y-113826250D01*
X96138095Y-113873869D01*
X96090476Y-113969107D01*
X96090476Y-114064345D01*
X96138095Y-114207202D01*
X96709523Y-114778630D01*
X96090476Y-114778630D01*
X95519047Y-114207202D02*
X95614285Y-114159583D01*
X95661904Y-114111964D01*
X95709523Y-114016726D01*
X95709523Y-113969107D01*
X95661904Y-113873869D01*
X95614285Y-113826250D01*
X95519047Y-113778630D01*
X95328571Y-113778630D01*
X95233333Y-113826250D01*
X95185714Y-113873869D01*
X95138095Y-113969107D01*
X95138095Y-114016726D01*
X95185714Y-114111964D01*
X95233333Y-114159583D01*
X95328571Y-114207202D01*
X95519047Y-114207202D01*
X95614285Y-114254821D01*
X95661904Y-114302440D01*
X95709523Y-114397678D01*
X95709523Y-114588154D01*
X95661904Y-114683392D01*
X95614285Y-114731011D01*
X95519047Y-114778630D01*
X95328571Y-114778630D01*
X95233333Y-114731011D01*
X95185714Y-114683392D01*
X95138095Y-114588154D01*
X95138095Y-114397678D01*
X95185714Y-114302440D01*
X95233333Y-114254821D01*
X95328571Y-114207202D01*
%TO.C,R37*%
X52342857Y-142552380D02*
X52676190Y-142076190D01*
X52914285Y-142552380D02*
X52914285Y-141552380D01*
X52533333Y-141552380D01*
X52438095Y-141600000D01*
X52390476Y-141647619D01*
X52342857Y-141742857D01*
X52342857Y-141885714D01*
X52390476Y-141980952D01*
X52438095Y-142028571D01*
X52533333Y-142076190D01*
X52914285Y-142076190D01*
X52009523Y-141552380D02*
X51390476Y-141552380D01*
X51723809Y-141933333D01*
X51580952Y-141933333D01*
X51485714Y-141980952D01*
X51438095Y-142028571D01*
X51390476Y-142123809D01*
X51390476Y-142361904D01*
X51438095Y-142457142D01*
X51485714Y-142504761D01*
X51580952Y-142552380D01*
X51866666Y-142552380D01*
X51961904Y-142504761D01*
X52009523Y-142457142D01*
X51057142Y-141552380D02*
X50390476Y-141552380D01*
X50819047Y-142552380D01*
%TO.C,J11*%
X103409523Y-126582380D02*
X103409523Y-127296666D01*
X103457142Y-127439523D01*
X103552380Y-127534761D01*
X103695238Y-127582380D01*
X103790476Y-127582380D01*
X102409523Y-127582380D02*
X102980952Y-127582380D01*
X102695238Y-127582380D02*
X102695238Y-126582380D01*
X102790476Y-126725238D01*
X102885714Y-126820476D01*
X102980952Y-126868095D01*
X101457142Y-127582380D02*
X102028571Y-127582380D01*
X101742857Y-127582380D02*
X101742857Y-126582380D01*
X101838095Y-126725238D01*
X101933333Y-126820476D01*
X102028571Y-126868095D01*
%TO.C,R33*%
X54852380Y-137957142D02*
X54376190Y-137623809D01*
X54852380Y-137385714D02*
X53852380Y-137385714D01*
X53852380Y-137766666D01*
X53900000Y-137861904D01*
X53947619Y-137909523D01*
X54042857Y-137957142D01*
X54185714Y-137957142D01*
X54280952Y-137909523D01*
X54328571Y-137861904D01*
X54376190Y-137766666D01*
X54376190Y-137385714D01*
X53852380Y-138290476D02*
X53852380Y-138909523D01*
X54233333Y-138576190D01*
X54233333Y-138719047D01*
X54280952Y-138814285D01*
X54328571Y-138861904D01*
X54423809Y-138909523D01*
X54661904Y-138909523D01*
X54757142Y-138861904D01*
X54804761Y-138814285D01*
X54852380Y-138719047D01*
X54852380Y-138433333D01*
X54804761Y-138338095D01*
X54757142Y-138290476D01*
X53852380Y-139242857D02*
X53852380Y-139861904D01*
X54233333Y-139528571D01*
X54233333Y-139671428D01*
X54280952Y-139766666D01*
X54328571Y-139814285D01*
X54423809Y-139861904D01*
X54661904Y-139861904D01*
X54757142Y-139814285D01*
X54804761Y-139766666D01*
X54852380Y-139671428D01*
X54852380Y-139385714D01*
X54804761Y-139290476D01*
X54757142Y-139242857D01*
%TO.C,C3*%
X105137142Y-134233333D02*
X105184761Y-134185714D01*
X105232380Y-134042857D01*
X105232380Y-133947619D01*
X105184761Y-133804761D01*
X105089523Y-133709523D01*
X104994285Y-133661904D01*
X104803809Y-133614285D01*
X104660952Y-133614285D01*
X104470476Y-133661904D01*
X104375238Y-133709523D01*
X104280000Y-133804761D01*
X104232380Y-133947619D01*
X104232380Y-134042857D01*
X104280000Y-134185714D01*
X104327619Y-134233333D01*
X104232380Y-134566666D02*
X104232380Y-135185714D01*
X104613333Y-134852380D01*
X104613333Y-134995238D01*
X104660952Y-135090476D01*
X104708571Y-135138095D01*
X104803809Y-135185714D01*
X105041904Y-135185714D01*
X105137142Y-135138095D01*
X105184761Y-135090476D01*
X105232380Y-134995238D01*
X105232380Y-134709523D01*
X105184761Y-134614285D01*
X105137142Y-134566666D01*
%TO.C,R3*%
X58426149Y-113681240D02*
X58759483Y-113205050D01*
X58997578Y-113681240D02*
X58997578Y-112681240D01*
X58616625Y-112681240D01*
X58521387Y-112728860D01*
X58473768Y-112776479D01*
X58426149Y-112871717D01*
X58426149Y-113014574D01*
X58473768Y-113109812D01*
X58521387Y-113157431D01*
X58616625Y-113205050D01*
X58997578Y-113205050D01*
X58092816Y-112681240D02*
X57473768Y-112681240D01*
X57807102Y-113062193D01*
X57664244Y-113062193D01*
X57569006Y-113109812D01*
X57521387Y-113157431D01*
X57473768Y-113252669D01*
X57473768Y-113490764D01*
X57521387Y-113586002D01*
X57569006Y-113633621D01*
X57664244Y-113681240D01*
X57949959Y-113681240D01*
X58045197Y-113633621D01*
X58092816Y-113586002D01*
%TO.C,JP3*%
X65177380Y-114091666D02*
X65891666Y-114091666D01*
X66034523Y-114044047D01*
X66129761Y-113948809D01*
X66177380Y-113805952D01*
X66177380Y-113710714D01*
X66177380Y-114567857D02*
X65177380Y-114567857D01*
X65177380Y-114948809D01*
X65225000Y-115044047D01*
X65272619Y-115091666D01*
X65367857Y-115139285D01*
X65510714Y-115139285D01*
X65605952Y-115091666D01*
X65653571Y-115044047D01*
X65701190Y-114948809D01*
X65701190Y-114567857D01*
X65177380Y-115472619D02*
X65177380Y-116091666D01*
X65558333Y-115758333D01*
X65558333Y-115901190D01*
X65605952Y-115996428D01*
X65653571Y-116044047D01*
X65748809Y-116091666D01*
X65986904Y-116091666D01*
X66082142Y-116044047D01*
X66129761Y-115996428D01*
X66177380Y-115901190D01*
X66177380Y-115615476D01*
X66129761Y-115520238D01*
X66082142Y-115472619D01*
%TO.C,R31*%
X115442857Y-149652380D02*
X115776190Y-149176190D01*
X116014285Y-149652380D02*
X116014285Y-148652380D01*
X115633333Y-148652380D01*
X115538095Y-148700000D01*
X115490476Y-148747619D01*
X115442857Y-148842857D01*
X115442857Y-148985714D01*
X115490476Y-149080952D01*
X115538095Y-149128571D01*
X115633333Y-149176190D01*
X116014285Y-149176190D01*
X115109523Y-148652380D02*
X114490476Y-148652380D01*
X114823809Y-149033333D01*
X114680952Y-149033333D01*
X114585714Y-149080952D01*
X114538095Y-149128571D01*
X114490476Y-149223809D01*
X114490476Y-149461904D01*
X114538095Y-149557142D01*
X114585714Y-149604761D01*
X114680952Y-149652380D01*
X114966666Y-149652380D01*
X115061904Y-149604761D01*
X115109523Y-149557142D01*
X113538095Y-149652380D02*
X114109523Y-149652380D01*
X113823809Y-149652380D02*
X113823809Y-148652380D01*
X113919047Y-148795238D01*
X114014285Y-148890476D01*
X114109523Y-148938095D01*
%TO.C,C26*%
X29557142Y-153757142D02*
X29604761Y-153709523D01*
X29652380Y-153566666D01*
X29652380Y-153471428D01*
X29604761Y-153328571D01*
X29509523Y-153233333D01*
X29414285Y-153185714D01*
X29223809Y-153138095D01*
X29080952Y-153138095D01*
X28890476Y-153185714D01*
X28795238Y-153233333D01*
X28700000Y-153328571D01*
X28652380Y-153471428D01*
X28652380Y-153566666D01*
X28700000Y-153709523D01*
X28747619Y-153757142D01*
X28747619Y-154138095D02*
X28700000Y-154185714D01*
X28652380Y-154280952D01*
X28652380Y-154519047D01*
X28700000Y-154614285D01*
X28747619Y-154661904D01*
X28842857Y-154709523D01*
X28938095Y-154709523D01*
X29080952Y-154661904D01*
X29652380Y-154090476D01*
X29652380Y-154709523D01*
X28652380Y-155566666D02*
X28652380Y-155376190D01*
X28700000Y-155280952D01*
X28747619Y-155233333D01*
X28890476Y-155138095D01*
X29080952Y-155090476D01*
X29461904Y-155090476D01*
X29557142Y-155138095D01*
X29604761Y-155185714D01*
X29652380Y-155280952D01*
X29652380Y-155471428D01*
X29604761Y-155566666D01*
X29557142Y-155614285D01*
X29461904Y-155661904D01*
X29223809Y-155661904D01*
X29128571Y-155614285D01*
X29080952Y-155566666D01*
X29033333Y-155471428D01*
X29033333Y-155280952D01*
X29080952Y-155185714D01*
X29128571Y-155138095D01*
X29223809Y-155090476D01*
%TO.C,R8*%
X50252380Y-146933333D02*
X49776190Y-146600000D01*
X50252380Y-146361904D02*
X49252380Y-146361904D01*
X49252380Y-146742857D01*
X49300000Y-146838095D01*
X49347619Y-146885714D01*
X49442857Y-146933333D01*
X49585714Y-146933333D01*
X49680952Y-146885714D01*
X49728571Y-146838095D01*
X49776190Y-146742857D01*
X49776190Y-146361904D01*
X49680952Y-147504761D02*
X49633333Y-147409523D01*
X49585714Y-147361904D01*
X49490476Y-147314285D01*
X49442857Y-147314285D01*
X49347619Y-147361904D01*
X49300000Y-147409523D01*
X49252380Y-147504761D01*
X49252380Y-147695238D01*
X49300000Y-147790476D01*
X49347619Y-147838095D01*
X49442857Y-147885714D01*
X49490476Y-147885714D01*
X49585714Y-147838095D01*
X49633333Y-147790476D01*
X49680952Y-147695238D01*
X49680952Y-147504761D01*
X49728571Y-147409523D01*
X49776190Y-147361904D01*
X49871428Y-147314285D01*
X50061904Y-147314285D01*
X50157142Y-147361904D01*
X50204761Y-147409523D01*
X50252380Y-147504761D01*
X50252380Y-147695238D01*
X50204761Y-147790476D01*
X50157142Y-147838095D01*
X50061904Y-147885714D01*
X49871428Y-147885714D01*
X49776190Y-147838095D01*
X49728571Y-147790476D01*
X49680952Y-147695238D01*
%TO.C,R13*%
X63752380Y-127357142D02*
X63276190Y-127023809D01*
X63752380Y-126785714D02*
X62752380Y-126785714D01*
X62752380Y-127166666D01*
X62800000Y-127261904D01*
X62847619Y-127309523D01*
X62942857Y-127357142D01*
X63085714Y-127357142D01*
X63180952Y-127309523D01*
X63228571Y-127261904D01*
X63276190Y-127166666D01*
X63276190Y-126785714D01*
X63752380Y-128309523D02*
X63752380Y-127738095D01*
X63752380Y-128023809D02*
X62752380Y-128023809D01*
X62895238Y-127928571D01*
X62990476Y-127833333D01*
X63038095Y-127738095D01*
X62752380Y-128642857D02*
X62752380Y-129261904D01*
X63133333Y-128928571D01*
X63133333Y-129071428D01*
X63180952Y-129166666D01*
X63228571Y-129214285D01*
X63323809Y-129261904D01*
X63561904Y-129261904D01*
X63657142Y-129214285D01*
X63704761Y-129166666D01*
X63752380Y-129071428D01*
X63752380Y-128785714D01*
X63704761Y-128690476D01*
X63657142Y-128642857D01*
%TO.C,C15*%
X65257142Y-140357142D02*
X65304761Y-140309523D01*
X65352380Y-140166666D01*
X65352380Y-140071428D01*
X65304761Y-139928571D01*
X65209523Y-139833333D01*
X65114285Y-139785714D01*
X64923809Y-139738095D01*
X64780952Y-139738095D01*
X64590476Y-139785714D01*
X64495238Y-139833333D01*
X64400000Y-139928571D01*
X64352380Y-140071428D01*
X64352380Y-140166666D01*
X64400000Y-140309523D01*
X64447619Y-140357142D01*
X65352380Y-141309523D02*
X65352380Y-140738095D01*
X65352380Y-141023809D02*
X64352380Y-141023809D01*
X64495238Y-140928571D01*
X64590476Y-140833333D01*
X64638095Y-140738095D01*
X64352380Y-142214285D02*
X64352380Y-141738095D01*
X64828571Y-141690476D01*
X64780952Y-141738095D01*
X64733333Y-141833333D01*
X64733333Y-142071428D01*
X64780952Y-142166666D01*
X64828571Y-142214285D01*
X64923809Y-142261904D01*
X65161904Y-142261904D01*
X65257142Y-142214285D01*
X65304761Y-142166666D01*
X65352380Y-142071428D01*
X65352380Y-141833333D01*
X65304761Y-141738095D01*
X65257142Y-141690476D01*
%TO.C,R1*%
X89466666Y-115352380D02*
X89800000Y-114876190D01*
X90038095Y-115352380D02*
X90038095Y-114352380D01*
X89657142Y-114352380D01*
X89561904Y-114400000D01*
X89514285Y-114447619D01*
X89466666Y-114542857D01*
X89466666Y-114685714D01*
X89514285Y-114780952D01*
X89561904Y-114828571D01*
X89657142Y-114876190D01*
X90038095Y-114876190D01*
X88514285Y-115352380D02*
X89085714Y-115352380D01*
X88800000Y-115352380D02*
X88800000Y-114352380D01*
X88895238Y-114495238D01*
X88990476Y-114590476D01*
X89085714Y-114638095D01*
D11*
%TO.C,IC4*%
X39709523Y-128760238D02*
X38439523Y-128760238D01*
X39588571Y-130090714D02*
X39649047Y-130030238D01*
X39709523Y-129848809D01*
X39709523Y-129727857D01*
X39649047Y-129546428D01*
X39528095Y-129425476D01*
X39407142Y-129365000D01*
X39165238Y-129304523D01*
X38983809Y-129304523D01*
X38741904Y-129365000D01*
X38620952Y-129425476D01*
X38500000Y-129546428D01*
X38439523Y-129727857D01*
X38439523Y-129848809D01*
X38500000Y-130030238D01*
X38560476Y-130090714D01*
X38862857Y-131179285D02*
X39709523Y-131179285D01*
X38379047Y-130876904D02*
X39286190Y-130574523D01*
X39286190Y-131360714D01*
D12*
%TO.C,Q1*%
X56000000Y-130360000D02*
X56650000Y-130360000D01*
X56000000Y-127240000D02*
X55350000Y-127240000D01*
X56000000Y-127240000D02*
X57675000Y-127240000D01*
X56000000Y-130360000D02*
X55350000Y-130360000D01*
%TO.C,R24*%
X112422500Y-138045276D02*
X112422500Y-138554724D01*
X111377500Y-138045276D02*
X111377500Y-138554724D01*
%TO.C,R35*%
X32365000Y-130272936D02*
X32365000Y-130727064D01*
X33835000Y-130272936D02*
X33835000Y-130727064D01*
%TO.C,R5*%
X58542224Y-120522500D02*
X58032776Y-120522500D01*
X58542224Y-119477500D02*
X58032776Y-119477500D01*
%TO.C,C7*%
X52718618Y-151185824D02*
X52196114Y-151185824D01*
X52718618Y-149715824D02*
X52196114Y-149715824D01*
%TO.C,R7*%
X62207776Y-120422500D02*
X62717224Y-120422500D01*
X62207776Y-119377500D02*
X62717224Y-119377500D01*
%TO.C,R18*%
X72577500Y-123145276D02*
X72577500Y-123654724D01*
X73622500Y-123145276D02*
X73622500Y-123654724D01*
%TO.C,C27*%
X28053699Y-157470796D02*
X28053699Y-157993300D01*
X29523699Y-157470796D02*
X29523699Y-157993300D01*
%TO.C,R20*%
X77822936Y-122010000D02*
X82177064Y-122010000D01*
X77822936Y-118590000D02*
X82177064Y-118590000D01*
%TO.C,U2*%
X33000000Y-110440000D02*
X34950000Y-110440000D01*
X33000000Y-115560000D02*
X29550000Y-115560000D01*
X33000000Y-115560000D02*
X34950000Y-115560000D01*
X33000000Y-110440000D02*
X31050000Y-110440000D01*
%TO.C,R15*%
X66542224Y-124677500D02*
X66032776Y-124677500D01*
X66542224Y-125722500D02*
X66032776Y-125722500D01*
%TO.C,C4*%
X62723752Y-121165000D02*
X62201248Y-121165000D01*
X62723752Y-122635000D02*
X62201248Y-122635000D01*
%TO.C,C5*%
X58485714Y-122626118D02*
X57963210Y-122626118D01*
X58485714Y-121156118D02*
X57963210Y-121156118D01*
%TO.C,R14*%
X66032776Y-127222500D02*
X66542224Y-127222500D01*
X66032776Y-126177500D02*
X66542224Y-126177500D01*
%TO.C,R21*%
X94860436Y-118740000D02*
X99214564Y-118740000D01*
X94860436Y-122160000D02*
X99214564Y-122160000D01*
%TO.C,R16*%
X51827064Y-129535000D02*
X51372936Y-129535000D01*
X51827064Y-128065000D02*
X51372936Y-128065000D01*
%TO.C,J10*%
X87330000Y-124398209D02*
X87330000Y-123068209D01*
X87330000Y-125668209D02*
X87330000Y-125728209D01*
X87330000Y-123068209D02*
X86000000Y-123068209D01*
X87330000Y-125668209D02*
X84670000Y-125668209D01*
X84670000Y-125668209D02*
X84670000Y-125728209D01*
X87330000Y-125728209D02*
X84670000Y-125728209D01*
%TO.C,C8*%
X38676248Y-111965000D02*
X39198752Y-111965000D01*
X38676248Y-113435000D02*
X39198752Y-113435000D01*
%TO.C,R39*%
X34172936Y-136135000D02*
X34627064Y-136135000D01*
X34172936Y-134665000D02*
X34627064Y-134665000D01*
%TO.C,C16*%
X106838748Y-152065000D02*
X107361252Y-152065000D01*
X106838748Y-153535000D02*
X107361252Y-153535000D01*
%TO.C,JP6*%
X109057500Y-117000000D02*
X109357500Y-117300000D01*
X109057500Y-117000000D02*
X109357500Y-116700000D01*
X108857500Y-120350000D02*
X108857500Y-116250000D01*
X109357500Y-116700000D02*
X109357500Y-117300000D01*
X106857500Y-120350000D02*
X108857500Y-120350000D01*
X108857500Y-116250000D02*
X106857500Y-116250000D01*
X106857500Y-116250000D02*
X106857500Y-120350000D01*
%TO.C,R19*%
X90560000Y-123195276D02*
X90560000Y-123704724D01*
X89515000Y-123195276D02*
X89515000Y-123704724D01*
%TO.C,C1*%
X92861252Y-117435000D02*
X92338748Y-117435000D01*
X92861252Y-115965000D02*
X92338748Y-115965000D01*
%TO.C,R10*%
X52775868Y-149322500D02*
X52266420Y-149322500D01*
X52775868Y-148277500D02*
X52266420Y-148277500D01*
%TO.C,U6*%
X37500000Y-148240000D02*
X39450000Y-148240000D01*
X37500000Y-153360000D02*
X39450000Y-153360000D01*
X37500000Y-153360000D02*
X34050000Y-153360000D01*
X37500000Y-148240000D02*
X35550000Y-148240000D01*
%TO.C,C10*%
X66748752Y-122765000D02*
X66226248Y-122765000D01*
X66748752Y-124235000D02*
X66226248Y-124235000D01*
%TO.C,R6*%
X62719452Y-117756360D02*
X62210004Y-117756360D01*
X62719452Y-118801360D02*
X62210004Y-118801360D01*
%TO.C,R17*%
X55522500Y-125342224D02*
X55522500Y-124832776D01*
X54477500Y-125342224D02*
X54477500Y-124832776D01*
%TO.C,R25*%
X110922500Y-138554724D02*
X110922500Y-138045276D01*
X109877500Y-138554724D02*
X109877500Y-138045276D01*
%TO.C,R36*%
X50754724Y-132177500D02*
X50245276Y-132177500D01*
X50754724Y-133222500D02*
X50245276Y-133222500D01*
%TO.C,JP1*%
X45450000Y-153800000D02*
X45450000Y-155750000D01*
X49600000Y-156000000D02*
X49900000Y-156300000D01*
X50950000Y-153800000D02*
X45450000Y-153800000D01*
X49300000Y-156300000D02*
X49600000Y-156000000D01*
X50950000Y-155750000D02*
X50950000Y-153800000D01*
X45450000Y-155750000D02*
X50950000Y-155750000D01*
X49900000Y-156300000D02*
X49300000Y-156300000D01*
%TO.C,R38*%
X32465000Y-139527064D02*
X32465000Y-139072936D01*
X33935000Y-139527064D02*
X33935000Y-139072936D01*
%TO.C,Q3*%
X41600000Y-119100000D02*
X41500000Y-119200000D01*
X46500000Y-119200000D02*
X46400000Y-119100000D01*
X41500000Y-119200000D02*
X41500000Y-124800000D01*
X46400000Y-124900000D02*
X46500000Y-124800000D01*
X46400000Y-125650000D02*
X46400000Y-124900000D01*
X41500000Y-124800000D02*
X41600000Y-124900000D01*
X46500000Y-124800000D02*
X46500000Y-119200000D01*
%TO.C,Q6*%
X111100000Y-116140000D02*
X110450000Y-116140000D01*
X111100000Y-119260000D02*
X109425000Y-119260000D01*
X111100000Y-119260000D02*
X111750000Y-119260000D01*
X111100000Y-116140000D02*
X111750000Y-116140000D01*
%TO.C,C13*%
X74265000Y-123561252D02*
X74265000Y-123038748D01*
X75735000Y-123561252D02*
X75735000Y-123038748D01*
%TO.C,C18*%
X111161252Y-136535000D02*
X110638748Y-136535000D01*
X111161252Y-135065000D02*
X110638748Y-135065000D01*
%TO.C,Q4*%
X82000000Y-125860000D02*
X82650000Y-125860000D01*
X82000000Y-125860000D02*
X80325000Y-125860000D01*
X82000000Y-122740000D02*
X82650000Y-122740000D01*
X82000000Y-122740000D02*
X81350000Y-122740000D01*
%TO.C,C25*%
X34565000Y-138038748D02*
X34565000Y-138561252D01*
X36035000Y-138038748D02*
X36035000Y-138561252D01*
%TO.C,Q2*%
X52400000Y-125650000D02*
X52400000Y-124900000D01*
X47500000Y-119200000D02*
X47500000Y-124800000D01*
X52400000Y-124900000D02*
X52500000Y-124800000D01*
X52500000Y-124800000D02*
X52500000Y-119200000D01*
X47600000Y-119100000D02*
X47500000Y-119200000D01*
X52500000Y-119200000D02*
X52400000Y-119100000D01*
X47500000Y-124800000D02*
X47600000Y-124900000D01*
%TO.C,Q5*%
X99037500Y-122890000D02*
X99687500Y-122890000D01*
X99037500Y-126010000D02*
X97362500Y-126010000D01*
X99037500Y-122890000D02*
X98387500Y-122890000D01*
X99037500Y-126010000D02*
X99687500Y-126010000D01*
%TO.C,R34*%
X33872936Y-128235000D02*
X34327064Y-128235000D01*
X33872936Y-126765000D02*
X34327064Y-126765000D01*
D13*
%TO.C,IC5*%
X36650000Y-136500000D02*
X36650000Y-139700000D01*
X41550000Y-139700000D02*
X41550000Y-136500000D01*
X41550000Y-136500000D02*
X36650000Y-136500000D01*
X41705000Y-141575000D02*
X41705000Y-140050000D01*
X36650000Y-139700000D02*
X41550000Y-139700000D01*
D12*
%TO.C,R26*%
X107554724Y-155122500D02*
X107045276Y-155122500D01*
X107554724Y-154077500D02*
X107045276Y-154077500D01*
D13*
%TO.C,IC3*%
X94712500Y-123000000D02*
X94712500Y-125900000D01*
X94712500Y-125900000D02*
X95362500Y-125900000D01*
X95362500Y-123000000D02*
X94712500Y-123000000D01*
X95362500Y-125900000D02*
X95362500Y-123000000D01*
X93212500Y-126050000D02*
X94362500Y-126050000D01*
D12*
%TO.C,R30*%
X114819977Y-118888174D02*
X114310529Y-118888174D01*
X114819977Y-117843174D02*
X114310529Y-117843174D01*
%TO.C,C19*%
X33137970Y-119725647D02*
X33660474Y-119725647D01*
X33137970Y-118255647D02*
X33660474Y-118255647D01*
%TO.C,C20*%
X114338748Y-152065000D02*
X114861252Y-152065000D01*
X114338748Y-153535000D02*
X114861252Y-153535000D01*
%TO.C,C22*%
X33138748Y-116265000D02*
X33661252Y-116265000D01*
X33138748Y-117735000D02*
X33661252Y-117735000D01*
%TO.C,R22*%
X60877500Y-140645276D02*
X60877500Y-141154724D01*
X61922500Y-140645276D02*
X61922500Y-141154724D01*
%TO.C,C9*%
X62035000Y-130898752D02*
X62035000Y-130376248D01*
X60565000Y-130898752D02*
X60565000Y-130376248D01*
%TO.C,R9*%
X50273388Y-149498244D02*
X50273388Y-150007692D01*
X49228388Y-149498244D02*
X49228388Y-150007692D01*
%TO.C,C17*%
X110638748Y-152065000D02*
X111161252Y-152065000D01*
X110638748Y-153535000D02*
X111161252Y-153535000D01*
%TO.C,R4*%
X55180791Y-118911465D02*
X55180791Y-119420913D01*
X56225791Y-118911465D02*
X56225791Y-119420913D01*
%TO.C,R27*%
X111154724Y-153977500D02*
X110645276Y-153977500D01*
X111154724Y-155022500D02*
X110645276Y-155022500D01*
D10*
%TO.C,U3*%
X62025000Y-134675000D02*
X61750000Y-134675000D01*
X58775000Y-134675000D02*
X59050000Y-134675000D01*
X62025000Y-137925000D02*
X61850000Y-137925000D01*
X58775000Y-137925000D02*
X59050000Y-137925000D01*
X62025000Y-137925000D02*
X62025000Y-134675000D01*
X61850000Y-137925000D02*
X61850000Y-139000000D01*
X58775000Y-137925000D02*
X58775000Y-134675000D01*
D12*
%TO.C,C6*%
X37765000Y-116576248D02*
X37765000Y-117098752D01*
X39235000Y-116576248D02*
X39235000Y-117098752D01*
%TO.C,R29*%
X99445276Y-115233750D02*
X99954724Y-115233750D01*
X99445276Y-116278750D02*
X99954724Y-116278750D01*
%TO.C,R32*%
X53222500Y-134845276D02*
X53222500Y-135354724D01*
X52177500Y-134845276D02*
X52177500Y-135354724D01*
%TO.C,C11*%
X43635000Y-153838748D02*
X43635000Y-154361252D01*
X42165000Y-153838748D02*
X42165000Y-154361252D01*
D13*
%TO.C,IC1*%
X83100000Y-134800000D02*
X83100000Y-128050000D01*
D14*
X101900000Y-135540000D02*
X101900000Y-135540000D01*
D13*
X83100000Y-128050000D02*
X101100000Y-128050000D01*
D14*
X102000000Y-135540000D02*
X102000000Y-135540000D01*
D13*
X101100000Y-128050000D02*
X101100000Y-134800000D01*
D14*
X102000000Y-135540000D02*
G75*
G03*
X101900000Y-135540000I-50000J0D01*
G01*
X101900000Y-135540000D02*
G75*
G03*
X102000000Y-135540000I50000J0D01*
G01*
D12*
%TO.C,C12*%
X43238748Y-150535000D02*
X43761252Y-150535000D01*
X43238748Y-149065000D02*
X43761252Y-149065000D01*
%TO.C,C23*%
X24065000Y-157476248D02*
X24065000Y-157998752D01*
X25535000Y-157476248D02*
X25535000Y-157998752D01*
%TO.C,C24*%
X35635000Y-131661252D02*
X35635000Y-131138748D01*
X34165000Y-131661252D02*
X34165000Y-131138748D01*
%TO.C,C14*%
X92772500Y-123711252D02*
X92772500Y-123188748D01*
X91302500Y-123711252D02*
X91302500Y-123188748D01*
%TO.C,R12*%
X63877500Y-132754724D02*
X63877500Y-132245276D01*
X64922500Y-132754724D02*
X64922500Y-132245276D01*
%TO.C,R11*%
X62477500Y-137154724D02*
X62477500Y-136645276D01*
X63522500Y-137154724D02*
X63522500Y-136645276D01*
%TO.C,D1*%
X116400000Y-112350000D02*
X109500000Y-112350000D01*
X116400000Y-112350000D02*
X116400000Y-115650000D01*
X116400000Y-115650000D02*
X109500000Y-115650000D01*
D13*
%TO.C,IC2*%
X77675000Y-122850000D02*
X77675000Y-125750000D01*
X78325000Y-122850000D02*
X77675000Y-122850000D01*
X76175000Y-125900000D02*
X77325000Y-125900000D01*
X78325000Y-125750000D02*
X78325000Y-122850000D01*
X77675000Y-125750000D02*
X78325000Y-125750000D01*
D12*
%TO.C,C2*%
X102440000Y-137988748D02*
X102440000Y-139411252D01*
X105160000Y-137988748D02*
X105160000Y-139411252D01*
%TO.C,R23*%
X60371157Y-141143643D02*
X60371157Y-140634195D01*
X59326157Y-141143643D02*
X59326157Y-140634195D01*
%TO.C,R28*%
X96654724Y-116278750D02*
X96145276Y-116278750D01*
X96654724Y-115233750D02*
X96145276Y-115233750D01*
%TO.C,R37*%
X52054724Y-140277500D02*
X51545276Y-140277500D01*
X52054724Y-141322500D02*
X51545276Y-141322500D01*
%TO.C,J11*%
X103930000Y-123530000D02*
X103930000Y-123470000D01*
X101270000Y-124800000D02*
X101270000Y-126130000D01*
X101270000Y-123470000D02*
X103930000Y-123470000D01*
X101270000Y-126130000D02*
X102600000Y-126130000D01*
X101270000Y-123530000D02*
X103930000Y-123530000D01*
X101270000Y-123530000D02*
X101270000Y-123470000D01*
%TO.C,R33*%
X53222500Y-138145276D02*
X53222500Y-138654724D01*
X52177500Y-138145276D02*
X52177500Y-138654724D01*
%TO.C,C3*%
X102365000Y-134661252D02*
X102365000Y-134138748D01*
X103835000Y-134661252D02*
X103835000Y-134138748D01*
%TO.C,R3*%
X58514207Y-117747478D02*
X58004759Y-117747478D01*
X58514207Y-118792478D02*
X58004759Y-118792478D01*
%TO.C,JP3*%
X68450000Y-111450000D02*
X66500000Y-111450000D01*
X66500000Y-111450000D02*
X66500000Y-116950000D01*
X69000000Y-112500000D02*
X69000000Y-113100000D01*
X69000000Y-113100000D02*
X68700000Y-112800000D01*
X66500000Y-116950000D02*
X68450000Y-116950000D01*
X68450000Y-116950000D02*
X68450000Y-111450000D01*
X68700000Y-112800000D02*
X69000000Y-112500000D01*
%TO.C,R31*%
X114754724Y-155022500D02*
X114245276Y-155022500D01*
X114754724Y-153977500D02*
X114245276Y-153977500D01*
%TO.C,C26*%
X27535000Y-157476248D02*
X27535000Y-157998752D01*
X26065000Y-157476248D02*
X26065000Y-157998752D01*
%TO.C,R8*%
X48755288Y-150040935D02*
X48755288Y-149531487D01*
X47710288Y-150040935D02*
X47710288Y-149531487D01*
%TO.C,R13*%
X62477500Y-131854724D02*
X62477500Y-131345276D01*
X63522500Y-131854724D02*
X63522500Y-131345276D01*
%TO.C,C15*%
X63885801Y-140594423D02*
X63885801Y-141116927D01*
X62415801Y-140594423D02*
X62415801Y-141116927D01*
%TO.C,R1*%
X92245276Y-114377500D02*
X92754724Y-114377500D01*
X92245276Y-115422500D02*
X92754724Y-115422500D01*
D13*
%TO.C,IC4*%
X36685000Y-128400000D02*
X36685000Y-131600000D01*
X36685000Y-131600000D02*
X41585000Y-131600000D01*
X36530000Y-126525000D02*
X36530000Y-128050000D01*
X41585000Y-128400000D02*
X36685000Y-128400000D01*
X41585000Y-131600000D02*
X41585000Y-128400000D01*
%TD*%
M02*
